<svg width="1047" height="424" viewBox="0 0 1047 424" fill="none" xmlns="http://www.w3.org/2000/svg">
<rect x="74" y="90" width="972" height="74" fill="white" stroke="black" stroke-opacity="0.1"/>
<rect x="74" y="16" width="972" height="74" fill="white" stroke="black" stroke-opacity="0.1"/>
<rect x="74" y="164" width="972" height="74" fill="white" stroke="black" stroke-opacity="0.1"/>
<rect x="74" y="238" width="972" height="74" fill="white" stroke="black" stroke-opacity="0.1"/>
<rect x="74" y="312" width="972" height="75" fill="white" stroke="black" stroke-opacity="0.1"/>
<rect x="74" y="16" width="243" height="371" stroke="black" stroke-opacity="0.05"/>
<rect x="560" y="16" width="243" height="371" stroke="black" stroke-opacity="0.05"/>
<rect x="317" y="16" width="243" height="371" stroke="black" stroke-opacity="0.05"/>
<rect x="803" y="16" width="243" height="371" stroke="black" stroke-opacity="0.05"/>
<path d="M157 127.714C157 125.663 158.663 124 160.714 124H191.286C193.337 124 195 125.663 195 127.714V387H157V127.714Z" fill="#526CDB" stroke="white" stroke-width="1.85714"/>
<path d="M643 195.714C643 193.663 644.663 192 646.714 192H677.286C679.337 192 681 193.663 681 195.714V387H643V195.714Z" fill="#526CDB" stroke="white" stroke-width="1.85714"/>
<path d="M886 127.714C886 125.663 887.663 124 889.714 124H920.286C922.337 124 924 125.663 924 127.714V387H886V127.714Z" fill="#526CDB" stroke="white" stroke-width="1.85714"/>
<path d="M195 153.714C195 151.663 196.663 150 198.714 150H229.286C231.337 150 233 151.663 233 153.714V387H195V153.714Z" fill="#CAD3F4" stroke="white" stroke-width="1.85714"/>
<path d="M438 153.714C438 151.663 439.663 150 441.714 150H472.286C474.337 150 476 151.663 476 153.714V387H438V153.714Z" fill="#CAD3F4" stroke="white" stroke-width="1.85714"/>
<path d="M681 127.714C681 125.663 682.663 124 684.714 124H715.286C717.337 124 719 125.663 719 127.714V387H681V127.714Z" fill="#CAD3F4" stroke="white" stroke-width="1.85714"/>
<path d="M924 148.714C924 146.663 925.663 145 927.714 145H958.286C960.337 145 962 146.663 962 148.714V387H924V148.714Z" fill="#CAD3F4" stroke="white" stroke-width="1.85714"/>
<path opacity="0.7" d="M41.0007 162.149L41.0304 162.179C41.2285 162.07 41.4563 161.991 41.7138 161.941C41.9813 161.892 42.2239 161.867 42.4418 161.867C42.8975 161.867 43.3184 161.946 43.7047 162.105C44.1009 162.263 44.4377 162.491 44.715 162.788C45.0022 163.075 45.2251 163.422 45.3836 163.828C45.542 164.234 45.6213 164.68 45.6213 165.165C45.6213 165.68 45.5321 166.141 45.3538 166.547C45.1756 166.953 44.9279 167.3 44.611 167.587C44.294 167.864 43.9177 168.082 43.4818 168.241C43.0559 168.389 42.5954 168.463 42.1001 168.463C41.6049 168.463 41.1394 168.389 40.7036 168.241C40.2777 168.082 39.9062 167.864 39.5893 167.587C39.2723 167.3 39.0247 166.953 38.8464 166.547C38.6681 166.141 38.579 165.68 38.579 165.165C38.579 164.561 38.6731 164.031 38.8613 163.575C39.0495 163.12 39.2872 162.664 39.5744 162.209L42.3676 157.766H43.8236L41.0007 162.149ZM42.1001 162.937C41.7832 162.937 41.486 162.991 41.2087 163.1C40.9314 163.199 40.6887 163.348 40.4807 163.546C40.2826 163.734 40.1241 163.967 40.0053 164.244C39.8864 164.521 39.827 164.828 39.827 165.165C39.827 165.512 39.8864 165.824 40.0053 166.101C40.1241 166.369 40.2826 166.601 40.4807 166.799C40.6887 166.988 40.9314 167.136 41.2087 167.245C41.486 167.344 41.7832 167.394 42.1001 167.394C42.4171 167.394 42.7142 167.344 42.9916 167.245C43.2689 167.136 43.5066 166.988 43.7047 166.799C43.9127 166.601 44.0761 166.369 44.195 166.101C44.3138 165.824 44.3733 165.512 44.3733 165.165C44.3733 164.828 44.3138 164.521 44.195 164.244C44.0761 163.967 43.9127 163.734 43.7047 163.546C43.5066 163.348 43.2689 163.199 42.9916 163.1C42.7142 162.991 42.4171 162.937 42.1001 162.937ZM46.79 163.026C46.79 162.431 46.8395 161.812 46.9386 161.169C47.0376 160.525 47.2209 159.94 47.4883 159.415C47.7557 158.881 48.1172 158.445 48.5729 158.108C49.0384 157.761 49.6327 157.588 50.3557 157.588C51.0788 157.588 51.6681 157.761 52.1237 158.108C52.5892 158.445 52.9557 158.881 53.2231 159.415C53.4906 159.94 53.6738 160.525 53.7728 161.169C53.8719 161.812 53.9214 162.431 53.9214 163.026C53.9214 163.62 53.8719 164.239 53.7728 164.883C53.6738 165.527 53.4906 166.116 53.2231 166.651C52.9557 167.176 52.5892 167.612 52.1237 167.958C51.6681 168.295 51.0788 168.463 50.3557 168.463C49.6327 168.463 49.0384 168.295 48.5729 167.958C48.1172 167.612 47.7557 167.176 47.4883 166.651C47.2209 166.116 47.0376 165.527 46.9386 164.883C46.8395 164.239 46.79 163.62 46.79 163.026ZM48.038 163.026C48.038 163.283 48.0479 163.57 48.0677 163.887C48.0875 164.204 48.1222 164.526 48.1717 164.853C48.2311 165.17 48.3104 165.482 48.4094 165.789C48.5184 166.096 48.657 166.369 48.8254 166.606C49.0037 166.844 49.2167 167.037 49.4643 167.186C49.7119 167.324 50.009 167.394 50.3557 167.394C50.7024 167.394 50.9995 167.324 51.2471 167.186C51.4948 167.037 51.7028 166.844 51.8711 166.606C52.0494 166.369 52.1881 166.096 52.2871 165.789C52.3961 165.482 52.4753 165.17 52.5249 164.853C52.5843 164.526 52.6239 164.204 52.6437 163.887C52.6635 163.57 52.6734 163.283 52.6734 163.026C52.6734 162.768 52.6635 162.481 52.6437 162.164C52.6239 161.847 52.5843 161.53 52.5249 161.213C52.4753 160.886 52.3961 160.569 52.2871 160.262C52.1881 159.955 52.0494 159.683 51.8711 159.445C51.7028 159.207 51.4948 159.019 51.2471 158.881C50.9995 158.732 50.7024 158.658 50.3557 158.658C50.009 158.658 49.7119 158.732 49.4643 158.881C49.2167 159.019 49.0037 159.207 48.8254 159.445C48.657 159.683 48.5184 159.955 48.4094 160.262C48.3104 160.569 48.2311 160.886 48.1717 161.213C48.1222 161.53 48.0875 161.847 48.0677 162.164C48.0479 162.481 48.038 162.768 48.038 163.026ZM55.0456 160.188C55.0456 159.822 55.11 159.48 55.2387 159.163C55.3774 158.846 55.5606 158.574 55.7884 158.346C56.0261 158.108 56.3035 157.925 56.6204 157.796C56.9374 157.657 57.2791 157.588 57.6456 157.588C58.012 157.588 58.3538 157.657 58.6707 157.796C58.9877 157.925 59.26 158.108 59.4879 158.346C59.7256 158.574 59.9088 158.846 60.0376 159.163C60.1762 159.48 60.2456 159.822 60.2456 160.188C60.2456 160.554 60.1762 160.896 60.0376 161.213C59.9088 161.53 59.7256 161.807 59.4879 162.045C59.26 162.273 58.9877 162.456 58.6707 162.595C58.3538 162.724 58.012 162.788 57.6456 162.788C57.2791 162.788 56.9374 162.724 56.6204 162.595C56.3035 162.456 56.0261 162.273 55.7884 162.045C55.5606 161.807 55.3774 161.53 55.2387 161.213C55.11 160.896 55.0456 160.554 55.0456 160.188ZM56.1153 160.188C56.1153 160.396 56.1549 160.594 56.2341 160.782C56.3233 160.961 56.4372 161.124 56.5759 161.273C56.7145 161.411 56.873 161.52 57.0513 161.599C57.2395 161.679 57.4376 161.718 57.6456 161.718C57.8536 161.718 58.0467 161.679 58.225 161.599C58.4132 161.52 58.5766 161.411 58.7153 161.273C58.8539 161.124 58.9629 160.961 59.0421 160.782C59.1313 160.594 59.1759 160.396 59.1759 160.188C59.1759 159.98 59.1313 159.787 59.0421 159.609C58.9629 159.42 58.8539 159.257 58.7153 159.118C58.5766 158.97 58.4132 158.856 58.225 158.777C58.0467 158.697 57.8536 158.658 57.6456 158.658C57.4376 158.658 57.2395 158.697 57.0513 158.777C56.873 158.856 56.7145 158.97 56.5759 159.118C56.4372 159.257 56.3233 159.42 56.2341 159.609C56.1549 159.787 56.1153 159.98 56.1153 160.188ZM61.0924 165.863C61.0924 165.497 61.1568 165.155 61.2856 164.838C61.4242 164.521 61.6075 164.249 61.8353 164.021C62.073 163.783 62.3503 163.6 62.6673 163.471C62.9842 163.333 63.3259 163.263 63.6924 163.263C64.0589 163.263 64.4006 163.333 64.7176 163.471C65.0345 163.6 65.3069 163.783 65.5347 164.021C65.7724 164.249 65.9557 164.521 66.0844 164.838C66.2231 165.155 66.2924 165.497 66.2924 165.863C66.2924 166.23 66.2231 166.572 66.0844 166.889C65.9557 167.206 65.7724 167.483 65.5347 167.721C65.3069 167.948 65.0345 168.132 64.7176 168.27C64.4006 168.399 64.0589 168.463 63.6924 168.463C63.3259 168.463 62.9842 168.399 62.6673 168.27C62.3503 168.132 62.073 167.948 61.8353 167.721C61.6075 167.483 61.4242 167.206 61.2856 166.889C61.1568 166.572 61.0924 166.23 61.0924 165.863ZM62.1621 165.863C62.1621 166.071 62.2018 166.27 62.281 166.458C62.3701 166.636 62.484 166.799 62.6227 166.948C62.7614 167.087 62.9199 167.196 63.0981 167.275C63.2863 167.354 63.4844 167.394 63.6924 167.394C63.9004 167.394 64.0936 167.354 64.2719 167.275C64.46 167.196 64.6235 167.087 64.7621 166.948C64.9008 166.799 65.0098 166.636 65.089 166.458C65.1781 166.27 65.2227 166.071 65.2227 165.863C65.2227 165.655 65.1781 165.462 65.089 165.284C65.0098 165.096 64.9008 164.932 64.7621 164.794C64.6235 164.645 64.46 164.531 64.2719 164.452C64.0936 164.373 63.9004 164.333 63.6924 164.333C63.4844 164.333 63.2863 164.373 63.0981 164.452C62.9199 164.531 62.7614 164.645 62.6227 164.794C62.484 164.932 62.3701 165.096 62.281 165.284C62.2018 165.462 62.1621 165.655 62.1621 165.863ZM63.6033 157.291L64.4204 157.766L57.8239 168.761L57.0067 168.285L63.6033 157.291Z" fill="black"/>
<path opacity="0.7" d="M38.7127 315.433L42.6796 311.57C42.9272 311.333 43.1451 311.115 43.3333 310.917C43.5215 310.709 43.675 310.51 43.7938 310.322C43.9226 310.124 44.0167 309.921 44.0761 309.713C44.1356 309.505 44.1653 309.272 44.1653 309.015C44.1653 308.737 44.1157 308.49 44.0167 308.272C43.9177 308.054 43.779 307.871 43.6007 307.722C43.4323 307.564 43.2293 307.445 42.9916 307.366C42.7638 307.277 42.5161 307.232 42.2487 307.232C41.7138 307.232 41.2731 307.385 40.9264 307.693C40.5798 308 40.3569 308.406 40.2578 308.911L38.9058 308.792C38.9752 308.366 39.1039 307.99 39.2921 307.663C39.4902 307.326 39.7329 307.049 40.0201 306.831C40.3173 306.613 40.6491 306.449 41.0156 306.341C41.382 306.222 41.7782 306.162 42.2041 306.162C42.6399 306.162 43.051 306.227 43.4373 306.355C43.8236 306.474 44.1603 306.653 44.4476 306.89C44.7447 307.128 44.9775 307.425 45.1458 307.782C45.3241 308.138 45.4133 308.549 45.4133 309.015C45.4133 309.431 45.3538 309.807 45.235 310.144C45.126 310.481 44.9725 310.793 44.7744 311.08C44.5862 311.357 44.3683 311.625 44.1207 311.882C43.883 312.13 43.6304 312.377 43.363 312.625L40.1241 315.671V315.701H45.4876V316.859H38.7127V315.433ZM46.79 311.6C46.79 311.006 46.8395 310.387 46.9386 309.743C47.0376 309.099 47.2209 308.515 47.4883 307.99C47.7557 307.455 48.1172 307.019 48.5729 306.682C49.0384 306.336 49.6327 306.162 50.3557 306.162C51.0788 306.162 51.6681 306.336 52.1237 306.682C52.5892 307.019 52.9557 307.455 53.2231 307.99C53.4906 308.515 53.6738 309.099 53.7728 309.743C53.8719 310.387 53.9214 311.006 53.9214 311.6C53.9214 312.194 53.8719 312.813 53.7728 313.457C53.6738 314.101 53.4906 314.69 53.2231 315.225C52.9557 315.75 52.5892 316.186 52.1237 316.533C51.6681 316.869 51.0788 317.038 50.3557 317.038C49.6327 317.038 49.0384 316.869 48.5729 316.533C48.1172 316.186 47.7557 315.75 47.4883 315.225C47.2209 314.69 47.0376 314.101 46.9386 313.457C46.8395 312.813 46.79 312.194 46.79 311.6ZM48.038 311.6C48.038 311.857 48.0479 312.145 48.0677 312.462C48.0875 312.779 48.1222 313.101 48.1717 313.427C48.2311 313.744 48.3104 314.056 48.4094 314.363C48.5184 314.67 48.657 314.943 48.8254 315.181C49.0037 315.418 49.2167 315.611 49.4643 315.76C49.7119 315.899 50.009 315.968 50.3557 315.968C50.7024 315.968 50.9995 315.899 51.2471 315.76C51.4948 315.611 51.7028 315.418 51.8711 315.181C52.0494 314.943 52.1881 314.67 52.2871 314.363C52.3961 314.056 52.4753 313.744 52.5249 313.427C52.5843 313.101 52.6239 312.779 52.6437 312.462C52.6635 312.145 52.6734 311.857 52.6734 311.6C52.6734 311.342 52.6635 311.055 52.6437 310.738C52.6239 310.421 52.5843 310.104 52.5249 309.787C52.4753 309.461 52.3961 309.144 52.2871 308.837C52.1881 308.529 52.0494 308.257 51.8711 308.019C51.7028 307.782 51.4948 307.593 51.2471 307.455C50.9995 307.306 50.7024 307.232 50.3557 307.232C50.009 307.232 49.7119 307.306 49.4643 307.455C49.2167 307.593 49.0037 307.782 48.8254 308.019C48.657 308.257 48.5184 308.529 48.4094 308.837C48.3104 309.144 48.2311 309.461 48.1717 309.787C48.1222 310.104 48.0875 310.421 48.0677 310.738C48.0479 311.055 48.038 311.342 48.038 311.6ZM55.0456 308.762C55.0456 308.396 55.11 308.054 55.2387 307.737C55.3774 307.42 55.5606 307.148 55.7884 306.92C56.0261 306.682 56.3035 306.499 56.6204 306.37C56.9374 306.232 57.2791 306.162 57.6456 306.162C58.012 306.162 58.3538 306.232 58.6707 306.37C58.9877 306.499 59.26 306.682 59.4879 306.92C59.7256 307.148 59.9088 307.42 60.0376 307.737C60.1762 308.054 60.2456 308.396 60.2456 308.762C60.2456 309.129 60.1762 309.47 60.0376 309.787C59.9088 310.104 59.7256 310.382 59.4879 310.619C59.26 310.847 58.9877 311.03 58.6707 311.169C58.3538 311.298 58.012 311.362 57.6456 311.362C57.2791 311.362 56.9374 311.298 56.6204 311.169C56.3035 311.03 56.0261 310.847 55.7884 310.619C55.5606 310.382 55.3774 310.104 55.2387 309.787C55.11 309.47 55.0456 309.129 55.0456 308.762ZM56.1153 308.762C56.1153 308.97 56.1549 309.168 56.2341 309.357C56.3233 309.535 56.4372 309.698 56.5759 309.847C56.7145 309.985 56.873 310.094 57.0513 310.174C57.2395 310.253 57.4376 310.293 57.6456 310.293C57.8536 310.293 58.0467 310.253 58.225 310.174C58.4132 310.094 58.5766 309.985 58.7153 309.847C58.8539 309.698 58.9629 309.535 59.0421 309.357C59.1313 309.168 59.1759 308.97 59.1759 308.762C59.1759 308.554 59.1313 308.361 59.0421 308.183C58.9629 307.995 58.8539 307.831 58.7153 307.693C58.5766 307.544 58.4132 307.43 58.225 307.351C58.0467 307.272 57.8536 307.232 57.6456 307.232C57.4376 307.232 57.2395 307.272 57.0513 307.351C56.873 307.43 56.7145 307.544 56.5759 307.693C56.4372 307.831 56.3233 307.995 56.2341 308.183C56.1549 308.361 56.1153 308.554 56.1153 308.762ZM61.0924 314.438C61.0924 314.071 61.1568 313.729 61.2856 313.413C61.4242 313.096 61.6075 312.823 61.8353 312.595C62.073 312.358 62.3503 312.174 62.6673 312.046C62.9842 311.907 63.3259 311.838 63.6924 311.838C64.0589 311.838 64.4006 311.907 64.7176 312.046C65.0345 312.174 65.3069 312.358 65.5347 312.595C65.7724 312.823 65.9557 313.096 66.0844 313.413C66.2231 313.729 66.2924 314.071 66.2924 314.438C66.2924 314.804 66.2231 315.146 66.0844 315.463C65.9557 315.78 65.7724 316.057 65.5347 316.295C65.3069 316.523 65.0345 316.706 64.7176 316.845C64.4006 316.973 64.0589 317.038 63.6924 317.038C63.3259 317.038 62.9842 316.973 62.6673 316.845C62.3503 316.706 62.073 316.523 61.8353 316.295C61.6075 316.057 61.4242 315.78 61.2856 315.463C61.1568 315.146 61.0924 314.804 61.0924 314.438ZM62.1621 314.438C62.1621 314.646 62.2018 314.844 62.281 315.032C62.3701 315.21 62.484 315.374 62.6227 315.522C62.7614 315.661 62.9199 315.77 63.0981 315.849C63.2863 315.928 63.4844 315.968 63.6924 315.968C63.9004 315.968 64.0936 315.928 64.2719 315.849C64.46 315.77 64.6235 315.661 64.7621 315.522C64.9008 315.374 65.0098 315.21 65.089 315.032C65.1781 314.844 65.2227 314.646 65.2227 314.438C65.2227 314.23 65.1781 314.037 65.089 313.858C65.0098 313.67 64.9008 313.507 64.7621 313.368C64.6235 313.219 64.46 313.105 64.2719 313.026C64.0936 312.947 63.9004 312.907 63.6924 312.907C63.4844 312.907 63.2863 312.947 63.0981 313.026C62.9199 313.105 62.7614 313.219 62.6227 313.368C62.484 313.507 62.3701 313.67 62.281 313.858C62.2018 314.037 62.1621 314.23 62.1621 314.438ZM63.6033 305.865L64.4204 306.341L57.8239 317.335L57.0067 316.859L63.6033 305.865Z" fill="black"/>
<path opacity="0.7" d="M46.79 385.881C46.79 385.287 46.8395 384.668 46.9386 384.024C47.0376 383.38 47.2209 382.796 47.4883 382.271C47.7557 381.736 48.1172 381.3 48.5729 380.963C49.0384 380.617 49.6327 380.443 50.3557 380.443C51.0788 380.443 51.6681 380.617 52.1237 380.963C52.5892 381.3 52.9557 381.736 53.2231 382.271C53.4906 382.796 53.6738 383.38 53.7728 384.024C53.8719 384.668 53.9214 385.287 53.9214 385.881C53.9214 386.475 53.8719 387.095 53.7728 387.738C53.6738 388.382 53.4906 388.971 53.2231 389.506C52.9557 390.031 52.5892 390.467 52.1237 390.814C51.6681 391.151 51.0788 391.319 50.3557 391.319C49.6327 391.319 49.0384 391.151 48.5729 390.814C48.1172 390.467 47.7557 390.031 47.4883 389.506C47.2209 388.971 47.0376 388.382 46.9386 387.738C46.8395 387.095 46.79 386.475 46.79 385.881ZM48.038 385.881C48.038 386.139 48.0479 386.426 48.0677 386.743C48.0875 387.06 48.1222 387.382 48.1717 387.709C48.2311 388.026 48.3104 388.338 48.4094 388.645C48.5184 388.952 48.657 389.224 48.8254 389.462C49.0037 389.699 49.2167 389.893 49.4643 390.041C49.7119 390.18 50.009 390.249 50.3557 390.249C50.7024 390.249 50.9995 390.18 51.2471 390.041C51.4948 389.893 51.7028 389.699 51.8711 389.462C52.0494 389.224 52.1881 388.952 52.2871 388.645C52.3961 388.338 52.4753 388.026 52.5249 387.709C52.5843 387.382 52.6239 387.06 52.6437 386.743C52.6635 386.426 52.6734 386.139 52.6734 385.881C52.6734 385.624 52.6635 385.336 52.6437 385.019C52.6239 384.703 52.5843 384.386 52.5249 384.069C52.4753 383.742 52.3961 383.425 52.2871 383.118C52.1881 382.811 52.0494 382.538 51.8711 382.301C51.7028 382.063 51.4948 381.875 51.2471 381.736C50.9995 381.587 50.7024 381.513 50.3557 381.513C50.009 381.513 49.7119 381.587 49.4643 381.736C49.2167 381.875 49.0037 382.063 48.8254 382.301C48.657 382.538 48.5184 382.811 48.4094 383.118C48.3104 383.425 48.2311 383.742 48.1717 384.069C48.1222 384.386 48.0875 384.703 48.0677 385.019C48.0479 385.336 48.038 385.624 48.038 385.881ZM55.0456 383.043C55.0456 382.677 55.11 382.335 55.2387 382.018C55.3774 381.701 55.5606 381.429 55.7884 381.201C56.0261 380.963 56.3035 380.78 56.6204 380.651C56.9374 380.513 57.2791 380.443 57.6456 380.443C58.012 380.443 58.3538 380.513 58.6707 380.651C58.9877 380.78 59.26 380.963 59.4879 381.201C59.7256 381.429 59.9088 381.701 60.0376 382.018C60.1762 382.335 60.2456 382.677 60.2456 383.043C60.2456 383.41 60.1762 383.752 60.0376 384.069C59.9088 384.386 59.7256 384.663 59.4879 384.901C59.26 385.128 58.9877 385.312 58.6707 385.45C58.3538 385.579 58.012 385.643 57.6456 385.643C57.2791 385.643 56.9374 385.579 56.6204 385.45C56.3035 385.312 56.0261 385.128 55.7884 384.901C55.5606 384.663 55.3774 384.386 55.2387 384.069C55.11 383.752 55.0456 383.41 55.0456 383.043ZM56.1153 383.043C56.1153 383.251 56.1549 383.45 56.2341 383.638C56.3233 383.816 56.4372 383.979 56.5759 384.128C56.7145 384.267 56.873 384.376 57.0513 384.455C57.2395 384.534 57.4376 384.574 57.6456 384.574C57.8536 384.574 58.0467 384.534 58.225 384.455C58.4132 384.376 58.5766 384.267 58.7153 384.128C58.854 383.979 58.9629 383.816 59.0421 383.638C59.1313 383.45 59.1759 383.251 59.1759 383.043C59.1759 382.835 59.1313 382.642 59.0421 382.464C58.9629 382.276 58.854 382.112 58.7153 381.974C58.5766 381.825 58.4132 381.711 58.225 381.632C58.0467 381.553 57.8536 381.513 57.6456 381.513C57.4376 381.513 57.2395 381.553 57.0513 381.632C56.873 381.711 56.7145 381.825 56.5759 381.974C56.4372 382.112 56.3233 382.276 56.2341 382.464C56.1549 382.642 56.1153 382.835 56.1153 383.043ZM61.0924 388.719C61.0924 388.352 61.1568 388.011 61.2856 387.694C61.4242 387.377 61.6075 387.104 61.8353 386.877C62.073 386.639 62.3503 386.456 62.6673 386.327C62.9842 386.188 63.3259 386.119 63.6924 386.119C64.0589 386.119 64.4006 386.188 64.7176 386.327C65.0345 386.456 65.3069 386.639 65.5347 386.877C65.7724 387.104 65.9557 387.377 66.0844 387.694C66.2231 388.011 66.2924 388.352 66.2924 388.719C66.2924 389.085 66.2231 389.427 66.0844 389.744C65.9557 390.061 65.7724 390.338 65.5347 390.576C65.3069 390.804 65.0345 390.987 64.7176 391.126C64.4006 391.255 64.0589 391.319 63.6924 391.319C63.3259 391.319 62.9842 391.255 62.6673 391.126C62.3503 390.987 62.073 390.804 61.8353 390.576C61.6075 390.338 61.4242 390.061 61.2856 389.744C61.1568 389.427 61.0924 389.085 61.0924 388.719ZM62.1621 388.719C62.1621 388.927 62.2018 389.125 62.281 389.313C62.3701 389.491 62.484 389.655 62.6227 389.803C62.7614 389.942 62.9199 390.051 63.0981 390.13C63.2863 390.21 63.4844 390.249 63.6924 390.249C63.9004 390.249 64.0936 390.21 64.2719 390.13C64.46 390.051 64.6235 389.942 64.7621 389.803C64.9008 389.655 65.0098 389.491 65.089 389.313C65.1781 389.125 65.2227 388.927 65.2227 388.719C65.2227 388.511 65.1781 388.318 65.089 388.139C65.0098 387.951 64.9008 387.788 64.7621 387.649C64.6235 387.501 64.46 387.387 64.2719 387.307C64.0936 387.228 63.9004 387.189 63.6924 387.189C63.4844 387.189 63.2863 387.228 63.0981 387.307C62.9199 387.387 62.7614 387.501 62.6227 387.649C62.484 387.788 62.3701 387.951 62.281 388.139C62.2018 388.318 62.1621 388.511 62.1621 388.719ZM63.6033 380.146L64.4204 380.622L57.8239 391.616L57.0067 391.141L63.6033 380.146Z" fill="black"/>
<path opacity="0.7" d="M39.099 86.0514C39.099 85.6354 39.1733 85.2591 39.3218 84.9223C39.4803 84.5855 39.6933 84.2983 39.9607 84.0606C40.2281 83.8229 40.5451 83.6396 40.9116 83.5109C41.278 83.3722 41.6742 83.3029 42.1001 83.3029C42.526 83.3029 42.9222 83.3722 43.2887 83.5109C43.6552 83.6396 43.9721 83.8229 44.2396 84.0606C44.507 84.2983 44.715 84.5855 44.8636 84.9223C45.022 85.2591 45.1013 85.6354 45.1013 86.0514C45.1013 86.2991 45.0617 86.5467 44.9824 86.7943C44.9032 87.0419 44.7893 87.2697 44.6407 87.4777C44.4921 87.6857 44.3089 87.869 44.091 88.0274C43.883 88.1859 43.6453 88.2998 43.3778 88.3691V88.3989C43.6948 88.4682 43.982 88.5871 44.2396 88.7554C44.4971 88.9139 44.715 89.112 44.8933 89.3497C45.0716 89.5874 45.2102 89.8598 45.3093 90.1669C45.4083 90.464 45.4578 90.776 45.4578 91.1029C45.4578 91.5783 45.3687 92.0091 45.1904 92.3954C45.022 92.7718 44.7843 93.0937 44.4773 93.3611C44.1801 93.6286 43.8236 93.8316 43.4076 93.9703C43.0015 94.109 42.5657 94.1783 42.1001 94.1783C41.6346 94.1783 41.1938 94.109 40.7778 93.9703C40.3718 93.8316 40.0152 93.6286 39.7081 93.3611C39.411 93.0937 39.1733 92.7718 38.995 92.3954C38.8266 92.0091 38.7424 91.5783 38.7424 91.1029C38.7424 90.776 38.7919 90.464 38.891 90.1669C38.99 89.8598 39.1287 89.5874 39.307 89.3497C39.4853 89.112 39.7032 88.9139 39.9607 88.7554C40.2182 88.5871 40.5055 88.4682 40.8224 88.3989V88.3691C40.555 88.2998 40.3123 88.1859 40.0944 88.0274C39.8864 87.869 39.7081 87.6857 39.5596 87.4777C39.411 87.2697 39.2971 87.0419 39.2178 86.7943C39.1386 86.5467 39.099 86.2991 39.099 86.0514ZM40.347 86.1109C40.347 86.616 40.5055 87.032 40.8224 87.3589C41.1493 87.6857 41.5752 87.8491 42.1001 87.8491C42.6251 87.8491 43.046 87.6857 43.363 87.3589C43.6898 87.032 43.8533 86.616 43.8533 86.1109C43.8533 85.6057 43.6898 85.1897 43.363 84.8629C43.046 84.536 42.6251 84.3726 42.1001 84.3726C41.5752 84.3726 41.1493 84.536 40.8224 84.8629C40.5055 85.1897 40.347 85.6057 40.347 86.1109ZM39.9904 91.0137C39.9904 91.3208 40.0449 91.603 40.1538 91.8606C40.2628 92.1181 40.4114 92.341 40.5996 92.5291C40.7977 92.7074 41.0205 92.851 41.2681 92.96C41.5257 93.059 41.803 93.1086 42.1001 93.1086C42.3973 93.1086 42.6697 93.059 42.9173 92.96C43.1748 92.851 43.3977 92.7074 43.5858 92.5291C43.7839 92.341 43.9375 92.1181 44.0464 91.8606C44.1554 91.603 44.2098 91.3208 44.2098 91.0137C44.2098 90.7067 44.1554 90.4244 44.0464 90.1669C43.9375 89.9093 43.7839 89.6914 43.5858 89.5131C43.3977 89.325 43.1748 89.1813 42.9173 89.0823C42.6697 88.9733 42.3973 88.9189 42.1001 88.9189C41.803 88.9189 41.5257 88.9733 41.2681 89.0823C41.0205 89.1813 40.7977 89.325 40.5996 89.5131C40.4114 89.6914 40.2628 89.9093 40.1538 90.1669C40.0449 90.4244 39.9904 90.7067 39.9904 91.0137ZM46.79 88.7406C46.79 88.1463 46.8395 87.5272 46.9386 86.8834C47.0376 86.2396 47.2209 85.6552 47.4883 85.1303C47.7557 84.5954 48.1172 84.1596 48.5729 83.8229C49.0384 83.4762 49.6327 83.3029 50.3557 83.3029C51.0788 83.3029 51.6681 83.4762 52.1237 83.8229C52.5892 84.1596 52.9557 84.5954 53.2231 85.1303C53.4906 85.6552 53.6738 86.2396 53.7728 86.8834C53.8719 87.5272 53.9214 88.1463 53.9214 88.7406C53.9214 89.3349 53.8719 89.9539 53.7728 90.5977C53.6738 91.2415 53.4906 91.8309 53.2231 92.3657C52.9557 92.8907 52.5892 93.3265 52.1237 93.6731C51.6681 94.0099 51.0788 94.1783 50.3557 94.1783C49.6327 94.1783 49.0384 94.0099 48.5729 93.6731C48.1172 93.3265 47.7557 92.8907 47.4883 92.3657C47.2209 91.8309 47.0376 91.2415 46.9386 90.5977C46.8395 89.9539 46.79 89.3349 46.79 88.7406ZM48.038 88.7406C48.038 88.9981 48.0479 89.2853 48.0677 89.6023C48.0875 89.9192 48.1222 90.2411 48.1717 90.568C48.2311 90.885 48.3104 91.197 48.4094 91.504C48.5184 91.811 48.657 92.0834 48.8254 92.3211C49.0037 92.5589 49.2167 92.752 49.4643 92.9006C49.7119 93.0392 50.009 93.1086 50.3557 93.1086C50.7024 93.1086 50.9995 93.0392 51.2471 92.9006C51.4948 92.752 51.7028 92.5589 51.8711 92.3211C52.0494 92.0834 52.1881 91.811 52.2871 91.504C52.3961 91.197 52.4753 90.885 52.5249 90.568C52.5843 90.2411 52.6239 89.9192 52.6437 89.6023C52.6635 89.2853 52.6734 88.9981 52.6734 88.7406C52.6734 88.4831 52.6635 88.1958 52.6437 87.8789C52.6239 87.5619 52.5843 87.245 52.5249 86.928C52.4753 86.6011 52.3961 86.2842 52.2871 85.9771C52.1881 85.6701 52.0494 85.3977 51.8711 85.16C51.7028 84.9223 51.4948 84.7341 51.2471 84.5954C50.9995 84.4469 50.7024 84.3726 50.3557 84.3726C50.009 84.3726 49.7119 84.4469 49.4643 84.5954C49.2167 84.7341 49.0037 84.9223 48.8254 85.16C48.657 85.3977 48.5184 85.6701 48.4094 85.9771C48.3104 86.2842 48.2311 86.6011 48.1717 86.928C48.1222 87.245 48.0875 87.5619 48.0677 87.8789C48.0479 88.1958 48.038 88.4831 48.038 88.7406ZM55.0456 85.9029C55.0456 85.5364 55.11 85.1947 55.2387 84.8777C55.3774 84.5608 55.5606 84.2884 55.7884 84.0606C56.0261 83.8229 56.3035 83.6396 56.6204 83.5109C56.9374 83.3722 57.2791 83.3029 57.6456 83.3029C58.012 83.3029 58.3538 83.3722 58.6707 83.5109C58.9877 83.6396 59.26 83.8229 59.4879 84.0606C59.7256 84.2884 59.9088 84.5608 60.0376 84.8777C60.1762 85.1947 60.2456 85.5364 60.2456 85.9029C60.2456 86.2693 60.1762 86.6111 60.0376 86.928C59.9088 87.245 59.7256 87.5223 59.4879 87.76C59.26 87.9878 58.9877 88.1711 58.6707 88.3097C58.3538 88.4385 58.012 88.5029 57.6456 88.5029C57.2791 88.5029 56.9374 88.4385 56.6204 88.3097C56.3035 88.1711 56.0261 87.9878 55.7884 87.76C55.5606 87.5223 55.3774 87.245 55.2387 86.928C55.11 86.6111 55.0456 86.2693 55.0456 85.9029ZM56.1153 85.9029C56.1153 86.1109 56.1549 86.309 56.2341 86.4971C56.3233 86.6754 56.4372 86.8389 56.5759 86.9874C56.7145 87.1261 56.873 87.2351 57.0513 87.3143C57.2395 87.3935 57.4376 87.4331 57.6456 87.4331C57.8536 87.4331 58.0467 87.3935 58.225 87.3143C58.4132 87.2351 58.5766 87.1261 58.7153 86.9874C58.8539 86.8389 58.9629 86.6754 59.0421 86.4971C59.1313 86.309 59.1759 86.1109 59.1759 85.9029C59.1759 85.6949 59.1313 85.5017 59.0421 85.3234C58.9629 85.1352 58.8539 84.9718 58.7153 84.8331C58.5766 84.6846 58.4132 84.5707 58.225 84.4914C58.0467 84.4122 57.8536 84.3726 57.6456 84.3726C57.4376 84.3726 57.2395 84.4122 57.0513 84.4914C56.873 84.5707 56.7145 84.6846 56.5759 84.8331C56.4372 84.9718 56.3233 85.1352 56.2341 85.3234C56.1549 85.5017 56.1153 85.6949 56.1153 85.9029ZM61.0924 91.5783C61.0924 91.2118 61.1568 90.8701 61.2856 90.5531C61.4242 90.2362 61.6075 89.9638 61.8353 89.736C62.073 89.4983 62.3503 89.3151 62.6673 89.1863C62.9842 89.0476 63.3259 88.9783 63.6924 88.9783C64.0589 88.9783 64.4006 89.0476 64.7176 89.1863C65.0345 89.3151 65.3069 89.4983 65.5347 89.736C65.7724 89.9638 65.9557 90.2362 66.0844 90.5531C66.2231 90.8701 66.2924 91.2118 66.2924 91.5783C66.2924 91.9448 66.2231 92.2865 66.0844 92.6034C65.9557 92.9204 65.7724 93.1977 65.5347 93.4354C65.3069 93.6632 65.0345 93.8465 64.7176 93.9851C64.4006 94.1139 64.0589 94.1783 63.6924 94.1783C63.3259 94.1783 62.9842 94.1139 62.6673 93.9851C62.3503 93.8465 62.073 93.6632 61.8353 93.4354C61.6075 93.1977 61.4242 92.9204 61.2856 92.6034C61.1568 92.2865 61.0924 91.9448 61.0924 91.5783ZM62.1621 91.5783C62.1621 91.7863 62.2018 91.9844 62.281 92.1726C62.3701 92.3509 62.484 92.5143 62.6227 92.6629C62.7614 92.8015 62.9199 92.9105 63.0981 92.9897C63.2863 93.069 63.4844 93.1086 63.6924 93.1086C63.9004 93.1086 64.0936 93.069 64.2719 92.9897C64.46 92.9105 64.6235 92.8015 64.7621 92.6629C64.9008 92.5143 65.0098 92.3509 65.089 92.1726C65.1781 91.9844 65.2227 91.7863 65.2227 91.5783C65.2227 91.3703 65.1781 91.1771 65.089 90.9989C65.0098 90.8107 64.9008 90.6472 64.7621 90.5086C64.6235 90.36 64.46 90.2461 64.2719 90.1669C64.0936 90.0876 63.9004 90.048 63.6924 90.048C63.4844 90.048 63.2863 90.0876 63.0981 90.1669C62.9199 90.2461 62.7614 90.36 62.6227 90.5086C62.484 90.6472 62.3701 90.8107 62.281 90.9989C62.2018 91.1771 62.1621 91.3703 62.1621 91.5783ZM63.6033 83.0057L64.4204 83.4811L57.8239 94.4754L57.0067 94L63.6033 83.0057Z" fill="black"/>
<path opacity="0.7" d="M35.0628 23H33.8148V14.0857H33.7851L31.8983 15.6754L31.1554 14.7691L33.9783 12.4811H35.0628V23ZM38.5344 17.7406C38.5344 17.1463 38.5839 16.5272 38.683 15.8834C38.782 15.2396 38.9653 14.6552 39.2327 14.1303C39.5001 13.5954 39.8617 13.1596 40.3173 12.8229C40.7828 12.4762 41.3771 12.3029 42.1001 12.3029C42.8232 12.3029 43.4125 12.4762 43.8681 12.8229C44.3337 13.1596 44.7001 13.5954 44.9676 14.1303C45.235 14.6552 45.4182 15.2396 45.5173 15.8834C45.6163 16.5272 45.6658 17.1463 45.6658 17.7406C45.6658 18.3349 45.6163 18.9539 45.5173 19.5977C45.4182 20.2415 45.235 20.8309 44.9676 21.3657C44.7001 21.8907 44.3337 22.3265 43.8681 22.6731C43.4125 23.0099 42.8232 23.1783 42.1001 23.1783C41.3771 23.1783 40.7828 23.0099 40.3173 22.6731C39.8617 22.3265 39.5001 21.8907 39.2327 21.3657C38.9653 20.8309 38.782 20.2415 38.683 19.5977C38.5839 18.9539 38.5344 18.3349 38.5344 17.7406ZM39.7824 17.7406C39.7824 17.9981 39.7923 18.2853 39.8121 18.6023C39.8319 18.9192 39.8666 19.2411 39.9161 19.568C39.9756 19.885 40.0548 20.197 40.1538 20.504C40.2628 20.811 40.4015 21.0834 40.5698 21.3211C40.7481 21.5589 40.9611 21.752 41.2087 21.9006C41.4563 22.0392 41.7535 22.1086 42.1001 22.1086C42.4468 22.1086 42.7439 22.0392 42.9916 21.9006C43.2392 21.752 43.4472 21.5589 43.6156 21.3211C43.7938 21.0834 43.9325 20.811 44.0316 20.504C44.1405 20.197 44.2197 19.885 44.2693 19.568C44.3287 19.2411 44.3683 18.9192 44.3881 18.6023C44.4079 18.2853 44.4178 17.9981 44.4178 17.7406C44.4178 17.4831 44.4079 17.1958 44.3881 16.8789C44.3683 16.5619 44.3287 16.245 44.2693 15.928C44.2197 15.6011 44.1405 15.2842 44.0316 14.9771C43.9325 14.6701 43.7938 14.3977 43.6156 14.16C43.4472 13.9223 43.2392 13.7341 42.9916 13.5954C42.7439 13.4469 42.4468 13.3726 42.1001 13.3726C41.7535 13.3726 41.4563 13.4469 41.2087 13.5954C40.9611 13.7341 40.7481 13.9223 40.5698 14.16C40.4015 14.3977 40.2628 14.6701 40.1538 14.9771C40.0548 15.2842 39.9756 15.6011 39.9161 15.928C39.8666 16.245 39.8319 16.5619 39.8121 16.8789C39.7923 17.1958 39.7824 17.4831 39.7824 17.7406ZM46.79 17.7406C46.79 17.1463 46.8395 16.5272 46.9386 15.8834C47.0376 15.2396 47.2209 14.6552 47.4883 14.1303C47.7557 13.5954 48.1172 13.1596 48.5729 12.8229C49.0384 12.4762 49.6327 12.3029 50.3557 12.3029C51.0788 12.3029 51.6681 12.4762 52.1237 12.8229C52.5892 13.1596 52.9557 13.5954 53.2231 14.1303C53.4906 14.6552 53.6738 15.2396 53.7728 15.8834C53.8719 16.5272 53.9214 17.1463 53.9214 17.7406C53.9214 18.3349 53.8719 18.9539 53.7728 19.5977C53.6738 20.2415 53.4906 20.8309 53.2231 21.3657C52.9557 21.8907 52.5892 22.3265 52.1237 22.6731C51.6681 23.0099 51.0788 23.1783 50.3557 23.1783C49.6327 23.1783 49.0384 23.0099 48.5729 22.6731C48.1172 22.3265 47.7557 21.8907 47.4883 21.3657C47.2209 20.8309 47.0376 20.2415 46.9386 19.5977C46.8395 18.9539 46.79 18.3349 46.79 17.7406ZM48.038 17.7406C48.038 17.9981 48.0479 18.2853 48.0677 18.6023C48.0875 18.9192 48.1222 19.2411 48.1717 19.568C48.2311 19.885 48.3104 20.197 48.4094 20.504C48.5184 20.811 48.657 21.0834 48.8254 21.3211C49.0037 21.5589 49.2167 21.752 49.4643 21.9006C49.7119 22.0392 50.009 22.1086 50.3557 22.1086C50.7024 22.1086 50.9995 22.0392 51.2471 21.9006C51.4948 21.752 51.7028 21.5589 51.8711 21.3211C52.0494 21.0834 52.1881 20.811 52.2871 20.504C52.3961 20.197 52.4753 19.885 52.5249 19.568C52.5843 19.2411 52.6239 18.9192 52.6437 18.6023C52.6635 18.2853 52.6734 17.9981 52.6734 17.7406C52.6734 17.4831 52.6635 17.1958 52.6437 16.8789C52.6239 16.5619 52.5843 16.245 52.5249 15.928C52.4753 15.6011 52.3961 15.2842 52.2871 14.9771C52.1881 14.6701 52.0494 14.3977 51.8711 14.16C51.7028 13.9223 51.4948 13.7341 51.2471 13.5954C50.9995 13.4469 50.7024 13.3726 50.3557 13.3726C50.009 13.3726 49.7119 13.4469 49.4643 13.5954C49.2167 13.7341 49.0037 13.9223 48.8254 14.16C48.657 14.3977 48.5184 14.6701 48.4094 14.9771C48.3104 15.2842 48.2311 15.6011 48.1717 15.928C48.1222 16.245 48.0875 16.5619 48.0677 16.8789C48.0479 17.1958 48.038 17.4831 48.038 17.7406ZM55.0456 14.9029C55.0456 14.5364 55.11 14.1947 55.2387 13.8777C55.3774 13.5608 55.5606 13.2884 55.7884 13.0606C56.0261 12.8229 56.3035 12.6396 56.6204 12.5109C56.9374 12.3722 57.2791 12.3029 57.6456 12.3029C58.012 12.3029 58.3538 12.3722 58.6707 12.5109C58.9877 12.6396 59.26 12.8229 59.4879 13.0606C59.7256 13.2884 59.9088 13.5608 60.0376 13.8777C60.1762 14.1947 60.2456 14.5364 60.2456 14.9029C60.2456 15.2693 60.1762 15.6111 60.0376 15.928C59.9088 16.245 59.7256 16.5223 59.4879 16.76C59.26 16.9878 58.9877 17.1711 58.6707 17.3097C58.3538 17.4385 58.012 17.5029 57.6456 17.5029C57.2791 17.5029 56.9374 17.4385 56.6204 17.3097C56.3035 17.1711 56.0261 16.9878 55.7884 16.76C55.5606 16.5223 55.3774 16.245 55.2387 15.928C55.11 15.6111 55.0456 15.2693 55.0456 14.9029ZM56.1153 14.9029C56.1153 15.1109 56.1549 15.309 56.2341 15.4971C56.3233 15.6754 56.4372 15.8389 56.5759 15.9874C56.7145 16.1261 56.873 16.2351 57.0513 16.3143C57.2395 16.3935 57.4376 16.4331 57.6456 16.4331C57.8536 16.4331 58.0467 16.3935 58.225 16.3143C58.4132 16.2351 58.5766 16.1261 58.7153 15.9874C58.854 15.8389 58.9629 15.6754 59.0421 15.4971C59.1313 15.309 59.1759 15.1109 59.1759 14.9029C59.1759 14.6949 59.1313 14.5017 59.0421 14.3234C58.9629 14.1352 58.854 13.9718 58.7153 13.8331C58.5766 13.6846 58.4132 13.5707 58.225 13.4914C58.0467 13.4122 57.8536 13.3726 57.6456 13.3726C57.4376 13.3726 57.2395 13.4122 57.0513 13.4914C56.873 13.5707 56.7145 13.6846 56.5759 13.8331C56.4372 13.9718 56.3233 14.1352 56.2341 14.3234C56.1549 14.5017 56.1153 14.6949 56.1153 14.9029ZM61.0924 20.5783C61.0924 20.2118 61.1568 19.8701 61.2856 19.5531C61.4242 19.2362 61.6075 18.9638 61.8353 18.736C62.073 18.4983 62.3503 18.3151 62.6673 18.1863C62.9842 18.0476 63.3259 17.9783 63.6924 17.9783C64.0589 17.9783 64.4006 18.0476 64.7176 18.1863C65.0345 18.3151 65.3069 18.4983 65.5347 18.736C65.7724 18.9638 65.9557 19.2362 66.0844 19.5531C66.2231 19.8701 66.2924 20.2118 66.2924 20.5783C66.2924 20.9448 66.2231 21.2865 66.0844 21.6034C65.9557 21.9204 65.7724 22.1977 65.5347 22.4354C65.3069 22.6632 65.0345 22.8465 64.7176 22.9851C64.4006 23.1139 64.0589 23.1783 63.6924 23.1783C63.3259 23.1783 62.9842 23.1139 62.6673 22.9851C62.3503 22.8465 62.073 22.6632 61.8353 22.4354C61.6075 22.1977 61.4242 21.9204 61.2856 21.6034C61.1568 21.2865 61.0924 20.9448 61.0924 20.5783ZM62.1621 20.5783C62.1621 20.7863 62.2018 20.9844 62.281 21.1726C62.3701 21.3509 62.484 21.5143 62.6227 21.6629C62.7614 21.8015 62.9199 21.9105 63.0981 21.9897C63.2863 22.069 63.4844 22.1086 63.6924 22.1086C63.9004 22.1086 64.0936 22.069 64.2719 21.9897C64.46 21.9105 64.6235 21.8015 64.7621 21.6629C64.9008 21.5143 65.0098 21.3509 65.089 21.1726C65.1781 20.9844 65.2227 20.7863 65.2227 20.5783C65.2227 20.3703 65.1781 20.1771 65.089 19.9989C65.0098 19.8107 64.9008 19.6472 64.7621 19.5086C64.6235 19.36 64.46 19.2461 64.2719 19.1669C64.0936 19.0876 63.9004 19.048 63.6924 19.048C63.4844 19.048 63.2863 19.0876 63.0981 19.1669C62.9199 19.2461 62.7614 19.36 62.6227 19.5086C62.484 19.6472 62.3701 19.8107 62.281 19.9989C62.2018 20.1771 62.1621 20.3703 62.1621 20.5783ZM63.6033 12.0057L64.4204 12.4811L57.8239 23.4754L57.0067 23L63.6033 12.0057Z" fill="black"/>
<path opacity="0.7" d="M396.851 401.838C396.655 401.521 396.394 401.292 396.067 401.152C395.74 401.003 395.4 400.928 395.045 400.928C394.784 400.928 394.527 400.961 394.275 401.026C394.023 401.091 393.794 401.189 393.589 401.32C393.393 401.451 393.234 401.623 393.113 401.838C392.992 402.053 392.931 402.305 392.931 402.594C392.931 402.818 392.964 403.019 393.029 403.196C393.104 403.364 393.22 403.518 393.379 403.658C393.538 403.798 393.752 403.929 394.023 404.05C394.294 404.171 394.625 404.293 395.017 404.414C395.4 404.535 395.768 404.666 396.123 404.806C396.487 404.946 396.804 405.123 397.075 405.338C397.355 405.553 397.574 405.823 397.733 406.15C397.901 406.467 397.985 406.869 397.985 407.354C397.985 407.849 397.887 408.278 397.691 408.642C397.495 409.006 397.234 409.309 396.907 409.552C396.59 409.785 396.221 409.958 395.801 410.07C395.381 410.191 394.947 410.252 394.499 410.252C394.21 410.252 393.92 410.224 393.631 410.168C393.342 410.121 393.062 410.047 392.791 409.944C392.53 409.832 392.282 409.692 392.049 409.524C391.816 409.347 391.615 409.132 391.447 408.88L392.455 408.054C392.67 408.418 392.968 408.693 393.351 408.88C393.734 409.067 394.14 409.16 394.569 409.16C394.821 409.16 395.073 409.123 395.325 409.048C395.586 408.973 395.82 408.866 396.025 408.726C396.23 408.577 396.398 408.395 396.529 408.18C396.66 407.965 396.725 407.718 396.725 407.438C396.725 407.13 396.674 406.883 396.571 406.696C396.468 406.5 396.31 406.332 396.095 406.192C395.88 406.052 395.61 405.926 395.283 405.814C394.956 405.702 394.574 405.571 394.135 405.422C393.78 405.31 393.454 405.184 393.155 405.044C392.856 404.895 392.595 404.717 392.371 404.512C392.156 404.297 391.984 404.045 391.853 403.756C391.732 403.457 391.671 403.103 391.671 402.692C391.671 402.216 391.764 401.801 391.951 401.446C392.138 401.091 392.39 400.797 392.707 400.564C393.024 400.321 393.384 400.139 393.785 400.018C394.186 399.897 394.606 399.836 395.045 399.836C395.605 399.836 396.114 399.925 396.571 400.102C397.038 400.27 397.453 400.569 397.817 400.998L396.851 401.838ZM405.582 408.81C405.19 409.314 404.761 409.669 404.294 409.874C403.828 410.07 403.286 410.168 402.67 410.168C402.157 410.168 401.695 410.079 401.284 409.902C400.874 409.715 400.524 409.468 400.234 409.16C399.954 408.852 399.735 408.488 399.576 408.068C399.427 407.648 399.352 407.2 399.352 406.724C399.352 406.22 399.436 405.758 399.604 405.338C399.772 404.909 400.006 404.545 400.304 404.246C400.603 403.938 400.958 403.7 401.368 403.532C401.779 403.364 402.227 403.28 402.712 403.28C403.17 403.28 403.59 403.359 403.972 403.518C404.355 403.667 404.682 403.891 404.952 404.19C405.232 404.479 405.447 404.839 405.596 405.268C405.746 405.688 405.82 406.169 405.82 406.71V407.06H400.528C400.547 407.34 400.612 407.611 400.724 407.872C400.846 408.124 401 408.348 401.186 408.544C401.373 408.731 401.592 408.88 401.844 408.992C402.096 409.104 402.372 409.16 402.67 409.16C403.146 409.16 403.548 409.076 403.874 408.908C404.201 408.74 404.495 408.493 404.756 408.166L405.582 408.81ZM404.644 406.136C404.626 405.576 404.444 405.128 404.098 404.792C403.753 404.456 403.277 404.288 402.67 404.288C402.064 404.288 401.574 404.456 401.2 404.792C400.827 405.128 400.603 405.576 400.528 406.136H404.644ZM407.608 399.416H408.7V410H407.608V399.416ZM411.447 404.372H410.019V403.448H411.447V401.978C411.447 401.577 411.484 401.213 411.559 400.886C411.633 400.55 411.759 400.261 411.937 400.018C412.123 399.775 412.366 399.589 412.665 399.458C412.963 399.318 413.332 399.248 413.771 399.248C413.911 399.248 414.06 399.262 414.219 399.29C414.377 399.318 414.508 399.36 414.611 399.416L414.457 400.396C414.195 400.303 413.948 400.256 413.715 400.256C413.435 400.256 413.215 400.307 413.057 400.41C412.898 400.503 412.777 400.639 412.693 400.816C412.618 400.984 412.571 401.189 412.553 401.432C412.543 401.675 412.539 401.936 412.539 402.216V403.448H414.135V404.372H412.539V410H411.447V404.372ZM422.615 400.088H423.721L427.935 410H426.563L425.555 407.564H420.599L419.577 410H418.247L422.615 400.088ZM423.147 401.6H423.119L421.061 406.472H425.107L423.147 401.6ZM429.197 408.278C429.411 408.549 429.645 408.763 429.897 408.922C430.158 409.081 430.485 409.16 430.877 409.16C431.045 409.16 431.213 409.141 431.381 409.104C431.558 409.067 431.717 409.006 431.857 408.922C431.997 408.838 432.109 408.735 432.193 408.614C432.277 408.483 432.319 408.329 432.319 408.152C432.319 407.975 432.277 407.83 432.193 407.718C432.118 407.606 432.015 407.513 431.885 407.438C431.754 407.354 431.605 407.289 431.437 407.242C431.269 407.195 431.096 407.153 430.919 407.116C430.611 407.051 430.317 406.976 430.037 406.892C429.757 406.808 429.509 406.701 429.295 406.57C429.089 406.43 428.921 406.253 428.791 406.038C428.669 405.823 428.609 405.548 428.609 405.212C428.609 404.895 428.679 404.615 428.819 404.372C428.959 404.129 429.145 403.929 429.379 403.77C429.612 403.611 429.873 403.49 430.163 403.406C430.452 403.322 430.751 403.28 431.059 403.28C431.525 403.28 431.955 403.373 432.347 403.56C432.748 403.747 433.061 404.05 433.285 404.47L432.375 405.072C432.235 404.839 432.048 404.652 431.815 404.512C431.591 404.363 431.315 404.288 430.989 404.288C430.839 404.288 430.685 404.307 430.527 404.344C430.377 404.381 430.242 404.437 430.121 404.512C429.999 404.587 429.897 404.685 429.813 404.806C429.738 404.918 429.701 405.049 429.701 405.198C429.701 405.338 429.743 405.459 429.827 405.562C429.92 405.655 430.041 405.739 430.191 405.814C430.349 405.889 430.527 405.954 430.723 406.01C430.928 406.066 431.138 406.113 431.353 406.15C431.642 406.206 431.917 406.281 432.179 406.374C432.44 406.458 432.669 406.575 432.865 406.724C433.061 406.873 433.215 407.06 433.327 407.284C433.439 407.508 433.495 407.783 433.495 408.11C433.495 408.483 433.42 408.801 433.271 409.062C433.121 409.323 432.921 409.538 432.669 409.706C432.426 409.865 432.146 409.981 431.829 410.056C431.521 410.131 431.203 410.168 430.877 410.168C430.317 410.168 429.831 410.084 429.421 409.916C429.019 409.739 428.655 409.417 428.329 408.95L429.197 408.278ZM435.157 408.278C435.372 408.549 435.605 408.763 435.857 408.922C436.119 409.081 436.445 409.16 436.837 409.16C437.005 409.16 437.173 409.141 437.341 409.104C437.519 409.067 437.677 409.006 437.817 408.922C437.957 408.838 438.069 408.735 438.153 408.614C438.237 408.483 438.279 408.329 438.279 408.152C438.279 407.975 438.237 407.83 438.153 407.718C438.079 407.606 437.976 407.513 437.845 407.438C437.715 407.354 437.565 407.289 437.397 407.242C437.229 407.195 437.057 407.153 436.879 407.116C436.571 407.051 436.277 406.976 435.997 406.892C435.717 406.808 435.47 406.701 435.255 406.57C435.05 406.43 434.882 406.253 434.751 406.038C434.63 405.823 434.569 405.548 434.569 405.212C434.569 404.895 434.639 404.615 434.779 404.372C434.919 404.129 435.106 403.929 435.339 403.77C435.573 403.611 435.834 403.49 436.123 403.406C436.413 403.322 436.711 403.28 437.019 403.28C437.486 403.28 437.915 403.373 438.307 403.56C438.709 403.747 439.021 404.05 439.245 404.47L438.335 405.072C438.195 404.839 438.009 404.652 437.775 404.512C437.551 404.363 437.276 404.288 436.949 404.288C436.8 404.288 436.646 404.307 436.487 404.344C436.338 404.381 436.203 404.437 436.081 404.512C435.96 404.587 435.857 404.685 435.773 404.806C435.699 404.918 435.661 405.049 435.661 405.198C435.661 405.338 435.703 405.459 435.787 405.562C435.881 405.655 436.002 405.739 436.151 405.814C436.31 405.889 436.487 405.954 436.683 406.01C436.889 406.066 437.099 406.113 437.313 406.15C437.603 406.206 437.878 406.281 438.139 406.374C438.401 406.458 438.629 406.575 438.825 406.724C439.021 406.873 439.175 407.06 439.287 407.284C439.399 407.508 439.455 407.783 439.455 408.11C439.455 408.483 439.381 408.801 439.231 409.062C439.082 409.323 438.881 409.538 438.629 409.706C438.387 409.865 438.107 409.981 437.789 410.056C437.481 410.131 437.164 410.168 436.837 410.168C436.277 410.168 435.792 410.084 435.381 409.916C434.98 409.739 434.616 409.417 434.289 408.95L435.157 408.278ZM446.83 408.81C446.438 409.314 446.009 409.669 445.542 409.874C445.076 410.07 444.534 410.168 443.918 410.168C443.405 410.168 442.943 410.079 442.532 409.902C442.122 409.715 441.772 409.468 441.482 409.16C441.202 408.852 440.983 408.488 440.824 408.068C440.675 407.648 440.6 407.2 440.6 406.724C440.6 406.22 440.684 405.758 440.852 405.338C441.02 404.909 441.254 404.545 441.552 404.246C441.851 403.938 442.206 403.7 442.616 403.532C443.027 403.364 443.475 403.28 443.96 403.28C444.418 403.28 444.838 403.359 445.22 403.518C445.603 403.667 445.93 403.891 446.2 404.19C446.48 404.479 446.695 404.839 446.844 405.268C446.994 405.688 447.068 406.169 447.068 406.71V407.06H441.776C441.795 407.34 441.86 407.611 441.972 407.872C442.094 408.124 442.248 408.348 442.434 408.544C442.621 408.731 442.84 408.88 443.092 408.992C443.344 409.104 443.62 409.16 443.918 409.16C444.394 409.16 444.796 409.076 445.122 408.908C445.449 408.74 445.743 408.493 446.004 408.166L446.83 408.81ZM445.892 406.136C445.874 405.576 445.692 405.128 445.346 404.792C445.001 404.456 444.525 404.288 443.918 404.288C443.312 404.288 442.822 404.456 442.448 404.792C442.075 405.128 441.851 405.576 441.776 406.136H445.892ZM448.898 408.278C449.112 408.549 449.346 408.763 449.598 408.922C449.859 409.081 450.186 409.16 450.578 409.16C450.746 409.16 450.914 409.141 451.082 409.104C451.259 409.067 451.418 409.006 451.558 408.922C451.698 408.838 451.81 408.735 451.894 408.614C451.978 408.483 452.02 408.329 452.02 408.152C452.02 407.975 451.978 407.83 451.894 407.718C451.819 407.606 451.716 407.513 451.586 407.438C451.455 407.354 451.306 407.289 451.138 407.242C450.97 407.195 450.797 407.153 450.62 407.116C450.312 407.051 450.018 406.976 449.738 406.892C449.458 406.808 449.21 406.701 448.996 406.57C448.79 406.43 448.622 406.253 448.492 406.038C448.37 405.823 448.31 405.548 448.31 405.212C448.31 404.895 448.38 404.615 448.52 404.372C448.66 404.129 448.846 403.929 449.08 403.77C449.313 403.611 449.574 403.49 449.864 403.406C450.153 403.322 450.452 403.28 450.76 403.28C451.226 403.28 451.656 403.373 452.048 403.56C452.449 403.747 452.762 404.05 452.986 404.47L452.076 405.072C451.936 404.839 451.749 404.652 451.516 404.512C451.292 404.363 451.016 404.288 450.69 404.288C450.54 404.288 450.386 404.307 450.228 404.344C450.078 404.381 449.943 404.437 449.822 404.512C449.7 404.587 449.598 404.685 449.514 404.806C449.439 404.918 449.402 405.049 449.402 405.198C449.402 405.338 449.444 405.459 449.528 405.562C449.621 405.655 449.742 405.739 449.892 405.814C450.05 405.889 450.228 405.954 450.424 406.01C450.629 406.066 450.839 406.113 451.054 406.15C451.343 406.206 451.618 406.281 451.88 406.374C452.141 406.458 452.37 406.575 452.566 406.724C452.762 406.873 452.916 407.06 453.028 407.284C453.14 407.508 453.196 407.783 453.196 408.11C453.196 408.483 453.121 408.801 452.972 409.062C452.822 409.323 452.622 409.538 452.37 409.706C452.127 409.865 451.847 409.981 451.53 410.056C451.222 410.131 450.904 410.168 450.578 410.168C450.018 410.168 449.532 410.084 449.122 409.916C448.72 409.739 448.356 409.417 448.03 408.95L448.898 408.278ZM454.719 405.002C454.719 404.703 454.709 404.423 454.691 404.162C454.672 403.901 454.663 403.663 454.663 403.448H455.699C455.699 403.625 455.703 403.803 455.713 403.98C455.722 404.157 455.727 404.339 455.727 404.526H455.755C455.829 404.367 455.932 404.213 456.063 404.064C456.203 403.915 456.366 403.784 456.553 403.672C456.739 403.551 456.949 403.457 457.183 403.392C457.416 403.317 457.668 403.28 457.939 403.28C458.293 403.28 458.587 403.327 458.821 403.42C459.063 403.504 459.264 403.611 459.423 403.742C459.581 403.863 459.703 403.999 459.787 404.148C459.88 404.288 459.955 404.414 460.011 404.526C460.253 404.134 460.533 403.831 460.851 403.616C461.168 403.392 461.579 403.28 462.083 403.28C462.549 403.28 462.941 403.345 463.259 403.476C463.576 403.597 463.833 403.779 464.029 404.022C464.225 404.255 464.365 404.545 464.449 404.89C464.533 405.226 464.575 405.604 464.575 406.024V410H463.483V406.08C463.483 405.856 463.459 405.637 463.413 405.422C463.366 405.207 463.282 405.016 463.161 404.848C463.039 404.68 462.876 404.545 462.671 404.442C462.465 404.339 462.204 404.288 461.887 404.288C461.653 404.288 461.434 404.335 461.229 404.428C461.023 404.521 460.841 404.652 460.683 404.82C460.533 404.988 460.412 405.193 460.319 405.436C460.235 405.669 460.193 405.931 460.193 406.22V410H459.101V406.29C459.101 405.562 459.003 405.049 458.807 404.75C458.611 404.442 458.289 404.288 457.841 404.288C457.486 404.288 457.178 404.349 456.917 404.47C456.665 404.591 456.455 404.764 456.287 404.988C456.128 405.212 456.007 405.478 455.923 405.786C455.848 406.094 455.811 406.435 455.811 406.808V410H454.719V405.002ZM472.492 408.81C472.1 409.314 471.671 409.669 471.204 409.874C470.738 410.07 470.196 410.168 469.58 410.168C469.067 410.168 468.605 410.079 468.194 409.902C467.784 409.715 467.434 409.468 467.144 409.16C466.864 408.852 466.645 408.488 466.486 408.068C466.337 407.648 466.262 407.2 466.262 406.724C466.262 406.22 466.346 405.758 466.514 405.338C466.682 404.909 466.916 404.545 467.214 404.246C467.513 403.938 467.868 403.7 468.278 403.532C468.689 403.364 469.137 403.28 469.622 403.28C470.08 403.28 470.5 403.359 470.882 403.518C471.265 403.667 471.592 403.891 471.862 404.19C472.142 404.479 472.357 404.839 472.506 405.268C472.656 405.688 472.73 406.169 472.73 406.71V407.06H467.438C467.457 407.34 467.522 407.611 467.634 407.872C467.756 408.124 467.91 408.348 468.096 408.544C468.283 408.731 468.502 408.88 468.754 408.992C469.006 409.104 469.282 409.16 469.58 409.16C470.056 409.16 470.458 409.076 470.784 408.908C471.111 408.74 471.405 408.493 471.666 408.166L472.492 408.81ZM471.554 406.136C471.536 405.576 471.354 405.128 471.008 404.792C470.663 404.456 470.187 404.288 469.58 404.288C468.974 404.288 468.484 404.456 468.11 404.792C467.737 405.128 467.513 405.576 467.438 406.136H471.554ZM474.42 405.002C474.42 404.703 474.41 404.423 474.392 404.162C474.373 403.901 474.364 403.663 474.364 403.448H475.4C475.4 403.625 475.404 403.803 475.414 403.98C475.423 404.157 475.428 404.339 475.428 404.526H475.456C475.53 404.367 475.633 404.213 475.764 404.064C475.904 403.915 476.067 403.784 476.254 403.672C476.44 403.551 476.65 403.457 476.884 403.392C477.117 403.317 477.369 403.28 477.64 403.28C478.069 403.28 478.438 403.345 478.746 403.476C479.063 403.607 479.324 403.789 479.53 404.022C479.735 404.255 479.884 404.54 479.978 404.876C480.08 405.203 480.132 405.562 480.132 405.954V410H479.04V406.066C479.04 405.515 478.918 405.081 478.676 404.764C478.433 404.447 478.055 404.288 477.542 404.288C477.187 404.288 476.879 404.349 476.618 404.47C476.366 404.591 476.156 404.764 475.988 404.988C475.829 405.212 475.708 405.478 475.624 405.786C475.549 406.094 475.512 406.435 475.512 406.808V410H474.42V405.002ZM485.783 404.372H483.851V407.648C483.851 407.863 483.856 408.063 483.865 408.25C483.874 408.427 483.912 408.586 483.977 408.726C484.042 408.857 484.14 408.964 484.271 409.048C484.402 409.123 484.588 409.16 484.831 409.16C484.99 409.16 485.153 409.141 485.321 409.104C485.489 409.067 485.648 409.011 485.797 408.936L485.839 409.93C485.652 410.014 485.442 410.075 485.209 410.112C484.985 410.149 484.77 410.168 484.565 410.168C484.173 410.168 483.86 410.117 483.627 410.014C483.394 409.911 483.212 409.767 483.081 409.58C482.95 409.393 482.862 409.165 482.815 408.894C482.778 408.614 482.759 408.306 482.759 407.97V404.372H481.331V403.448H482.759V401.586H483.851V403.448H485.783V404.372Z" fill="black"/>
<path opacity="0.7" d="M178.773 410.252C178.017 410.252 177.321 410.121 176.687 409.86C176.061 409.599 175.515 409.239 175.049 408.782C174.591 408.315 174.232 407.765 173.971 407.13C173.719 406.486 173.593 405.791 173.593 405.044C173.593 404.297 173.719 403.607 173.971 402.972C174.232 402.328 174.591 401.777 175.049 401.32C175.515 400.853 176.061 400.489 176.687 400.228C177.321 399.967 178.017 399.836 178.773 399.836C179.529 399.836 180.219 399.967 180.845 400.228C181.479 400.489 182.025 400.853 182.483 401.32C182.949 401.777 183.309 402.328 183.561 402.972C183.822 403.607 183.953 404.297 183.953 405.044C183.953 405.791 183.822 406.486 183.561 407.13C183.309 407.765 182.949 408.315 182.483 408.782C182.025 409.239 181.479 409.599 180.845 409.86C180.219 410.121 179.529 410.252 178.773 410.252ZM178.773 409.16C179.351 409.16 179.879 409.053 180.355 408.838C180.84 408.623 181.255 408.329 181.601 407.956C181.946 407.583 182.212 407.149 182.399 406.654C182.595 406.15 182.693 405.613 182.693 405.044C182.693 404.475 182.595 403.943 182.399 403.448C182.212 402.944 181.946 402.505 181.601 402.132C181.255 401.759 180.84 401.465 180.355 401.25C179.879 401.035 179.351 400.928 178.773 400.928C178.194 400.928 177.662 401.035 177.177 401.25C176.701 401.465 176.29 401.759 175.945 402.132C175.599 402.505 175.329 402.944 175.133 403.448C174.946 403.943 174.853 404.475 174.853 405.044C174.853 405.613 174.946 406.15 175.133 406.654C175.329 407.149 175.599 407.583 175.945 407.956C176.29 408.329 176.701 408.623 177.177 408.838C177.662 409.053 178.194 409.16 178.773 409.16ZM188.628 410H187.424L184.75 403.448H186.024L188.068 408.586H188.096L190.042 403.448H191.218L188.628 410ZM198.252 408.81C197.86 409.314 197.431 409.669 196.964 409.874C196.498 410.07 195.956 410.168 195.34 410.168C194.827 410.168 194.365 410.079 193.954 409.902C193.544 409.715 193.194 409.468 192.904 409.16C192.624 408.852 192.405 408.488 192.246 408.068C192.097 407.648 192.022 407.2 192.022 406.724C192.022 406.22 192.106 405.758 192.274 405.338C192.442 404.909 192.676 404.545 192.974 404.246C193.273 403.938 193.628 403.7 194.038 403.532C194.449 403.364 194.897 403.28 195.382 403.28C195.84 403.28 196.26 403.359 196.642 403.518C197.025 403.667 197.352 403.891 197.622 404.19C197.902 404.479 198.117 404.839 198.266 405.268C198.416 405.688 198.49 406.169 198.49 406.71V407.06H193.198C193.217 407.34 193.282 407.611 193.394 407.872C193.516 408.124 193.67 408.348 193.856 408.544C194.043 408.731 194.262 408.88 194.514 408.992C194.766 409.104 195.042 409.16 195.34 409.16C195.816 409.16 196.218 409.076 196.544 408.908C196.871 408.74 197.165 408.493 197.426 408.166L198.252 408.81ZM197.314 406.136C197.296 405.576 197.114 405.128 196.768 404.792C196.423 404.456 195.947 404.288 195.34 404.288C194.734 404.288 194.244 404.456 193.87 404.792C193.497 405.128 193.273 405.576 193.198 406.136H197.314ZM200.18 405.002C200.18 404.703 200.17 404.423 200.152 404.162C200.133 403.901 200.124 403.663 200.124 403.448H201.16C201.16 403.625 201.164 403.803 201.174 403.98C201.183 404.157 201.188 404.339 201.188 404.526H201.216C201.29 404.367 201.393 404.213 201.524 404.064C201.664 403.915 201.827 403.784 202.014 403.672C202.2 403.551 202.41 403.457 202.644 403.392C202.877 403.317 203.129 403.28 203.4 403.28C203.474 403.28 203.549 403.285 203.624 403.294C203.698 403.303 203.773 403.322 203.848 403.35L203.778 404.456C203.591 404.4 203.395 404.372 203.19 404.372C202.518 404.372 202.028 404.591 201.72 405.03C201.421 405.459 201.272 406.052 201.272 406.808V410H200.18V405.002ZM205.017 404.288C205.353 403.943 205.75 403.691 206.207 403.532C206.674 403.364 207.145 403.28 207.621 403.28C208.592 403.28 209.292 403.509 209.721 403.966C210.151 404.423 210.365 405.119 210.365 406.052V408.866C210.365 409.053 210.375 409.249 210.393 409.454C210.412 409.65 210.435 409.832 210.463 410H209.413C209.376 409.851 209.353 409.687 209.343 409.51C209.343 409.323 209.343 409.16 209.343 409.02H209.315C209.101 409.356 208.811 409.631 208.447 409.846C208.093 410.061 207.663 410.168 207.159 410.168C206.823 410.168 206.506 410.126 206.207 410.042C205.918 409.958 205.661 409.837 205.437 409.678C205.223 409.51 205.05 409.305 204.919 409.062C204.789 408.819 204.723 408.539 204.723 408.222C204.723 407.681 204.863 407.256 205.143 406.948C205.423 406.64 205.769 406.411 206.179 406.262C206.599 406.113 207.047 406.019 207.523 405.982C208.009 405.945 208.452 405.926 208.853 405.926H209.273V405.73C209.273 405.254 209.129 404.895 208.839 404.652C208.559 404.409 208.163 404.288 207.649 404.288C207.295 404.288 206.945 404.349 206.599 404.47C206.263 404.582 205.965 404.759 205.703 405.002L205.017 404.288ZM208.181 406.85C207.481 406.85 206.926 406.948 206.515 407.144C206.105 407.34 205.899 407.662 205.899 408.11C205.899 408.521 206.035 408.815 206.305 408.992C206.585 409.16 206.931 409.244 207.341 409.244C207.659 409.244 207.934 409.193 208.167 409.09C208.41 408.978 208.611 408.833 208.769 408.656C208.928 408.479 209.049 408.273 209.133 408.04C209.217 407.797 209.264 407.541 209.273 407.27V406.85H208.181ZM212.459 399.416H213.551V410H212.459V399.416ZM215.836 399.416H216.928V410H215.836V399.416Z" fill="black"/>
<path opacity="0.7" d="M633.705 400.088H636.645C637.102 400.088 637.536 400.135 637.947 400.228C638.367 400.312 638.735 400.461 639.053 400.676C639.379 400.881 639.636 401.161 639.823 401.516C640.019 401.861 640.117 402.291 640.117 402.804C640.117 403.345 640.014 403.793 639.809 404.148C639.603 404.503 639.337 404.783 639.011 404.988C638.693 405.193 638.343 405.338 637.961 405.422C637.578 405.506 637.214 405.548 636.869 405.548H634.881V410H633.705V400.088ZM634.881 404.456H636.869C637.457 404.456 637.933 404.325 638.297 404.064C638.67 403.793 638.857 403.378 638.857 402.818C638.857 402.258 638.67 401.847 638.297 401.586C637.933 401.315 637.457 401.18 636.869 401.18H634.881V404.456ZM641.807 405.002C641.807 404.703 641.798 404.423 641.779 404.162C641.761 403.901 641.751 403.663 641.751 403.448H642.787C642.787 403.625 642.792 403.803 642.801 403.98C642.811 404.157 642.815 404.339 642.815 404.526H642.843C642.918 404.367 643.021 404.213 643.151 404.064C643.291 403.915 643.455 403.784 643.641 403.672C643.828 403.551 644.038 403.457 644.271 403.392C644.505 403.317 644.757 403.28 645.027 403.28C645.102 403.28 645.177 403.285 645.251 403.294C645.326 403.303 645.401 403.322 645.475 403.35L645.405 404.456C645.219 404.4 645.023 404.372 644.817 404.372C644.145 404.372 643.655 404.591 643.347 405.03C643.049 405.459 642.899 406.052 642.899 406.808V410H641.807V405.002ZM646.105 406.724C646.105 406.211 646.194 405.744 646.371 405.324C646.549 404.904 646.791 404.545 647.099 404.246C647.407 403.938 647.776 403.7 648.205 403.532C648.635 403.364 649.101 403.28 649.605 403.28C650.109 403.28 650.576 403.364 651.005 403.532C651.435 403.7 651.803 403.938 652.111 404.246C652.419 404.545 652.662 404.904 652.839 405.324C653.017 405.744 653.105 406.211 653.105 406.724C653.105 407.237 653.017 407.704 652.839 408.124C652.662 408.544 652.419 408.908 652.111 409.216C651.803 409.515 651.435 409.748 651.005 409.916C650.576 410.084 650.109 410.168 649.605 410.168C649.101 410.168 648.635 410.084 648.205 409.916C647.776 409.748 647.407 409.515 647.099 409.216C646.791 408.908 646.549 408.544 646.371 408.124C646.194 407.704 646.105 407.237 646.105 406.724ZM647.281 406.724C647.281 407.069 647.333 407.391 647.435 407.69C647.547 407.979 647.706 408.236 647.911 408.46C648.117 408.675 648.359 408.847 648.639 408.978C648.929 409.099 649.251 409.16 649.605 409.16C649.96 409.16 650.277 409.099 650.557 408.978C650.847 408.847 651.094 408.675 651.299 408.46C651.505 408.236 651.659 407.979 651.761 407.69C651.873 407.391 651.929 407.069 651.929 406.724C651.929 406.379 651.873 406.061 651.761 405.772C651.659 405.473 651.505 405.217 651.299 405.002C651.094 404.778 650.847 404.605 650.557 404.484C650.277 404.353 649.96 404.288 649.605 404.288C649.251 404.288 648.929 404.353 648.639 404.484C648.359 404.605 648.117 404.778 647.911 405.002C647.706 405.217 647.547 405.473 647.435 405.772C647.333 406.061 647.281 406.379 647.281 406.724ZM660.242 408.838H660.214C660.008 409.211 659.682 409.529 659.234 409.79C658.795 410.042 658.282 410.168 657.694 410.168C657.236 410.168 656.807 410.084 656.406 409.916C656.004 409.739 655.654 409.496 655.356 409.188C655.066 408.88 654.838 408.516 654.67 408.096C654.502 407.676 654.418 407.219 654.418 406.724C654.418 406.229 654.502 405.772 654.67 405.352C654.838 404.932 655.071 404.568 655.37 404.26C655.668 403.952 656.028 403.714 656.448 403.546C656.877 403.369 657.348 403.28 657.862 403.28C658.338 403.28 658.772 403.378 659.164 403.574C659.565 403.77 659.915 404.045 660.214 404.4H660.242V399.416H661.334V410H660.242V408.838ZM660.242 406.724C660.242 406.379 660.186 406.061 660.074 405.772C659.971 405.473 659.817 405.217 659.612 405.002C659.406 404.778 659.159 404.605 658.87 404.484C658.59 404.353 658.272 404.288 657.918 404.288C657.563 404.288 657.241 404.353 656.952 404.484C656.672 404.605 656.429 404.778 656.224 405.002C656.018 405.217 655.86 405.473 655.748 405.772C655.645 406.061 655.594 406.379 655.594 406.724C655.594 407.069 655.645 407.391 655.748 407.69C655.86 407.979 656.018 408.236 656.224 408.46C656.429 408.675 656.672 408.847 656.952 408.978C657.241 409.099 657.563 409.16 657.918 409.16C658.272 409.16 658.59 409.099 658.87 408.978C659.159 408.847 659.406 408.675 659.612 408.46C659.817 408.236 659.971 407.979 660.074 407.69C660.186 407.391 660.242 407.069 660.242 406.724ZM669.066 408.446C669.066 408.745 669.076 409.025 669.094 409.286C669.113 409.547 669.122 409.785 669.122 410H668.086C668.086 409.823 668.082 409.645 668.072 409.468C668.063 409.291 668.058 409.109 668.058 408.922H668.03C667.956 409.081 667.848 409.235 667.708 409.384C667.578 409.533 667.419 409.669 667.232 409.79C667.046 409.902 666.836 409.991 666.602 410.056C666.369 410.131 666.117 410.168 665.846 410.168C665.417 410.168 665.044 410.103 664.726 409.972C664.418 409.841 664.162 409.659 663.956 409.426C663.751 409.193 663.597 408.913 663.494 408.586C663.401 408.25 663.354 407.886 663.354 407.494V403.448H664.446V407.382C664.446 407.933 664.568 408.367 664.81 408.684C665.053 409.001 665.431 409.16 665.944 409.16C666.299 409.16 666.602 409.099 666.854 408.978C667.116 408.857 667.326 408.684 667.484 408.46C667.652 408.236 667.774 407.97 667.848 407.662C667.932 407.354 667.974 407.013 667.974 406.64V403.448H669.066V408.446ZM675.796 405.086C675.562 404.806 675.31 404.605 675.04 404.484C674.769 404.353 674.47 404.288 674.144 404.288C673.78 404.288 673.458 404.353 673.178 404.484C672.898 404.605 672.664 404.778 672.478 405.002C672.3 405.226 672.165 405.487 672.072 405.786C671.978 406.075 671.932 406.388 671.932 406.724C671.932 407.06 671.983 407.377 672.086 407.676C672.198 407.965 672.347 408.222 672.534 408.446C672.73 408.67 672.963 408.847 673.234 408.978C673.504 409.099 673.808 409.16 674.144 409.16C674.862 409.16 675.418 408.889 675.81 408.348L676.622 409.118C676.304 409.482 675.931 409.748 675.502 409.916C675.072 410.084 674.62 410.168 674.144 410.168C673.64 410.168 673.178 410.084 672.758 409.916C672.338 409.748 671.978 409.51 671.68 409.202C671.39 408.894 671.162 408.53 670.994 408.11C670.835 407.69 670.756 407.228 670.756 406.724C670.756 406.229 670.835 405.772 670.994 405.352C671.162 404.932 671.395 404.568 671.694 404.26C671.992 403.952 672.347 403.714 672.758 403.546C673.178 403.369 673.64 403.28 674.144 403.28C674.629 403.28 675.086 403.364 675.516 403.532C675.954 403.7 676.337 403.961 676.664 404.316L675.796 405.086ZM681.472 404.372H679.54V407.648C679.54 407.863 679.544 408.063 679.554 408.25C679.563 408.427 679.6 408.586 679.666 408.726C679.731 408.857 679.829 408.964 679.96 409.048C680.09 409.123 680.277 409.16 680.52 409.16C680.678 409.16 680.842 409.141 681.01 409.104C681.178 409.067 681.336 409.011 681.486 408.936L681.528 409.93C681.341 410.014 681.131 410.075 680.898 410.112C680.674 410.149 680.459 410.168 680.254 410.168C679.862 410.168 679.549 410.117 679.316 410.014C679.082 409.911 678.9 409.767 678.77 409.58C678.639 409.393 678.55 409.165 678.504 408.894C678.466 408.614 678.448 408.306 678.448 407.97V404.372H677.02V403.448H678.448V401.586H679.54V403.448H681.472V404.372ZM693.552 401.18H690.276V410H689.1V401.18H685.824V400.088H693.552V401.18ZM699.038 408.81C698.646 409.314 698.217 409.669 697.75 409.874C697.284 410.07 696.742 410.168 696.126 410.168C695.613 410.168 695.151 410.079 694.74 409.902C694.33 409.715 693.98 409.468 693.69 409.16C693.41 408.852 693.191 408.488 693.032 408.068C692.883 407.648 692.808 407.2 692.808 406.724C692.808 406.22 692.892 405.758 693.06 405.338C693.228 404.909 693.462 404.545 693.76 404.246C694.059 403.938 694.414 403.7 694.824 403.532C695.235 403.364 695.683 403.28 696.168 403.28C696.626 403.28 697.046 403.359 697.428 403.518C697.811 403.667 698.138 403.891 698.408 404.19C698.688 404.479 698.903 404.839 699.052 405.268C699.202 405.688 699.276 406.169 699.276 406.71V407.06H693.984C694.003 407.34 694.068 407.611 694.18 407.872C694.302 408.124 694.456 408.348 694.642 408.544C694.829 408.731 695.048 408.88 695.3 408.992C695.552 409.104 695.828 409.16 696.126 409.16C696.602 409.16 697.004 409.076 697.33 408.908C697.657 408.74 697.951 408.493 698.212 408.166L699.038 408.81ZM698.1 406.136C698.082 405.576 697.9 405.128 697.554 404.792C697.209 404.456 696.733 404.288 696.126 404.288C695.52 404.288 695.03 404.456 694.656 404.792C694.283 405.128 694.059 405.576 693.984 406.136H698.1ZM701.106 408.278C701.32 408.549 701.554 408.763 701.806 408.922C702.067 409.081 702.394 409.16 702.786 409.16C702.954 409.16 703.122 409.141 703.29 409.104C703.467 409.067 703.626 409.006 703.766 408.922C703.906 408.838 704.018 408.735 704.102 408.614C704.186 408.483 704.228 408.329 704.228 408.152C704.228 407.975 704.186 407.83 704.102 407.718C704.027 407.606 703.924 407.513 703.794 407.438C703.663 407.354 703.514 407.289 703.346 407.242C703.178 407.195 703.005 407.153 702.828 407.116C702.52 407.051 702.226 406.976 701.946 406.892C701.666 406.808 701.418 406.701 701.204 406.57C700.998 406.43 700.83 406.253 700.7 406.038C700.578 405.823 700.518 405.548 700.518 405.212C700.518 404.895 700.588 404.615 700.728 404.372C700.868 404.129 701.054 403.929 701.288 403.77C701.521 403.611 701.782 403.49 702.072 403.406C702.361 403.322 702.66 403.28 702.968 403.28C703.434 403.28 703.864 403.373 704.256 403.56C704.657 403.747 704.97 404.05 705.194 404.47L704.284 405.072C704.144 404.839 703.957 404.652 703.724 404.512C703.5 404.363 703.224 404.288 702.898 404.288C702.748 404.288 702.594 404.307 702.436 404.344C702.286 404.381 702.151 404.437 702.03 404.512C701.908 404.587 701.806 404.685 701.722 404.806C701.647 404.918 701.61 405.049 701.61 405.198C701.61 405.338 701.652 405.459 701.736 405.562C701.829 405.655 701.95 405.739 702.1 405.814C702.258 405.889 702.436 405.954 702.632 406.01C702.837 406.066 703.047 406.113 703.262 406.15C703.551 406.206 703.826 406.281 704.088 406.374C704.349 406.458 704.578 406.575 704.774 406.724C704.97 406.873 705.124 407.06 705.236 407.284C705.348 407.508 705.404 407.783 705.404 408.11C705.404 408.483 705.329 408.801 705.18 409.062C705.03 409.323 704.83 409.538 704.578 409.706C704.335 409.865 704.055 409.981 703.738 410.056C703.43 410.131 703.112 410.168 702.786 410.168C702.226 410.168 701.74 410.084 701.33 409.916C700.928 409.739 700.564 409.417 700.238 408.95L701.106 408.278ZM710.511 404.372H708.579V407.648C708.579 407.863 708.583 408.063 708.593 408.25C708.602 408.427 708.639 408.586 708.705 408.726C708.77 408.857 708.868 408.964 708.999 409.048C709.129 409.123 709.316 409.16 709.559 409.16C709.717 409.16 709.881 409.141 710.049 409.104C710.217 409.067 710.375 409.011 710.525 408.936L710.567 409.93C710.38 410.014 710.17 410.075 709.937 410.112C709.713 410.149 709.498 410.168 709.293 410.168C708.901 410.168 708.588 410.117 708.355 410.014C708.121 409.911 707.939 409.767 707.809 409.58C707.678 409.393 707.589 409.165 707.543 408.894C707.505 408.614 707.487 408.306 707.487 407.97V404.372H706.059V403.448H707.487V401.586H708.579V403.448H710.511V404.372ZM711.96 403.448H713.052V410H711.96V403.448ZM711.708 400.886C711.708 400.671 711.783 400.485 711.932 400.326C712.091 400.167 712.282 400.088 712.506 400.088C712.73 400.088 712.917 400.167 713.066 400.326C713.225 400.485 713.304 400.671 713.304 400.886C713.304 401.119 713.23 401.311 713.08 401.46C712.931 401.609 712.74 401.684 712.506 401.684C712.273 401.684 712.082 401.609 711.932 401.46C711.783 401.311 711.708 401.119 711.708 400.886ZM715.225 405.002C715.225 404.703 715.216 404.423 715.197 404.162C715.179 403.901 715.169 403.663 715.169 403.448H716.205C716.205 403.625 716.21 403.803 716.219 403.98C716.229 404.157 716.233 404.339 716.233 404.526H716.261C716.336 404.367 716.439 404.213 716.569 404.064C716.709 403.915 716.873 403.784 717.059 403.672C717.246 403.551 717.456 403.457 717.689 403.392C717.923 403.317 718.175 403.28 718.445 403.28C718.875 403.28 719.243 403.345 719.551 403.476C719.869 403.607 720.13 403.789 720.335 404.022C720.541 404.255 720.69 404.54 720.783 404.876C720.886 405.203 720.937 405.562 720.937 405.954V410H719.845V406.066C719.845 405.515 719.724 405.081 719.481 404.764C719.239 404.447 718.861 404.288 718.347 404.288C717.993 404.288 717.685 404.349 717.423 404.47C717.171 404.591 716.961 404.764 716.793 404.988C716.635 405.212 716.513 405.478 716.429 405.786C716.355 406.094 716.317 406.435 716.317 406.808V410H715.225V405.002ZM729.543 409.706C729.543 410.901 729.235 411.806 728.619 412.422C728.012 413.047 727.13 413.36 725.973 413.36C725.329 413.36 724.745 413.267 724.223 413.08C723.709 412.893 723.219 412.571 722.753 412.114L723.537 411.218C723.882 411.591 724.246 411.871 724.629 412.058C725.021 412.254 725.469 412.352 725.973 412.352C726.458 412.352 726.859 412.277 727.177 412.128C727.503 411.988 727.76 411.792 727.947 411.54C728.133 411.297 728.264 411.017 728.339 410.7C728.413 410.383 728.451 410.051 728.451 409.706V408.866H728.423C728.161 409.286 727.821 409.594 727.401 409.79C726.981 409.986 726.551 410.084 726.113 410.084C725.599 410.084 725.128 410 724.699 409.832C724.269 409.664 723.901 409.431 723.593 409.132C723.285 408.833 723.047 408.479 722.879 408.068C722.711 407.657 722.627 407.209 722.627 406.724C722.627 406.192 722.711 405.711 722.879 405.282C723.047 404.853 723.28 404.493 723.579 404.204C723.887 403.905 724.255 403.677 724.685 403.518C725.114 403.359 725.59 403.28 726.113 403.28C726.337 403.28 726.561 403.308 726.785 403.364C727.009 403.411 727.223 403.49 727.429 403.602C727.643 403.705 727.835 403.84 728.003 404.008C728.171 404.167 728.311 404.353 728.423 404.568H728.451V403.448H729.543V409.706ZM723.803 406.724C723.803 407.06 723.863 407.373 723.985 407.662C724.106 407.942 724.269 408.189 724.475 408.404C724.689 408.609 724.937 408.773 725.217 408.894C725.497 409.015 725.795 409.076 726.113 409.076C726.486 409.076 726.817 409.011 727.107 408.88C727.396 408.749 727.639 408.577 727.835 408.362C728.04 408.138 728.194 407.886 728.297 407.606C728.399 407.317 728.451 407.013 728.451 406.696C728.451 406.341 728.395 406.019 728.283 405.73C728.171 405.431 728.012 405.175 727.807 404.96C727.601 404.745 727.354 404.582 727.065 404.47C726.775 404.349 726.458 404.288 726.113 404.288C725.767 404.288 725.45 404.353 725.161 404.484C724.881 404.605 724.638 404.778 724.433 405.002C724.237 405.217 724.083 405.473 723.971 405.772C723.859 406.061 723.803 406.379 723.803 406.724Z" fill="black"/>
<path opacity="0.7" d="M855.828 400.088H857.004V410H855.828V400.088ZM859.268 405.002C859.268 404.703 859.259 404.423 859.24 404.162C859.222 403.901 859.212 403.663 859.212 403.448H860.248C860.248 403.625 860.253 403.803 860.262 403.98C860.272 404.157 860.276 404.339 860.276 404.526H860.304C860.379 404.367 860.482 404.213 860.612 404.064C860.752 403.915 860.916 403.784 861.102 403.672C861.289 403.551 861.499 403.457 861.732 403.392C861.966 403.317 862.218 403.28 862.488 403.28C862.918 403.28 863.286 403.345 863.594 403.476C863.912 403.607 864.173 403.789 864.378 404.022C864.584 404.255 864.733 404.54 864.826 404.876C864.929 405.203 864.98 405.562 864.98 405.954V410H863.888V406.066C863.888 405.515 863.767 405.081 863.524 404.764C863.282 404.447 862.904 404.288 862.39 404.288C862.036 404.288 861.728 404.349 861.466 404.47C861.214 404.591 861.004 404.764 860.836 404.988C860.678 405.212 860.556 405.478 860.472 405.786C860.398 406.094 860.36 406.435 860.36 406.808V410H859.268V405.002ZM872.494 408.838H872.466C872.26 409.211 871.934 409.529 871.486 409.79C871.047 410.042 870.534 410.168 869.946 410.168C869.488 410.168 869.059 410.084 868.658 409.916C868.256 409.739 867.906 409.496 867.608 409.188C867.318 408.88 867.09 408.516 866.922 408.096C866.754 407.676 866.67 407.219 866.67 406.724C866.67 406.229 866.754 405.772 866.922 405.352C867.09 404.932 867.323 404.568 867.622 404.26C867.92 403.952 868.28 403.714 868.7 403.546C869.129 403.369 869.6 403.28 870.114 403.28C870.59 403.28 871.024 403.378 871.416 403.574C871.817 403.77 872.167 404.045 872.466 404.4H872.494V399.416H873.586V410H872.494V408.838ZM872.494 406.724C872.494 406.379 872.438 406.061 872.326 405.772C872.223 405.473 872.069 405.217 871.864 405.002C871.658 404.778 871.411 404.605 871.122 404.484C870.842 404.353 870.524 404.288 870.17 404.288C869.815 404.288 869.493 404.353 869.204 404.484C868.924 404.605 868.681 404.778 868.476 405.002C868.27 405.217 868.112 405.473 868 405.772C867.897 406.061 867.846 406.379 867.846 406.724C867.846 407.069 867.897 407.391 868 407.69C868.112 407.979 868.27 408.236 868.476 408.46C868.681 408.675 868.924 408.847 869.204 408.978C869.493 409.099 869.815 409.16 870.17 409.16C870.524 409.16 870.842 409.099 871.122 408.978C871.411 408.847 871.658 408.675 871.864 408.46C872.069 408.236 872.223 407.979 872.326 407.69C872.438 407.391 872.494 407.069 872.494 406.724ZM881.318 408.446C881.318 408.745 881.328 409.025 881.346 409.286C881.365 409.547 881.374 409.785 881.374 410H880.338C880.338 409.823 880.334 409.645 880.324 409.468C880.315 409.291 880.31 409.109 880.31 408.922H880.282C880.208 409.081 880.1 409.235 879.96 409.384C879.83 409.533 879.671 409.669 879.484 409.79C879.298 409.902 879.088 409.991 878.854 410.056C878.621 410.131 878.369 410.168 878.098 410.168C877.669 410.168 877.296 410.103 876.978 409.972C876.67 409.841 876.414 409.659 876.208 409.426C876.003 409.193 875.849 408.913 875.746 408.586C875.653 408.25 875.606 407.886 875.606 407.494V403.448H876.698V407.382C876.698 407.933 876.82 408.367 877.062 408.684C877.305 409.001 877.683 409.16 878.196 409.16C878.551 409.16 878.854 409.099 879.106 408.978C879.368 408.857 879.578 408.684 879.736 408.46C879.904 408.236 880.026 407.97 880.1 407.662C880.184 407.354 880.226 407.013 880.226 406.64V403.448H881.318V408.446ZM883.526 408.278C883.74 408.549 883.974 408.763 884.226 408.922C884.487 409.081 884.814 409.16 885.206 409.16C885.374 409.16 885.542 409.141 885.71 409.104C885.887 409.067 886.046 409.006 886.186 408.922C886.326 408.838 886.438 408.735 886.522 408.614C886.606 408.483 886.648 408.329 886.648 408.152C886.648 407.975 886.606 407.83 886.522 407.718C886.447 407.606 886.344 407.513 886.214 407.438C886.083 407.354 885.934 407.289 885.766 407.242C885.598 407.195 885.425 407.153 885.248 407.116C884.94 407.051 884.646 406.976 884.366 406.892C884.086 406.808 883.838 406.701 883.624 406.57C883.418 406.43 883.25 406.253 883.12 406.038C882.998 405.823 882.938 405.548 882.938 405.212C882.938 404.895 883.008 404.615 883.148 404.372C883.288 404.129 883.474 403.929 883.708 403.77C883.941 403.611 884.202 403.49 884.492 403.406C884.781 403.322 885.08 403.28 885.388 403.28C885.854 403.28 886.284 403.373 886.676 403.56C887.077 403.747 887.39 404.05 887.614 404.47L886.704 405.072C886.564 404.839 886.377 404.652 886.144 404.512C885.92 404.363 885.644 404.288 885.318 404.288C885.168 404.288 885.014 404.307 884.856 404.344C884.706 404.381 884.571 404.437 884.45 404.512C884.328 404.587 884.226 404.685 884.142 404.806C884.067 404.918 884.03 405.049 884.03 405.198C884.03 405.338 884.072 405.459 884.156 405.562C884.249 405.655 884.37 405.739 884.52 405.814C884.678 405.889 884.856 405.954 885.052 406.01C885.257 406.066 885.467 406.113 885.682 406.15C885.971 406.206 886.246 406.281 886.508 406.374C886.769 406.458 886.998 406.575 887.194 406.724C887.39 406.873 887.544 407.06 887.656 407.284C887.768 407.508 887.824 407.783 887.824 408.11C887.824 408.483 887.749 408.801 887.6 409.062C887.45 409.323 887.25 409.538 886.998 409.706C886.755 409.865 886.475 409.981 886.158 410.056C885.85 410.131 885.532 410.168 885.206 410.168C884.646 410.168 884.16 410.084 883.75 409.916C883.348 409.739 882.984 409.417 882.658 408.95L883.526 408.278ZM892.931 404.372H890.999V407.648C890.999 407.863 891.003 408.063 891.013 408.25C891.022 408.427 891.059 408.586 891.125 408.726C891.19 408.857 891.288 408.964 891.419 409.048C891.549 409.123 891.736 409.16 891.979 409.16C892.137 409.16 892.301 409.141 892.469 409.104C892.637 409.067 892.795 409.011 892.945 408.936L892.987 409.93C892.8 410.014 892.59 410.075 892.357 410.112C892.133 410.149 891.918 410.168 891.713 410.168C891.321 410.168 891.008 410.117 890.775 410.014C890.541 409.911 890.359 409.767 890.229 409.58C890.098 409.393 890.009 409.165 889.963 408.894C889.925 408.614 889.907 408.306 889.907 407.97V404.372H888.479V403.448H889.907V401.586H890.999V403.448H892.931V404.372ZM894.268 405.002C894.268 404.703 894.259 404.423 894.24 404.162C894.222 403.901 894.212 403.663 894.212 403.448H895.248C895.248 403.625 895.253 403.803 895.262 403.98C895.272 404.157 895.276 404.339 895.276 404.526H895.304C895.379 404.367 895.482 404.213 895.612 404.064C895.752 403.915 895.916 403.784 896.102 403.672C896.289 403.551 896.499 403.457 896.732 403.392C896.966 403.317 897.218 403.28 897.488 403.28C897.563 403.28 897.638 403.285 897.712 403.294C897.787 403.303 897.862 403.322 897.936 403.35L897.866 404.456C897.68 404.4 897.484 404.372 897.278 404.372C896.606 404.372 896.116 404.591 895.808 405.03C895.51 405.459 895.36 406.052 895.36 406.808V410H894.268V405.002ZM901.598 411.498C901.486 411.778 901.37 412.03 901.248 412.254C901.136 412.487 900.996 412.683 900.828 412.842C900.67 413.01 900.474 413.136 900.24 413.22C900.016 413.313 899.741 413.36 899.414 413.36C899.256 413.36 899.088 413.351 898.91 413.332C898.742 413.313 898.584 413.267 898.434 413.192L898.574 412.24C898.686 412.287 898.803 412.315 898.924 412.324C899.046 412.343 899.186 412.352 899.344 412.352C899.699 412.352 899.96 412.254 900.128 412.058C900.296 411.862 900.441 411.601 900.562 411.274L901.01 410.042L898.294 403.448H899.568L901.598 408.586H901.626L903.572 403.448H904.762L901.598 411.498ZM910.037 400.088H916.267V401.18H911.213V404.288H915.931V405.38H911.213V408.908H916.519V410H910.037V400.088ZM919.834 406.472L917.482 403.448H918.91L920.646 405.8L922.284 403.448H923.614L921.36 406.472L924.062 410H922.62L920.548 407.172L918.504 410H917.146L919.834 406.472ZM925.084 403.448H926.176V404.4H926.204C926.502 404.045 926.848 403.77 927.24 403.574C927.641 403.378 928.08 403.28 928.556 403.28C929.069 403.28 929.536 403.369 929.956 403.546C930.385 403.714 930.749 403.952 931.048 404.26C931.346 404.568 931.58 404.932 931.748 405.352C931.916 405.772 932 406.229 932 406.724C932 407.219 931.916 407.676 931.748 408.096C931.58 408.516 931.346 408.88 931.048 409.188C930.758 409.496 930.413 409.739 930.012 409.916C929.61 410.084 929.181 410.168 928.724 410.168C928.136 410.168 927.618 410.042 927.17 409.79C926.731 409.529 926.409 409.211 926.204 408.838H926.176V413.192H925.084V403.448ZM926.176 406.724C926.176 407.069 926.227 407.391 926.33 407.69C926.442 407.979 926.6 408.236 926.806 408.46C927.011 408.675 927.254 408.847 927.534 408.978C927.823 409.099 928.145 409.16 928.5 409.16C928.854 409.16 929.172 409.099 929.452 408.978C929.741 408.847 929.988 408.675 930.194 408.46C930.399 408.236 930.553 407.979 930.656 407.69C930.768 407.391 930.824 407.069 930.824 406.724C930.824 406.379 930.768 406.061 930.656 405.772C930.553 405.473 930.399 405.217 930.194 405.002C929.988 404.778 929.741 404.605 929.452 404.484C929.172 404.353 928.854 404.288 928.5 404.288C928.145 404.288 927.823 404.353 927.534 404.484C927.254 404.605 927.011 404.778 926.806 405.002C926.6 405.217 926.442 405.473 926.33 405.772C926.227 406.061 926.176 406.379 926.176 406.724ZM939.55 408.81C939.158 409.314 938.729 409.669 938.262 409.874C937.795 410.07 937.254 410.168 936.638 410.168C936.125 410.168 935.663 410.079 935.252 409.902C934.841 409.715 934.491 409.468 934.202 409.16C933.922 408.852 933.703 408.488 933.544 408.068C933.395 407.648 933.32 407.2 933.32 406.724C933.32 406.22 933.404 405.758 933.572 405.338C933.74 404.909 933.973 404.545 934.272 404.246C934.571 403.938 934.925 403.7 935.336 403.532C935.747 403.364 936.195 403.28 936.68 403.28C937.137 403.28 937.557 403.359 937.94 403.518C938.323 403.667 938.649 403.891 938.92 404.19C939.2 404.479 939.415 404.839 939.564 405.268C939.713 405.688 939.788 406.169 939.788 406.71V407.06H934.496C934.515 407.34 934.58 407.611 934.692 407.872C934.813 408.124 934.967 408.348 935.154 408.544C935.341 408.731 935.56 408.88 935.812 408.992C936.064 409.104 936.339 409.16 936.638 409.16C937.114 409.16 937.515 409.076 937.842 408.908C938.169 408.74 938.463 408.493 938.724 408.166L939.55 408.81ZM938.612 406.136C938.593 405.576 938.411 405.128 938.066 404.792C937.721 404.456 937.245 404.288 936.638 404.288C936.031 404.288 935.541 404.456 935.168 404.792C934.795 405.128 934.571 405.576 934.496 406.136H938.612ZM941.477 405.002C941.477 404.703 941.468 404.423 941.449 404.162C941.431 403.901 941.421 403.663 941.421 403.448H942.457C942.457 403.625 942.462 403.803 942.471 403.98C942.481 404.157 942.485 404.339 942.485 404.526H942.513C942.588 404.367 942.691 404.213 942.821 404.064C942.961 403.915 943.125 403.784 943.311 403.672C943.498 403.551 943.708 403.457 943.941 403.392C944.175 403.317 944.427 403.28 944.697 403.28C944.772 403.28 944.847 403.285 944.921 403.294C944.996 403.303 945.071 403.322 945.145 403.35L945.075 404.456C944.889 404.4 944.693 404.372 944.487 404.372C943.815 404.372 943.325 404.591 943.017 405.03C942.719 405.459 942.569 406.052 942.569 406.808V410H941.477V405.002ZM949.983 404.372H948.051V407.648C948.051 407.863 948.056 408.063 948.065 408.25C948.075 408.427 948.112 408.586 948.177 408.726C948.243 408.857 948.341 408.964 948.471 409.048C948.602 409.123 948.789 409.16 949.031 409.16C949.19 409.16 949.353 409.141 949.521 409.104C949.689 409.067 949.848 409.011 949.997 408.936L950.039 409.93C949.853 410.014 949.643 410.075 949.409 410.112C949.185 410.149 948.971 410.168 948.765 410.168C948.373 410.168 948.061 410.117 947.827 410.014C947.594 409.911 947.412 409.767 947.281 409.58C947.151 409.393 947.062 409.165 947.015 408.894C946.978 408.614 946.959 408.306 946.959 407.97V404.372H945.531V403.448H946.959V401.586H948.051V403.448H949.983V404.372ZM963.842 409.328C963.272 409.645 962.67 409.879 962.036 410.028C961.41 410.177 960.776 410.252 960.132 410.252C959.357 410.252 958.648 410.126 958.004 409.874C957.36 409.622 956.8 409.267 956.324 408.81C955.857 408.353 955.493 407.807 955.232 407.172C954.97 406.528 954.84 405.819 954.84 405.044C954.84 404.26 954.975 403.551 955.246 402.916C955.526 402.272 955.908 401.726 956.394 401.278C956.879 400.821 957.444 400.466 958.088 400.214C958.732 399.962 959.427 399.836 960.174 399.836C960.827 399.836 961.452 399.934 962.05 400.13C962.656 400.326 963.198 400.662 963.674 401.138L962.792 402.062C962.456 401.698 962.045 401.418 961.56 401.222C961.084 401.026 960.594 400.928 960.09 400.928C959.52 400.928 958.993 401.031 958.508 401.236C958.022 401.441 957.598 401.726 957.234 402.09C956.879 402.454 956.599 402.888 956.394 403.392C956.198 403.896 956.1 404.447 956.1 405.044C956.1 405.632 956.198 406.178 956.394 406.682C956.599 407.186 956.879 407.625 957.234 407.998C957.598 408.362 958.032 408.647 958.536 408.852C959.04 409.057 959.595 409.16 960.202 409.16C960.603 409.16 961.023 409.113 961.462 409.02C961.9 408.917 962.302 408.773 962.666 408.586V405.548H960.384V404.456H963.842V409.328ZM966.114 405.002C966.114 404.703 966.105 404.423 966.086 404.162C966.067 403.901 966.058 403.663 966.058 403.448H967.094C967.094 403.625 967.099 403.803 967.108 403.98C967.117 404.157 967.122 404.339 967.122 404.526H967.15C967.225 404.367 967.327 404.213 967.458 404.064C967.598 403.915 967.761 403.784 967.948 403.672C968.135 403.551 968.345 403.457 968.578 403.392C968.811 403.317 969.063 403.28 969.334 403.28C969.409 403.28 969.483 403.285 969.558 403.294C969.633 403.303 969.707 403.322 969.782 403.35L969.712 404.456C969.525 404.4 969.329 404.372 969.124 404.372C968.452 404.372 967.962 404.591 967.654 405.03C967.355 405.459 967.206 406.052 967.206 406.808V410H966.114V405.002ZM970.412 406.724C970.412 406.211 970.501 405.744 970.678 405.324C970.855 404.904 971.098 404.545 971.406 404.246C971.714 403.938 972.083 403.7 972.512 403.532C972.941 403.364 973.408 403.28 973.912 403.28C974.416 403.28 974.883 403.364 975.312 403.532C975.741 403.7 976.11 403.938 976.418 404.246C976.726 404.545 976.969 404.904 977.146 405.324C977.323 405.744 977.412 406.211 977.412 406.724C977.412 407.237 977.323 407.704 977.146 408.124C976.969 408.544 976.726 408.908 976.418 409.216C976.11 409.515 975.741 409.748 975.312 409.916C974.883 410.084 974.416 410.168 973.912 410.168C973.408 410.168 972.941 410.084 972.512 409.916C972.083 409.748 971.714 409.515 971.406 409.216C971.098 408.908 970.855 408.544 970.678 408.124C970.501 407.704 970.412 407.237 970.412 406.724ZM971.588 406.724C971.588 407.069 971.639 407.391 971.742 407.69C971.854 407.979 972.013 408.236 972.218 408.46C972.423 408.675 972.666 408.847 972.946 408.978C973.235 409.099 973.557 409.16 973.912 409.16C974.267 409.16 974.584 409.099 974.864 408.978C975.153 408.847 975.401 408.675 975.606 408.46C975.811 408.236 975.965 407.979 976.068 407.69C976.18 407.391 976.236 407.069 976.236 406.724C976.236 406.379 976.18 406.061 976.068 405.772C975.965 405.473 975.811 405.217 975.606 405.002C975.401 404.778 975.153 404.605 974.864 404.484C974.584 404.353 974.267 404.288 973.912 404.288C973.557 404.288 973.235 404.353 972.946 404.484C972.666 404.605 972.423 404.778 972.218 405.002C972.013 405.217 971.854 405.473 971.742 405.772C971.639 406.061 971.588 406.379 971.588 406.724ZM984.814 408.446C984.814 408.745 984.824 409.025 984.842 409.286C984.861 409.547 984.87 409.785 984.87 410H983.834C983.834 409.823 983.83 409.645 983.82 409.468C983.811 409.291 983.806 409.109 983.806 408.922H983.778C983.704 409.081 983.596 409.235 983.456 409.384C983.326 409.533 983.167 409.669 982.98 409.79C982.794 409.902 982.584 409.991 982.35 410.056C982.117 410.131 981.865 410.168 981.594 410.168C981.165 410.168 980.792 410.103 980.474 409.972C980.166 409.841 979.91 409.659 979.704 409.426C979.499 409.193 979.345 408.913 979.242 408.586C979.149 408.25 979.102 407.886 979.102 407.494V403.448H980.194V407.382C980.194 407.933 980.316 408.367 980.558 408.684C980.801 409.001 981.179 409.16 981.692 409.16C982.047 409.16 982.35 409.099 982.602 408.978C982.864 408.857 983.074 408.684 983.232 408.46C983.4 408.236 983.522 407.97 983.596 407.662C983.68 407.354 983.722 407.013 983.722 406.64V403.448H984.814V408.446ZM986.826 403.448H987.918V404.4H987.946C988.244 404.045 988.59 403.77 988.982 403.574C989.383 403.378 989.822 403.28 990.298 403.28C990.811 403.28 991.278 403.369 991.698 403.546C992.127 403.714 992.491 403.952 992.79 404.26C993.088 404.568 993.322 404.932 993.49 405.352C993.658 405.772 993.742 406.229 993.742 406.724C993.742 407.219 993.658 407.676 993.49 408.096C993.322 408.516 993.088 408.88 992.79 409.188C992.5 409.496 992.155 409.739 991.754 409.916C991.352 410.084 990.923 410.168 990.466 410.168C989.878 410.168 989.36 410.042 988.912 409.79C988.473 409.529 988.151 409.211 987.946 408.838H987.918V413.192H986.826V403.448ZM987.918 406.724C987.918 407.069 987.969 407.391 988.072 407.69C988.184 407.979 988.342 408.236 988.548 408.46C988.753 408.675 988.996 408.847 989.276 408.978C989.565 409.099 989.887 409.16 990.242 409.16C990.596 409.16 990.914 409.099 991.194 408.978C991.483 408.847 991.73 408.675 991.936 408.46C992.141 408.236 992.295 407.979 992.398 407.69C992.51 407.391 992.566 407.069 992.566 406.724C992.566 406.379 992.51 406.061 992.398 405.772C992.295 405.473 992.141 405.217 991.936 405.002C991.73 404.778 991.483 404.605 991.194 404.484C990.914 404.353 990.596 404.288 990.242 404.288C989.887 404.288 989.565 404.353 989.276 404.484C988.996 404.605 988.753 404.778 988.548 405.002C988.342 405.217 988.184 405.473 988.072 405.772C987.969 406.061 987.918 406.379 987.918 406.724Z" fill="black"/>
<path opacity="0.7" d="M44.195 239.005H45.7104V240.163H44.195V242.57H42.947V240.163H38.4898V238.782L42.6647 232.051H44.195V239.005ZM42.947 233.507H42.9173L39.5596 239.005H42.947V233.507ZM46.79 237.311C46.79 236.717 46.8395 236.098 46.9386 235.454C47.0376 234.81 47.2209 234.226 47.4883 233.701C47.7557 233.166 48.1172 232.73 48.5729 232.393C49.0384 232.047 49.6327 231.873 50.3557 231.873C51.0788 231.873 51.6681 232.047 52.1237 232.393C52.5892 232.73 52.9557 233.166 53.2231 233.701C53.4906 234.226 53.6738 234.81 53.7728 235.454C53.8719 236.098 53.9214 236.717 53.9214 237.311C53.9214 237.905 53.8719 238.524 53.7728 239.168C53.6738 239.812 53.4906 240.401 53.2231 240.936C52.9557 241.461 52.5892 241.897 52.1237 242.243C51.6681 242.58 51.0788 242.749 50.3557 242.749C49.6327 242.749 49.0384 242.58 48.5729 242.243C48.1172 241.897 47.7557 241.461 47.4883 240.936C47.2209 240.401 47.0376 239.812 46.9386 239.168C46.8395 238.524 46.79 237.905 46.79 237.311ZM48.038 237.311C48.038 237.568 48.0479 237.856 48.0677 238.173C48.0875 238.49 48.1222 238.811 48.1717 239.138C48.2311 239.455 48.3104 239.767 48.4094 240.074C48.5184 240.381 48.657 240.654 48.8254 240.891C49.0037 241.129 49.2167 241.322 49.4643 241.471C49.7119 241.61 50.009 241.679 50.3557 241.679C50.7024 241.679 50.9995 241.61 51.2471 241.471C51.4948 241.322 51.7028 241.129 51.8711 240.891C52.0494 240.654 52.1881 240.381 52.2871 240.074C52.3961 239.767 52.4753 239.455 52.5249 239.138C52.5843 238.811 52.6239 238.49 52.6437 238.173C52.6635 237.856 52.6734 237.568 52.6734 237.311C52.6734 237.053 52.6635 236.766 52.6437 236.449C52.6239 236.132 52.5843 235.815 52.5249 235.498C52.4753 235.171 52.3961 234.855 52.2871 234.547C52.1881 234.24 52.0494 233.968 51.8711 233.73C51.7028 233.493 51.4948 233.304 51.2471 233.166C50.9995 233.017 50.7024 232.943 50.3557 232.943C50.009 232.943 49.7119 233.017 49.4643 233.166C49.2167 233.304 49.0037 233.493 48.8254 233.73C48.657 233.968 48.5184 234.24 48.4094 234.547C48.3104 234.855 48.2311 235.171 48.1717 235.498C48.1222 235.815 48.0875 236.132 48.0677 236.449C48.0479 236.766 48.038 237.053 48.038 237.311ZM55.0456 234.473C55.0456 234.107 55.11 233.765 55.2387 233.448C55.3774 233.131 55.5606 232.859 55.7884 232.631C56.0261 232.393 56.3035 232.21 56.6204 232.081C56.9374 231.943 57.2791 231.873 57.6456 231.873C58.012 231.873 58.3538 231.943 58.6707 232.081C58.9877 232.21 59.26 232.393 59.4879 232.631C59.7256 232.859 59.9088 233.131 60.0376 233.448C60.1762 233.765 60.2456 234.107 60.2456 234.473C60.2456 234.84 60.1762 235.181 60.0376 235.498C59.9088 235.815 59.7256 236.093 59.4879 236.33C59.26 236.558 58.9877 236.741 58.6707 236.88C58.3538 237.009 58.012 237.073 57.6456 237.073C57.2791 237.073 56.9374 237.009 56.6204 236.88C56.3035 236.741 56.0261 236.558 55.7884 236.33C55.5606 236.093 55.3774 235.815 55.2387 235.498C55.11 235.181 55.0456 234.84 55.0456 234.473ZM56.1153 234.473C56.1153 234.681 56.1549 234.879 56.2341 235.067C56.3233 235.246 56.4372 235.409 56.5759 235.558C56.7145 235.696 56.873 235.805 57.0513 235.885C57.2395 235.964 57.4376 236.003 57.6456 236.003C57.8536 236.003 58.0467 235.964 58.225 235.885C58.4132 235.805 58.5766 235.696 58.7153 235.558C58.8539 235.409 58.9629 235.246 59.0421 235.067C59.1313 234.879 59.1759 234.681 59.1759 234.473C59.1759 234.265 59.1313 234.072 59.0421 233.894C58.9629 233.706 58.8539 233.542 58.7153 233.403C58.5766 233.255 58.4132 233.141 58.225 233.062C58.0467 232.983 57.8536 232.943 57.6456 232.943C57.4376 232.943 57.2395 232.983 57.0513 233.062C56.873 233.141 56.7145 233.255 56.5759 233.403C56.4372 233.542 56.3233 233.706 56.2341 233.894C56.1549 234.072 56.1153 234.265 56.1153 234.473ZM61.0924 240.149C61.0924 239.782 61.1568 239.44 61.2856 239.123C61.4242 238.807 61.6075 238.534 61.8353 238.306C62.073 238.069 62.3503 237.885 62.6673 237.757C62.9842 237.618 63.3259 237.549 63.6924 237.549C64.0589 237.549 64.4006 237.618 64.7176 237.757C65.0345 237.885 65.3069 238.069 65.5347 238.306C65.7724 238.534 65.9557 238.807 66.0844 239.123C66.2231 239.44 66.2924 239.782 66.2924 240.149C66.2924 240.515 66.2231 240.857 66.0844 241.174C65.9557 241.491 65.7724 241.768 65.5347 242.006C65.3069 242.234 65.0345 242.417 64.7176 242.555C64.4006 242.684 64.0589 242.749 63.6924 242.749C63.3259 242.749 62.9842 242.684 62.6673 242.555C62.3503 242.417 62.073 242.234 61.8353 242.006C61.6075 241.768 61.4242 241.491 61.2856 241.174C61.1568 240.857 61.0924 240.515 61.0924 240.149ZM62.1621 240.149C62.1621 240.357 62.2018 240.555 62.281 240.743C62.3701 240.921 62.484 241.085 62.6227 241.233C62.7614 241.372 62.9199 241.481 63.0981 241.56C63.2863 241.639 63.4844 241.679 63.6924 241.679C63.9004 241.679 64.0936 241.639 64.2719 241.56C64.46 241.481 64.6235 241.372 64.7621 241.233C64.9008 241.085 65.0098 240.921 65.089 240.743C65.1781 240.555 65.2227 240.357 65.2227 240.149C65.2227 239.941 65.1781 239.747 65.089 239.569C65.0098 239.381 64.9008 239.218 64.7621 239.079C64.6235 238.93 64.46 238.816 64.2719 238.737C64.0936 238.658 63.9004 238.618 63.6924 238.618C63.4844 238.618 63.2863 238.658 63.0981 238.737C62.9199 238.816 62.7614 238.93 62.6227 239.079C62.484 239.218 62.3701 239.381 62.281 239.569C62.2018 239.747 62.1621 239.941 62.1621 240.149ZM63.6033 231.576L64.4204 232.051L57.8239 243.046L57.0067 242.57L63.6033 231.576Z" fill="black"/>
<path d="M400 195.714C400 193.663 401.663 192 403.714 192H434.286C436.337 192 438 193.663 438 195.714V387H400V195.714Z" fill="#526CDB" stroke="white" stroke-width="1.85714"/>
</svg>
