<svg width="721" height="297" viewBox="0 0 721 297" fill="none" xmlns="http://www.w3.org/2000/svg">
<path d="M30.752 28V21.04L29.396 21.352V20.416L31.256 19.6H32.072V28H30.752ZM37.5386 28.144C36.7786 28.144 36.1226 27.964 35.5706 27.604C35.0266 27.236 34.6066 26.728 34.3106 26.08C34.0226 25.424 33.8786 24.664 33.8786 23.8C33.8786 22.936 34.0226 22.18 34.3106 21.532C34.6066 20.876 35.0266 20.368 35.5706 20.008C36.1226 19.64 36.7786 19.456 37.5386 19.456C38.2986 19.456 38.9506 19.64 39.4946 20.008C40.0386 20.368 40.4546 20.876 40.7426 21.532C41.0386 22.18 41.1866 22.936 41.1866 23.8C41.1866 24.664 41.0386 25.424 40.7426 26.08C40.4546 26.728 40.0386 27.236 39.4946 27.604C38.9506 27.964 38.2986 28.144 37.5386 28.144ZM37.5386 27.004C37.9946 27.004 38.3986 26.876 38.7506 26.62C39.1106 26.364 39.3906 25.996 39.5906 25.516C39.7906 25.036 39.8906 24.464 39.8906 23.8C39.8906 23.136 39.7906 22.564 39.5906 22.084C39.3906 21.604 39.1106 21.236 38.7506 20.98C38.3986 20.724 37.9946 20.596 37.5386 20.596C37.0746 20.596 36.6666 20.724 36.3146 20.98C35.9626 21.236 35.6866 21.604 35.4866 22.084C35.2866 22.564 35.1866 23.136 35.1866 23.8C35.1866 24.464 35.2866 25.036 35.4866 25.516C35.6866 25.996 35.9626 26.364 36.3146 26.62C36.6666 26.876 37.0746 27.004 37.5386 27.004ZM46.3644 28.144C45.6044 28.144 44.9484 27.964 44.3964 27.604C43.8524 27.236 43.4324 26.728 43.1364 26.08C42.8484 25.424 42.7044 24.664 42.7044 23.8C42.7044 22.936 42.8484 22.18 43.1364 21.532C43.4324 20.876 43.8524 20.368 44.3964 20.008C44.9484 19.64 45.6044 19.456 46.3644 19.456C47.1244 19.456 47.7764 19.64 48.3204 20.008C48.8644 20.368 49.2804 20.876 49.5684 21.532C49.8644 22.18 50.0124 22.936 50.0124 23.8C50.0124 24.664 49.8644 25.424 49.5684 26.08C49.2804 26.728 48.8644 27.236 48.3204 27.604C47.7764 27.964 47.1244 28.144 46.3644 28.144ZM46.3644 27.004C46.8204 27.004 47.2244 26.876 47.5764 26.62C47.9364 26.364 48.2164 25.996 48.4164 25.516C48.6164 25.036 48.7164 24.464 48.7164 23.8C48.7164 23.136 48.6164 22.564 48.4164 22.084C48.2164 21.604 47.9364 21.236 47.5764 20.98C47.2244 20.724 46.8204 20.596 46.3644 20.596C45.9004 20.596 45.4924 20.724 45.1404 20.98C44.7884 21.236 44.5124 21.604 44.3124 22.084C44.1124 22.564 44.0124 23.136 44.0124 23.8C44.0124 24.464 44.1124 25.036 44.3124 25.516C44.5124 25.996 44.7884 26.364 45.1404 26.62C45.4924 26.876 45.9004 27.004 46.3644 27.004ZM53.4502 23.608C53.0742 23.608 52.7342 23.524 52.4302 23.356C52.1342 23.188 51.8982 22.952 51.7222 22.648C51.5462 22.336 51.4582 21.964 51.4582 21.532C51.4582 21.108 51.5462 20.744 51.7222 20.44C51.8982 20.128 52.1382 19.888 52.4422 19.72C52.7462 19.552 53.0862 19.468 53.4622 19.468C53.8302 19.468 54.1622 19.552 54.4582 19.72C54.7622 19.888 55.0022 20.128 55.1782 20.44C55.3542 20.744 55.4422 21.108 55.4422 21.532C55.4422 21.964 55.3542 22.336 55.1782 22.648C55.0022 22.952 54.7622 23.188 54.4582 23.356C54.1622 23.524 53.8262 23.608 53.4502 23.608ZM52.8502 28L57.6622 19.6H58.9102L54.1102 28H52.8502ZM53.4502 22.696C53.7062 22.696 53.9262 22.6 54.1102 22.408C54.3022 22.208 54.3982 21.916 54.3982 21.532C54.3982 21.148 54.3062 20.86 54.1222 20.668C53.9382 20.468 53.7142 20.368 53.4502 20.368C53.1942 20.368 52.9702 20.468 52.7782 20.668C52.5862 20.86 52.4902 21.148 52.4902 21.532C52.4902 21.916 52.5822 22.208 52.7662 22.408C52.9582 22.6 53.1862 22.696 53.4502 22.696ZM58.3822 28.144C58.0062 28.144 57.6662 28.06 57.3622 27.892C57.0662 27.724 56.8302 27.488 56.6542 27.184C56.4782 26.872 56.3902 26.5 56.3902 26.068C56.3902 25.644 56.4782 25.276 56.6542 24.964C56.8302 24.652 57.0702 24.412 57.3742 24.244C57.6782 24.076 58.0182 23.992 58.3942 23.992C58.7622 23.992 59.0942 24.076 59.3902 24.244C59.6942 24.412 59.9342 24.652 60.1102 24.964C60.2862 25.276 60.3742 25.644 60.3742 26.068C60.3742 26.5 60.2862 26.872 60.1102 27.184C59.9342 27.488 59.6942 27.724 59.3902 27.892C59.0942 28.06 58.7582 28.144 58.3822 28.144ZM58.3822 27.22C58.6382 27.22 58.8582 27.124 59.0422 26.932C59.2342 26.74 59.3302 26.452 59.3302 26.068C59.3302 25.684 59.2382 25.396 59.0542 25.204C58.8702 25.004 58.6462 24.904 58.3822 24.904C58.1262 24.904 57.9022 25.004 57.7102 25.204C57.5182 25.396 57.4222 25.684 57.4222 26.068C57.4222 26.452 57.5142 26.74 57.6982 26.932C57.8902 27.124 58.1182 27.22 58.3822 27.22Z" fill="#1C1D26" fill-opacity="0.6"/>
<path d="M38.1299 86.2L41.3819 78.892H37.0139V77.8H42.6899V78.724L39.4619 86.2H38.1299ZM46.9637 86.344C46.3717 86.344 45.8597 86.24 45.4277 86.032C44.9957 85.816 44.6517 85.524 44.3957 85.156C44.1477 84.78 43.9957 84.356 43.9397 83.884H45.1877C45.2677 84.284 45.4677 84.616 45.7877 84.88C46.1077 85.136 46.5037 85.264 46.9757 85.264C47.3277 85.264 47.6317 85.18 47.8877 85.012C48.1437 84.836 48.3437 84.604 48.4877 84.316C48.6317 84.028 48.7037 83.704 48.7037 83.344C48.7037 82.776 48.5437 82.324 48.2237 81.988C47.9037 81.644 47.4997 81.472 47.0117 81.472C46.5957 81.472 46.2397 81.572 45.9437 81.772C45.6477 81.964 45.4317 82.208 45.2957 82.504H44.0837L44.8037 77.8H49.3397V78.916H45.7637L45.3317 81.16C45.5157 80.952 45.7677 80.78 46.0877 80.644C46.4157 80.5 46.7837 80.428 47.1917 80.428C47.7597 80.428 48.2477 80.56 48.6557 80.824C49.0637 81.08 49.3757 81.428 49.5917 81.868C49.8157 82.308 49.9277 82.796 49.9277 83.332C49.9277 83.892 49.8077 84.4 49.5677 84.856C49.3277 85.312 48.9837 85.676 48.5357 85.948C48.0957 86.212 47.5717 86.344 46.9637 86.344ZM53.4502 81.808C53.0742 81.808 52.7342 81.724 52.4302 81.556C52.1342 81.388 51.8982 81.152 51.7222 80.848C51.5462 80.536 51.4582 80.164 51.4582 79.732C51.4582 79.308 51.5462 78.944 51.7222 78.64C51.8982 78.328 52.1382 78.088 52.4422 77.92C52.7462 77.752 53.0862 77.668 53.4622 77.668C53.8302 77.668 54.1622 77.752 54.4582 77.92C54.7622 78.088 55.0022 78.328 55.1782 78.64C55.3542 78.944 55.4422 79.308 55.4422 79.732C55.4422 80.164 55.3542 80.536 55.1782 80.848C55.0022 81.152 54.7622 81.388 54.4582 81.556C54.1622 81.724 53.8262 81.808 53.4502 81.808ZM52.8502 86.2L57.6622 77.8H58.9102L54.1102 86.2H52.8502ZM53.4502 80.896C53.7062 80.896 53.9262 80.8 54.1102 80.608C54.3022 80.408 54.3982 80.116 54.3982 79.732C54.3982 79.348 54.3062 79.06 54.1222 78.868C53.9382 78.668 53.7142 78.568 53.4502 78.568C53.1942 78.568 52.9702 78.668 52.7782 78.868C52.5862 79.06 52.4902 79.348 52.4902 79.732C52.4902 80.116 52.5822 80.408 52.7662 80.608C52.9582 80.8 53.1862 80.896 53.4502 80.896ZM58.3822 86.344C58.0062 86.344 57.6662 86.26 57.3622 86.092C57.0662 85.924 56.8302 85.688 56.6542 85.384C56.4782 85.072 56.3902 84.7 56.3902 84.268C56.3902 83.844 56.4782 83.476 56.6542 83.164C56.8302 82.852 57.0702 82.612 57.3742 82.444C57.6782 82.276 58.0182 82.192 58.3942 82.192C58.7622 82.192 59.0942 82.276 59.3902 82.444C59.6942 82.612 59.9342 82.852 60.1102 83.164C60.2862 83.476 60.3742 83.844 60.3742 84.268C60.3742 84.7 60.2862 85.072 60.1102 85.384C59.9342 85.688 59.6942 85.924 59.3902 86.092C59.0942 86.26 58.7582 86.344 58.3822 86.344ZM58.3822 85.42C58.6382 85.42 58.8582 85.324 59.0422 85.132C59.2342 84.94 59.3302 84.652 59.3302 84.268C59.3302 83.884 59.2382 83.596 59.0542 83.404C58.8702 83.204 58.6462 83.104 58.3822 83.104C58.1262 83.104 57.9022 83.204 57.7102 83.404C57.5182 83.596 57.4222 83.884 57.4222 84.268C57.4222 84.652 57.5142 84.94 57.6982 85.132C57.8902 85.324 58.1182 85.42 58.3822 85.42Z" fill="#1C1D26" fill-opacity="0.6"/>
<path d="M38.1379 144.544C37.5459 144.544 37.0339 144.44 36.6019 144.232C36.1699 144.016 35.8259 143.724 35.5699 143.356C35.3219 142.98 35.1699 142.556 35.1139 142.084H36.3619C36.4419 142.484 36.6419 142.816 36.9619 143.08C37.2819 143.336 37.6779 143.464 38.1499 143.464C38.5019 143.464 38.8059 143.38 39.0619 143.212C39.3179 143.036 39.5179 142.804 39.6619 142.516C39.8059 142.228 39.8779 141.904 39.8779 141.544C39.8779 140.976 39.7179 140.524 39.3979 140.188C39.0779 139.844 38.6739 139.672 38.1859 139.672C37.7699 139.672 37.4139 139.772 37.1179 139.972C36.8219 140.164 36.6059 140.408 36.4699 140.704H35.2579L35.9779 136H40.5139V137.116H36.9379L36.5059 139.36C36.6899 139.152 36.9419 138.98 37.2619 138.844C37.5899 138.7 37.9579 138.628 38.3659 138.628C38.9339 138.628 39.4219 138.76 39.8299 139.024C40.2379 139.28 40.5499 139.628 40.7659 140.068C40.9899 140.508 41.1019 140.996 41.1019 141.532C41.1019 142.092 40.9819 142.6 40.7419 143.056C40.5019 143.512 40.1579 143.876 39.7099 144.148C39.2699 144.412 38.7459 144.544 38.1379 144.544ZM46.3644 144.544C45.6044 144.544 44.9484 144.364 44.3964 144.004C43.8524 143.636 43.4324 143.128 43.1364 142.48C42.8484 141.824 42.7044 141.064 42.7044 140.2C42.7044 139.336 42.8484 138.58 43.1364 137.932C43.4324 137.276 43.8524 136.768 44.3964 136.408C44.9484 136.04 45.6044 135.856 46.3644 135.856C47.1244 135.856 47.7764 136.04 48.3204 136.408C48.8644 136.768 49.2804 137.276 49.5684 137.932C49.8644 138.58 50.0124 139.336 50.0124 140.2C50.0124 141.064 49.8644 141.824 49.5684 142.48C49.2804 143.128 48.8644 143.636 48.3204 144.004C47.7764 144.364 47.1244 144.544 46.3644 144.544ZM46.3644 143.404C46.8204 143.404 47.2244 143.276 47.5764 143.02C47.9364 142.764 48.2164 142.396 48.4164 141.916C48.6164 141.436 48.7164 140.864 48.7164 140.2C48.7164 139.536 48.6164 138.964 48.4164 138.484C48.2164 138.004 47.9364 137.636 47.5764 137.38C47.2244 137.124 46.8204 136.996 46.3644 136.996C45.9004 136.996 45.4924 137.124 45.1404 137.38C44.7884 137.636 44.5124 138.004 44.3124 138.484C44.1124 138.964 44.0124 139.536 44.0124 140.2C44.0124 140.864 44.1124 141.436 44.3124 141.916C44.5124 142.396 44.7884 142.764 45.1404 143.02C45.4924 143.276 45.9004 143.404 46.3644 143.404ZM53.4502 140.008C53.0742 140.008 52.7342 139.924 52.4302 139.756C52.1342 139.588 51.8982 139.352 51.7222 139.048C51.5462 138.736 51.4582 138.364 51.4582 137.932C51.4582 137.508 51.5462 137.144 51.7222 136.84C51.8982 136.528 52.1382 136.288 52.4422 136.12C52.7462 135.952 53.0862 135.868 53.4622 135.868C53.8302 135.868 54.1622 135.952 54.4582 136.12C54.7622 136.288 55.0022 136.528 55.1782 136.84C55.3542 137.144 55.4422 137.508 55.4422 137.932C55.4422 138.364 55.3542 138.736 55.1782 139.048C55.0022 139.352 54.7622 139.588 54.4582 139.756C54.1622 139.924 53.8262 140.008 53.4502 140.008ZM52.8502 144.4L57.6622 136H58.9102L54.1102 144.4H52.8502ZM53.4502 139.096C53.7062 139.096 53.9262 139 54.1102 138.808C54.3022 138.608 54.3982 138.316 54.3982 137.932C54.3982 137.548 54.3062 137.26 54.1222 137.068C53.9382 136.868 53.7142 136.768 53.4502 136.768C53.1942 136.768 52.9702 136.868 52.7782 137.068C52.5862 137.26 52.4902 137.548 52.4902 137.932C52.4902 138.316 52.5822 138.608 52.7662 138.808C52.9582 139 53.1862 139.096 53.4502 139.096ZM58.3822 144.544C58.0062 144.544 57.6662 144.46 57.3622 144.292C57.0662 144.124 56.8302 143.888 56.6542 143.584C56.4782 143.272 56.3902 142.9 56.3902 142.468C56.3902 142.044 56.4782 141.676 56.6542 141.364C56.8302 141.052 57.0702 140.812 57.3742 140.644C57.6782 140.476 58.0182 140.392 58.3942 140.392C58.7622 140.392 59.0942 140.476 59.3902 140.644C59.6942 140.812 59.9342 141.052 60.1102 141.364C60.2862 141.676 60.3742 142.044 60.3742 142.468C60.3742 142.9 60.2862 143.272 60.1102 143.584C59.9342 143.888 59.6942 144.124 59.3902 144.292C59.0942 144.46 58.7582 144.544 58.3822 144.544ZM58.3822 143.62C58.6382 143.62 58.8582 143.524 59.0422 143.332C59.2342 143.14 59.3302 142.852 59.3302 142.468C59.3302 142.084 59.2382 141.796 59.0542 141.604C58.8702 141.404 58.6462 141.304 58.3822 141.304C58.1262 141.304 57.9022 141.404 57.7102 141.604C57.5182 141.796 57.4222 142.084 57.4222 142.468C57.4222 142.852 57.5142 143.14 57.6982 143.332C57.8902 143.524 58.1182 143.62 58.3822 143.62Z" fill="#1C1D26" fill-opacity="0.6"/>
<path d="M36.6005 202.6V201.688C37.1445 201.256 37.6645 200.82 38.1605 200.38C38.6565 199.94 39.0965 199.508 39.4805 199.084C39.8725 198.652 40.1805 198.232 40.4045 197.824C40.6285 197.408 40.7405 197.008 40.7405 196.624C40.7405 196.368 40.6965 196.128 40.6085 195.904C40.5205 195.672 40.3765 195.488 40.1765 195.352C39.9765 195.208 39.7085 195.136 39.3725 195.136C38.8685 195.136 38.4885 195.296 38.2325 195.616C37.9845 195.936 37.8645 196.32 37.8725 196.768H36.6365C36.6445 196.176 36.7685 195.68 37.0085 195.28C37.2565 194.88 37.5845 194.576 37.9925 194.368C38.4085 194.16 38.8765 194.056 39.3965 194.056C40.1885 194.056 40.8205 194.28 41.2925 194.728C41.7725 195.168 42.0125 195.784 42.0125 196.576C42.0125 197.048 41.8965 197.516 41.6645 197.98C41.4405 198.444 41.1445 198.892 40.7765 199.324C40.4165 199.748 40.0285 200.148 39.6125 200.524C39.1965 200.9 38.8005 201.24 38.4245 201.544H42.2645V202.6H36.6005ZM46.9637 202.744C46.3717 202.744 45.8597 202.64 45.4277 202.432C44.9957 202.216 44.6517 201.924 44.3957 201.556C44.1477 201.18 43.9957 200.756 43.9397 200.284H45.1877C45.2677 200.684 45.4677 201.016 45.7877 201.28C46.1077 201.536 46.5037 201.664 46.9757 201.664C47.3277 201.664 47.6317 201.58 47.8877 201.412C48.1437 201.236 48.3437 201.004 48.4877 200.716C48.6317 200.428 48.7037 200.104 48.7037 199.744C48.7037 199.176 48.5437 198.724 48.2237 198.388C47.9037 198.044 47.4997 197.872 47.0117 197.872C46.5957 197.872 46.2397 197.972 45.9437 198.172C45.6477 198.364 45.4317 198.608 45.2957 198.904H44.0837L44.8037 194.2H49.3397V195.316H45.7637L45.3317 197.56C45.5157 197.352 45.7677 197.18 46.0877 197.044C46.4157 196.9 46.7837 196.828 47.1917 196.828C47.7597 196.828 48.2477 196.96 48.6557 197.224C49.0637 197.48 49.3757 197.828 49.5917 198.268C49.8157 198.708 49.9277 199.196 49.9277 199.732C49.9277 200.292 49.8077 200.8 49.5677 201.256C49.3277 201.712 48.9837 202.076 48.5357 202.348C48.0957 202.612 47.5717 202.744 46.9637 202.744ZM53.4502 198.208C53.0742 198.208 52.7342 198.124 52.4302 197.956C52.1342 197.788 51.8982 197.552 51.7222 197.248C51.5462 196.936 51.4582 196.564 51.4582 196.132C51.4582 195.708 51.5462 195.344 51.7222 195.04C51.8982 194.728 52.1382 194.488 52.4422 194.32C52.7462 194.152 53.0862 194.068 53.4622 194.068C53.8302 194.068 54.1622 194.152 54.4582 194.32C54.7622 194.488 55.0022 194.728 55.1782 195.04C55.3542 195.344 55.4422 195.708 55.4422 196.132C55.4422 196.564 55.3542 196.936 55.1782 197.248C55.0022 197.552 54.7622 197.788 54.4582 197.956C54.1622 198.124 53.8262 198.208 53.4502 198.208ZM52.8502 202.6L57.6622 194.2H58.9102L54.1102 202.6H52.8502ZM53.4502 197.296C53.7062 197.296 53.9262 197.2 54.1102 197.008C54.3022 196.808 54.3982 196.516 54.3982 196.132C54.3982 195.748 54.3062 195.46 54.1222 195.268C53.9382 195.068 53.7142 194.968 53.4502 194.968C53.1942 194.968 52.9702 195.068 52.7782 195.268C52.5862 195.46 52.4902 195.748 52.4902 196.132C52.4902 196.516 52.5822 196.808 52.7662 197.008C52.9582 197.2 53.1862 197.296 53.4502 197.296ZM58.3822 202.744C58.0062 202.744 57.6662 202.66 57.3622 202.492C57.0662 202.324 56.8302 202.088 56.6542 201.784C56.4782 201.472 56.3902 201.1 56.3902 200.668C56.3902 200.244 56.4782 199.876 56.6542 199.564C56.8302 199.252 57.0702 199.012 57.3742 198.844C57.6782 198.676 58.0182 198.592 58.3942 198.592C58.7622 198.592 59.0942 198.676 59.3902 198.844C59.6942 199.012 59.9342 199.252 60.1102 199.564C60.2862 199.876 60.3742 200.244 60.3742 200.668C60.3742 201.1 60.2862 201.472 60.1102 201.784C59.9342 202.088 59.6942 202.324 59.3902 202.492C59.0942 202.66 58.7582 202.744 58.3822 202.744ZM58.3822 201.82C58.6382 201.82 58.8582 201.724 59.0422 201.532C59.2342 201.34 59.3302 201.052 59.3302 200.668C59.3302 200.284 59.2382 199.996 59.0542 199.804C58.8702 199.604 58.6462 199.504 58.3822 199.504C58.1262 199.504 57.9022 199.604 57.7102 199.804C57.5182 199.996 57.4222 200.284 57.4222 200.668C57.4222 201.052 57.5142 201.34 57.6982 201.532C57.8902 201.724 58.1182 201.82 58.3822 201.82Z" fill="#1C1D26" fill-opacity="0.6"/>
<path d="M46.3644 260.944C45.6044 260.944 44.9484 260.764 44.3964 260.404C43.8524 260.036 43.4324 259.528 43.1364 258.88C42.8484 258.224 42.7044 257.464 42.7044 256.6C42.7044 255.736 42.8484 254.98 43.1364 254.332C43.4324 253.676 43.8524 253.168 44.3964 252.808C44.9484 252.44 45.6044 252.256 46.3644 252.256C47.1244 252.256 47.7764 252.44 48.3204 252.808C48.8644 253.168 49.2804 253.676 49.5684 254.332C49.8644 254.98 50.0124 255.736 50.0124 256.6C50.0124 257.464 49.8644 258.224 49.5684 258.88C49.2804 259.528 48.8644 260.036 48.3204 260.404C47.7764 260.764 47.1244 260.944 46.3644 260.944ZM46.3644 259.804C46.8204 259.804 47.2244 259.676 47.5764 259.42C47.9364 259.164 48.2164 258.796 48.4164 258.316C48.6164 257.836 48.7164 257.264 48.7164 256.6C48.7164 255.936 48.6164 255.364 48.4164 254.884C48.2164 254.404 47.9364 254.036 47.5764 253.78C47.2244 253.524 46.8204 253.396 46.3644 253.396C45.9004 253.396 45.4924 253.524 45.1404 253.78C44.7884 254.036 44.5124 254.404 44.3124 254.884C44.1124 255.364 44.0124 255.936 44.0124 256.6C44.0124 257.264 44.1124 257.836 44.3124 258.316C44.5124 258.796 44.7884 259.164 45.1404 259.42C45.4924 259.676 45.9004 259.804 46.3644 259.804ZM53.4502 256.408C53.0742 256.408 52.7342 256.324 52.4302 256.156C52.1342 255.988 51.8982 255.752 51.7222 255.448C51.5462 255.136 51.4582 254.764 51.4582 254.332C51.4582 253.908 51.5462 253.544 51.7222 253.24C51.8982 252.928 52.1382 252.688 52.4422 252.52C52.7462 252.352 53.0862 252.268 53.4622 252.268C53.8302 252.268 54.1622 252.352 54.4582 252.52C54.7622 252.688 55.0022 252.928 55.1782 253.24C55.3542 253.544 55.4422 253.908 55.4422 254.332C55.4422 254.764 55.3542 255.136 55.1782 255.448C55.0022 255.752 54.7622 255.988 54.4582 256.156C54.1622 256.324 53.8262 256.408 53.4502 256.408ZM52.8502 260.8L57.6622 252.4H58.9102L54.1102 260.8H52.8502ZM53.4502 255.496C53.7062 255.496 53.9262 255.4 54.1102 255.208C54.3022 255.008 54.3982 254.716 54.3982 254.332C54.3982 253.948 54.3062 253.66 54.1222 253.468C53.9382 253.268 53.7142 253.168 53.4502 253.168C53.1942 253.168 52.9702 253.268 52.7782 253.468C52.5862 253.66 52.4902 253.948 52.4902 254.332C52.4902 254.716 52.5822 255.008 52.7662 255.208C52.9582 255.4 53.1862 255.496 53.4502 255.496ZM58.3822 260.944C58.0062 260.944 57.6662 260.86 57.3622 260.692C57.0662 260.524 56.8302 260.288 56.6542 259.984C56.4782 259.672 56.3902 259.3 56.3902 258.868C56.3902 258.444 56.4782 258.076 56.6542 257.764C56.8302 257.452 57.0702 257.212 57.3742 257.044C57.6782 256.876 58.0182 256.792 58.3942 256.792C58.7622 256.792 59.0942 256.876 59.3902 257.044C59.6942 257.212 59.9342 257.452 60.1102 257.764C60.2862 258.076 60.3742 258.444 60.3742 258.868C60.3742 259.3 60.2862 259.672 60.1102 259.984C59.9342 260.288 59.6942 260.524 59.3902 260.692C59.0942 260.86 58.7582 260.944 58.3822 260.944ZM58.3822 260.02C58.6382 260.02 58.8582 259.924 59.0422 259.732C59.2342 259.54 59.3302 259.252 59.3302 258.868C59.3302 258.484 59.2382 258.196 59.0542 258.004C58.8702 257.804 58.6462 257.704 58.3822 257.704C58.1262 257.704 57.9022 257.804 57.7102 258.004C57.5182 258.196 57.4222 258.484 57.4222 258.868C57.4222 259.252 57.5142 259.54 57.6982 259.732C57.8902 259.924 58.1182 260.02 58.3822 260.02Z" fill="#1C1D26" fill-opacity="0.6"/>
<rect x="70" y="23" width="217" height="237" stroke="black" stroke-opacity="0.1"/>
<path d="M160 98.7143C160 96.6629 161.663 95 163.714 95H193.286C195.337 95 197 96.6629 197 98.7143V260H160V98.7143Z" fill="#526CDB" stroke="white" stroke-width="1.85714"/>
<rect x="503" y="23" width="217" height="237" stroke="black" stroke-opacity="0.1"/>
<path d="M592 118.714C592 116.663 593.663 115 595.714 115H625.286C627.337 115 629 116.663 629 118.714V260H592V118.714Z" fill="#526CDB" stroke="white" stroke-width="1.85714"/>
<rect x="286.666" y="23" width="217" height="237" stroke="black" stroke-opacity="0.1"/>
<path d="M376.666 98.7143C376.666 96.6629 378.329 95 380.38 95H409.952C412.003 95 413.666 96.6629 413.666 98.7143V260H376.666V98.7143Z" fill="#526CDB" stroke="white" stroke-width="1.85714"/>
<path d="M133.871 274.838C133.675 274.521 133.413 274.292 133.087 274.152C132.76 274.003 132.419 273.928 132.065 273.928C131.803 273.928 131.547 273.961 131.295 274.026C131.043 274.091 130.814 274.189 130.609 274.32C130.413 274.451 130.254 274.623 130.133 274.838C130.011 275.053 129.951 275.305 129.951 275.594C129.951 275.818 129.983 276.019 130.049 276.196C130.123 276.364 130.24 276.518 130.399 276.658C130.557 276.798 130.772 276.929 131.043 277.05C131.313 277.171 131.645 277.293 132.037 277.414C132.419 277.535 132.788 277.666 133.143 277.806C133.507 277.946 133.824 278.123 134.095 278.338C134.375 278.553 134.594 278.823 134.753 279.15C134.921 279.467 135.005 279.869 135.005 280.354C135.005 280.849 134.907 281.278 134.711 281.642C134.515 282.006 134.253 282.309 133.927 282.552C133.609 282.785 133.241 282.958 132.821 283.07C132.401 283.191 131.967 283.252 131.519 283.252C131.229 283.252 130.94 283.224 130.651 283.168C130.361 283.121 130.081 283.047 129.811 282.944C129.549 282.832 129.302 282.692 129.069 282.524C128.835 282.347 128.635 282.132 128.467 281.88L129.475 281.054C129.689 281.418 129.988 281.693 130.371 281.88C130.753 282.067 131.159 282.16 131.589 282.16C131.841 282.16 132.093 282.123 132.345 282.048C132.606 281.973 132.839 281.866 133.045 281.726C133.25 281.577 133.418 281.395 133.549 281.18C133.679 280.965 133.745 280.718 133.745 280.438C133.745 280.13 133.693 279.883 133.591 279.696C133.488 279.5 133.329 279.332 133.115 279.192C132.9 279.052 132.629 278.926 132.303 278.814C131.976 278.702 131.593 278.571 131.155 278.422C130.8 278.31 130.473 278.184 130.175 278.044C129.876 277.895 129.615 277.717 129.391 277.512C129.176 277.297 129.003 277.045 128.873 276.756C128.751 276.457 128.691 276.103 128.691 275.692C128.691 275.216 128.784 274.801 128.971 274.446C129.157 274.091 129.409 273.797 129.727 273.564C130.044 273.321 130.403 273.139 130.805 273.018C131.206 272.897 131.626 272.836 132.065 272.836C132.625 272.836 133.133 272.925 133.591 273.102C134.057 273.27 134.473 273.569 134.837 273.998L133.871 274.838ZM142.602 281.81C142.21 282.314 141.781 282.669 141.314 282.874C140.847 283.07 140.306 283.168 139.69 283.168C139.177 283.168 138.715 283.079 138.304 282.902C137.893 282.715 137.543 282.468 137.254 282.16C136.974 281.852 136.755 281.488 136.596 281.068C136.447 280.648 136.372 280.2 136.372 279.724C136.372 279.22 136.456 278.758 136.624 278.338C136.792 277.909 137.025 277.545 137.324 277.246C137.623 276.938 137.977 276.7 138.388 276.532C138.799 276.364 139.247 276.28 139.732 276.28C140.189 276.28 140.609 276.359 140.992 276.518C141.375 276.667 141.701 276.891 141.972 277.19C142.252 277.479 142.467 277.839 142.616 278.268C142.765 278.688 142.84 279.169 142.84 279.71V280.06H137.548C137.567 280.34 137.632 280.611 137.744 280.872C137.865 281.124 138.019 281.348 138.206 281.544C138.393 281.731 138.612 281.88 138.864 281.992C139.116 282.104 139.391 282.16 139.69 282.16C140.166 282.16 140.567 282.076 140.894 281.908C141.221 281.74 141.515 281.493 141.776 281.166L142.602 281.81ZM141.664 279.136C141.645 278.576 141.463 278.128 141.118 277.792C140.773 277.456 140.297 277.288 139.69 277.288C139.083 277.288 138.593 277.456 138.22 277.792C137.847 278.128 137.623 278.576 137.548 279.136H141.664ZM144.627 272.416H145.719V283H144.627V272.416ZM148.466 277.372H147.038V276.448H148.466V274.978C148.466 274.577 148.503 274.213 148.578 273.886C148.653 273.55 148.779 273.261 148.956 273.018C149.143 272.775 149.385 272.589 149.684 272.458C149.983 272.318 150.351 272.248 150.79 272.248C150.93 272.248 151.079 272.262 151.238 272.29C151.397 272.318 151.527 272.36 151.63 272.416L151.476 273.396C151.215 273.303 150.967 273.256 150.734 273.256C150.454 273.256 150.235 273.307 150.076 273.41C149.917 273.503 149.796 273.639 149.712 273.816C149.637 273.984 149.591 274.189 149.572 274.432C149.563 274.675 149.558 274.936 149.558 275.216V276.448H151.154V277.372H149.558V283H148.466V277.372ZM159.635 273.088H160.741L164.955 283H163.583L162.575 280.564H157.619L156.597 283H155.267L159.635 273.088ZM160.167 274.6H160.139L158.081 279.472H162.127L160.167 274.6ZM166.216 281.278C166.431 281.549 166.664 281.763 166.916 281.922C167.177 282.081 167.504 282.16 167.896 282.16C168.064 282.16 168.232 282.141 168.4 282.104C168.577 282.067 168.736 282.006 168.876 281.922C169.016 281.838 169.128 281.735 169.212 281.614C169.296 281.483 169.338 281.329 169.338 281.152C169.338 280.975 169.296 280.83 169.212 280.718C169.137 280.606 169.035 280.513 168.904 280.438C168.773 280.354 168.624 280.289 168.456 280.242C168.288 280.195 168.115 280.153 167.938 280.116C167.63 280.051 167.336 279.976 167.056 279.892C166.776 279.808 166.529 279.701 166.314 279.57C166.109 279.43 165.941 279.253 165.81 279.038C165.689 278.823 165.628 278.548 165.628 278.212C165.628 277.895 165.698 277.615 165.838 277.372C165.978 277.129 166.165 276.929 166.398 276.77C166.631 276.611 166.893 276.49 167.182 276.406C167.471 276.322 167.77 276.28 168.078 276.28C168.545 276.28 168.974 276.373 169.366 276.56C169.767 276.747 170.08 277.05 170.304 277.47L169.394 278.072C169.254 277.839 169.067 277.652 168.834 277.512C168.61 277.363 168.335 277.288 168.008 277.288C167.859 277.288 167.705 277.307 167.546 277.344C167.397 277.381 167.261 277.437 167.14 277.512C167.019 277.587 166.916 277.685 166.832 277.806C166.757 277.918 166.72 278.049 166.72 278.198C166.72 278.338 166.762 278.459 166.846 278.562C166.939 278.655 167.061 278.739 167.21 278.814C167.369 278.889 167.546 278.954 167.742 279.01C167.947 279.066 168.157 279.113 168.372 279.15C168.661 279.206 168.937 279.281 169.198 279.374C169.459 279.458 169.688 279.575 169.884 279.724C170.08 279.873 170.234 280.06 170.346 280.284C170.458 280.508 170.514 280.783 170.514 281.11C170.514 281.483 170.439 281.801 170.29 282.062C170.141 282.323 169.94 282.538 169.688 282.706C169.445 282.865 169.165 282.981 168.848 283.056C168.54 283.131 168.223 283.168 167.896 283.168C167.336 283.168 166.851 283.084 166.44 282.916C166.039 282.739 165.675 282.417 165.348 281.95L166.216 281.278ZM172.177 281.278C172.392 281.549 172.625 281.763 172.877 281.922C173.138 282.081 173.465 282.16 173.857 282.16C174.025 282.16 174.193 282.141 174.361 282.104C174.538 282.067 174.697 282.006 174.837 281.922C174.977 281.838 175.089 281.735 175.173 281.614C175.257 281.483 175.299 281.329 175.299 281.152C175.299 280.975 175.257 280.83 175.173 280.718C175.098 280.606 174.996 280.513 174.865 280.438C174.734 280.354 174.585 280.289 174.417 280.242C174.249 280.195 174.076 280.153 173.899 280.116C173.591 280.051 173.297 279.976 173.017 279.892C172.737 279.808 172.49 279.701 172.275 279.57C172.07 279.43 171.902 279.253 171.771 279.038C171.65 278.823 171.589 278.548 171.589 278.212C171.589 277.895 171.659 277.615 171.799 277.372C171.939 277.129 172.126 276.929 172.359 276.77C172.592 276.611 172.854 276.49 173.143 276.406C173.432 276.322 173.731 276.28 174.039 276.28C174.506 276.28 174.935 276.373 175.327 276.56C175.728 276.747 176.041 277.05 176.265 277.47L175.355 278.072C175.215 277.839 175.028 277.652 174.795 277.512C174.571 277.363 174.296 277.288 173.969 277.288C173.82 277.288 173.666 277.307 173.507 277.344C173.358 277.381 173.222 277.437 173.101 277.512C172.98 277.587 172.877 277.685 172.793 277.806C172.718 277.918 172.681 278.049 172.681 278.198C172.681 278.338 172.723 278.459 172.807 278.562C172.9 278.655 173.022 278.739 173.171 278.814C173.33 278.889 173.507 278.954 173.703 279.01C173.908 279.066 174.118 279.113 174.333 279.15C174.622 279.206 174.898 279.281 175.159 279.374C175.42 279.458 175.649 279.575 175.845 279.724C176.041 279.873 176.195 280.06 176.307 280.284C176.419 280.508 176.475 280.783 176.475 281.11C176.475 281.483 176.4 281.801 176.251 282.062C176.102 282.323 175.901 282.538 175.649 282.706C175.406 282.865 175.126 282.981 174.809 283.056C174.501 283.131 174.184 283.168 173.857 283.168C173.297 283.168 172.812 283.084 172.401 282.916C172 282.739 171.636 282.417 171.309 281.95L172.177 281.278ZM183.85 281.81C183.458 282.314 183.029 282.669 182.562 282.874C182.095 283.07 181.554 283.168 180.938 283.168C180.425 283.168 179.963 283.079 179.552 282.902C179.141 282.715 178.791 282.468 178.502 282.16C178.222 281.852 178.003 281.488 177.844 281.068C177.695 280.648 177.62 280.2 177.62 279.724C177.62 279.22 177.704 278.758 177.872 278.338C178.04 277.909 178.273 277.545 178.572 277.246C178.871 276.938 179.225 276.7 179.636 276.532C180.047 276.364 180.495 276.28 180.98 276.28C181.437 276.28 181.857 276.359 182.24 276.518C182.623 276.667 182.949 276.891 183.22 277.19C183.5 277.479 183.715 277.839 183.864 278.268C184.013 278.688 184.088 279.169 184.088 279.71V280.06H178.796C178.815 280.34 178.88 280.611 178.992 280.872C179.113 281.124 179.267 281.348 179.454 281.544C179.641 281.731 179.86 281.88 180.112 281.992C180.364 282.104 180.639 282.16 180.938 282.16C181.414 282.16 181.815 282.076 182.142 281.908C182.469 281.74 182.763 281.493 183.024 281.166L183.85 281.81ZM182.912 279.136C182.893 278.576 182.711 278.128 182.366 277.792C182.021 277.456 181.545 277.288 180.938 277.288C180.331 277.288 179.841 277.456 179.468 277.792C179.095 278.128 178.871 278.576 178.796 279.136H182.912ZM185.917 281.278C186.132 281.549 186.365 281.763 186.617 281.922C186.879 282.081 187.205 282.16 187.597 282.16C187.765 282.16 187.933 282.141 188.101 282.104C188.279 282.067 188.437 282.006 188.577 281.922C188.717 281.838 188.829 281.735 188.913 281.614C188.997 281.483 189.039 281.329 189.039 281.152C189.039 280.975 188.997 280.83 188.913 280.718C188.839 280.606 188.736 280.513 188.605 280.438C188.475 280.354 188.325 280.289 188.157 280.242C187.989 280.195 187.817 280.153 187.639 280.116C187.331 280.051 187.037 279.976 186.757 279.892C186.477 279.808 186.23 279.701 186.015 279.57C185.81 279.43 185.642 279.253 185.511 279.038C185.39 278.823 185.329 278.548 185.329 278.212C185.329 277.895 185.399 277.615 185.539 277.372C185.679 277.129 185.866 276.929 186.099 276.77C186.333 276.611 186.594 276.49 186.883 276.406C187.173 276.322 187.471 276.28 187.779 276.28C188.246 276.28 188.675 276.373 189.067 276.56C189.469 276.747 189.781 277.05 190.005 277.47L189.095 278.072C188.955 277.839 188.769 277.652 188.535 277.512C188.311 277.363 188.036 277.288 187.709 277.288C187.56 277.288 187.406 277.307 187.247 277.344C187.098 277.381 186.963 277.437 186.841 277.512C186.72 277.587 186.617 277.685 186.533 277.806C186.459 277.918 186.421 278.049 186.421 278.198C186.421 278.338 186.463 278.459 186.547 278.562C186.641 278.655 186.762 278.739 186.911 278.814C187.07 278.889 187.247 278.954 187.443 279.01C187.649 279.066 187.859 279.113 188.073 279.15C188.363 279.206 188.638 279.281 188.899 279.374C189.161 279.458 189.389 279.575 189.585 279.724C189.781 279.873 189.935 280.06 190.047 280.284C190.159 280.508 190.215 280.783 190.215 281.11C190.215 281.483 190.141 281.801 189.991 282.062C189.842 282.323 189.641 282.538 189.389 282.706C189.147 282.865 188.867 282.981 188.549 283.056C188.241 283.131 187.924 283.168 187.597 283.168C187.037 283.168 186.552 283.084 186.141 282.916C185.74 282.739 185.376 282.417 185.049 281.95L185.917 281.278ZM191.878 281.278C192.093 281.549 192.326 281.763 192.578 281.922C192.839 282.081 193.166 282.16 193.558 282.16C193.726 282.16 193.894 282.141 194.062 282.104C194.239 282.067 194.398 282.006 194.538 281.922C194.678 281.838 194.79 281.735 194.874 281.614C194.958 281.483 195 281.329 195 281.152C195 280.975 194.958 280.83 194.874 280.718C194.799 280.606 194.697 280.513 194.566 280.438C194.435 280.354 194.286 280.289 194.118 280.242C193.95 280.195 193.777 280.153 193.6 280.116C193.292 280.051 192.998 279.976 192.718 279.892C192.438 279.808 192.191 279.701 191.976 279.57C191.771 279.43 191.603 279.253 191.472 279.038C191.351 278.823 191.29 278.548 191.29 278.212C191.29 277.895 191.36 277.615 191.5 277.372C191.64 277.129 191.827 276.929 192.06 276.77C192.293 276.611 192.555 276.49 192.844 276.406C193.133 276.322 193.432 276.28 193.74 276.28C194.207 276.28 194.636 276.373 195.028 276.56C195.429 276.747 195.742 277.05 195.966 277.47L195.056 278.072C194.916 277.839 194.729 277.652 194.496 277.512C194.272 277.363 193.997 277.288 193.67 277.288C193.521 277.288 193.367 277.307 193.208 277.344C193.059 277.381 192.923 277.437 192.802 277.512C192.681 277.587 192.578 277.685 192.494 277.806C192.419 277.918 192.382 278.049 192.382 278.198C192.382 278.338 192.424 278.459 192.508 278.562C192.601 278.655 192.723 278.739 192.872 278.814C193.031 278.889 193.208 278.954 193.404 279.01C193.609 279.066 193.819 279.113 194.034 279.15C194.323 279.206 194.599 279.281 194.86 279.374C195.121 279.458 195.35 279.575 195.546 279.724C195.742 279.873 195.896 280.06 196.008 280.284C196.12 280.508 196.176 280.783 196.176 281.11C196.176 281.483 196.101 281.801 195.952 282.062C195.803 282.323 195.602 282.538 195.35 282.706C195.107 282.865 194.827 282.981 194.51 283.056C194.202 283.131 193.885 283.168 193.558 283.168C192.998 283.168 192.513 283.084 192.102 282.916C191.701 282.739 191.337 282.417 191.01 281.95L191.878 281.278ZM197.699 278.002C197.699 277.703 197.69 277.423 197.671 277.162C197.652 276.901 197.643 276.663 197.643 276.448H198.679C198.679 276.625 198.684 276.803 198.693 276.98C198.702 277.157 198.707 277.339 198.707 277.526H198.735C198.81 277.367 198.912 277.213 199.043 277.064C199.183 276.915 199.346 276.784 199.533 276.672C199.72 276.551 199.93 276.457 200.163 276.392C200.396 276.317 200.648 276.28 200.919 276.28C201.274 276.28 201.568 276.327 201.801 276.42C202.044 276.504 202.244 276.611 202.403 276.742C202.562 276.863 202.683 276.999 202.767 277.148C202.86 277.288 202.935 277.414 202.991 277.526C203.234 277.134 203.514 276.831 203.831 276.616C204.148 276.392 204.559 276.28 205.063 276.28C205.53 276.28 205.922 276.345 206.239 276.476C206.556 276.597 206.813 276.779 207.009 277.022C207.205 277.255 207.345 277.545 207.429 277.89C207.513 278.226 207.555 278.604 207.555 279.024V283H206.463V279.08C206.463 278.856 206.44 278.637 206.393 278.422C206.346 278.207 206.262 278.016 206.141 277.848C206.02 277.68 205.856 277.545 205.651 277.442C205.446 277.339 205.184 277.288 204.867 277.288C204.634 277.288 204.414 277.335 204.209 277.428C204.004 277.521 203.822 277.652 203.663 277.82C203.514 277.988 203.392 278.193 203.299 278.436C203.215 278.669 203.173 278.931 203.173 279.22V283H202.081V279.29C202.081 278.562 201.983 278.049 201.787 277.75C201.591 277.442 201.269 277.288 200.821 277.288C200.466 277.288 200.158 277.349 199.897 277.47C199.645 277.591 199.435 277.764 199.267 277.988C199.108 278.212 198.987 278.478 198.903 278.786C198.828 279.094 198.791 279.435 198.791 279.808V283H197.699V278.002ZM215.473 281.81C215.081 282.314 214.652 282.669 214.185 282.874C213.718 283.07 213.177 283.168 212.561 283.168C212.048 283.168 211.586 283.079 211.175 282.902C210.764 282.715 210.414 282.468 210.125 282.16C209.845 281.852 209.626 281.488 209.467 281.068C209.318 280.648 209.243 280.2 209.243 279.724C209.243 279.22 209.327 278.758 209.495 278.338C209.663 277.909 209.896 277.545 210.195 277.246C210.494 276.938 210.848 276.7 211.259 276.532C211.67 276.364 212.118 276.28 212.603 276.28C213.06 276.28 213.48 276.359 213.863 276.518C214.246 276.667 214.572 276.891 214.843 277.19C215.123 277.479 215.338 277.839 215.487 278.268C215.636 278.688 215.711 279.169 215.711 279.71V280.06H210.419C210.438 280.34 210.503 280.611 210.615 280.872C210.736 281.124 210.89 281.348 211.077 281.544C211.264 281.731 211.483 281.88 211.735 281.992C211.987 282.104 212.262 282.16 212.561 282.16C213.037 282.16 213.438 282.076 213.765 281.908C214.092 281.74 214.386 281.493 214.647 281.166L215.473 281.81ZM214.535 279.136C214.516 278.576 214.334 278.128 213.989 277.792C213.644 277.456 213.168 277.288 212.561 277.288C211.954 277.288 211.464 277.456 211.091 277.792C210.718 278.128 210.494 278.576 210.419 279.136H214.535ZM217.4 278.002C217.4 277.703 217.391 277.423 217.372 277.162C217.354 276.901 217.344 276.663 217.344 276.448H218.38C218.38 276.625 218.385 276.803 218.394 276.98C218.404 277.157 218.408 277.339 218.408 277.526H218.436C218.511 277.367 218.614 277.213 218.744 277.064C218.884 276.915 219.048 276.784 219.234 276.672C219.421 276.551 219.631 276.457 219.864 276.392C220.098 276.317 220.35 276.28 220.62 276.28C221.05 276.28 221.418 276.345 221.726 276.476C222.044 276.607 222.305 276.789 222.51 277.022C222.716 277.255 222.865 277.54 222.958 277.876C223.061 278.203 223.112 278.562 223.112 278.954V283H222.02V279.066C222.02 278.515 221.899 278.081 221.656 277.764C221.414 277.447 221.036 277.288 220.522 277.288C220.168 277.288 219.86 277.349 219.598 277.47C219.346 277.591 219.136 277.764 218.968 277.988C218.81 278.212 218.688 278.478 218.604 278.786C218.53 279.094 218.492 279.435 218.492 279.808V283H217.4V278.002ZM228.764 277.372H226.832V280.648C226.832 280.863 226.836 281.063 226.846 281.25C226.855 281.427 226.892 281.586 226.958 281.726C227.023 281.857 227.121 281.964 227.252 282.048C227.382 282.123 227.569 282.16 227.812 282.16C227.97 282.16 228.134 282.141 228.302 282.104C228.47 282.067 228.628 282.011 228.778 281.936L228.82 282.93C228.633 283.014 228.423 283.075 228.19 283.112C227.966 283.149 227.751 283.168 227.546 283.168C227.154 283.168 226.841 283.117 226.608 283.014C226.374 282.911 226.192 282.767 226.062 282.58C225.931 282.393 225.842 282.165 225.796 281.894C225.758 281.614 225.74 281.306 225.74 280.97V277.372H224.312V276.448H225.74V274.586H226.832V276.448H228.764V277.372Z" fill="#1C1D26" fill-opacity="0.6"/>
<path d="M347.705 273.088H350.645C351.102 273.088 351.536 273.135 351.947 273.228C352.367 273.312 352.735 273.461 353.053 273.676C353.379 273.881 353.636 274.161 353.823 274.516C354.019 274.861 354.117 275.291 354.117 275.804C354.117 276.345 354.014 276.793 353.809 277.148C353.603 277.503 353.337 277.783 353.011 277.988C352.693 278.193 352.343 278.338 351.961 278.422C351.578 278.506 351.214 278.548 350.869 278.548H348.881V283H347.705V273.088ZM348.881 277.456H350.869C351.457 277.456 351.933 277.325 352.297 277.064C352.67 276.793 352.857 276.378 352.857 275.818C352.857 275.258 352.67 274.847 352.297 274.586C351.933 274.315 351.457 274.18 350.869 274.18H348.881V277.456ZM355.807 278.002C355.807 277.703 355.798 277.423 355.779 277.162C355.761 276.901 355.751 276.663 355.751 276.448H356.787C356.787 276.625 356.792 276.803 356.801 276.98C356.811 277.157 356.815 277.339 356.815 277.526H356.843C356.918 277.367 357.021 277.213 357.151 277.064C357.291 276.915 357.455 276.784 357.641 276.672C357.828 276.551 358.038 276.457 358.271 276.392C358.505 276.317 358.757 276.28 359.027 276.28C359.102 276.28 359.177 276.285 359.251 276.294C359.326 276.303 359.401 276.322 359.475 276.35L359.405 277.456C359.219 277.4 359.023 277.372 358.817 277.372C358.145 277.372 357.655 277.591 357.347 278.03C357.049 278.459 356.899 279.052 356.899 279.808V283H355.807V278.002ZM360.105 279.724C360.105 279.211 360.194 278.744 360.371 278.324C360.549 277.904 360.791 277.545 361.099 277.246C361.407 276.938 361.776 276.7 362.205 276.532C362.635 276.364 363.101 276.28 363.605 276.28C364.109 276.28 364.576 276.364 365.005 276.532C365.435 276.7 365.803 276.938 366.111 277.246C366.419 277.545 366.662 277.904 366.839 278.324C367.017 278.744 367.105 279.211 367.105 279.724C367.105 280.237 367.017 280.704 366.839 281.124C366.662 281.544 366.419 281.908 366.111 282.216C365.803 282.515 365.435 282.748 365.005 282.916C364.576 283.084 364.109 283.168 363.605 283.168C363.101 283.168 362.635 283.084 362.205 282.916C361.776 282.748 361.407 282.515 361.099 282.216C360.791 281.908 360.549 281.544 360.371 281.124C360.194 280.704 360.105 280.237 360.105 279.724ZM361.281 279.724C361.281 280.069 361.333 280.391 361.435 280.69C361.547 280.979 361.706 281.236 361.911 281.46C362.117 281.675 362.359 281.847 362.639 281.978C362.929 282.099 363.251 282.16 363.605 282.16C363.96 282.16 364.277 282.099 364.557 281.978C364.847 281.847 365.094 281.675 365.299 281.46C365.505 281.236 365.659 280.979 365.761 280.69C365.873 280.391 365.929 280.069 365.929 279.724C365.929 279.379 365.873 279.061 365.761 278.772C365.659 278.473 365.505 278.217 365.299 278.002C365.094 277.778 364.847 277.605 364.557 277.484C364.277 277.353 363.96 277.288 363.605 277.288C363.251 277.288 362.929 277.353 362.639 277.484C362.359 277.605 362.117 277.778 361.911 278.002C361.706 278.217 361.547 278.473 361.435 278.772C361.333 279.061 361.281 279.379 361.281 279.724ZM374.242 281.838H374.214C374.008 282.211 373.682 282.529 373.234 282.79C372.795 283.042 372.282 283.168 371.694 283.168C371.236 283.168 370.807 283.084 370.406 282.916C370.004 282.739 369.654 282.496 369.356 282.188C369.066 281.88 368.838 281.516 368.67 281.096C368.502 280.676 368.418 280.219 368.418 279.724C368.418 279.229 368.502 278.772 368.67 278.352C368.838 277.932 369.071 277.568 369.37 277.26C369.668 276.952 370.028 276.714 370.448 276.546C370.877 276.369 371.348 276.28 371.862 276.28C372.338 276.28 372.772 276.378 373.164 276.574C373.565 276.77 373.915 277.045 374.214 277.4H374.242V272.416H375.334V283H374.242V281.838ZM374.242 279.724C374.242 279.379 374.186 279.061 374.074 278.772C373.971 278.473 373.817 278.217 373.612 278.002C373.406 277.778 373.159 277.605 372.87 277.484C372.59 277.353 372.272 277.288 371.918 277.288C371.563 277.288 371.241 277.353 370.952 277.484C370.672 277.605 370.429 277.778 370.224 278.002C370.018 278.217 369.86 278.473 369.748 278.772C369.645 279.061 369.594 279.379 369.594 279.724C369.594 280.069 369.645 280.391 369.748 280.69C369.86 280.979 370.018 281.236 370.224 281.46C370.429 281.675 370.672 281.847 370.952 281.978C371.241 282.099 371.563 282.16 371.918 282.16C372.272 282.16 372.59 282.099 372.87 281.978C373.159 281.847 373.406 281.675 373.612 281.46C373.817 281.236 373.971 280.979 374.074 280.69C374.186 280.391 374.242 280.069 374.242 279.724ZM383.066 281.446C383.066 281.745 383.076 282.025 383.094 282.286C383.113 282.547 383.122 282.785 383.122 283H382.086C382.086 282.823 382.082 282.645 382.072 282.468C382.063 282.291 382.058 282.109 382.058 281.922H382.03C381.956 282.081 381.848 282.235 381.708 282.384C381.578 282.533 381.419 282.669 381.232 282.79C381.046 282.902 380.836 282.991 380.602 283.056C380.369 283.131 380.117 283.168 379.846 283.168C379.417 283.168 379.044 283.103 378.726 282.972C378.418 282.841 378.162 282.659 377.956 282.426C377.751 282.193 377.597 281.913 377.494 281.586C377.401 281.25 377.354 280.886 377.354 280.494V276.448H378.446V280.382C378.446 280.933 378.568 281.367 378.81 281.684C379.053 282.001 379.431 282.16 379.944 282.16C380.299 282.16 380.602 282.099 380.854 281.978C381.116 281.857 381.326 281.684 381.484 281.46C381.652 281.236 381.774 280.97 381.848 280.662C381.932 280.354 381.974 280.013 381.974 279.64V276.448H383.066V281.446ZM389.796 278.086C389.562 277.806 389.31 277.605 389.04 277.484C388.769 277.353 388.47 277.288 388.144 277.288C387.78 277.288 387.458 277.353 387.178 277.484C386.898 277.605 386.664 277.778 386.478 278.002C386.3 278.226 386.165 278.487 386.072 278.786C385.978 279.075 385.932 279.388 385.932 279.724C385.932 280.06 385.983 280.377 386.086 280.676C386.198 280.965 386.347 281.222 386.534 281.446C386.73 281.67 386.963 281.847 387.234 281.978C387.504 282.099 387.808 282.16 388.144 282.16C388.862 282.16 389.418 281.889 389.81 281.348L390.622 282.118C390.304 282.482 389.931 282.748 389.502 282.916C389.072 283.084 388.62 283.168 388.144 283.168C387.64 283.168 387.178 283.084 386.758 282.916C386.338 282.748 385.978 282.51 385.68 282.202C385.39 281.894 385.162 281.53 384.994 281.11C384.835 280.69 384.756 280.228 384.756 279.724C384.756 279.229 384.835 278.772 384.994 278.352C385.162 277.932 385.395 277.568 385.694 277.26C385.992 276.952 386.347 276.714 386.758 276.546C387.178 276.369 387.64 276.28 388.144 276.28C388.629 276.28 389.086 276.364 389.516 276.532C389.954 276.7 390.337 276.961 390.664 277.316L389.796 278.086ZM395.472 277.372H393.54V280.648C393.54 280.863 393.544 281.063 393.554 281.25C393.563 281.427 393.6 281.586 393.666 281.726C393.731 281.857 393.829 281.964 393.96 282.048C394.09 282.123 394.277 282.16 394.52 282.16C394.678 282.16 394.842 282.141 395.01 282.104C395.178 282.067 395.336 282.011 395.486 281.936L395.528 282.93C395.341 283.014 395.131 283.075 394.898 283.112C394.674 283.149 394.459 283.168 394.254 283.168C393.862 283.168 393.549 283.117 393.316 283.014C393.082 282.911 392.9 282.767 392.77 282.58C392.639 282.393 392.55 282.165 392.504 281.894C392.466 281.614 392.448 281.306 392.448 280.97V277.372H391.02V276.448H392.448V274.586H393.54V276.448H395.472V277.372ZM407.552 274.18H404.276V283H403.1V274.18H399.824V273.088H407.552V274.18ZM413.038 281.81C412.646 282.314 412.217 282.669 411.75 282.874C411.284 283.07 410.742 283.168 410.126 283.168C409.613 283.168 409.151 283.079 408.74 282.902C408.33 282.715 407.98 282.468 407.69 282.16C407.41 281.852 407.191 281.488 407.032 281.068C406.883 280.648 406.808 280.2 406.808 279.724C406.808 279.22 406.892 278.758 407.06 278.338C407.228 277.909 407.462 277.545 407.76 277.246C408.059 276.938 408.414 276.7 408.824 276.532C409.235 276.364 409.683 276.28 410.168 276.28C410.626 276.28 411.046 276.359 411.428 276.518C411.811 276.667 412.138 276.891 412.408 277.19C412.688 277.479 412.903 277.839 413.052 278.268C413.202 278.688 413.276 279.169 413.276 279.71V280.06H407.984C408.003 280.34 408.068 280.611 408.18 280.872C408.302 281.124 408.456 281.348 408.642 281.544C408.829 281.731 409.048 281.88 409.3 281.992C409.552 282.104 409.828 282.16 410.126 282.16C410.602 282.16 411.004 282.076 411.33 281.908C411.657 281.74 411.951 281.493 412.212 281.166L413.038 281.81ZM412.1 279.136C412.082 278.576 411.9 278.128 411.554 277.792C411.209 277.456 410.733 277.288 410.126 277.288C409.52 277.288 409.03 277.456 408.656 277.792C408.283 278.128 408.059 278.576 407.984 279.136H412.1ZM415.106 281.278C415.32 281.549 415.554 281.763 415.806 281.922C416.067 282.081 416.394 282.16 416.786 282.16C416.954 282.16 417.122 282.141 417.29 282.104C417.467 282.067 417.626 282.006 417.766 281.922C417.906 281.838 418.018 281.735 418.102 281.614C418.186 281.483 418.228 281.329 418.228 281.152C418.228 280.975 418.186 280.83 418.102 280.718C418.027 280.606 417.924 280.513 417.794 280.438C417.663 280.354 417.514 280.289 417.346 280.242C417.178 280.195 417.005 280.153 416.828 280.116C416.52 280.051 416.226 279.976 415.946 279.892C415.666 279.808 415.418 279.701 415.204 279.57C414.998 279.43 414.83 279.253 414.7 279.038C414.578 278.823 414.518 278.548 414.518 278.212C414.518 277.895 414.588 277.615 414.728 277.372C414.868 277.129 415.054 276.929 415.288 276.77C415.521 276.611 415.782 276.49 416.072 276.406C416.361 276.322 416.66 276.28 416.968 276.28C417.434 276.28 417.864 276.373 418.256 276.56C418.657 276.747 418.97 277.05 419.194 277.47L418.284 278.072C418.144 277.839 417.957 277.652 417.724 277.512C417.5 277.363 417.224 277.288 416.898 277.288C416.748 277.288 416.594 277.307 416.436 277.344C416.286 277.381 416.151 277.437 416.03 277.512C415.908 277.587 415.806 277.685 415.722 277.806C415.647 277.918 415.61 278.049 415.61 278.198C415.61 278.338 415.652 278.459 415.736 278.562C415.829 278.655 415.95 278.739 416.1 278.814C416.258 278.889 416.436 278.954 416.632 279.01C416.837 279.066 417.047 279.113 417.262 279.15C417.551 279.206 417.826 279.281 418.088 279.374C418.349 279.458 418.578 279.575 418.774 279.724C418.97 279.873 419.124 280.06 419.236 280.284C419.348 280.508 419.404 280.783 419.404 281.11C419.404 281.483 419.329 281.801 419.18 282.062C419.03 282.323 418.83 282.538 418.578 282.706C418.335 282.865 418.055 282.981 417.738 283.056C417.43 283.131 417.112 283.168 416.786 283.168C416.226 283.168 415.74 283.084 415.33 282.916C414.928 282.739 414.564 282.417 414.238 281.95L415.106 281.278ZM424.511 277.372H422.579V280.648C422.579 280.863 422.583 281.063 422.593 281.25C422.602 281.427 422.639 281.586 422.705 281.726C422.77 281.857 422.868 281.964 422.999 282.048C423.129 282.123 423.316 282.16 423.559 282.16C423.717 282.16 423.881 282.141 424.049 282.104C424.217 282.067 424.375 282.011 424.525 281.936L424.567 282.93C424.38 283.014 424.17 283.075 423.937 283.112C423.713 283.149 423.498 283.168 423.293 283.168C422.901 283.168 422.588 283.117 422.355 283.014C422.121 282.911 421.939 282.767 421.809 282.58C421.678 282.393 421.589 282.165 421.543 281.894C421.505 281.614 421.487 281.306 421.487 280.97V277.372H420.059V276.448H421.487V274.586H422.579V276.448H424.511V277.372ZM425.96 276.448H427.052V283H425.96V276.448ZM425.708 273.886C425.708 273.671 425.783 273.485 425.932 273.326C426.091 273.167 426.282 273.088 426.506 273.088C426.73 273.088 426.917 273.167 427.066 273.326C427.225 273.485 427.304 273.671 427.304 273.886C427.304 274.119 427.23 274.311 427.08 274.46C426.931 274.609 426.74 274.684 426.506 274.684C426.273 274.684 426.082 274.609 425.932 274.46C425.783 274.311 425.708 274.119 425.708 273.886ZM429.225 278.002C429.225 277.703 429.216 277.423 429.197 277.162C429.179 276.901 429.169 276.663 429.169 276.448H430.205C430.205 276.625 430.21 276.803 430.219 276.98C430.229 277.157 430.233 277.339 430.233 277.526H430.261C430.336 277.367 430.439 277.213 430.569 277.064C430.709 276.915 430.873 276.784 431.059 276.672C431.246 276.551 431.456 276.457 431.689 276.392C431.923 276.317 432.175 276.28 432.445 276.28C432.875 276.28 433.243 276.345 433.551 276.476C433.869 276.607 434.13 276.789 434.335 277.022C434.541 277.255 434.69 277.54 434.783 277.876C434.886 278.203 434.937 278.562 434.937 278.954V283H433.845V279.066C433.845 278.515 433.724 278.081 433.481 277.764C433.239 277.447 432.861 277.288 432.347 277.288C431.993 277.288 431.685 277.349 431.423 277.47C431.171 277.591 430.961 277.764 430.793 277.988C430.635 278.212 430.513 278.478 430.429 278.786C430.355 279.094 430.317 279.435 430.317 279.808V283H429.225V278.002ZM443.543 282.706C443.543 283.901 443.235 284.806 442.619 285.422C442.012 286.047 441.13 286.36 439.973 286.36C439.329 286.36 438.745 286.267 438.223 286.08C437.709 285.893 437.219 285.571 436.753 285.114L437.537 284.218C437.882 284.591 438.246 284.871 438.629 285.058C439.021 285.254 439.469 285.352 439.973 285.352C440.458 285.352 440.859 285.277 441.177 285.128C441.503 284.988 441.76 284.792 441.947 284.54C442.133 284.297 442.264 284.017 442.339 283.7C442.413 283.383 442.451 283.051 442.451 282.706V281.866H442.423C442.161 282.286 441.821 282.594 441.401 282.79C440.981 282.986 440.551 283.084 440.113 283.084C439.599 283.084 439.128 283 438.699 282.832C438.269 282.664 437.901 282.431 437.593 282.132C437.285 281.833 437.047 281.479 436.879 281.068C436.711 280.657 436.627 280.209 436.627 279.724C436.627 279.192 436.711 278.711 436.879 278.282C437.047 277.853 437.28 277.493 437.579 277.204C437.887 276.905 438.255 276.677 438.685 276.518C439.114 276.359 439.59 276.28 440.113 276.28C440.337 276.28 440.561 276.308 440.785 276.364C441.009 276.411 441.223 276.49 441.429 276.602C441.643 276.705 441.835 276.84 442.003 277.008C442.171 277.167 442.311 277.353 442.423 277.568H442.451V276.448H443.543V282.706ZM437.803 279.724C437.803 280.06 437.863 280.373 437.985 280.662C438.106 280.942 438.269 281.189 438.475 281.404C438.689 281.609 438.937 281.773 439.217 281.894C439.497 282.015 439.795 282.076 440.113 282.076C440.486 282.076 440.817 282.011 441.107 281.88C441.396 281.749 441.639 281.577 441.835 281.362C442.04 281.138 442.194 280.886 442.297 280.606C442.399 280.317 442.451 280.013 442.451 279.696C442.451 279.341 442.395 279.019 442.283 278.73C442.171 278.431 442.012 278.175 441.807 277.96C441.601 277.745 441.354 277.582 441.065 277.47C440.775 277.349 440.458 277.288 440.113 277.288C439.767 277.288 439.45 277.353 439.161 277.484C438.881 277.605 438.638 277.778 438.433 278.002C438.237 278.217 438.083 278.473 437.971 278.772C437.859 279.061 437.803 279.379 437.803 279.724Z" fill="#1C1D26" fill-opacity="0.6"/>
<path d="M543.828 273.088H545.004V283H543.828V273.088ZM547.268 278.002C547.268 277.703 547.259 277.423 547.24 277.162C547.222 276.901 547.212 276.663 547.212 276.448H548.248C548.248 276.625 548.253 276.803 548.262 276.98C548.272 277.157 548.276 277.339 548.276 277.526H548.304C548.379 277.367 548.482 277.213 548.612 277.064C548.752 276.915 548.916 276.784 549.102 276.672C549.289 276.551 549.499 276.457 549.732 276.392C549.966 276.317 550.218 276.28 550.488 276.28C550.918 276.28 551.286 276.345 551.594 276.476C551.912 276.607 552.173 276.789 552.378 277.022C552.584 277.255 552.733 277.54 552.826 277.876C552.929 278.203 552.98 278.562 552.98 278.954V283H551.888V279.066C551.888 278.515 551.767 278.081 551.524 277.764C551.282 277.447 550.904 277.288 550.39 277.288C550.036 277.288 549.728 277.349 549.466 277.47C549.214 277.591 549.004 277.764 548.836 277.988C548.678 278.212 548.556 278.478 548.472 278.786C548.398 279.094 548.36 279.435 548.36 279.808V283H547.268V278.002ZM560.494 281.838H560.466C560.26 282.211 559.934 282.529 559.486 282.79C559.047 283.042 558.534 283.168 557.946 283.168C557.488 283.168 557.059 283.084 556.658 282.916C556.256 282.739 555.906 282.496 555.608 282.188C555.318 281.88 555.09 281.516 554.922 281.096C554.754 280.676 554.67 280.219 554.67 279.724C554.67 279.229 554.754 278.772 554.922 278.352C555.09 277.932 555.323 277.568 555.622 277.26C555.92 276.952 556.28 276.714 556.7 276.546C557.129 276.369 557.6 276.28 558.114 276.28C558.59 276.28 559.024 276.378 559.416 276.574C559.817 276.77 560.167 277.045 560.466 277.4H560.494V272.416H561.586V283H560.494V281.838ZM560.494 279.724C560.494 279.379 560.438 279.061 560.326 278.772C560.223 278.473 560.069 278.217 559.864 278.002C559.658 277.778 559.411 277.605 559.122 277.484C558.842 277.353 558.524 277.288 558.17 277.288C557.815 277.288 557.493 277.353 557.204 277.484C556.924 277.605 556.681 277.778 556.476 278.002C556.27 278.217 556.112 278.473 556 278.772C555.897 279.061 555.846 279.379 555.846 279.724C555.846 280.069 555.897 280.391 556 280.69C556.112 280.979 556.27 281.236 556.476 281.46C556.681 281.675 556.924 281.847 557.204 281.978C557.493 282.099 557.815 282.16 558.17 282.16C558.524 282.16 558.842 282.099 559.122 281.978C559.411 281.847 559.658 281.675 559.864 281.46C560.069 281.236 560.223 280.979 560.326 280.69C560.438 280.391 560.494 280.069 560.494 279.724ZM569.318 281.446C569.318 281.745 569.328 282.025 569.346 282.286C569.365 282.547 569.374 282.785 569.374 283H568.338C568.338 282.823 568.334 282.645 568.324 282.468C568.315 282.291 568.31 282.109 568.31 281.922H568.282C568.208 282.081 568.1 282.235 567.96 282.384C567.83 282.533 567.671 282.669 567.484 282.79C567.298 282.902 567.088 282.991 566.854 283.056C566.621 283.131 566.369 283.168 566.098 283.168C565.669 283.168 565.296 283.103 564.978 282.972C564.67 282.841 564.414 282.659 564.208 282.426C564.003 282.193 563.849 281.913 563.746 281.586C563.653 281.25 563.606 280.886 563.606 280.494V276.448H564.698V280.382C564.698 280.933 564.82 281.367 565.062 281.684C565.305 282.001 565.683 282.16 566.196 282.16C566.551 282.16 566.854 282.099 567.106 281.978C567.368 281.857 567.578 281.684 567.736 281.46C567.904 281.236 568.026 280.97 568.1 280.662C568.184 280.354 568.226 280.013 568.226 279.64V276.448H569.318V281.446ZM571.526 281.278C571.74 281.549 571.974 281.763 572.226 281.922C572.487 282.081 572.814 282.16 573.206 282.16C573.374 282.16 573.542 282.141 573.71 282.104C573.887 282.067 574.046 282.006 574.186 281.922C574.326 281.838 574.438 281.735 574.522 281.614C574.606 281.483 574.648 281.329 574.648 281.152C574.648 280.975 574.606 280.83 574.522 280.718C574.447 280.606 574.344 280.513 574.214 280.438C574.083 280.354 573.934 280.289 573.766 280.242C573.598 280.195 573.425 280.153 573.248 280.116C572.94 280.051 572.646 279.976 572.366 279.892C572.086 279.808 571.838 279.701 571.624 279.57C571.418 279.43 571.25 279.253 571.12 279.038C570.998 278.823 570.938 278.548 570.938 278.212C570.938 277.895 571.008 277.615 571.148 277.372C571.288 277.129 571.474 276.929 571.708 276.77C571.941 276.611 572.202 276.49 572.492 276.406C572.781 276.322 573.08 276.28 573.388 276.28C573.854 276.28 574.284 276.373 574.676 276.56C575.077 276.747 575.39 277.05 575.614 277.47L574.704 278.072C574.564 277.839 574.377 277.652 574.144 277.512C573.92 277.363 573.644 277.288 573.318 277.288C573.168 277.288 573.014 277.307 572.856 277.344C572.706 277.381 572.571 277.437 572.45 277.512C572.328 277.587 572.226 277.685 572.142 277.806C572.067 277.918 572.03 278.049 572.03 278.198C572.03 278.338 572.072 278.459 572.156 278.562C572.249 278.655 572.37 278.739 572.52 278.814C572.678 278.889 572.856 278.954 573.052 279.01C573.257 279.066 573.467 279.113 573.682 279.15C573.971 279.206 574.246 279.281 574.508 279.374C574.769 279.458 574.998 279.575 575.194 279.724C575.39 279.873 575.544 280.06 575.656 280.284C575.768 280.508 575.824 280.783 575.824 281.11C575.824 281.483 575.749 281.801 575.6 282.062C575.45 282.323 575.25 282.538 574.998 282.706C574.755 282.865 574.475 282.981 574.158 283.056C573.85 283.131 573.532 283.168 573.206 283.168C572.646 283.168 572.16 283.084 571.75 282.916C571.348 282.739 570.984 282.417 570.658 281.95L571.526 281.278ZM580.931 277.372H578.999V280.648C578.999 280.863 579.003 281.063 579.013 281.25C579.022 281.427 579.059 281.586 579.125 281.726C579.19 281.857 579.288 281.964 579.419 282.048C579.549 282.123 579.736 282.16 579.979 282.16C580.137 282.16 580.301 282.141 580.469 282.104C580.637 282.067 580.795 282.011 580.945 281.936L580.987 282.93C580.8 283.014 580.59 283.075 580.357 283.112C580.133 283.149 579.918 283.168 579.713 283.168C579.321 283.168 579.008 283.117 578.775 283.014C578.541 282.911 578.359 282.767 578.229 282.58C578.098 282.393 578.009 282.165 577.963 281.894C577.925 281.614 577.907 281.306 577.907 280.97V277.372H576.479V276.448H577.907V274.586H578.999V276.448H580.931V277.372ZM582.268 278.002C582.268 277.703 582.259 277.423 582.24 277.162C582.222 276.901 582.212 276.663 582.212 276.448H583.248C583.248 276.625 583.253 276.803 583.262 276.98C583.272 277.157 583.276 277.339 583.276 277.526H583.304C583.379 277.367 583.482 277.213 583.612 277.064C583.752 276.915 583.916 276.784 584.102 276.672C584.289 276.551 584.499 276.457 584.732 276.392C584.966 276.317 585.218 276.28 585.488 276.28C585.563 276.28 585.638 276.285 585.712 276.294C585.787 276.303 585.862 276.322 585.936 276.35L585.866 277.456C585.68 277.4 585.484 277.372 585.278 277.372C584.606 277.372 584.116 277.591 583.808 278.03C583.51 278.459 583.36 279.052 583.36 279.808V283H582.268V278.002ZM589.598 284.498C589.486 284.778 589.37 285.03 589.248 285.254C589.136 285.487 588.996 285.683 588.828 285.842C588.67 286.01 588.474 286.136 588.24 286.22C588.016 286.313 587.741 286.36 587.414 286.36C587.256 286.36 587.088 286.351 586.91 286.332C586.742 286.313 586.584 286.267 586.434 286.192L586.574 285.24C586.686 285.287 586.803 285.315 586.924 285.324C587.046 285.343 587.186 285.352 587.344 285.352C587.699 285.352 587.96 285.254 588.128 285.058C588.296 284.862 588.441 284.601 588.562 284.274L589.01 283.042L586.294 276.448H587.568L589.598 281.586H589.626L591.572 276.448H592.762L589.598 284.498ZM598.037 273.088H604.267V274.18H599.213V277.288H603.931V278.38H599.213V281.908H604.519V283H598.037V273.088ZM607.834 279.472L605.482 276.448H606.91L608.646 278.8L610.284 276.448H611.614L609.36 279.472L612.062 283H610.62L608.548 280.172L606.504 283H605.146L607.834 279.472ZM613.084 276.448H614.176V277.4H614.204C614.502 277.045 614.848 276.77 615.24 276.574C615.641 276.378 616.08 276.28 616.556 276.28C617.069 276.28 617.536 276.369 617.956 276.546C618.385 276.714 618.749 276.952 619.048 277.26C619.346 277.568 619.58 277.932 619.748 278.352C619.916 278.772 620 279.229 620 279.724C620 280.219 619.916 280.676 619.748 281.096C619.58 281.516 619.346 281.88 619.048 282.188C618.758 282.496 618.413 282.739 618.012 282.916C617.61 283.084 617.181 283.168 616.724 283.168C616.136 283.168 615.618 283.042 615.17 282.79C614.731 282.529 614.409 282.211 614.204 281.838H614.176V286.192H613.084V276.448ZM614.176 279.724C614.176 280.069 614.227 280.391 614.33 280.69C614.442 280.979 614.6 281.236 614.806 281.46C615.011 281.675 615.254 281.847 615.534 281.978C615.823 282.099 616.145 282.16 616.5 282.16C616.854 282.16 617.172 282.099 617.452 281.978C617.741 281.847 617.988 281.675 618.194 281.46C618.399 281.236 618.553 280.979 618.656 280.69C618.768 280.391 618.824 280.069 618.824 279.724C618.824 279.379 618.768 279.061 618.656 278.772C618.553 278.473 618.399 278.217 618.194 278.002C617.988 277.778 617.741 277.605 617.452 277.484C617.172 277.353 616.854 277.288 616.5 277.288C616.145 277.288 615.823 277.353 615.534 277.484C615.254 277.605 615.011 277.778 614.806 278.002C614.6 278.217 614.442 278.473 614.33 278.772C614.227 279.061 614.176 279.379 614.176 279.724ZM627.55 281.81C627.158 282.314 626.729 282.669 626.262 282.874C625.795 283.07 625.254 283.168 624.638 283.168C624.125 283.168 623.663 283.079 623.252 282.902C622.841 282.715 622.491 282.468 622.202 282.16C621.922 281.852 621.703 281.488 621.544 281.068C621.395 280.648 621.32 280.2 621.32 279.724C621.32 279.22 621.404 278.758 621.572 278.338C621.74 277.909 621.973 277.545 622.272 277.246C622.571 276.938 622.925 276.7 623.336 276.532C623.747 276.364 624.195 276.28 624.68 276.28C625.137 276.28 625.557 276.359 625.94 276.518C626.323 276.667 626.649 276.891 626.92 277.19C627.2 277.479 627.415 277.839 627.564 278.268C627.713 278.688 627.788 279.169 627.788 279.71V280.06H622.496C622.515 280.34 622.58 280.611 622.692 280.872C622.813 281.124 622.967 281.348 623.154 281.544C623.341 281.731 623.56 281.88 623.812 281.992C624.064 282.104 624.339 282.16 624.638 282.16C625.114 282.16 625.515 282.076 625.842 281.908C626.169 281.74 626.463 281.493 626.724 281.166L627.55 281.81ZM626.612 279.136C626.593 278.576 626.411 278.128 626.066 277.792C625.721 277.456 625.245 277.288 624.638 277.288C624.031 277.288 623.541 277.456 623.168 277.792C622.795 278.128 622.571 278.576 622.496 279.136H626.612ZM629.477 278.002C629.477 277.703 629.468 277.423 629.449 277.162C629.431 276.901 629.421 276.663 629.421 276.448H630.457C630.457 276.625 630.462 276.803 630.471 276.98C630.481 277.157 630.485 277.339 630.485 277.526H630.513C630.588 277.367 630.691 277.213 630.821 277.064C630.961 276.915 631.125 276.784 631.311 276.672C631.498 276.551 631.708 276.457 631.941 276.392C632.175 276.317 632.427 276.28 632.697 276.28C632.772 276.28 632.847 276.285 632.921 276.294C632.996 276.303 633.071 276.322 633.145 276.35L633.075 277.456C632.889 277.4 632.693 277.372 632.487 277.372C631.815 277.372 631.325 277.591 631.017 278.03C630.719 278.459 630.569 279.052 630.569 279.808V283H629.477V278.002ZM637.983 277.372H636.051V280.648C636.051 280.863 636.056 281.063 636.065 281.25C636.075 281.427 636.112 281.586 636.177 281.726C636.243 281.857 636.341 281.964 636.471 282.048C636.602 282.123 636.789 282.16 637.031 282.16C637.19 282.16 637.353 282.141 637.521 282.104C637.689 282.067 637.848 282.011 637.997 281.936L638.039 282.93C637.853 283.014 637.643 283.075 637.409 283.112C637.185 283.149 636.971 283.168 636.765 283.168C636.373 283.168 636.061 283.117 635.827 283.014C635.594 282.911 635.412 282.767 635.281 282.58C635.151 282.393 635.062 282.165 635.015 281.894C634.978 281.614 634.959 281.306 634.959 280.97V277.372H633.531V276.448H634.959V274.586H636.051V276.448H637.983V277.372ZM651.842 282.328C651.272 282.645 650.67 282.879 650.036 283.028C649.41 283.177 648.776 283.252 648.132 283.252C647.357 283.252 646.648 283.126 646.004 282.874C645.36 282.622 644.8 282.267 644.324 281.81C643.857 281.353 643.493 280.807 643.232 280.172C642.97 279.528 642.84 278.819 642.84 278.044C642.84 277.26 642.975 276.551 643.246 275.916C643.526 275.272 643.908 274.726 644.394 274.278C644.879 273.821 645.444 273.466 646.088 273.214C646.732 272.962 647.427 272.836 648.174 272.836C648.827 272.836 649.452 272.934 650.05 273.13C650.656 273.326 651.198 273.662 651.674 274.138L650.792 275.062C650.456 274.698 650.045 274.418 649.56 274.222C649.084 274.026 648.594 273.928 648.09 273.928C647.52 273.928 646.993 274.031 646.508 274.236C646.022 274.441 645.598 274.726 645.234 275.09C644.879 275.454 644.599 275.888 644.394 276.392C644.198 276.896 644.1 277.447 644.1 278.044C644.1 278.632 644.198 279.178 644.394 279.682C644.599 280.186 644.879 280.625 645.234 280.998C645.598 281.362 646.032 281.647 646.536 281.852C647.04 282.057 647.595 282.16 648.202 282.16C648.603 282.16 649.023 282.113 649.462 282.02C649.9 281.917 650.302 281.773 650.666 281.586V278.548H648.384V277.456H651.842V282.328ZM654.114 278.002C654.114 277.703 654.105 277.423 654.086 277.162C654.067 276.901 654.058 276.663 654.058 276.448H655.094C655.094 276.625 655.099 276.803 655.108 276.98C655.117 277.157 655.122 277.339 655.122 277.526H655.15C655.225 277.367 655.327 277.213 655.458 277.064C655.598 276.915 655.761 276.784 655.948 276.672C656.135 276.551 656.345 276.457 656.578 276.392C656.811 276.317 657.063 276.28 657.334 276.28C657.409 276.28 657.483 276.285 657.558 276.294C657.633 276.303 657.707 276.322 657.782 276.35L657.712 277.456C657.525 277.4 657.329 277.372 657.124 277.372C656.452 277.372 655.962 277.591 655.654 278.03C655.355 278.459 655.206 279.052 655.206 279.808V283H654.114V278.002ZM658.412 279.724C658.412 279.211 658.501 278.744 658.678 278.324C658.855 277.904 659.098 277.545 659.406 277.246C659.714 276.938 660.083 276.7 660.512 276.532C660.941 276.364 661.408 276.28 661.912 276.28C662.416 276.28 662.883 276.364 663.312 276.532C663.741 276.7 664.11 276.938 664.418 277.246C664.726 277.545 664.969 277.904 665.146 278.324C665.323 278.744 665.412 279.211 665.412 279.724C665.412 280.237 665.323 280.704 665.146 281.124C664.969 281.544 664.726 281.908 664.418 282.216C664.11 282.515 663.741 282.748 663.312 282.916C662.883 283.084 662.416 283.168 661.912 283.168C661.408 283.168 660.941 283.084 660.512 282.916C660.083 282.748 659.714 282.515 659.406 282.216C659.098 281.908 658.855 281.544 658.678 281.124C658.501 280.704 658.412 280.237 658.412 279.724ZM659.588 279.724C659.588 280.069 659.639 280.391 659.742 280.69C659.854 280.979 660.013 281.236 660.218 281.46C660.423 281.675 660.666 281.847 660.946 281.978C661.235 282.099 661.557 282.16 661.912 282.16C662.267 282.16 662.584 282.099 662.864 281.978C663.153 281.847 663.401 281.675 663.606 281.46C663.811 281.236 663.965 280.979 664.068 280.69C664.18 280.391 664.236 280.069 664.236 279.724C664.236 279.379 664.18 279.061 664.068 278.772C663.965 278.473 663.811 278.217 663.606 278.002C663.401 277.778 663.153 277.605 662.864 277.484C662.584 277.353 662.267 277.288 661.912 277.288C661.557 277.288 661.235 277.353 660.946 277.484C660.666 277.605 660.423 277.778 660.218 278.002C660.013 278.217 659.854 278.473 659.742 278.772C659.639 279.061 659.588 279.379 659.588 279.724ZM672.814 281.446C672.814 281.745 672.824 282.025 672.842 282.286C672.861 282.547 672.87 282.785 672.87 283H671.834C671.834 282.823 671.83 282.645 671.82 282.468C671.811 282.291 671.806 282.109 671.806 281.922H671.778C671.704 282.081 671.596 282.235 671.456 282.384C671.326 282.533 671.167 282.669 670.98 282.79C670.794 282.902 670.584 282.991 670.35 283.056C670.117 283.131 669.865 283.168 669.594 283.168C669.165 283.168 668.792 283.103 668.474 282.972C668.166 282.841 667.91 282.659 667.704 282.426C667.499 282.193 667.345 281.913 667.242 281.586C667.149 281.25 667.102 280.886 667.102 280.494V276.448H668.194V280.382C668.194 280.933 668.316 281.367 668.558 281.684C668.801 282.001 669.179 282.16 669.692 282.16C670.047 282.16 670.35 282.099 670.602 281.978C670.864 281.857 671.074 281.684 671.232 281.46C671.4 281.236 671.522 280.97 671.596 280.662C671.68 280.354 671.722 280.013 671.722 279.64V276.448H672.814V281.446ZM674.826 276.448H675.918V277.4H675.946C676.244 277.045 676.59 276.77 676.982 276.574C677.383 276.378 677.822 276.28 678.298 276.28C678.811 276.28 679.278 276.369 679.698 276.546C680.127 276.714 680.491 276.952 680.79 277.26C681.088 277.568 681.322 277.932 681.49 278.352C681.658 278.772 681.742 279.229 681.742 279.724C681.742 280.219 681.658 280.676 681.49 281.096C681.322 281.516 681.088 281.88 680.79 282.188C680.5 282.496 680.155 282.739 679.754 282.916C679.352 283.084 678.923 283.168 678.466 283.168C677.878 283.168 677.36 283.042 676.912 282.79C676.473 282.529 676.151 282.211 675.946 281.838H675.918V286.192H674.826V276.448ZM675.918 279.724C675.918 280.069 675.969 280.391 676.072 280.69C676.184 280.979 676.342 281.236 676.548 281.46C676.753 281.675 676.996 281.847 677.276 281.978C677.565 282.099 677.887 282.16 678.242 282.16C678.596 282.16 678.914 282.099 679.194 281.978C679.483 281.847 679.73 281.675 679.936 281.46C680.141 281.236 680.295 280.979 680.398 280.69C680.51 280.391 680.566 280.069 680.566 279.724C680.566 279.379 680.51 279.061 680.398 278.772C680.295 278.473 680.141 278.217 679.936 278.002C679.73 277.778 679.483 277.605 679.194 277.484C678.914 277.353 678.596 277.288 678.242 277.288C677.887 277.288 677.565 277.353 677.276 277.484C676.996 277.605 676.753 277.778 676.548 278.002C676.342 278.217 676.184 278.473 676.072 278.772C675.969 279.061 675.918 279.379 675.918 279.724Z" fill="#1C1D26" fill-opacity="0.6"/>
</svg>
