<svg width="40" height="40" viewBox="0 0 40 40" fill="none" xmlns="http://www.w3.org/2000/svg">
<rect width="40" height="40" rx="8" fill="#2C2A64" fill-opacity="0.03"/>
<path d="M24.2727 11C23.7204 11 23.2727 11.4477 23.2727 12V15.4746L20.8182 16.9318V15.899C20.8182 15.2689 20.1252 14.8848 19.5909 15.2185L16.7273 16.9318V15.899C16.7273 15.2689 16.0343 14.8848 15.5 15.2185L11.4091 17.6731C11.1564 17.8151 11 18.0824 11 18.3723V28C11 28.5523 11.4477 29 12 29H28C28.5523 29 29 28.5523 29 28V12C29 11.4477 28.5523 11 28 11H24.2727ZM24.9091 12.6364H27.3636V27.3636H12.6364V18.7981L15.0909 17.3409V19.8208L16.3182 19.0542L19.1818 17.3409V19.8208L20.4091 19.0542L24.5 16.5996L24.9091 16.3697V12.6364ZM14.8727 20.8182C14.5414 20.8182 14.2727 21.0868 14.2727 21.4182V21.8545C14.2727 22.1859 14.5414 22.4545 14.8727 22.4545H15.3091C15.6405 22.4545 15.9091 22.1859 15.9091 21.8545V21.4182C15.9091 21.0868 15.6405 20.8182 15.3091 20.8182H14.8727ZM18.1455 20.8182C17.8141 20.8182 17.5455 21.0868 17.5455 21.4182V21.8545C17.5455 22.1859 17.8141 22.4545 18.1455 22.4545H18.5818C18.9132 22.4545 19.1818 22.1859 19.1818 21.8545V21.4182C19.1818 21.0868 18.9132 20.8182 18.5818 20.8182H18.1455ZM21.4182 20.8182C21.0868 20.8182 20.8182 21.0868 20.8182 21.4182V21.8545C20.8182 22.1859 21.0868 22.4545 21.4182 22.4545H21.8545C22.1859 22.4545 22.4545 22.1859 22.4545 21.8545V21.4182C22.4545 21.0868 22.1859 20.8182 21.8545 20.8182H21.4182ZM24.6909 20.8182C24.3595 20.8182 24.0909 21.0868 24.0909 21.4182V21.8545C24.0909 22.1859 24.3595 22.4545 24.6909 22.4545H25.1273C25.4586 22.4545 25.7273 22.1859 25.7273 21.8545V21.4182C25.7273 21.0868 25.4586 20.8182 25.1273 20.8182H24.6909ZM14.8727 24.0909C14.5414 24.0909 14.2727 24.3595 14.2727 24.6909V25.1273C14.2727 25.4586 14.5414 25.7273 14.8727 25.7273H15.3091C15.6405 25.7273 15.9091 25.4586 15.9091 25.1273V24.6909C15.9091 24.3595 15.6405 24.0909 15.3091 24.0909H14.8727ZM18.1455 24.0909C17.8141 24.0909 17.5455 24.3595 17.5455 24.6909V25.1273C17.5455 25.4586 17.8141 25.7273 18.1455 25.7273H18.5818C18.9132 25.7273 19.1818 25.4586 19.1818 25.1273V24.6909C19.1818 24.3595 18.9132 24.0909 18.5818 24.0909H18.1455ZM21.4182 24.0909C21.0868 24.0909 20.8182 24.3595 20.8182 24.6909V25.1273C20.8182 25.4586 21.0868 25.7273 21.4182 25.7273H21.8545C22.1859 25.7273 22.4545 25.4586 22.4545 25.1273V24.6909C22.4545 24.3595 22.1859 24.0909 21.8545 24.0909H21.4182ZM24.6909 24.0909C24.3595 24.0909 24.0909 24.3595 24.0909 24.6909V25.1273C24.0909 25.4586 24.3595 25.7273 24.6909 25.7273H25.1273C25.4586 25.7273 25.7273 25.4586 25.7273 25.1273V24.6909C25.7273 24.3595 25.4586 24.0909 25.1273 24.0909H24.6909Z" fill="#00B37A"/>
</svg>
