<svg width="106" height="28" viewBox="0 0 106 28" fill="none" xmlns="http://www.w3.org/2000/svg">
<path d="M106 14C106 20.6274 100.627 26 94 26C87.3726 26 82 20.6274 82 14C82 7.37258 87.3726 2 94 2C100.627 2 106 7.37258 106 14Z" fill="#2C2A64" fill-opacity="0.03"/>
<path d="M87.1587 15.3145H89.5649V17.7744H90.4351V15.3145H92.8413V14.4443H90.4351V11.9844H89.5649V14.4443H87.1587V15.3145Z" fill="#1E1F24"/>
<path d="M97.5537 18.1289C99.106 18.1289 100.245 17.1729 100.245 15.8784V15.8677C100.245 14.7666 99.4766 14.063 98.3486 13.9663V13.9448C99.3154 13.7407 99.9922 13.0854 99.9922 12.1294V12.1187C99.9922 10.9424 99.02 10.1206 97.543 10.1206C96.0928 10.1206 95.0938 10.9639 94.9702 12.2261L94.9648 12.2798H95.894L95.8994 12.2261C95.98 11.4419 96.6299 10.9585 97.543 10.9585C98.4883 10.9585 99.02 11.4258 99.02 12.2368V12.2476C99.02 13.021 98.3755 13.5903 97.4517 13.5903H96.5225V14.4067H97.4946C98.5796 14.4067 99.2617 14.9385 99.2617 15.8892V15.8999C99.2617 16.7217 98.5688 17.291 97.5537 17.291C96.5225 17.291 95.8188 16.7646 95.7437 16.002L95.7383 15.9482H94.8091L94.8145 16.0127C94.9165 17.2373 95.9531 18.1289 97.5537 18.1289Z" fill="#1E1F24"/>
<rect x="61" y="1" width="26" height="26" rx="13" fill="#FCF3E8"/>
<path d="M69.7471 16H72.8916V15.2583H70.6289V11.0679H69.7471V16ZM76.5542 16.123C77.7368 16.123 78.4785 15.5215 78.4785 14.561V14.5576C78.4785 13.8125 78.0444 13.3955 77.0054 13.1768L76.4756 13.064C75.8604 12.9341 75.6108 12.7153 75.6108 12.3667V12.3633C75.6108 11.9429 76.0005 11.6865 76.5474 11.6865C77.1113 11.6831 77.4771 11.9565 77.5386 12.3394L77.5454 12.3804H78.3896L78.3862 12.3359C78.3247 11.543 77.6445 10.9448 76.5508 10.9448C75.4844 10.9448 74.7256 11.5396 74.7256 12.4214V12.4248C74.7256 13.1597 75.1631 13.6313 76.1714 13.8433L76.7012 13.9526C77.3369 14.0894 77.5933 14.3047 77.5933 14.6602V14.6636C77.5933 15.0874 77.1763 15.3813 76.5815 15.3813C75.9561 15.3813 75.5151 15.1079 75.4741 14.6943L75.4707 14.6602H74.6162L74.6196 14.708C74.6812 15.5591 75.4092 16.123 76.5542 16.123Z" fill="#683F0E"/>
<rect x="61" y="1" width="26" height="26" rx="13" stroke="white" stroke-width="2"/>
<rect x="41" y="1" width="26" height="26" rx="13" fill="#E8FCEA"/>
<path d="M49.689 16H50.5708V13.9868H52.6387V13.269H50.5708V11.8096H52.8335V11.0679H49.689V16ZM54.1855 16H55.1084L55.5186 14.7251H57.3438L57.7573 16H58.6802L56.9302 11.0679H55.9355L54.1855 16ZM56.4038 11.9839H56.4619L57.125 14.0449H55.7407L56.4038 11.9839Z" fill="#345B38"/>
<rect x="41" y="1" width="26" height="26" rx="13" stroke="white" stroke-width="2"/>
<rect x="21" y="1" width="26" height="26" rx="13" fill="#E8EDFC"/>
<path d="M29.0806 16H31.1895C32.2422 16 32.8848 15.4668 32.8848 14.6021V14.5952C32.8848 13.9561 32.4268 13.4775 31.7637 13.416V13.3545C32.2593 13.2759 32.6421 12.8179 32.6421 12.3018V12.2949C32.6421 11.5396 32.0781 11.0679 31.1416 11.0679H29.0806V16ZM30.9263 11.7549C31.4595 11.7549 31.7705 12.0112 31.7705 12.4487V12.4556C31.7705 12.9033 31.439 13.146 30.8135 13.146H29.9624V11.7549H30.9263ZM30.9536 13.7715C31.627 13.7715 31.9824 14.0347 31.9824 14.5337V14.5405C31.9824 15.043 31.6372 15.313 30.9878 15.313H29.9624V13.7715H30.9536ZM36.9541 16.123C38.27 16.123 39.1108 15.3062 39.1108 14.0312V13.416H37.0635V14.0894H38.2461L38.2427 14.1919C38.2324 14.8926 37.7197 15.3608 36.9678 15.3608C36.0894 15.3608 35.5356 14.6602 35.5356 13.5288V13.522C35.5356 12.4077 36.0791 11.707 36.9404 11.707C37.5728 11.707 38.0239 12.0215 38.1846 12.5615L38.1948 12.5957H39.0698L39.0664 12.5615C38.8989 11.5977 38.0786 10.9448 36.9404 10.9448C35.5356 10.9448 34.6367 11.9531 34.6367 13.5288V13.5356C34.6367 15.1284 35.5254 16.123 36.9541 16.123Z" fill="#374777"/>
<rect x="21" y="1" width="26" height="26" rx="13" stroke="white" stroke-width="2"/>
<rect x="1" y="1" width="26" height="26" rx="13" fill="#FCE8FC"/>
<path d="M8.37207 16H9.29492L9.70508 14.7251H11.5303L11.9438 16H12.8667L11.1167 11.0679H10.1221L8.37207 16ZM10.5903 11.9839H10.6484L11.3115 14.0449H9.92725L10.5903 11.9839ZM14.7144 16H16.8232C17.876 16 18.5186 15.4668 18.5186 14.6021V14.5952C18.5186 13.9561 18.0605 13.4775 17.3975 13.416V13.3545C17.8931 13.2759 18.2759 12.8179 18.2759 12.3018V12.2949C18.2759 11.5396 17.7119 11.0679 16.7754 11.0679H14.7144V16ZM16.5601 11.7549C17.0933 11.7549 17.4043 12.0112 17.4043 12.4487V12.4556C17.4043 12.9033 17.0728 13.146 16.4473 13.146H15.5962V11.7549H16.5601ZM16.5874 13.7715C17.2607 13.7715 17.6162 14.0347 17.6162 14.5337V14.5405C17.6162 15.043 17.271 15.313 16.6216 15.313H15.5962V13.7715H16.5874Z" fill="#693069"/>
<rect x="1" y="1" width="26" height="26" rx="13" stroke="white" stroke-width="2"/>
</svg>
