<svg width="40" height="41" viewBox="0 0 40 41" fill="none" xmlns="http://www.w3.org/2000/svg">
<rect y="0.5" width="40" height="40" rx="8" fill="#2C2A64" fill-opacity="0.03"/>
<path d="M11 17.9545C11 17.4023 11.4477 16.9545 12 16.9545H13.3663C14.8081 16.9545 15.9463 15.9501 16.4166 14.768C16.7138 14.021 17.155 13.1766 17.7657 12.5328C18.3607 11.9055 19.0813 11.5 20 11.5C20.9187 11.5 21.6393 11.9055 22.2343 12.5328C22.845 13.1766 23.2862 14.021 23.5834 14.768C24.0537 15.9501 25.1919 16.9545 26.6337 16.9545H28C28.5523 16.9545 29 17.4023 29 17.9545V28.5C29 29.0523 28.5523 29.5 28 29.5H12C11.4477 29.5 11 29.0523 11 28.5V17.9545Z" stroke="#00B37A" stroke-width="2"/>
<rect x="17" y="24.5" width="6" height="5" rx="1" stroke="#00B37A" stroke-width="2"/>
<circle cx="16" cy="20.5" r="0.5" stroke="#00B37A"/>
<circle cx="24" cy="20.5" r="0.5" stroke="#00B37A"/>
<circle cx="20" cy="20.5" r="0.5" stroke="#00B37A"/>
<circle cx="20" cy="16.5" r="0.5" stroke="#00B37A"/>
</svg>
