<svg width="1160" height="424" viewBox="0 0 1160 424" fill="none" xmlns="http://www.w3.org/2000/svg">
<g filter="url(#filter0_ii)">
<rect x="74" y="16" width="972" height="81.6" fill="white"/>
</g>
<g filter="url(#filter1_i)">
<rect x="74" y="97.6001" width="972" height="81.6" fill="white"/>
</g>
<g filter="url(#filter2_i)">
<rect x="74" y="179.2" width="972" height="81.6" fill="white"/>
</g>
<g filter="url(#filter3_i)">
<rect x="74" y="260.8" width="972" height="81.6" fill="white"/>
</g>
<g filter="url(#filter4_i)">
<rect x="74" y="342.4" width="972" height="81.6" fill="white"/>
</g>
<path opacity="0.7" d="M75.2 50.672H79.552C79.9253 50.672 80.32 50.7147 80.736 50.8C81.152 50.8853 81.5627 51.024 81.968 51.216C82.384 51.3973 82.7787 51.6373 83.152 51.936C83.536 52.2347 83.872 52.5973 84.16 53.024C84.448 53.44 84.6773 53.9253 84.848 54.48C85.0187 55.024 85.104 55.6427 85.104 56.336C85.104 57.0293 85.0187 57.6533 84.848 58.208C84.6773 58.752 84.448 59.2373 84.16 59.664C83.872 60.08 83.536 60.4373 83.152 60.736C82.7787 61.0347 82.384 61.28 81.968 61.472C81.5627 61.6533 81.152 61.7867 80.736 61.872C80.32 61.9573 79.9253 62 79.552 62H75.2V50.672ZM76.544 60.752H79.104C79.7547 60.752 80.3573 60.6667 80.912 60.496C81.4667 60.3253 81.9467 60.064 82.352 59.712C82.7573 59.3493 83.0773 58.8907 83.312 58.336C83.5467 57.7813 83.664 57.1147 83.664 56.336C83.664 55.5573 83.5467 54.8907 83.312 54.336C83.0773 53.7813 82.7573 53.328 82.352 52.976C81.9467 52.6133 81.4667 52.3467 80.912 52.176C80.3573 52.0053 79.7547 51.92 79.104 51.92H76.544V60.752ZM86.9474 55.472C87.3314 55.0773 87.7847 54.7893 88.3074 54.608C88.8407 54.416 89.3794 54.32 89.9234 54.32C91.0327 54.32 91.8327 54.5813 92.3234 55.104C92.814 55.6267 93.0594 56.4213 93.0594 57.488V60.704C93.0594 60.9173 93.07 61.1413 93.0914 61.376C93.1127 61.6 93.1394 61.808 93.1714 62H91.9714C91.9287 61.8293 91.902 61.6427 91.8914 61.44C91.8914 61.2267 91.8914 61.04 91.8914 60.88H91.8594C91.614 61.264 91.2834 61.5787 90.8674 61.824C90.462 62.0693 89.9714 62.192 89.3954 62.192C89.0114 62.192 88.6487 62.144 88.3074 62.048C87.9767 61.952 87.6834 61.8133 87.4274 61.632C87.182 61.44 86.9847 61.2053 86.8354 60.928C86.686 60.6507 86.6114 60.3307 86.6114 59.968C86.6114 59.3493 86.7714 58.864 87.0914 58.512C87.4114 58.16 87.806 57.8987 88.2754 57.728C88.7554 57.5573 89.2674 57.4507 89.8114 57.408C90.366 57.3653 90.8727 57.344 91.3314 57.344H91.8114V57.12C91.8114 56.576 91.646 56.1653 91.3154 55.888C90.9954 55.6107 90.542 55.472 89.9554 55.472C89.55 55.472 89.15 55.5413 88.7554 55.68C88.3714 55.808 88.03 56.0107 87.7314 56.288L86.9474 55.472ZM90.5634 58.4C89.7634 58.4 89.1287 58.512 88.6594 58.736C88.19 58.96 87.9554 59.328 87.9554 59.84C87.9554 60.3093 88.11 60.6453 88.4194 60.848C88.7394 61.04 89.134 61.136 89.6034 61.136C89.966 61.136 90.2807 61.0773 90.5474 60.96C90.8247 60.832 91.054 60.6667 91.2354 60.464C91.4167 60.2613 91.5554 60.0267 91.6514 59.76C91.7474 59.4827 91.8007 59.1893 91.8114 58.88V58.4H90.5634ZM95.3403 56.288C95.3403 55.9467 95.3296 55.6267 95.3083 55.328C95.2869 55.0293 95.2763 54.7573 95.2763 54.512H96.4603C96.4603 54.7147 96.4656 54.9173 96.4763 55.12C96.4869 55.3227 96.4923 55.5307 96.4923 55.744H96.5243C96.6096 55.5627 96.7269 55.3867 96.8763 55.216C97.0363 55.0453 97.2229 54.896 97.4363 54.768C97.6496 54.6293 97.8896 54.5227 98.1562 54.448C98.4229 54.3627 98.7109 54.32 99.0203 54.32C99.5109 54.32 99.9323 54.3947 100.284 54.544C100.647 54.6933 100.946 54.9013 101.18 55.168C101.415 55.4347 101.586 55.76 101.692 56.144C101.81 56.5173 101.868 56.928 101.868 57.376V62H100.62V57.504C100.62 56.8747 100.482 56.3787 100.204 56.016C99.9269 55.6533 99.4949 55.472 98.9083 55.472C98.5029 55.472 98.1509 55.5413 97.8523 55.68C97.5643 55.8187 97.3243 56.016 97.1323 56.272C96.9509 56.528 96.8123 56.832 96.7163 57.184C96.6309 57.536 96.5883 57.9253 96.5883 58.352V62H95.3403V56.288ZM111.703 61.664C111.703 63.0293 111.351 64.064 110.647 64.768C109.954 65.4827 108.946 65.84 107.623 65.84C106.887 65.84 106.22 65.7333 105.623 65.52C105.036 65.3067 104.476 64.9387 103.943 64.416L104.839 63.392C105.234 63.8187 105.65 64.1387 106.087 64.352C106.535 64.576 107.047 64.688 107.623 64.688C108.178 64.688 108.636 64.6027 108.999 64.432C109.372 64.272 109.666 64.048 109.879 63.76C110.092 63.4827 110.242 63.1627 110.327 62.8C110.412 62.4373 110.455 62.0587 110.455 61.664V60.704H110.423C110.124 61.184 109.735 61.536 109.255 61.76C108.775 61.984 108.284 62.096 107.783 62.096C107.196 62.096 106.658 62 106.167 61.808C105.676 61.616 105.255 61.3493 104.903 61.008C104.551 60.6667 104.279 60.2613 104.087 59.792C103.895 59.3227 103.799 58.8107 103.799 58.256C103.799 57.648 103.895 57.0987 104.087 56.608C104.279 56.1173 104.546 55.7067 104.887 55.376C105.239 55.0347 105.66 54.7733 106.151 54.592C106.642 54.4107 107.186 54.32 107.783 54.32C108.039 54.32 108.295 54.352 108.551 54.416C108.807 54.4693 109.052 54.56 109.287 54.688C109.532 54.8053 109.751 54.96 109.943 55.152C110.135 55.3333 110.295 55.5467 110.423 55.792H110.455V54.512H111.703V61.664ZM105.143 58.256C105.143 58.64 105.212 58.9973 105.351 59.328C105.49 59.648 105.676 59.9307 105.911 60.176C106.156 60.4107 106.439 60.5973 106.759 60.736C107.079 60.8747 107.42 60.944 107.783 60.944C108.21 60.944 108.588 60.8693 108.919 60.72C109.25 60.5707 109.527 60.3733 109.751 60.128C109.986 59.872 110.162 59.584 110.279 59.264C110.396 58.9333 110.455 58.5867 110.455 58.224C110.455 57.8187 110.391 57.4507 110.263 57.12C110.135 56.7787 109.954 56.4853 109.719 56.24C109.484 55.9947 109.202 55.808 108.871 55.68C108.54 55.5413 108.178 55.472 107.783 55.472C107.388 55.472 107.026 55.5467 106.695 55.696C106.375 55.8347 106.098 56.032 105.863 56.288C105.639 56.5333 105.463 56.8267 105.335 57.168C105.207 57.4987 105.143 57.8613 105.143 58.256ZM113.58 58.256C113.58 57.6693 113.681 57.136 113.884 56.656C114.087 56.176 114.364 55.7653 114.716 55.424C115.068 55.072 115.489 54.8 115.98 54.608C116.471 54.416 117.004 54.32 117.58 54.32C118.156 54.32 118.689 54.416 119.18 54.608C119.671 54.8 120.092 55.072 120.444 55.424C120.796 55.7653 121.073 56.176 121.276 56.656C121.479 57.136 121.58 57.6693 121.58 58.256C121.58 58.8427 121.479 59.376 121.276 59.856C121.073 60.336 120.796 60.752 120.444 61.104C120.092 61.4453 119.671 61.712 119.18 61.904C118.689 62.096 118.156 62.192 117.58 62.192C117.004 62.192 116.471 62.096 115.98 61.904C115.489 61.712 115.068 61.4453 114.716 61.104C114.364 60.752 114.087 60.336 113.884 59.856C113.681 59.376 113.58 58.8427 113.58 58.256ZM114.924 58.256C114.924 58.6507 114.983 59.0187 115.1 59.36C115.228 59.6907 115.409 59.984 115.644 60.24C115.879 60.4853 116.156 60.6827 116.476 60.832C116.807 60.9707 117.175 61.04 117.58 61.04C117.985 61.04 118.348 60.9707 118.668 60.832C118.999 60.6827 119.281 60.4853 119.516 60.24C119.751 59.984 119.927 59.6907 120.044 59.36C120.172 59.0187 120.236 58.6507 120.236 58.256C120.236 57.8613 120.172 57.4987 120.044 57.168C119.927 56.8267 119.751 56.5333 119.516 56.288C119.281 56.032 118.999 55.8347 118.668 55.696C118.348 55.5467 117.985 55.472 117.58 55.472C117.175 55.472 116.807 55.5467 116.476 55.696C116.156 55.8347 115.879 56.032 115.644 56.288C115.409 56.5333 115.228 56.8267 115.1 57.168C114.983 57.4987 114.924 57.8613 114.924 58.256ZM127.608 55.568H125.4V59.312C125.4 59.5573 125.405 59.7867 125.416 60C125.427 60.2027 125.469 60.384 125.544 60.544C125.619 60.6933 125.731 60.816 125.88 60.912C126.029 60.9973 126.243 61.04 126.52 61.04C126.701 61.04 126.888 61.0187 127.08 60.976C127.272 60.9333 127.453 60.8693 127.624 60.784L127.672 61.92C127.459 62.016 127.219 62.0853 126.952 62.128C126.696 62.1707 126.451 62.192 126.216 62.192C125.768 62.192 125.411 62.1333 125.144 62.016C124.877 61.8987 124.669 61.7333 124.52 61.52C124.371 61.3067 124.269 61.0453 124.216 60.736C124.173 60.416 124.152 60.064 124.152 59.68V55.568H122.52V54.512H124.152V52.384H125.4V54.512H127.608V55.568ZM135.825 60.64C135.377 61.216 134.886 61.6213 134.353 61.856C133.82 62.08 133.201 62.192 132.497 62.192C131.91 62.192 131.382 62.0907 130.913 61.888C130.444 61.6747 130.044 61.392 129.713 61.04C129.393 60.688 129.142 60.272 128.961 59.792C128.79 59.312 128.705 58.8 128.705 58.256C128.705 57.68 128.801 57.152 128.993 56.672C129.185 56.1813 129.452 55.7653 129.793 55.424C130.134 55.072 130.54 54.8 131.009 54.608C131.478 54.416 131.99 54.32 132.545 54.32C133.068 54.32 133.548 54.4107 133.985 54.592C134.422 54.7627 134.796 55.0187 135.105 55.36C135.425 55.6907 135.67 56.1013 135.841 56.592C136.012 57.072 136.097 57.6213 136.097 58.24V58.64H130.049C130.07 58.96 130.145 59.2693 130.273 59.568C130.412 59.856 130.588 60.112 130.801 60.336C131.014 60.5493 131.265 60.72 131.553 60.848C131.841 60.976 132.156 61.04 132.497 61.04C133.041 61.04 133.5 60.944 133.873 60.752C134.246 60.56 134.582 60.2773 134.881 59.904L135.825 60.64ZM134.753 57.584C134.732 56.944 134.524 56.432 134.129 56.048C133.734 55.664 133.19 55.472 132.497 55.472C131.804 55.472 131.244 55.664 130.817 56.048C130.39 56.432 130.134 56.944 130.049 57.584H134.753ZM142.705 50.672H149.729V51.92H144.049V55.664H149.329V56.912H144.049V62H142.705V50.672ZM151.484 49.904H152.732V62H151.484V49.904ZM154.783 58.256C154.783 57.6693 154.885 57.136 155.087 56.656C155.29 56.176 155.567 55.7653 155.919 55.424C156.271 55.072 156.693 54.8 157.183 54.608C157.674 54.416 158.207 54.32 158.783 54.32C159.359 54.32 159.893 54.416 160.383 54.608C160.874 54.8 161.295 55.072 161.647 55.424C161.999 55.7653 162.277 56.176 162.479 56.656C162.682 57.136 162.783 57.6693 162.783 58.256C162.783 58.8427 162.682 59.376 162.479 59.856C162.277 60.336 161.999 60.752 161.647 61.104C161.295 61.4453 160.874 61.712 160.383 61.904C159.893 62.096 159.359 62.192 158.783 62.192C158.207 62.192 157.674 62.096 157.183 61.904C156.693 61.712 156.271 61.4453 155.919 61.104C155.567 60.752 155.29 60.336 155.087 59.856C154.885 59.376 154.783 58.8427 154.783 58.256ZM156.127 58.256C156.127 58.6507 156.186 59.0187 156.303 59.36C156.431 59.6907 156.613 59.984 156.847 60.24C157.082 60.4853 157.359 60.6827 157.679 60.832C158.01 60.9707 158.378 61.04 158.783 61.04C159.189 61.04 159.551 60.9707 159.871 60.832C160.202 60.6827 160.485 60.4853 160.719 60.24C160.954 59.984 161.13 59.6907 161.247 59.36C161.375 59.0187 161.439 58.6507 161.439 58.256C161.439 57.8613 161.375 57.4987 161.247 57.168C161.13 56.8267 160.954 56.5333 160.719 56.288C160.485 56.032 160.202 55.8347 159.871 55.696C159.551 55.5467 159.189 55.472 158.783 55.472C158.378 55.472 158.01 55.5467 157.679 55.696C157.359 55.8347 157.082 56.032 156.847 56.288C156.613 56.5333 156.431 56.8267 156.303 57.168C156.186 57.4987 156.127 57.8613 156.127 58.256ZM171.243 60.224C171.243 60.5653 171.254 60.8853 171.275 61.184C171.297 61.4827 171.307 61.7547 171.307 62H170.123C170.123 61.7973 170.118 61.5947 170.107 61.392C170.097 61.1893 170.091 60.9813 170.091 60.768H170.059C169.974 60.9493 169.851 61.1253 169.691 61.296C169.542 61.4667 169.361 61.6213 169.147 61.76C168.934 61.888 168.694 61.9893 168.427 62.064C168.161 62.1493 167.873 62.192 167.563 62.192C167.073 62.192 166.646 62.1173 166.283 61.968C165.931 61.8187 165.638 61.6107 165.403 61.344C165.169 61.0773 164.993 60.7573 164.875 60.384C164.769 60 164.715 59.584 164.715 59.136V54.512H165.963V59.008C165.963 59.6373 166.102 60.1333 166.379 60.496C166.657 60.8587 167.089 61.04 167.675 61.04C168.081 61.04 168.427 60.9707 168.715 60.832C169.014 60.6933 169.254 60.496 169.435 60.24C169.627 59.984 169.766 59.68 169.851 59.328C169.947 58.976 169.995 58.5867 169.995 58.16V54.512H171.243V60.224ZM173.606 56.288C173.606 55.9467 173.595 55.6267 173.574 55.328C173.553 55.0293 173.542 54.7573 173.542 54.512H174.726C174.726 54.7147 174.731 54.9173 174.742 55.12C174.753 55.3227 174.758 55.5307 174.758 55.744H174.79C174.875 55.5627 174.993 55.3867 175.142 55.216C175.302 55.0453 175.489 54.896 175.702 54.768C175.915 54.6293 176.155 54.5227 176.422 54.448C176.689 54.3627 176.977 54.32 177.286 54.32C177.371 54.32 177.457 54.3253 177.542 54.336C177.627 54.3467 177.713 54.368 177.798 54.4L177.718 55.664C177.505 55.6 177.281 55.568 177.046 55.568C176.278 55.568 175.718 55.8187 175.366 56.32C175.025 56.8107 174.854 57.488 174.854 58.352V62H173.606V56.288ZM183.908 50.672H185.908L189.748 59.552H189.78L193.652 50.672H195.604V62H194.26V52.496H194.228L190.164 62H189.348L185.284 52.496H185.252V62H183.908V50.672ZM198.312 54.512H199.56V62H198.312V54.512ZM198.024 51.584C198.024 51.3387 198.109 51.1253 198.28 50.944C198.461 50.7627 198.68 50.672 198.936 50.672C199.192 50.672 199.405 50.7627 199.576 50.944C199.757 51.1253 199.848 51.3387 199.848 51.584C199.848 51.8507 199.762 52.0693 199.592 52.24C199.421 52.4107 199.202 52.496 198.936 52.496C198.669 52.496 198.45 52.4107 198.28 52.24C198.109 52.0693 198.024 51.8507 198.024 51.584ZM202.155 49.904H203.403V62H202.155V49.904ZM206.015 49.904H207.263V62H206.015V49.904Z" fill="black"/>
<path opacity="0.7" d="M75.408 130.672H76.752V135.472H82.8V130.672H84.144V142H82.8V136.72H76.752V142H75.408V130.672ZM86.2989 138.256C86.2989 137.669 86.4002 137.136 86.6029 136.656C86.8055 136.176 87.0829 135.765 87.4349 135.424C87.7869 135.072 88.2082 134.8 88.6989 134.608C89.1895 134.416 89.7229 134.32 90.2989 134.32C90.8749 134.32 91.4082 134.416 91.8989 134.608C92.3895 134.8 92.8109 135.072 93.1629 135.424C93.5149 135.765 93.7922 136.176 93.9949 136.656C94.1975 137.136 94.2989 137.669 94.2989 138.256C94.2989 138.843 94.1975 139.376 93.9949 139.856C93.7922 140.336 93.5149 140.752 93.1629 141.104C92.8109 141.445 92.3895 141.712 91.8989 141.904C91.4082 142.096 90.8749 142.192 90.2989 142.192C89.7229 142.192 89.1895 142.096 88.6989 141.904C88.2082 141.712 87.7869 141.445 87.4349 141.104C87.0829 140.752 86.8055 140.336 86.6029 139.856C86.4002 139.376 86.2989 138.843 86.2989 138.256ZM87.6429 138.256C87.6429 138.651 87.7015 139.019 87.8189 139.36C87.9469 139.691 88.1282 139.984 88.3629 140.24C88.5975 140.485 88.8749 140.683 89.1949 140.832C89.5255 140.971 89.8935 141.04 90.2989 141.04C90.7042 141.04 91.0669 140.971 91.3869 140.832C91.7175 140.683 92.0002 140.485 92.2349 140.24C92.4695 139.984 92.6455 139.691 92.7629 139.36C92.8909 139.019 92.9549 138.651 92.9549 138.256C92.9549 137.861 92.8909 137.499 92.7629 137.168C92.6455 136.827 92.4695 136.533 92.2349 136.288C92.0002 136.032 91.7175 135.835 91.3869 135.696C91.0669 135.547 90.7042 135.472 90.2989 135.472C89.8935 135.472 89.5255 135.547 89.1949 135.696C88.8749 135.835 88.5975 136.032 88.3629 136.288C88.1282 136.533 87.9469 136.827 87.8189 137.168C87.7015 137.499 87.6429 137.861 87.6429 138.256ZM96.2309 136.288C96.2309 135.947 96.2202 135.627 96.1989 135.328C96.1775 135.029 96.1669 134.757 96.1669 134.512H97.3509C97.3509 134.715 97.3562 134.917 97.3669 135.12C97.3775 135.323 97.3829 135.531 97.3829 135.744H97.4149C97.5002 135.563 97.6175 135.387 97.7669 135.216C97.9269 135.045 98.1135 134.896 98.3269 134.768C98.5402 134.629 98.7802 134.523 99.0469 134.448C99.3135 134.363 99.6015 134.32 99.9109 134.32C100.402 134.32 100.823 134.395 101.175 134.544C101.538 134.693 101.836 134.901 102.071 135.168C102.306 135.435 102.476 135.76 102.583 136.144C102.7 136.517 102.759 136.928 102.759 137.376V142H101.511V137.504C101.511 136.875 101.372 136.379 101.095 136.016C100.818 135.653 100.386 135.472 99.7989 135.472C99.3935 135.472 99.0415 135.541 98.7429 135.68C98.4549 135.819 98.2149 136.016 98.0229 136.272C97.8415 136.528 97.7029 136.832 97.6069 137.184C97.5215 137.536 97.4789 137.925 97.4789 138.352V142H96.2309V136.288ZM111.81 140.64C111.362 141.216 110.871 141.621 110.338 141.856C109.804 142.08 109.186 142.192 108.482 142.192C107.895 142.192 107.367 142.091 106.898 141.888C106.428 141.675 106.028 141.392 105.698 141.04C105.378 140.688 105.127 140.272 104.946 139.792C104.775 139.312 104.69 138.8 104.69 138.256C104.69 137.68 104.786 137.152 104.978 136.672C105.17 136.181 105.436 135.765 105.778 135.424C106.119 135.072 106.524 134.8 106.994 134.608C107.463 134.416 107.975 134.32 108.53 134.32C109.052 134.32 109.532 134.411 109.97 134.592C110.407 134.763 110.78 135.019 111.09 135.36C111.41 135.691 111.655 136.101 111.826 136.592C111.996 137.072 112.082 137.621 112.082 138.24V138.64H106.034C106.055 138.96 106.13 139.269 106.258 139.568C106.396 139.856 106.572 140.112 106.786 140.336C106.999 140.549 107.25 140.72 107.538 140.848C107.826 140.976 108.14 141.04 108.482 141.04C109.026 141.04 109.484 140.944 109.858 140.752C110.231 140.56 110.567 140.277 110.866 139.904L111.81 140.64ZM110.738 137.584C110.716 136.944 110.508 136.432 110.114 136.048C109.719 135.664 109.175 135.472 108.482 135.472C107.788 135.472 107.228 135.664 106.802 136.048C106.375 136.432 106.119 136.944 106.034 137.584H110.738ZM116.764 143.712C116.636 144.032 116.503 144.32 116.364 144.576C116.236 144.843 116.076 145.067 115.884 145.248C115.703 145.44 115.479 145.584 115.212 145.68C114.956 145.787 114.641 145.84 114.268 145.84C114.087 145.84 113.895 145.829 113.692 145.808C113.5 145.787 113.319 145.733 113.148 145.648L113.308 144.56C113.436 144.613 113.569 144.645 113.708 144.656C113.847 144.677 114.007 144.688 114.188 144.688C114.593 144.688 114.892 144.576 115.084 144.352C115.276 144.128 115.441 143.829 115.58 143.456L116.092 142.048L112.988 134.512H114.444L116.764 140.384H116.796L119.02 134.512H120.38L116.764 143.712ZM129.763 142H128.531L126.403 136.24H126.371L124.483 142H123.203L120.771 134.512H122.147L123.859 140.272H123.891L125.827 134.512H127.139L129.107 140.272H129.139L130.835 134.512H132.179L129.763 142ZM140.278 140.64C139.83 141.216 139.34 141.621 138.806 141.856C138.273 142.08 137.654 142.192 136.95 142.192C136.364 142.192 135.836 142.091 135.366 141.888C134.897 141.675 134.497 141.392 134.166 141.04C133.846 140.688 133.596 140.272 133.414 139.792C133.244 139.312 133.158 138.8 133.158 138.256C133.158 137.68 133.254 137.152 133.446 136.672C133.638 136.181 133.905 135.765 134.246 135.424C134.588 135.072 134.993 134.8 135.462 134.608C135.932 134.416 136.444 134.32 136.998 134.32C137.521 134.32 138.001 134.411 138.438 134.592C138.876 134.763 139.249 135.019 139.558 135.36C139.878 135.691 140.124 136.101 140.294 136.592C140.465 137.072 140.55 137.621 140.55 138.24V138.64H134.502C134.524 138.96 134.598 139.269 134.726 139.568C134.865 139.856 135.041 140.112 135.254 140.336C135.468 140.549 135.718 140.72 136.006 140.848C136.294 140.976 136.609 141.04 136.95 141.04C137.494 141.04 137.953 140.944 138.326 140.752C138.7 140.56 139.036 140.277 139.334 139.904L140.278 140.64ZM139.206 137.584C139.185 136.944 138.977 136.432 138.582 136.048C138.188 135.664 137.644 135.472 136.95 135.472C136.257 135.472 135.697 135.664 135.27 136.048C134.844 136.432 134.588 136.944 134.502 137.584H139.206ZM142.593 129.904H143.841V142H142.593V129.904ZM146.452 129.904H147.7V142H146.452V129.904ZM155.277 135.568H153.645V134.512H155.277V132.832C155.277 132.373 155.32 131.957 155.405 131.584C155.49 131.2 155.634 130.869 155.837 130.592C156.05 130.315 156.328 130.101 156.669 129.952C157.01 129.792 157.432 129.712 157.933 129.712C158.093 129.712 158.264 129.728 158.445 129.76C158.626 129.792 158.776 129.84 158.893 129.904L158.717 131.024C158.418 130.917 158.136 130.864 157.869 130.864C157.549 130.864 157.298 130.923 157.117 131.04C156.936 131.147 156.797 131.301 156.701 131.504C156.616 131.696 156.562 131.931 156.541 132.208C156.53 132.485 156.525 132.784 156.525 133.104V134.512H158.349V135.568H156.525V142H155.277V135.568ZM159.501 129.904H160.749V142H159.501V129.904ZM162.799 138.256C162.799 137.669 162.9 137.136 163.103 136.656C163.306 136.176 163.583 135.765 163.935 135.424C164.287 135.072 164.708 134.8 165.199 134.608C165.69 134.416 166.223 134.32 166.799 134.32C167.375 134.32 167.908 134.416 168.399 134.608C168.89 134.8 169.311 135.072 169.663 135.424C170.015 135.765 170.292 136.176 170.495 136.656C170.698 137.136 170.799 137.669 170.799 138.256C170.799 138.843 170.698 139.376 170.495 139.856C170.292 140.336 170.015 140.752 169.663 141.104C169.311 141.445 168.89 141.712 168.399 141.904C167.908 142.096 167.375 142.192 166.799 142.192C166.223 142.192 165.69 142.096 165.199 141.904C164.708 141.712 164.287 141.445 163.935 141.104C163.583 140.752 163.306 140.336 163.103 139.856C162.9 139.376 162.799 138.843 162.799 138.256ZM164.143 138.256C164.143 138.651 164.202 139.019 164.319 139.36C164.447 139.691 164.628 139.984 164.863 140.24C165.098 140.485 165.375 140.683 165.695 140.832C166.026 140.971 166.394 141.04 166.799 141.04C167.204 141.04 167.567 140.971 167.887 140.832C168.218 140.683 168.5 140.485 168.735 140.24C168.97 139.984 169.146 139.691 169.263 139.36C169.391 139.019 169.455 138.651 169.455 138.256C169.455 137.861 169.391 137.499 169.263 137.168C169.146 136.827 168.97 136.533 168.735 136.288C168.5 136.032 168.218 135.835 167.887 135.696C167.567 135.547 167.204 135.472 166.799 135.472C166.394 135.472 166.026 135.547 165.695 135.696C165.375 135.835 165.098 136.032 164.863 136.288C164.628 136.533 164.447 136.827 164.319 137.168C164.202 137.499 164.143 137.861 164.143 138.256ZM179.259 140.224C179.259 140.565 179.27 140.885 179.291 141.184C179.312 141.483 179.323 141.755 179.323 142H178.139C178.139 141.797 178.134 141.595 178.123 141.392C178.112 141.189 178.107 140.981 178.107 140.768H178.075C177.99 140.949 177.867 141.125 177.707 141.296C177.558 141.467 177.376 141.621 177.163 141.76C176.95 141.888 176.71 141.989 176.443 142.064C176.176 142.149 175.888 142.192 175.579 142.192C175.088 142.192 174.662 142.117 174.299 141.968C173.947 141.819 173.654 141.611 173.419 141.344C173.184 141.077 173.008 140.757 172.891 140.384C172.784 140 172.731 139.584 172.731 139.136V134.512H173.979V139.008C173.979 139.637 174.118 140.133 174.395 140.496C174.672 140.859 175.104 141.04 175.691 141.04C176.096 141.04 176.443 140.971 176.731 140.832C177.03 140.693 177.27 140.496 177.451 140.24C177.643 139.984 177.782 139.68 177.867 139.328C177.963 138.976 178.011 138.587 178.011 138.16V134.512H179.259V140.224ZM181.622 136.288C181.622 135.947 181.611 135.627 181.59 135.328C181.568 135.029 181.558 134.757 181.558 134.512H182.742C182.742 134.715 182.747 134.917 182.758 135.12C182.768 135.323 182.774 135.531 182.774 135.744H182.806C182.891 135.563 183.008 135.387 183.158 135.216C183.318 135.045 183.504 134.896 183.718 134.768C183.931 134.629 184.171 134.523 184.438 134.448C184.704 134.363 184.992 134.32 185.302 134.32C185.387 134.32 185.472 134.325 185.558 134.336C185.643 134.347 185.728 134.368 185.814 134.4L185.734 135.664C185.52 135.6 185.296 135.568 185.062 135.568C184.294 135.568 183.734 135.819 183.382 136.32C183.04 136.811 182.87 137.488 182.87 138.352V142H181.622V136.288ZM191.924 130.672H193.924L197.764 139.552H197.796L201.668 130.672H203.62V142H202.276V132.496H202.244L198.18 142H197.364L193.3 132.496H193.268V142H191.924V130.672ZM206.327 134.512H207.575V142H206.327V134.512ZM206.039 131.584C206.039 131.339 206.125 131.125 206.295 130.944C206.477 130.763 206.695 130.672 206.951 130.672C207.207 130.672 207.421 130.763 207.591 130.944C207.773 131.125 207.863 131.339 207.863 131.584C207.863 131.851 207.778 132.069 207.607 132.24C207.437 132.411 207.218 132.496 206.951 132.496C206.685 132.496 206.466 132.411 206.295 132.24C206.125 132.069 206.039 131.851 206.039 131.584ZM210.171 129.904H211.419V142H210.171V129.904ZM214.03 129.904H215.278V142H214.03V129.904ZM217.922 140.032C218.167 140.341 218.434 140.587 218.722 140.768C219.021 140.949 219.394 141.04 219.842 141.04C220.034 141.04 220.226 141.019 220.418 140.976C220.621 140.933 220.802 140.864 220.962 140.768C221.122 140.672 221.25 140.555 221.346 140.416C221.442 140.267 221.49 140.091 221.49 139.888C221.49 139.685 221.442 139.52 221.346 139.392C221.261 139.264 221.143 139.157 220.994 139.072C220.845 138.976 220.674 138.901 220.482 138.848C220.29 138.795 220.093 138.747 219.89 138.704C219.538 138.629 219.202 138.544 218.882 138.448C218.562 138.352 218.279 138.229 218.034 138.08C217.799 137.92 217.607 137.717 217.458 137.472C217.319 137.227 217.25 136.912 217.25 136.528C217.25 136.165 217.33 135.845 217.49 135.568C217.65 135.291 217.863 135.061 218.13 134.88C218.397 134.699 218.695 134.56 219.026 134.464C219.357 134.368 219.698 134.32 220.05 134.32C220.583 134.32 221.074 134.427 221.522 134.64C221.981 134.853 222.338 135.2 222.594 135.68L221.554 136.368C221.394 136.101 221.181 135.888 220.914 135.728C220.658 135.557 220.343 135.472 219.97 135.472C219.799 135.472 219.623 135.493 219.442 135.536C219.271 135.579 219.117 135.643 218.978 135.728C218.839 135.813 218.722 135.925 218.626 136.064C218.541 136.192 218.498 136.341 218.498 136.512C218.498 136.672 218.546 136.811 218.642 136.928C218.749 137.035 218.887 137.131 219.058 137.216C219.239 137.301 219.442 137.376 219.666 137.44C219.901 137.504 220.141 137.557 220.386 137.6C220.717 137.664 221.031 137.749 221.33 137.856C221.629 137.952 221.89 138.085 222.114 138.256C222.338 138.427 222.514 138.64 222.642 138.896C222.77 139.152 222.834 139.467 222.834 139.84C222.834 140.267 222.749 140.629 222.578 140.928C222.407 141.227 222.178 141.472 221.89 141.664C221.613 141.845 221.293 141.979 220.93 142.064C220.578 142.149 220.215 142.192 219.842 142.192C219.202 142.192 218.647 142.096 218.178 141.904C217.719 141.701 217.303 141.333 216.93 140.8L217.922 140.032Z" fill="black"/>
<path opacity="0.7" d="M75.408 213.672H78.864C79.3333 213.672 79.792 213.72 80.24 213.816C80.688 213.912 81.088 214.072 81.44 214.296C81.792 214.509 82.0747 214.792 82.288 215.144C82.512 215.496 82.624 215.933 82.624 216.456C82.624 217.117 82.4427 217.667 82.08 218.104C81.728 218.531 81.248 218.835 80.64 219.016V219.048C81.0027 219.08 81.3387 219.176 81.648 219.336C81.968 219.485 82.24 219.683 82.464 219.928C82.6987 220.173 82.88 220.461 83.008 220.792C83.136 221.112 83.2 221.459 83.2 221.832C83.2 222.461 83.0667 222.979 82.8 223.384C82.544 223.789 82.2027 224.115 81.776 224.36C81.36 224.595 80.8853 224.76 80.352 224.856C79.8293 224.952 79.3067 225 78.784 225H75.408V213.672ZM76.752 218.472H78.608C78.928 218.472 79.2373 218.451 79.536 218.408C79.8453 218.365 80.1227 218.28 80.368 218.152C80.6133 218.013 80.8107 217.827 80.96 217.592C81.1093 217.347 81.184 217.027 81.184 216.632C81.184 216.28 81.1147 215.997 80.976 215.784C80.8373 215.56 80.6507 215.384 80.416 215.256C80.192 215.128 79.9307 215.043 79.632 215C79.344 214.947 79.0507 214.92 78.752 214.92H76.752V218.472ZM76.752 223.752H79.024C79.3547 223.752 79.68 223.72 80 223.656C80.3307 223.581 80.624 223.469 80.88 223.32C81.1467 223.16 81.36 222.957 81.52 222.712C81.68 222.456 81.76 222.147 81.76 221.784C81.76 221.389 81.68 221.059 81.52 220.792C81.3707 220.525 81.168 220.312 80.912 220.152C80.6667 219.992 80.3787 219.88 80.048 219.816C79.728 219.752 79.3973 219.72 79.056 219.72H76.752V223.752ZM93.9821 220.68C93.9821 221.299 93.9021 221.885 93.7421 222.44C93.5928 222.995 93.3475 223.485 93.0061 223.912C92.6755 224.328 92.2381 224.664 91.6941 224.92C91.1501 225.165 90.4888 225.288 89.7101 225.288C88.9315 225.288 88.2701 225.165 87.7261 224.92C87.1821 224.664 86.7395 224.328 86.3981 223.912C86.0675 223.485 85.8221 222.995 85.6621 222.44C85.5128 221.885 85.4381 221.299 85.4381 220.68V213.672H86.7821V220.488C86.7821 220.947 86.8301 221.389 86.9261 221.816C87.0221 222.243 87.1821 222.621 87.4061 222.952C87.6301 223.283 87.9288 223.549 88.3021 223.752C88.6755 223.944 89.1448 224.04 89.7101 224.04C90.2755 224.04 90.7448 223.944 91.1181 223.752C91.4915 223.549 91.7901 223.283 92.0141 222.952C92.2381 222.621 92.3981 222.243 92.4941 221.816C92.5901 221.389 92.6381 220.947 92.6381 220.488V213.672H93.9821V220.68ZM100.432 213.672H101.696L106.512 225H104.944L103.792 222.216H98.1278L96.9598 225H95.4398L100.432 213.672ZM101.04 215.4H101.008L98.6558 220.968H103.28L101.04 215.4ZM112.407 223.032C112.652 223.341 112.919 223.587 113.207 223.768C113.505 223.949 113.879 224.04 114.327 224.04C114.519 224.04 114.711 224.019 114.903 223.976C115.105 223.933 115.287 223.864 115.447 223.768C115.607 223.672 115.735 223.555 115.831 223.416C115.927 223.267 115.975 223.091 115.975 222.888C115.975 222.685 115.927 222.52 115.831 222.392C115.745 222.264 115.628 222.157 115.479 222.072C115.329 221.976 115.159 221.901 114.967 221.848C114.775 221.795 114.577 221.747 114.375 221.704C114.023 221.629 113.687 221.544 113.367 221.448C113.047 221.352 112.764 221.229 112.519 221.08C112.284 220.92 112.092 220.717 111.943 220.472C111.804 220.227 111.735 219.912 111.735 219.528C111.735 219.165 111.815 218.845 111.975 218.568C112.135 218.291 112.348 218.061 112.615 217.88C112.881 217.699 113.18 217.56 113.511 217.464C113.841 217.368 114.183 217.32 114.535 217.32C115.068 217.32 115.559 217.427 116.007 217.64C116.465 217.853 116.823 218.2 117.079 218.68L116.039 219.368C115.879 219.101 115.665 218.888 115.399 218.728C115.143 218.557 114.828 218.472 114.455 218.472C114.284 218.472 114.108 218.493 113.927 218.536C113.756 218.579 113.601 218.643 113.463 218.728C113.324 218.813 113.207 218.925 113.111 219.064C113.025 219.192 112.983 219.341 112.983 219.512C112.983 219.672 113.031 219.811 113.127 219.928C113.233 220.035 113.372 220.131 113.543 220.216C113.724 220.301 113.927 220.376 114.151 220.44C114.385 220.504 114.625 220.557 114.871 220.6C115.201 220.664 115.516 220.749 115.815 220.856C116.113 220.952 116.375 221.085 116.599 221.256C116.823 221.427 116.999 221.64 117.127 221.896C117.255 222.152 117.319 222.467 117.319 222.84C117.319 223.267 117.233 223.629 117.063 223.928C116.892 224.227 116.663 224.472 116.375 224.664C116.097 224.845 115.777 224.979 115.415 225.064C115.063 225.149 114.7 225.192 114.327 225.192C113.687 225.192 113.132 225.096 112.663 224.904C112.204 224.701 111.788 224.333 111.415 223.8L112.407 223.032ZM125.587 223.224C125.587 223.565 125.598 223.885 125.619 224.184C125.64 224.483 125.651 224.755 125.651 225H124.467C124.467 224.797 124.462 224.595 124.451 224.392C124.44 224.189 124.435 223.981 124.435 223.768H124.403C124.318 223.949 124.195 224.125 124.035 224.296C123.886 224.467 123.704 224.621 123.491 224.76C123.278 224.888 123.038 224.989 122.771 225.064C122.504 225.149 122.216 225.192 121.907 225.192C121.416 225.192 120.99 225.117 120.627 224.968C120.275 224.819 119.982 224.611 119.747 224.344C119.512 224.077 119.336 223.757 119.219 223.384C119.112 223 119.059 222.584 119.059 222.136V217.512H120.307V222.008C120.307 222.637 120.446 223.133 120.723 223.496C121 223.859 121.432 224.04 122.019 224.04C122.424 224.04 122.771 223.971 123.059 223.832C123.358 223.693 123.598 223.496 123.779 223.24C123.971 222.984 124.11 222.68 124.195 222.328C124.291 221.976 124.339 221.587 124.339 221.16V217.512H125.587V223.224ZM135.422 224.664C135.422 226.029 135.07 227.064 134.366 227.768C133.672 228.483 132.664 228.84 131.342 228.84C130.606 228.84 129.939 228.733 129.342 228.52C128.755 228.307 128.195 227.939 127.662 227.416L128.558 226.392C128.952 226.819 129.368 227.139 129.806 227.352C130.254 227.576 130.766 227.688 131.342 227.688C131.896 227.688 132.355 227.603 132.718 227.432C133.091 227.272 133.384 227.048 133.598 226.76C133.811 226.483 133.96 226.163 134.046 225.8C134.131 225.437 134.174 225.059 134.174 224.664V223.704H134.142C133.843 224.184 133.454 224.536 132.974 224.76C132.494 224.984 132.003 225.096 131.502 225.096C130.915 225.096 130.376 225 129.886 224.808C129.395 224.616 128.974 224.349 128.622 224.008C128.27 223.667 127.998 223.261 127.806 222.792C127.614 222.323 127.518 221.811 127.518 221.256C127.518 220.648 127.614 220.099 127.806 219.608C127.998 219.117 128.264 218.707 128.606 218.376C128.958 218.035 129.379 217.773 129.87 217.592C130.36 217.411 130.904 217.32 131.502 217.32C131.758 217.32 132.014 217.352 132.27 217.416C132.526 217.469 132.771 217.56 133.006 217.688C133.251 217.805 133.47 217.96 133.662 218.152C133.854 218.333 134.014 218.547 134.142 218.792H134.174V217.512H135.422V224.664ZM128.862 221.256C128.862 221.64 128.931 221.997 129.07 222.328C129.208 222.648 129.395 222.931 129.63 223.176C129.875 223.411 130.158 223.597 130.478 223.736C130.798 223.875 131.139 223.944 131.502 223.944C131.928 223.944 132.307 223.869 132.638 223.72C132.968 223.571 133.246 223.373 133.47 223.128C133.704 222.872 133.88 222.584 133.998 222.264C134.115 221.933 134.174 221.587 134.174 221.224C134.174 220.819 134.11 220.451 133.982 220.12C133.854 219.779 133.672 219.485 133.438 219.24C133.203 218.995 132.92 218.808 132.59 218.68C132.259 218.541 131.896 218.472 131.502 218.472C131.107 218.472 130.744 218.547 130.414 218.696C130.094 218.835 129.816 219.032 129.582 219.288C129.358 219.533 129.182 219.827 129.054 220.168C128.926 220.499 128.862 220.861 128.862 221.256ZM137.635 218.472C138.019 218.077 138.472 217.789 138.995 217.608C139.528 217.416 140.067 217.32 140.611 217.32C141.72 217.32 142.52 217.581 143.011 218.104C143.502 218.627 143.747 219.421 143.747 220.488V223.704C143.747 223.917 143.758 224.141 143.779 224.376C143.8 224.6 143.827 224.808 143.859 225H142.659C142.616 224.829 142.59 224.643 142.579 224.44C142.579 224.227 142.579 224.04 142.579 223.88H142.547C142.302 224.264 141.971 224.579 141.555 224.824C141.15 225.069 140.659 225.192 140.083 225.192C139.699 225.192 139.336 225.144 138.995 225.048C138.664 224.952 138.371 224.813 138.115 224.632C137.87 224.44 137.672 224.205 137.523 223.928C137.374 223.651 137.299 223.331 137.299 222.968C137.299 222.349 137.459 221.864 137.779 221.512C138.099 221.16 138.494 220.899 138.963 220.728C139.443 220.557 139.955 220.451 140.499 220.408C141.054 220.365 141.56 220.344 142.019 220.344H142.499V220.12C142.499 219.576 142.334 219.165 142.003 218.888C141.683 218.611 141.23 218.472 140.643 218.472C140.238 218.472 139.838 218.541 139.443 218.68C139.059 218.808 138.718 219.011 138.419 219.288L137.635 218.472ZM141.251 221.4C140.451 221.4 139.816 221.512 139.347 221.736C138.878 221.96 138.643 222.328 138.643 222.84C138.643 223.309 138.798 223.645 139.107 223.848C139.427 224.04 139.822 224.136 140.291 224.136C140.654 224.136 140.968 224.077 141.235 223.96C141.512 223.832 141.742 223.667 141.923 223.464C142.104 223.261 142.243 223.027 142.339 222.76C142.435 222.483 142.488 222.189 142.499 221.88V221.4H141.251ZM146.028 219.288C146.028 218.947 146.017 218.627 145.996 218.328C145.974 218.029 145.964 217.757 145.964 217.512H147.148C147.148 217.715 147.153 217.917 147.164 218.12C147.174 218.323 147.18 218.531 147.18 218.744H147.212C147.297 218.563 147.414 218.387 147.564 218.216C147.724 218.045 147.91 217.896 148.124 217.768C148.337 217.629 148.577 217.523 148.844 217.448C149.11 217.363 149.398 217.32 149.708 217.32C149.793 217.32 149.878 217.325 149.964 217.336C150.049 217.347 150.134 217.368 150.22 217.4L150.14 218.664C149.926 218.6 149.702 218.568 149.468 218.568C148.7 218.568 148.14 218.819 147.788 219.32C147.446 219.811 147.276 220.488 147.276 221.352V225H146.028V219.288ZM156.106 219.288C156.106 218.947 156.095 218.627 156.074 218.328C156.053 218.029 156.042 217.757 156.042 217.512H157.226C157.226 217.715 157.231 217.917 157.242 218.12C157.253 218.323 157.258 218.531 157.258 218.744H157.29C157.375 218.563 157.493 218.387 157.642 218.216C157.802 218.045 157.989 217.896 158.202 217.768C158.415 217.629 158.655 217.523 158.922 217.448C159.189 217.363 159.477 217.32 159.786 217.32C159.871 217.32 159.957 217.325 160.042 217.336C160.127 217.347 160.213 217.368 160.298 217.4L160.218 218.664C160.005 218.6 159.781 218.568 159.546 218.568C158.778 218.568 158.218 218.819 157.866 219.32C157.525 219.811 157.354 220.488 157.354 221.352V225H156.106V219.288ZM168.138 223.64C167.69 224.216 167.199 224.621 166.666 224.856C166.132 225.08 165.514 225.192 164.81 225.192C164.223 225.192 163.695 225.091 163.226 224.888C162.756 224.675 162.356 224.392 162.026 224.04C161.706 223.688 161.455 223.272 161.274 222.792C161.103 222.312 161.018 221.8 161.018 221.256C161.018 220.68 161.114 220.152 161.306 219.672C161.498 219.181 161.764 218.765 162.106 218.424C162.447 218.072 162.852 217.8 163.322 217.608C163.791 217.416 164.303 217.32 164.858 217.32C165.38 217.32 165.86 217.411 166.298 217.592C166.735 217.763 167.108 218.019 167.418 218.36C167.738 218.691 167.983 219.101 168.154 219.592C168.324 220.072 168.41 220.621 168.41 221.24V221.64H162.362C162.383 221.96 162.458 222.269 162.586 222.568C162.724 222.856 162.9 223.112 163.114 223.336C163.327 223.549 163.578 223.72 163.866 223.848C164.154 223.976 164.468 224.04 164.81 224.04C165.354 224.04 165.812 223.944 166.186 223.752C166.559 223.56 166.895 223.277 167.194 222.904L168.138 223.64ZM167.066 220.584C167.044 219.944 166.836 219.432 166.442 219.048C166.047 218.664 165.503 218.472 164.81 218.472C164.116 218.472 163.556 218.664 163.13 219.048C162.703 219.432 162.447 219.944 162.362 220.584H167.066ZM174.052 218.568H172.228V225H170.98V218.568H169.348V217.512H170.98V215.832C170.98 215.373 171.023 214.957 171.108 214.584C171.194 214.2 171.338 213.869 171.54 213.592C171.754 213.315 172.031 213.101 172.372 212.952C172.714 212.792 173.135 212.712 173.636 212.712C173.796 212.712 173.967 212.728 174.148 212.76C174.33 212.792 174.479 212.84 174.596 212.904L174.42 214.024C174.122 213.917 173.839 213.864 173.572 213.864C173.252 213.864 173.002 213.923 172.82 214.04C172.639 214.147 172.5 214.301 172.404 214.504C172.319 214.696 172.266 214.931 172.244 215.208C172.234 215.485 172.228 215.784 172.228 216.104V217.512H174.052V218.568ZM175.204 217.512H176.452V225H175.204V217.512ZM174.916 214.584C174.916 214.339 175.002 214.125 175.172 213.944C175.354 213.763 175.572 213.672 175.828 213.672C176.084 213.672 176.298 213.763 176.468 213.944C176.65 214.125 176.74 214.339 176.74 214.584C176.74 214.851 176.655 215.069 176.484 215.24C176.314 215.411 176.095 215.496 175.828 215.496C175.562 215.496 175.343 215.411 175.172 215.24C175.002 215.069 174.916 214.851 174.916 214.584ZM178.934 219.288C178.934 218.947 178.923 218.627 178.902 218.328C178.881 218.029 178.87 217.757 178.87 217.512H180.054C180.054 217.715 180.059 217.917 180.07 218.12C180.081 218.323 180.086 218.531 180.086 218.744H180.118C180.203 218.563 180.321 218.387 180.47 218.216C180.63 218.045 180.817 217.896 181.03 217.768C181.243 217.629 181.483 217.523 181.75 217.448C182.017 217.363 182.305 217.32 182.614 217.32C183.105 217.32 183.526 217.395 183.878 217.544C184.241 217.693 184.539 217.901 184.774 218.168C185.009 218.435 185.179 218.76 185.286 219.144C185.403 219.517 185.462 219.928 185.462 220.376V225H184.214V220.504C184.214 219.875 184.075 219.379 183.798 219.016C183.521 218.653 183.089 218.472 182.502 218.472C182.097 218.472 181.745 218.541 181.446 218.68C181.158 218.819 180.918 219.016 180.726 219.272C180.545 219.528 180.406 219.832 180.31 220.184C180.225 220.536 180.182 220.925 180.182 221.352V225H178.934V219.288ZM194.513 223.64C194.065 224.216 193.574 224.621 193.041 224.856C192.507 225.08 191.889 225.192 191.185 225.192C190.598 225.192 190.07 225.091 189.601 224.888C189.131 224.675 188.731 224.392 188.401 224.04C188.081 223.688 187.83 223.272 187.649 222.792C187.478 222.312 187.393 221.8 187.393 221.256C187.393 220.68 187.489 220.152 187.681 219.672C187.873 219.181 188.139 218.765 188.481 218.424C188.822 218.072 189.227 217.8 189.697 217.608C190.166 217.416 190.678 217.32 191.233 217.32C191.755 217.32 192.235 217.411 192.673 217.592C193.11 217.763 193.483 218.019 193.793 218.36C194.113 218.691 194.358 219.101 194.529 219.592C194.699 220.072 194.785 220.621 194.785 221.24V221.64H188.737C188.758 221.96 188.833 222.269 188.961 222.568C189.099 222.856 189.275 223.112 189.489 223.336C189.702 223.549 189.953 223.72 190.241 223.848C190.529 223.976 190.843 224.04 191.185 224.04C191.729 224.04 192.187 223.944 192.561 223.752C192.934 223.56 193.27 223.277 193.569 222.904L194.513 223.64ZM193.441 220.584C193.419 219.944 193.211 219.432 192.817 219.048C192.422 218.664 191.878 218.472 191.185 218.472C190.491 218.472 189.931 218.664 189.505 219.048C189.078 219.432 188.822 219.944 188.737 220.584H193.441ZM196.715 219.288C196.715 218.947 196.705 218.627 196.683 218.328C196.662 218.029 196.651 217.757 196.651 217.512H197.835C197.835 217.715 197.841 217.917 197.851 218.12C197.862 218.323 197.867 218.531 197.867 218.744H197.899C197.985 218.563 198.102 218.387 198.251 218.216C198.411 218.045 198.598 217.896 198.811 217.768C199.025 217.629 199.265 217.523 199.531 217.448C199.798 217.363 200.086 217.32 200.395 217.32C200.481 217.32 200.566 217.325 200.651 217.336C200.737 217.347 200.822 217.368 200.907 217.4L200.827 218.664C200.614 218.6 200.39 218.568 200.155 218.568C199.387 218.568 198.827 218.819 198.475 219.32C198.134 219.811 197.963 220.488 197.963 221.352V225H196.715V219.288ZM205.092 226.712C204.964 227.032 204.831 227.32 204.692 227.576C204.564 227.843 204.404 228.067 204.212 228.248C204.031 228.44 203.807 228.584 203.54 228.68C203.284 228.787 202.97 228.84 202.596 228.84C202.415 228.84 202.223 228.829 202.02 228.808C201.828 228.787 201.647 228.733 201.476 228.648L201.636 227.56C201.764 227.613 201.898 227.645 202.036 227.656C202.175 227.677 202.335 227.688 202.516 227.688C202.922 227.688 203.22 227.576 203.412 227.352C203.604 227.128 203.77 226.829 203.908 226.456L204.42 225.048L201.316 217.512H202.772L205.092 223.384H205.124L207.348 217.512H208.708L205.092 226.712Z" fill="black"/>
<path opacity="0.7" d="M75.408 295.672H78.768C79.2907 295.672 79.7867 295.725 80.256 295.832C80.736 295.928 81.1573 296.099 81.52 296.344C81.8933 296.579 82.1867 296.899 82.4 297.304C82.624 297.699 82.736 298.189 82.736 298.776C82.736 299.395 82.6187 299.907 82.384 300.312C82.1493 300.717 81.8453 301.037 81.472 301.272C81.1093 301.507 80.7093 301.672 80.272 301.768C79.8347 301.864 79.4187 301.912 79.024 301.912H76.752V307H75.408V295.672ZM76.752 300.664H79.024C79.696 300.664 80.24 300.515 80.656 300.216C81.0827 299.907 81.296 299.432 81.296 298.792C81.296 298.152 81.0827 297.683 80.656 297.384C80.24 297.075 79.696 296.92 79.024 296.92H76.752V300.664ZM83.9484 305.8L90.4924 296.92H84.0444V295.672H92.1244V296.824L85.5804 305.752H92.2044V307H83.9484V305.8ZM97.221 295.672H98.709L101.285 305.08H101.317L104.101 295.672H105.605L108.373 305.08H108.405L111.029 295.672H112.437L109.109 307H107.653L104.853 297.4H104.821L102.005 307H100.533L97.221 295.672ZM113.827 299.512H115.075V307H113.827V299.512ZM113.539 296.584C113.539 296.339 113.625 296.125 113.795 295.944C113.977 295.763 114.195 295.672 114.451 295.672C114.707 295.672 114.921 295.763 115.091 295.944C115.273 296.125 115.363 296.339 115.363 296.584C115.363 296.851 115.278 297.069 115.107 297.24C114.937 297.411 114.718 297.496 114.451 297.496C114.185 297.496 113.966 297.411 113.795 297.24C113.625 297.069 113.539 296.851 113.539 296.584ZM117.671 294.904H118.919V307H117.671V294.904ZM121.403 301.288C121.403 300.947 121.392 300.627 121.371 300.328C121.349 300.029 121.339 299.757 121.339 299.512H122.523C122.523 299.715 122.528 299.917 122.539 300.12C122.549 300.323 122.555 300.531 122.555 300.744H122.587C122.672 300.563 122.789 300.387 122.939 300.216C123.099 300.045 123.285 299.896 123.499 299.768C123.712 299.629 123.952 299.523 124.219 299.448C124.485 299.363 124.773 299.32 125.083 299.32C125.488 299.32 125.824 299.373 126.091 299.48C126.368 299.576 126.597 299.699 126.779 299.848C126.96 299.987 127.099 300.141 127.195 300.312C127.301 300.472 127.387 300.616 127.451 300.744C127.728 300.296 128.048 299.949 128.411 299.704C128.773 299.448 129.243 299.32 129.819 299.32C130.352 299.32 130.8 299.395 131.163 299.544C131.525 299.683 131.819 299.891 132.043 300.168C132.267 300.435 132.427 300.765 132.523 301.16C132.619 301.544 132.667 301.976 132.667 302.456V307H131.419V302.52C131.419 302.264 131.392 302.013 131.339 301.768C131.285 301.523 131.189 301.304 131.051 301.112C130.912 300.92 130.725 300.765 130.491 300.648C130.256 300.531 129.957 300.472 129.595 300.472C129.328 300.472 129.077 300.525 128.843 300.632C128.608 300.739 128.4 300.888 128.219 301.08C128.048 301.272 127.909 301.507 127.803 301.784C127.707 302.051 127.659 302.349 127.659 302.68V307H126.411V302.76C126.411 301.928 126.299 301.341 126.075 301C125.851 300.648 125.483 300.472 124.971 300.472C124.565 300.472 124.213 300.541 123.915 300.68C123.627 300.819 123.387 301.016 123.195 301.272C123.013 301.528 122.875 301.832 122.779 302.184C122.693 302.536 122.651 302.925 122.651 303.352V307H121.403V301.288ZM134.932 300.472C135.316 300.077 135.769 299.789 136.292 299.608C136.825 299.416 137.364 299.32 137.908 299.32C139.017 299.32 139.817 299.581 140.308 300.104C140.798 300.627 141.044 301.421 141.044 302.488V305.704C141.044 305.917 141.054 306.141 141.076 306.376C141.097 306.6 141.124 306.808 141.156 307H139.956C139.913 306.829 139.886 306.643 139.876 306.44C139.876 306.227 139.876 306.04 139.876 305.88H139.844C139.598 306.264 139.268 306.579 138.852 306.824C138.446 307.069 137.956 307.192 137.38 307.192C136.996 307.192 136.633 307.144 136.292 307.048C135.961 306.952 135.668 306.813 135.412 306.632C135.166 306.44 134.969 306.205 134.82 305.928C134.67 305.651 134.596 305.331 134.596 304.968C134.596 304.349 134.756 303.864 135.076 303.512C135.396 303.16 135.79 302.899 136.26 302.728C136.74 302.557 137.252 302.451 137.796 302.408C138.35 302.365 138.857 302.344 139.316 302.344H139.796V302.12C139.796 301.576 139.63 301.165 139.3 300.888C138.98 300.611 138.526 300.472 137.94 300.472C137.534 300.472 137.134 300.541 136.74 300.68C136.356 300.808 136.014 301.011 135.716 301.288L134.932 300.472ZM138.548 303.4C137.748 303.4 137.113 303.512 136.644 303.736C136.174 303.96 135.94 304.328 135.94 304.84C135.94 305.309 136.094 305.645 136.404 305.848C136.724 306.04 137.118 306.136 137.588 306.136C137.95 306.136 138.265 306.077 138.532 305.96C138.809 305.832 139.038 305.667 139.22 305.464C139.401 305.261 139.54 305.027 139.636 304.76C139.732 304.483 139.785 304.189 139.796 303.88V303.4H138.548ZM143.325 301.288C143.325 300.947 143.314 300.627 143.293 300.328C143.271 300.029 143.261 299.757 143.261 299.512H144.445C144.445 299.715 144.45 299.917 144.461 300.12C144.471 300.323 144.477 300.531 144.477 300.744H144.509C144.594 300.563 144.711 300.387 144.861 300.216C145.021 300.045 145.207 299.896 145.421 299.768C145.634 299.629 145.874 299.523 146.141 299.448C146.407 299.363 146.695 299.32 147.005 299.32C147.09 299.32 147.175 299.325 147.261 299.336C147.346 299.347 147.431 299.368 147.517 299.4L147.437 300.664C147.223 300.6 146.999 300.568 146.765 300.568C145.997 300.568 145.437 300.819 145.085 301.32C144.743 301.811 144.573 302.488 144.573 303.352V307H143.325V301.288ZM153.627 295.672H154.971V305.752H160.155V307H153.627V295.672ZM161.515 299.512H162.763V307H161.515V299.512ZM161.227 296.584C161.227 296.339 161.312 296.125 161.483 295.944C161.664 295.763 161.883 295.672 162.139 295.672C162.395 295.672 162.608 295.763 162.779 295.944C162.96 296.125 163.051 296.339 163.051 296.584C163.051 296.851 162.965 297.069 162.795 297.24C162.624 297.411 162.405 297.496 162.139 297.496C161.872 297.496 161.653 297.411 161.483 297.24C161.312 297.069 161.227 296.851 161.227 296.584ZM165.247 301.288C165.247 300.947 165.236 300.627 165.215 300.328C165.193 300.029 165.183 299.757 165.183 299.512H166.367C166.367 299.715 166.372 299.917 166.383 300.12C166.393 300.323 166.399 300.531 166.399 300.744H166.431C166.516 300.563 166.633 300.387 166.783 300.216C166.943 300.045 167.129 299.896 167.343 299.768C167.556 299.629 167.796 299.523 168.062 299.448C168.329 299.363 168.617 299.32 168.927 299.32C169.332 299.32 169.668 299.373 169.935 299.48C170.212 299.576 170.441 299.699 170.623 299.848C170.804 299.987 170.943 300.141 171.039 300.312C171.145 300.472 171.231 300.616 171.295 300.744C171.572 300.296 171.892 299.949 172.255 299.704C172.617 299.448 173.087 299.32 173.663 299.32C174.196 299.32 174.644 299.395 175.007 299.544C175.369 299.683 175.663 299.891 175.887 300.168C176.111 300.435 176.271 300.765 176.367 301.16C176.463 301.544 176.511 301.976 176.511 302.456V307H175.263V302.52C175.263 302.264 175.236 302.013 175.183 301.768C175.129 301.523 175.033 301.304 174.895 301.112C174.756 300.92 174.569 300.765 174.335 300.648C174.1 300.531 173.801 300.472 173.439 300.472C173.172 300.472 172.921 300.525 172.687 300.632C172.452 300.739 172.244 300.888 172.062 301.08C171.892 301.272 171.753 301.507 171.647 301.784C171.551 302.051 171.503 302.349 171.503 302.68V307H170.255V302.76C170.255 301.928 170.143 301.341 169.919 301C169.695 300.648 169.327 300.472 168.815 300.472C168.409 300.472 168.057 300.541 167.759 300.68C167.471 300.819 167.231 301.016 167.039 301.272C166.857 301.528 166.719 301.832 166.623 302.184C166.537 302.536 166.495 302.925 166.495 303.352V307H165.247V301.288ZM178.984 299.512H180.232V307H178.984V299.512ZM178.696 296.584C178.696 296.339 178.781 296.125 178.952 295.944C179.133 295.763 179.352 295.672 179.608 295.672C179.864 295.672 180.077 295.763 180.248 295.944C180.429 296.125 180.52 296.339 180.52 296.584C180.52 296.851 180.434 297.069 180.264 297.24C180.093 297.411 179.874 297.496 179.608 297.496C179.341 297.496 179.122 297.411 178.952 297.24C178.781 297.069 178.696 296.851 178.696 296.584ZM186.811 300.568H184.603V304.312C184.603 304.557 184.609 304.787 184.619 305C184.63 305.203 184.673 305.384 184.747 305.544C184.822 305.693 184.934 305.816 185.083 305.912C185.233 305.997 185.446 306.04 185.723 306.04C185.905 306.04 186.091 306.019 186.283 305.976C186.475 305.933 186.657 305.869 186.827 305.784L186.875 306.92C186.662 307.016 186.422 307.085 186.155 307.128C185.899 307.171 185.654 307.192 185.419 307.192C184.971 307.192 184.614 307.133 184.347 307.016C184.081 306.899 183.873 306.733 183.723 306.52C183.574 306.307 183.473 306.045 183.419 305.736C183.377 305.416 183.355 305.064 183.355 304.68V300.568H181.723V299.512H183.355V297.384H184.603V299.512H186.811V300.568ZM195.028 305.64C194.58 306.216 194.09 306.621 193.556 306.856C193.023 307.08 192.404 307.192 191.7 307.192C191.114 307.192 190.586 307.091 190.116 306.888C189.647 306.675 189.247 306.392 188.916 306.04C188.596 305.688 188.346 305.272 188.164 304.792C187.994 304.312 187.908 303.8 187.908 303.256C187.908 302.68 188.004 302.152 188.196 301.672C188.388 301.181 188.655 300.765 188.996 300.424C189.338 300.072 189.743 299.8 190.212 299.608C190.682 299.416 191.194 299.32 191.748 299.32C192.271 299.32 192.751 299.411 193.188 299.592C193.626 299.763 193.999 300.019 194.308 300.36C194.628 300.691 194.874 301.101 195.044 301.592C195.215 302.072 195.3 302.621 195.3 303.24V303.64H189.252C189.274 303.96 189.348 304.269 189.476 304.568C189.615 304.856 189.791 305.112 190.004 305.336C190.218 305.549 190.468 305.72 190.756 305.848C191.044 305.976 191.359 306.04 191.7 306.04C192.244 306.04 192.703 305.944 193.076 305.752C193.45 305.56 193.786 305.277 194.084 304.904L195.028 305.64ZM193.956 302.584C193.935 301.944 193.727 301.432 193.332 301.048C192.938 300.664 192.394 300.472 191.7 300.472C191.007 300.472 190.447 300.664 190.02 301.048C189.594 301.432 189.338 301.944 189.252 302.584H193.956ZM203.455 305.672H203.423C203.188 306.099 202.815 306.461 202.303 306.76C201.802 307.048 201.215 307.192 200.543 307.192C200.02 307.192 199.53 307.096 199.071 306.904C198.612 306.701 198.212 306.424 197.871 306.072C197.54 305.72 197.279 305.304 197.087 304.824C196.895 304.344 196.799 303.821 196.799 303.256C196.799 302.691 196.895 302.168 197.087 301.688C197.279 301.208 197.546 300.792 197.887 300.44C198.228 300.088 198.639 299.816 199.119 299.624C199.61 299.421 200.148 299.32 200.735 299.32C201.279 299.32 201.775 299.432 202.223 299.656C202.682 299.88 203.082 300.195 203.423 300.6H203.455V294.904H204.703V307H203.455V305.672ZM203.455 303.256C203.455 302.861 203.391 302.499 203.263 302.168C203.146 301.827 202.97 301.533 202.735 301.288C202.5 301.032 202.218 300.835 201.887 300.696C201.567 300.547 201.204 300.472 200.799 300.472C200.394 300.472 200.026 300.547 199.695 300.696C199.375 300.835 199.098 301.032 198.863 301.288C198.628 301.533 198.447 301.827 198.319 302.168C198.202 302.499 198.143 302.861 198.143 303.256C198.143 303.651 198.202 304.019 198.319 304.36C198.447 304.691 198.628 304.984 198.863 305.24C199.098 305.485 199.375 305.683 199.695 305.832C200.026 305.971 200.394 306.04 200.799 306.04C201.204 306.04 201.567 305.971 201.887 305.832C202.218 305.683 202.5 305.485 202.735 305.24C202.97 304.984 203.146 304.691 203.263 304.36C203.391 304.019 203.455 303.651 203.455 303.256Z" fill="black"/>
<path opacity="0.7" d="M83.344 379.008C83.0027 378.549 82.5813 378.208 82.08 377.984C81.5787 377.749 81.056 377.632 80.512 377.632C79.8827 377.632 79.3013 377.76 78.768 378.016C78.2453 378.272 77.792 378.619 77.408 379.056C77.024 379.483 76.7253 379.984 76.512 380.56C76.2987 381.125 76.192 381.717 76.192 382.336C76.192 382.997 76.2987 383.616 76.512 384.192C76.7253 384.757 77.0187 385.253 77.392 385.68C77.776 386.096 78.2293 386.427 78.752 386.672C79.2853 386.917 79.872 387.04 80.512 387.04C81.2053 387.04 81.824 386.907 82.368 386.64C82.912 386.363 83.3867 385.968 83.792 385.456L84.8 386.304C84.288 386.987 83.6693 387.488 82.944 387.808C82.2293 388.128 81.4187 388.288 80.512 388.288C79.7013 388.288 78.944 388.139 78.24 387.84C77.536 387.541 76.9227 387.131 76.4 386.608C75.888 386.075 75.4827 385.445 75.184 384.72C74.896 383.995 74.752 383.2 74.752 382.336C74.752 381.504 74.8907 380.725 75.168 380C75.456 379.275 75.856 378.645 76.368 378.112C76.88 377.579 77.488 377.157 78.192 376.848C78.896 376.539 79.6693 376.384 80.512 376.384C81.28 376.384 82.016 376.523 82.72 376.8C83.4347 377.077 84.032 377.531 84.512 378.16L83.344 379.008ZM86.4496 382.288C86.4496 381.947 86.439 381.627 86.4176 381.328C86.3963 381.029 86.3856 380.757 86.3856 380.512H87.5696C87.5696 380.715 87.575 380.917 87.5856 381.12C87.5963 381.323 87.6016 381.531 87.6016 381.744H87.6336C87.719 381.563 87.8363 381.387 87.9856 381.216C88.1456 381.045 88.3323 380.896 88.5456 380.768C88.759 380.629 88.999 380.523 89.2656 380.448C89.5323 380.363 89.8203 380.32 90.1296 380.32C90.215 380.32 90.3003 380.325 90.3856 380.336C90.471 380.347 90.5563 380.368 90.6416 380.4L90.5616 381.664C90.3483 381.6 90.1243 381.568 89.8896 381.568C89.1216 381.568 88.5616 381.819 88.2096 382.32C87.8683 382.811 87.6976 383.488 87.6976 384.352V388H86.4496V382.288ZM91.3614 384.256C91.3614 383.669 91.4627 383.136 91.6654 382.656C91.868 382.176 92.1454 381.765 92.4974 381.424C92.8494 381.072 93.2707 380.8 93.7614 380.608C94.252 380.416 94.7854 380.32 95.3614 380.32C95.9374 380.32 96.4707 380.416 96.9614 380.608C97.452 380.8 97.8734 381.072 98.2254 381.424C98.5774 381.765 98.8547 382.176 99.0574 382.656C99.26 383.136 99.3614 383.669 99.3614 384.256C99.3614 384.843 99.26 385.376 99.0574 385.856C98.8547 386.336 98.5774 386.752 98.2254 387.104C97.8734 387.445 97.452 387.712 96.9614 387.904C96.4707 388.096 95.9374 388.192 95.3614 388.192C94.7854 388.192 94.252 388.096 93.7614 387.904C93.2707 387.712 92.8494 387.445 92.4974 387.104C92.1454 386.752 91.868 386.336 91.6654 385.856C91.4627 385.376 91.3614 384.843 91.3614 384.256ZM92.7054 384.256C92.7054 384.651 92.764 385.019 92.8814 385.36C93.0094 385.691 93.1907 385.984 93.4254 386.24C93.66 386.485 93.9374 386.683 94.2574 386.832C94.588 386.971 94.956 387.04 95.3614 387.04C95.7667 387.04 96.1294 386.971 96.4494 386.832C96.78 386.683 97.0627 386.485 97.2974 386.24C97.532 385.984 97.708 385.691 97.8254 385.36C97.9534 385.019 98.0174 384.651 98.0174 384.256C98.0174 383.861 97.9534 383.499 97.8254 383.168C97.708 382.827 97.532 382.533 97.2974 382.288C97.0627 382.032 96.78 381.835 96.4494 381.696C96.1294 381.547 95.7667 381.472 95.3614 381.472C94.956 381.472 94.588 381.547 94.2574 381.696C93.9374 381.835 93.66 382.032 93.4254 382.288C93.1907 382.533 93.0094 382.827 92.8814 383.168C92.764 383.499 92.7054 383.861 92.7054 384.256ZM109.325 388H108.093L105.965 382.24H105.933L104.045 388H102.765L100.333 380.512H101.709L103.421 386.272H103.453L105.389 380.512H106.701L108.669 386.272H108.701L110.397 380.512H111.741L109.325 388ZM113.153 382.288C113.153 381.947 113.142 381.627 113.121 381.328C113.099 381.029 113.089 380.757 113.089 380.512H114.273C114.273 380.715 114.278 380.917 114.289 381.12C114.299 381.323 114.305 381.531 114.305 381.744H114.337C114.422 381.563 114.539 381.387 114.689 381.216C114.849 381.045 115.035 380.896 115.249 380.768C115.462 380.629 115.702 380.523 115.969 380.448C116.235 380.363 116.523 380.32 116.833 380.32C117.323 380.32 117.745 380.395 118.097 380.544C118.459 380.693 118.758 380.901 118.993 381.168C119.227 381.435 119.398 381.76 119.505 382.144C119.622 382.517 119.681 382.928 119.681 383.376V388H118.433V383.504C118.433 382.875 118.294 382.379 118.017 382.016C117.739 381.653 117.307 381.472 116.721 381.472C116.315 381.472 115.963 381.541 115.665 381.68C115.377 381.819 115.137 382.016 114.945 382.272C114.763 382.528 114.625 382.832 114.529 383.184C114.443 383.536 114.401 383.925 114.401 384.352V388H113.153V382.288ZM127.137 381.568H125.505V380.512H127.137V378.832C127.137 378.373 127.179 377.957 127.265 377.584C127.35 377.2 127.494 376.869 127.697 376.592C127.91 376.315 128.187 376.101 128.529 375.952C128.87 375.792 129.291 375.712 129.793 375.712C129.953 375.712 130.123 375.728 130.305 375.76C130.486 375.792 130.635 375.84 130.753 375.904L130.577 377.024C130.278 376.917 129.995 376.864 129.729 376.864C129.409 376.864 129.158 376.923 128.977 377.04C128.795 377.147 128.657 377.301 128.561 377.504C128.475 377.696 128.422 377.931 128.401 378.208C128.39 378.485 128.385 378.784 128.385 379.104V380.512H130.209V381.568H128.385V388H127.137V381.568ZM131.361 375.904H132.609V388H131.361V375.904ZM134.658 384.256C134.658 383.669 134.76 383.136 134.962 382.656C135.165 382.176 135.442 381.765 135.794 381.424C136.146 381.072 136.568 380.8 137.058 380.608C137.549 380.416 138.082 380.32 138.658 380.32C139.234 380.32 139.768 380.416 140.258 380.608C140.749 380.8 141.17 381.072 141.522 381.424C141.874 381.765 142.152 382.176 142.354 382.656C142.557 383.136 142.658 383.669 142.658 384.256C142.658 384.843 142.557 385.376 142.354 385.856C142.152 386.336 141.874 386.752 141.522 387.104C141.17 387.445 140.749 387.712 140.258 387.904C139.768 388.096 139.234 388.192 138.658 388.192C138.082 388.192 137.549 388.096 137.058 387.904C136.568 387.712 136.146 387.445 135.794 387.104C135.442 386.752 135.165 386.336 134.962 385.856C134.76 385.376 134.658 384.843 134.658 384.256ZM136.002 384.256C136.002 384.651 136.061 385.019 136.178 385.36C136.306 385.691 136.488 385.984 136.722 386.24C136.957 386.485 137.234 386.683 137.554 386.832C137.885 386.971 138.253 387.04 138.658 387.04C139.064 387.04 139.426 386.971 139.746 386.832C140.077 386.683 140.36 386.485 140.594 386.24C140.829 385.984 141.005 385.691 141.122 385.36C141.25 385.019 141.314 384.651 141.314 384.256C141.314 383.861 141.25 383.499 141.122 383.168C141.005 382.827 140.829 382.533 140.594 382.288C140.36 382.032 140.077 381.835 139.746 381.696C139.426 381.547 139.064 381.472 138.658 381.472C138.253 381.472 137.885 381.547 137.554 381.696C137.234 381.835 136.957 382.032 136.722 382.288C136.488 382.533 136.306 382.827 136.178 383.168C136.061 383.499 136.002 383.861 136.002 384.256ZM151.118 386.224C151.118 386.565 151.129 386.885 151.15 387.184C151.172 387.483 151.182 387.755 151.182 388H149.998C149.998 387.797 149.993 387.595 149.982 387.392C149.972 387.189 149.966 386.981 149.966 386.768H149.934C149.849 386.949 149.726 387.125 149.566 387.296C149.417 387.467 149.236 387.621 149.022 387.76C148.809 387.888 148.569 387.989 148.302 388.064C148.036 388.149 147.748 388.192 147.438 388.192C146.948 388.192 146.521 388.117 146.158 387.968C145.806 387.819 145.513 387.611 145.278 387.344C145.044 387.077 144.868 386.757 144.75 386.384C144.644 386 144.59 385.584 144.59 385.136V380.512H145.838V385.008C145.838 385.637 145.977 386.133 146.254 386.496C146.532 386.859 146.964 387.04 147.55 387.04C147.956 387.04 148.302 386.971 148.59 386.832C148.889 386.693 149.129 386.496 149.31 386.24C149.502 385.984 149.641 385.68 149.726 385.328C149.822 384.976 149.87 384.587 149.87 384.16V380.512H151.118V386.224ZM153.481 382.288C153.481 381.947 153.47 381.627 153.449 381.328C153.428 381.029 153.417 380.757 153.417 380.512H154.601C154.601 380.715 154.606 380.917 154.617 381.12C154.628 381.323 154.633 381.531 154.633 381.744H154.665C154.75 381.563 154.868 381.387 155.017 381.216C155.177 381.045 155.364 380.896 155.577 380.768C155.79 380.629 156.03 380.523 156.297 380.448C156.564 380.363 156.852 380.32 157.161 380.32C157.246 380.32 157.332 380.325 157.417 380.336C157.502 380.347 157.588 380.368 157.673 380.4L157.593 381.664C157.38 381.6 157.156 381.568 156.921 381.568C156.153 381.568 155.593 381.819 155.241 382.32C154.9 382.811 154.729 383.488 154.729 384.352V388H153.481V382.288ZM163.559 382.288C163.559 381.947 163.548 381.627 163.527 381.328C163.506 381.029 163.495 380.757 163.495 380.512H164.679C164.679 380.715 164.684 380.917 164.695 381.12C164.706 381.323 164.711 381.531 164.711 381.744H164.743C164.828 381.563 164.946 381.387 165.095 381.216C165.255 381.045 165.442 380.896 165.655 380.768C165.868 380.629 166.108 380.523 166.375 380.448C166.642 380.363 166.93 380.32 167.239 380.32C167.644 380.32 167.98 380.373 168.247 380.48C168.524 380.576 168.754 380.699 168.935 380.848C169.116 380.987 169.255 381.141 169.351 381.312C169.458 381.472 169.543 381.616 169.607 381.744C169.884 381.296 170.204 380.949 170.567 380.704C170.93 380.448 171.399 380.32 171.975 380.32C172.508 380.32 172.956 380.395 173.319 380.544C173.682 380.683 173.975 380.891 174.199 381.168C174.423 381.435 174.583 381.765 174.679 382.16C174.775 382.544 174.823 382.976 174.823 383.456V388H173.575V383.52C173.575 383.264 173.548 383.013 173.495 382.768C173.442 382.523 173.346 382.304 173.207 382.112C173.068 381.92 172.882 381.765 172.647 381.648C172.412 381.531 172.114 381.472 171.751 381.472C171.484 381.472 171.234 381.525 170.999 381.632C170.764 381.739 170.556 381.888 170.375 382.08C170.204 382.272 170.066 382.507 169.959 382.784C169.863 383.051 169.815 383.349 169.815 383.68V388H168.567V383.76C168.567 382.928 168.455 382.341 168.231 382C168.007 381.648 167.639 381.472 167.127 381.472C166.722 381.472 166.37 381.541 166.071 381.68C165.783 381.819 165.543 382.016 165.351 382.272C165.17 382.528 165.031 382.832 164.935 383.184C164.85 383.536 164.807 383.925 164.807 384.352V388H163.559V382.288ZM177.296 380.512H178.544V388H177.296V380.512ZM177.008 377.584C177.008 377.339 177.093 377.125 177.264 376.944C177.445 376.763 177.664 376.672 177.92 376.672C178.176 376.672 178.389 376.763 178.56 376.944C178.741 377.125 178.832 377.339 178.832 377.584C178.832 377.851 178.747 378.069 178.576 378.24C178.405 378.411 178.187 378.496 177.92 378.496C177.653 378.496 177.435 378.411 177.264 378.24C177.093 378.069 177.008 377.851 177.008 377.584ZM181.14 375.904H182.388V388H181.14V375.904ZM184.999 375.904H186.247V388H184.999V375.904ZM188.891 386.032C189.136 386.341 189.403 386.587 189.691 386.768C189.99 386.949 190.363 387.04 190.811 387.04C191.003 387.04 191.195 387.019 191.387 386.976C191.59 386.933 191.771 386.864 191.931 386.768C192.091 386.672 192.219 386.555 192.315 386.416C192.411 386.267 192.459 386.091 192.459 385.888C192.459 385.685 192.411 385.52 192.315 385.392C192.23 385.264 192.112 385.157 191.963 385.072C191.814 384.976 191.643 384.901 191.451 384.848C191.259 384.795 191.062 384.747 190.859 384.704C190.507 384.629 190.171 384.544 189.851 384.448C189.531 384.352 189.248 384.229 189.003 384.08C188.768 383.92 188.576 383.717 188.427 383.472C188.288 383.227 188.219 382.912 188.219 382.528C188.219 382.165 188.299 381.845 188.459 381.568C188.619 381.291 188.832 381.061 189.099 380.88C189.366 380.699 189.664 380.56 189.995 380.464C190.326 380.368 190.667 380.32 191.019 380.32C191.552 380.32 192.043 380.427 192.491 380.64C192.95 380.853 193.307 381.2 193.563 381.68L192.523 382.368C192.363 382.101 192.15 381.888 191.883 381.728C191.627 381.557 191.312 381.472 190.939 381.472C190.768 381.472 190.592 381.493 190.411 381.536C190.24 381.579 190.086 381.643 189.947 381.728C189.808 381.813 189.691 381.925 189.595 382.064C189.51 382.192 189.467 382.341 189.467 382.512C189.467 382.672 189.515 382.811 189.611 382.928C189.718 383.035 189.856 383.131 190.027 383.216C190.208 383.301 190.411 383.376 190.635 383.44C190.87 383.504 191.11 383.557 191.355 383.6C191.686 383.664 192 383.749 192.299 383.856C192.598 383.952 192.859 384.085 193.083 384.256C193.307 384.427 193.483 384.64 193.611 384.896C193.739 385.152 193.803 385.467 193.803 385.84C193.803 386.267 193.718 386.629 193.547 386.928C193.376 387.227 193.147 387.472 192.859 387.664C192.582 387.845 192.262 387.979 191.899 388.064C191.547 388.149 191.184 388.192 190.811 388.192C190.171 388.192 189.616 388.096 189.147 387.904C188.688 387.701 188.272 387.333 187.899 386.8L188.891 386.032Z" fill="black"/>
<g clip-path="url(#clip0)">
<path d="M288 74L488 53L738.743 74L963.883 52L1044.5 62" stroke="#C4C4CD" stroke-width="4" stroke-linecap="round"/>
<circle cx="486" cy="53" r="6" fill="#C4C4CD"/>
<circle cx="288" cy="74" r="6" fill="#C4C4CD"/>
<circle cx="740" cy="74" r="6" fill="#A4D278"/>
<circle cx="963" cy="52" r="6" fill="#A4D278"/>
</g>
<path d="M294 293.435L484.515 313.435L674.638 293L864.762 314.232L1046 289" stroke="#C4C4CD" stroke-width="4" stroke-linecap="round"/>
<circle cx="485" cy="312" r="6" fill="#C4C4CD"/>
<circle cx="294" cy="293" r="6" fill="#C4C4CD"/>
<circle cx="676" cy="293" r="6" fill="#A4D278"/>
<circle cx="865" cy="314" r="6" fill="#A4D278"/>
<circle cx="1044" cy="289" r="6" fill="#C4C4CD"/>
<path d="M294 374.435H484.515L674.638 404L864.762 388.232L1046 370" stroke="#C4C4CD" stroke-width="4" stroke-linecap="round"/>
<circle cx="486" cy="374" r="6" fill="#C4C4CD"/>
<circle cx="294" cy="374" r="6" fill="#C4C4CD"/>
<circle cx="672" cy="404" r="6" fill="#A4D278"/>
<circle cx="866" cy="387" r="6" fill="#C4C4CD"/>
<circle cx="1044" cy="371" r="6" fill="#C4C4CD"/>
<path d="M291 142.836L483.853 134.182L674.201 146L864.548 136.854L1046 146" stroke="#C4C4CD" stroke-width="4" stroke-linecap="round"/>
<circle cx="483" cy="134" r="6" fill="#C4C4CD"/>
<circle cx="294" cy="142" r="6" fill="#C4C4CD"/>
<circle cx="674" cy="145" r="6" fill="#C4C4CD"/>
<circle cx="865" cy="138" r="6" fill="#C4C4CD"/>
<path d="M294 228.254L485.159 236L675.925 213L866.691 236L1046 220.19" stroke="#C4C4CD" stroke-width="4" stroke-linecap="round"/>
<circle cx="486" cy="236" r="6" fill="#C4C4CD"/>
<circle cx="294" cy="227" r="6" fill="#C4C4CD"/>
<circle cx="867" cy="236" r="6" fill="#A4D278"/>
<circle cx="675" cy="212" r="6" fill="#A4D278"/>
<defs>
<filter id="filter0_ii" x="74" y="16" width="972" height="81.6" filterUnits="userSpaceOnUse" color-interpolation-filters="sRGB">
<feFlood flood-opacity="0" result="BackgroundImageFix"/>
<feBlend mode="normal" in="SourceGraphic" in2="BackgroundImageFix" result="shape"/>
<feColorMatrix in="SourceAlpha" type="matrix" values="0 0 0 0 0 0 0 0 0 0 0 0 0 0 0 0 0 0 127 0" result="hardAlpha"/>
<feOffset dy="-1"/>
<feComposite in2="hardAlpha" operator="arithmetic" k2="-1" k3="1"/>
<feColorMatrix type="matrix" values="0 0 0 0 0 0 0 0 0 0 0 0 0 0 0 0 0 0 0.1 0"/>
<feBlend mode="normal" in2="shape" result="effect1_innerShadow"/>
<feColorMatrix in="SourceAlpha" type="matrix" values="0 0 0 0 0 0 0 0 0 0 0 0 0 0 0 0 0 0 127 0" result="hardAlpha"/>
<feOffset dy="1"/>
<feComposite in2="hardAlpha" operator="arithmetic" k2="-1" k3="1"/>
<feColorMatrix type="matrix" values="0 0 0 0 0 0 0 0 0 0 0 0 0 0 0 0 0 0 0.1 0"/>
<feBlend mode="normal" in2="effect1_innerShadow" result="effect2_innerShadow"/>
</filter>
<filter id="filter1_i" x="74" y="97.6001" width="972" height="81.6" filterUnits="userSpaceOnUse" color-interpolation-filters="sRGB">
<feFlood flood-opacity="0" result="BackgroundImageFix"/>
<feBlend mode="normal" in="SourceGraphic" in2="BackgroundImageFix" result="shape"/>
<feColorMatrix in="SourceAlpha" type="matrix" values="0 0 0 0 0 0 0 0 0 0 0 0 0 0 0 0 0 0 127 0" result="hardAlpha"/>
<feOffset dy="-1"/>
<feComposite in2="hardAlpha" operator="arithmetic" k2="-1" k3="1"/>
<feColorMatrix type="matrix" values="0 0 0 0 0 0 0 0 0 0 0 0 0 0 0 0 0 0 0.1 0"/>
<feBlend mode="normal" in2="shape" result="effect1_innerShadow"/>
</filter>
<filter id="filter2_i" x="74" y="179.2" width="972" height="81.6" filterUnits="userSpaceOnUse" color-interpolation-filters="sRGB">
<feFlood flood-opacity="0" result="BackgroundImageFix"/>
<feBlend mode="normal" in="SourceGraphic" in2="BackgroundImageFix" result="shape"/>
<feColorMatrix in="SourceAlpha" type="matrix" values="0 0 0 0 0 0 0 0 0 0 0 0 0 0 0 0 0 0 127 0" result="hardAlpha"/>
<feOffset dy="-1"/>
<feComposite in2="hardAlpha" operator="arithmetic" k2="-1" k3="1"/>
<feColorMatrix type="matrix" values="0 0 0 0 0 0 0 0 0 0 0 0 0 0 0 0 0 0 0.1 0"/>
<feBlend mode="normal" in2="shape" result="effect1_innerShadow"/>
</filter>
<filter id="filter3_i" x="74" y="260.8" width="972" height="81.6" filterUnits="userSpaceOnUse" color-interpolation-filters="sRGB">
<feFlood flood-opacity="0" result="BackgroundImageFix"/>
<feBlend mode="normal" in="SourceGraphic" in2="BackgroundImageFix" result="shape"/>
<feColorMatrix in="SourceAlpha" type="matrix" values="0 0 0 0 0 0 0 0 0 0 0 0 0 0 0 0 0 0 127 0" result="hardAlpha"/>
<feOffset dy="-1"/>
<feComposite in2="hardAlpha" operator="arithmetic" k2="-1" k3="1"/>
<feColorMatrix type="matrix" values="0 0 0 0 0 0 0 0 0 0 0 0 0 0 0 0 0 0 0.1 0"/>
<feBlend mode="normal" in2="shape" result="effect1_innerShadow"/>
</filter>
<filter id="filter4_i" x="74" y="342.4" width="972" height="81.6" filterUnits="userSpaceOnUse" color-interpolation-filters="sRGB">
<feFlood flood-opacity="0" result="BackgroundImageFix"/>
<feBlend mode="normal" in="SourceGraphic" in2="BackgroundImageFix" result="shape"/>
<feColorMatrix in="SourceAlpha" type="matrix" values="0 0 0 0 0 0 0 0 0 0 0 0 0 0 0 0 0 0 127 0" result="hardAlpha"/>
<feOffset dy="-1"/>
<feComposite in2="hardAlpha" operator="arithmetic" k2="-1" k3="1"/>
<feColorMatrix type="matrix" values="0 0 0 0 0 0 0 0 0 0 0 0 0 0 0 0 0 0 0.1 0"/>
<feBlend mode="normal" in2="shape" result="effect1_innerShadow"/>
</filter>
<clipPath id="clip0">
<rect width="770" height="54" fill="white" transform="translate(282 26)"/>
</clipPath>
</defs>
</svg>
