<svg width="32" height="32" viewBox="0 0 32 32" fill="none" xmlns="http://www.w3.org/2000/svg">
<rect width="32" height="32" rx="8" fill="#00B37A" fill-opacity="0.1"/>
<path opacity="0.3" d="M23.9443 12.5242C23.4175 12.5242 22.7198 12.5125 21.8511 12.5125C19.7325 12.5125 17.9905 10.759 17.9905 8.62051V4.86851C17.9905 4.57334 17.7548 4.33301 17.4625 4.33301H11.2915C8.41168 4.33301 6.08398 6.69667 6.08398 9.59351V22.1643C6.08398 25.2035 8.52258 27.6663 11.5318 27.6663H20.7213C23.5908 27.6663 25.9173 25.3178 25.9173 22.4187V13.0492C25.9173 12.7528 25.6828 12.5137 25.3894 12.5148C24.8961 12.5183 24.3047 12.5242 23.9443 12.5242Z" fill="#008060"/>
<path d="M20.7645 4.99526C20.4156 4.63243 19.8066 4.8821 19.8066 5.38493V8.46143C19.8066 9.75176 20.8695 10.8134 22.1598 10.8134C22.973 10.8228 24.1023 10.8251 25.0613 10.8228C25.5525 10.8216 25.8021 10.2348 25.4615 9.8801C24.2306 8.60026 22.0268 6.3066 20.7645 4.99526Z" fill="#008060"/>
<path d="M18.821 19.3754C19.3005 19.3754 19.6902 19.7651 19.6902 20.2446C19.6902 20.7241 19.3005 21.1126 18.821 21.1126H12.4697C11.9902 21.1126 11.6017 20.7241 11.6017 20.2446C11.6017 19.7651 11.9902 19.3754 12.4697 19.3754H18.821ZM16.4187 13.5488C16.8982 13.5488 17.2879 13.9385 17.2879 14.418C17.2879 14.8975 16.8982 15.286 16.4187 15.286H12.4696C11.9901 15.286 11.6016 14.8975 11.6016 14.418C11.6016 13.9385 11.9901 13.5488 12.4696 13.5488H16.4187Z" fill="#008060"/>
</svg>
