<svg width="32" height="32" viewBox="0 0 32 32" fill="none" xmlns="http://www.w3.org/2000/svg">
<rect width="32" height="32" rx="8" fill="#00B37A" fill-opacity="0.1"/>
<g opacity="0.8">
<path opacity="0.5" d="M25.2104 19.8901C24.5742 21.3946 23.5792 22.7203 22.3123 23.7514C21.0454 24.7825 19.5452 25.4875 17.9428 25.8049C16.3405 26.1222 14.6848 26.0422 13.1205 25.5719C11.5563 25.1015 10.131 24.2551 8.96942 23.1067C7.80782 21.9583 6.94522 20.5428 6.45704 18.984C5.96886 17.4252 5.86996 15.7706 6.169 14.1647C6.46804 12.5589 7.1559 11.0507 8.17245 9.77211C9.189 8.49351 10.5033 7.4834 12.0004 6.83008" stroke="#008060" stroke-width="2" stroke-linecap="round" stroke-linejoin="round"/>
<path d="M24 16C25.1046 16 26.0201 15.0958 25.8007 14.0133C25.6733 13.3848 25.4854 12.7685 25.2388 12.1732C24.7362 10.9599 23.9997 9.85752 23.0711 8.92893C22.1425 8.00035 21.0401 7.26375 19.8268 6.7612C19.2315 6.51461 18.6152 6.32674 17.9867 6.19934C16.9042 5.97989 16 6.89543 16 8V14C16 15.1046 16.8954 16 18 16H24Z" fill="#008060"/>
</g>
</svg>
