<svg width="240" height="240" viewBox="0 0 240 240" fill="none" xmlns="http://www.w3.org/2000/svg">
<path d="M240 120C240 186.274 186.274 240 120 240C53.7258 240 0 186.274 0 120C0 53.7258 53.7258 0 120 0C186.274 0 240 53.7258 240 120ZM23.9456 120C23.9456 173.049 66.9506 216.054 120 216.054C173.049 216.054 216.054 173.049 216.054 120C216.054 66.9506 173.049 23.9456 120 23.9456C66.9506 23.9456 23.9456 66.9506 23.9456 120Z" fill="#2C2A64" fill-opacity="0.03"/>
<path d="M85.8106 136.576C83.5066 136.576 81.4266 136.176 79.5706 135.376C77.7146 134.544 76.2266 133.376 75.1066 131.872C74.0186 130.368 73.4746 128.624 73.4746 126.64C73.4746 124.592 74.0026 122.8 75.0586 121.264C76.1466 119.728 77.5706 118.624 79.3306 117.952C77.7946 117.28 76.5786 116.32 75.6826 115.072C74.7866 113.792 74.3386 112.368 74.3386 110.8C74.3386 109.2 74.7706 107.728 75.6346 106.384C76.4986 105.008 77.7786 103.904 79.4746 103.072C81.2026 102.24 83.3146 101.824 85.8106 101.824C88.3066 101.824 90.4026 102.24 92.0986 103.072C93.7946 103.904 95.0746 105.008 95.9386 106.384C96.8026 107.728 97.2346 109.2 97.2346 110.8C97.2346 112.336 96.7706 113.76 95.8426 115.072C94.9466 116.352 93.7466 117.312 92.2426 117.952C94.0346 118.624 95.4586 119.728 96.5146 121.264C97.5706 122.8 98.0986 124.592 98.0986 126.64C98.0986 128.624 97.5546 130.368 96.4666 131.872C95.3786 133.376 93.8906 134.544 92.0026 135.376C90.1466 136.176 88.0826 136.576 85.8106 136.576ZM85.8106 116.128C87.4746 116.128 88.7866 115.696 89.7466 114.832C90.7066 113.968 91.1866 112.864 91.1866 111.52C91.1866 110.048 90.7066 108.896 89.7466 108.064C88.8186 107.232 87.5066 106.816 85.8106 106.816C84.0826 106.816 82.7546 107.232 81.8266 108.064C80.8986 108.896 80.4346 110.048 80.4346 111.52C80.4346 112.896 80.8986 114.016 81.8266 114.88C82.7866 115.712 84.1146 116.128 85.8106 116.128ZM85.8106 131.44C87.8586 131.44 89.4106 130.944 90.4666 129.952C91.5226 128.928 92.0506 127.648 92.0506 126.112C92.0506 124.416 91.4906 123.088 90.3706 122.128C89.2826 121.168 87.7626 120.688 85.8106 120.688C83.8586 120.688 82.3066 121.168 81.1546 122.128C80.0346 123.088 79.4746 124.416 79.4746 126.112C79.4746 127.648 80.0026 128.928 81.0586 129.952C82.1466 130.944 83.7306 131.44 85.8106 131.44ZM114.334 136.576C112.126 136.576 110.126 136.192 108.334 135.424C106.542 134.624 105.102 133.408 104.014 131.776C102.926 130.144 102.35 128.096 102.286 125.632H108.334C108.366 127.264 108.894 128.64 109.918 129.76C110.974 130.848 112.446 131.392 114.334 131.392C116.126 131.392 117.502 130.896 118.462 129.904C119.422 128.912 119.902 127.664 119.902 126.16C119.902 124.4 119.262 123.072 117.982 122.176C116.734 121.248 115.118 120.784 113.134 120.784H110.638V115.744H113.182C114.814 115.744 116.174 115.36 117.262 114.592C118.35 113.824 118.894 112.688 118.894 111.184C118.894 109.936 118.478 108.944 117.646 108.208C116.846 107.44 115.726 107.056 114.286 107.056C112.718 107.056 111.486 107.52 110.59 108.448C109.726 109.376 109.246 110.512 109.15 111.856H103.15C103.278 108.752 104.35 106.304 106.366 104.512C108.414 102.72 111.054 101.824 114.286 101.824C116.59 101.824 118.526 102.24 120.094 103.072C121.694 103.872 122.894 104.944 123.694 106.288C124.526 107.632 124.942 109.12 124.942 110.752C124.942 112.64 124.414 114.24 123.358 115.552C122.334 116.832 121.054 117.696 119.518 118.144C121.406 118.528 122.942 119.456 124.126 120.928C125.31 122.368 125.902 124.192 125.902 126.4C125.902 128.256 125.454 129.952 124.558 131.488C123.662 133.024 122.35 134.256 120.622 135.184C118.926 136.112 116.83 136.576 114.334 136.576ZM137.626 118.912C136.09 118.912 134.698 118.576 133.45 117.904C132.202 117.2 131.21 116.208 130.474 114.928C129.738 113.648 129.37 112.128 129.37 110.368C129.37 108.608 129.738 107.088 130.474 105.808C131.21 104.528 132.202 103.552 133.45 102.88C134.698 102.176 136.106 101.824 137.674 101.824C139.21 101.824 140.586 102.176 141.802 102.88C143.05 103.552 144.042 104.528 144.778 105.808C145.514 107.088 145.882 108.608 145.882 110.368C145.882 112.128 145.514 113.648 144.778 114.928C144.042 116.208 143.05 117.2 141.802 117.904C140.554 118.576 139.162 118.912 137.626 118.912ZM135.802 136L154.762 102.4H160.762L141.802 136H135.802ZM137.626 114.64C138.554 114.64 139.354 114.288 140.026 113.584C140.698 112.848 141.034 111.776 141.034 110.368C141.034 108.96 140.698 107.888 140.026 107.152C139.386 106.416 138.586 106.048 137.626 106.048C136.666 106.048 135.85 106.416 135.178 107.152C134.538 107.888 134.218 108.96 134.218 110.368C134.218 111.776 134.538 112.848 135.178 113.584C135.85 114.288 136.666 114.64 137.626 114.64ZM159.13 136.576C157.594 136.576 156.202 136.24 154.954 135.568C153.706 134.864 152.714 133.872 151.978 132.592C151.242 131.312 150.874 129.792 150.874 128.032C150.874 126.272 151.242 124.768 151.978 123.52C152.714 122.24 153.706 121.264 154.954 120.592C156.202 119.888 157.61 119.536 159.178 119.536C160.714 119.536 162.09 119.888 163.306 120.592C164.554 121.264 165.546 122.24 166.282 123.52C167.018 124.768 167.386 126.272 167.386 128.032C167.386 129.792 167.018 131.312 166.282 132.592C165.546 133.872 164.554 134.864 163.306 135.568C162.09 136.24 160.698 136.576 159.13 136.576ZM159.13 132.304C160.09 132.304 160.89 131.952 161.53 131.248C162.202 130.512 162.538 129.44 162.538 128.032C162.538 126.624 162.202 125.552 161.53 124.816C160.89 124.08 160.09 123.712 159.13 123.712C158.17 123.712 157.354 124.08 156.682 124.816C156.042 125.552 155.722 126.624 155.722 128.032C155.722 129.44 156.042 130.512 156.682 131.248C157.354 131.952 158.17 132.304 159.13 132.304Z" fill="#1E1F24"/>
<path d="M120 0C146.323 3.13894e-07 171.915 8.65497 192.834 24.6316C213.754 40.6082 228.84 63.02 235.769 88.4144C242.697 113.809 241.083 140.777 231.177 165.164C221.27 189.551 203.619 210.004 180.944 223.372C158.268 236.741 131.827 242.283 105.692 239.144C79.5571 236.005 55.1792 224.361 36.3139 206.004C17.4486 187.647 5.14243 163.596 1.29127 137.557C-2.55988 111.517 2.25764 84.9341 15.0017 61.9022L35.9537 73.4954C25.7527 91.9314 21.8965 113.21 24.9792 134.053C28.0618 154.897 37.9123 174.148 53.0132 188.842C68.114 203.536 87.6273 212.857 108.547 215.369C129.467 217.881 150.632 213.446 168.783 202.745C186.933 192.044 201.062 175.672 208.992 156.152C216.922 136.631 218.213 115.044 212.667 94.7172C207.121 74.3901 195.046 56.4505 178.301 43.662C161.556 30.8735 141.07 23.9456 120 23.9456V0Z" fill="#00B37A"/>
</svg>
