<svg width="150" height="151" viewBox="0 0 150 151" fill="none" xmlns="http://www.w3.org/2000/svg">
<g filter="url(#filter0_d)">
<path d="M31.25 50.3611C31.25 39.4712 31.25 34.0262 33.3693 29.8669C35.2335 26.2081 38.2081 23.2335 41.8669 21.3693C46.0262 19.25 51.4712 19.25 62.3611 19.25H87.6389C98.5288 19.25 103.974 19.25 108.133 21.3693C111.792 23.2335 114.766 26.2081 116.631 29.8669C118.75 34.0262 118.75 39.4712 118.75 50.3611V75.6389C118.75 86.5288 118.75 91.9738 116.631 96.1331C114.766 99.7919 111.792 102.766 108.133 104.631C103.974 106.75 98.5288 106.75 87.6389 106.75H62.3611C51.4712 106.75 46.0262 106.75 41.8669 104.631C38.2081 102.766 35.2335 99.7919 33.3693 96.1331C31.25 91.9738 31.25 86.5288 31.25 75.6389V50.3611Z" fill="white"/>
</g>
<path fill-rule="evenodd" clip-rule="evenodd" d="M59.625 39L44 48.375L59.625 57.75L44 67.125L59.625 76.5L75.25 67.125L90.875 76.5L106.5 67.125L90.875 57.75L106.5 48.375L90.875 39L75.25 48.375L59.625 39ZM75.25 48.375L90.875 57.75L75.25 67.125L59.625 57.75L75.25 48.375Z" fill="#0F287F"/>
<path d="M59.625 82.75L75.25 73.375L90.875 82.75L75.25 92.125L59.625 82.75Z" fill="#0F287F"/>
<defs>
<filter id="filter0_d" x="-1.90735e-06" y="0.499999" width="150" height="150" filterUnits="userSpaceOnUse" color-interpolation-filters="sRGB">
<feFlood flood-opacity="0" result="BackgroundImageFix"/>
<feColorMatrix in="SourceAlpha" type="matrix" values="0 0 0 0 0 0 0 0 0 0 0 0 0 0 0 0 0 0 127 0"/>
<feOffset dy="12.5"/>
<feGaussianBlur stdDeviation="15.625"/>
<feColorMatrix type="matrix" values="0 0 0 0 0.117647 0 0 0 0 0.121569 0 0 0 0 0.141176 0 0 0 0.05 0"/>
<feBlend mode="normal" in2="BackgroundImageFix" result="effect1_dropShadow"/>
<feBlend mode="normal" in="SourceGraphic" in2="effect1_dropShadow" result="shape"/>
</filter>
</defs>
</svg>
