<svg width="37" height="36" viewBox="0 0 37 36" fill="none" xmlns="http://www.w3.org/2000/svg">
<path d="M9.66602 31.5C12.1513 31.5 14.166 29.4853 14.166 27C14.166 24.5147 12.1513 22.5 9.66602 22.5C7.18073 22.5 5.16602 24.5147 5.16602 27C5.16602 29.4853 7.18073 31.5 9.66602 31.5Z" stroke="#44C3C3" stroke-width="2" stroke-linecap="round" stroke-linejoin="round"/>
<path d="M14.166 27V7.5L32.166 4.5V24" stroke="#44C3C3" stroke-width="2" stroke-linecap="round" stroke-linejoin="round"/>
<path d="M27.666 28.5C30.1513 28.5 32.166 26.4853 32.166 24C32.166 21.5147 30.1513 19.5 27.666 19.5C25.1807 19.5 23.166 21.5147 23.166 24C23.166 26.4853 25.1807 28.5 27.666 28.5Z" stroke="#44C3C3" stroke-width="2" stroke-linecap="round" stroke-linejoin="round"/>
</svg>
