<svg width="20" height="20" viewBox="0 0 20 20" fill="none" xmlns="http://www.w3.org/2000/svg">
<path d="M11.6667 1.66602H5.00004C4.55801 1.66602 4.13409 1.84161 3.82153 2.15417C3.50897 2.46673 3.33337 2.89065 3.33337 3.33268V16.666C3.33337 17.108 3.50897 17.532 3.82153 17.8445C4.13409 18.1571 4.55801 18.3327 5.00004 18.3327H15C15.4421 18.3327 15.866 18.1571 16.1786 17.8445C16.4911 17.532 16.6667 17.108 16.6667 16.666V6.66602L11.6667 1.66602Z" stroke="#00B37A" stroke-width="1.5" stroke-linecap="round" stroke-linejoin="round"/>
<path d="M13.3333 14.166H6.66663" stroke="#00B37A" stroke-width="1.5" stroke-linecap="round" stroke-linejoin="round"/>
<path d="M13.3333 10.834H6.66663" stroke="#00B37A" stroke-width="1.5" stroke-linecap="round" stroke-linejoin="round"/>
<path d="M8.33329 7.5H7.49996H6.66663" stroke="#00B37A" stroke-width="1.5" stroke-linecap="round" stroke-linejoin="round"/>
<path d="M11.6666 1.66602V6.66602H16.6666" stroke="#00B37A" stroke-width="1.5" stroke-linecap="round" stroke-linejoin="round"/>
</svg>
