<svg width="1194" height="369" viewBox="0 0 1194 369" fill="none" xmlns="http://www.w3.org/2000/svg">
<g clip-path="url(#clip0)">
<rect width="1194" height="369" rx="8" fill="#1E1F24"/>
<circle cx="25" cy="36.5" r="2" fill="white" fill-opacity="0.08"/>
<circle cx="69" cy="36.5" r="2" fill="white" fill-opacity="0.08"/>
<circle cx="113" cy="36.5" r="2" fill="white" fill-opacity="0.08"/>
<circle cx="157" cy="36.5" r="2" fill="white" fill-opacity="0.08"/>
<circle cx="201" cy="36.5" r="2" fill="white" fill-opacity="0.08"/>
<circle cx="245" cy="36.5" r="2" fill="white" fill-opacity="0.08"/>
<circle cx="289" cy="36.5" r="2" fill="white" fill-opacity="0.08"/>
<circle cx="333" cy="36.5" r="2" fill="#00B27A"/>
<circle cx="377" cy="36.5" r="2" fill="white" fill-opacity="0.08"/>
<circle cx="421" cy="36.5" r="2" fill="white" fill-opacity="0.08"/>
<circle cx="465" cy="36.5" r="2" fill="white" fill-opacity="0.08"/>
<circle cx="509" cy="36.5" r="2" fill="white" fill-opacity="0.08"/>
<circle cx="597" cy="36.5" r="2" fill="white" fill-opacity="0.08"/>
<circle cx="641" cy="36.5" r="2" fill="white" fill-opacity="0.08"/>
<circle cx="685" cy="36.5" r="2" fill="white" fill-opacity="0.08"/>
<circle cx="729" cy="36.5" r="2" fill="white" fill-opacity="0.08"/>
<circle cx="773" cy="36.5" r="2" fill="white" fill-opacity="0.08"/>
<circle cx="817" cy="36.5" r="2" fill="white" fill-opacity="0.08"/>
<circle cx="861" cy="36.5" r="2" fill="white" fill-opacity="0.08"/>
<circle cx="905" cy="36.5" r="2" fill="white" fill-opacity="0.08"/>
<circle cx="949" cy="36.5" r="2" fill="white" fill-opacity="0.08"/>
<circle cx="993" cy="36.5" r="2" fill="white" fill-opacity="0.08"/>
<circle cx="1037" cy="36.5" r="2" fill="white" fill-opacity="0.08"/>
<circle cx="1081" cy="36.5" r="2" fill="white" fill-opacity="0.08"/>
<circle cx="1125" cy="36.5" r="2" fill="white" fill-opacity="0.08"/>
<circle cx="1169" cy="36.5" r="2" fill="white" fill-opacity="0.08"/>
<circle cx="25" cy="80.5" r="2" fill="white" fill-opacity="0.08"/>
<circle cx="69" cy="80.5" r="2" fill="white" fill-opacity="0.08"/>
<circle cx="113" cy="80.5" r="2" fill="white" fill-opacity="0.08"/>
<circle cx="157" cy="80.5" r="2" fill="white" fill-opacity="0.08"/>
<circle cx="201" cy="80.5" r="2" fill="white" fill-opacity="0.08"/>
<circle cx="245" cy="80.5" r="2" fill="white" fill-opacity="0.08"/>
<circle cx="289" cy="80.5" r="2" fill="white" fill-opacity="0.08"/>
<circle cx="333" cy="80.5" r="2" fill="white" fill-opacity="0.08"/>
<circle cx="377" cy="80.5" r="2" fill="white" fill-opacity="0.08"/>
<circle cx="421" cy="80.5" r="2" fill="white" fill-opacity="0.08"/>
<circle cx="465" cy="80.5" r="2" fill="white" fill-opacity="0.08"/>
<circle cx="509" cy="80.5" r="2" fill="white" fill-opacity="0.08"/>
<circle cx="597" cy="80.5" r="2" fill="white" fill-opacity="0.08"/>
<circle cx="641" cy="80.5" r="2" fill="white" fill-opacity="0.08"/>
<circle cx="685" cy="80.5" r="2" fill="white" fill-opacity="0.08"/>
<circle cx="729" cy="80.5" r="2" fill="white" fill-opacity="0.08"/>
<circle cx="773" cy="80.5" r="2" fill="white" fill-opacity="0.08"/>
<circle cx="817" cy="80.5" r="2" fill="white" fill-opacity="0.08"/>
<circle cx="861" cy="80.5" r="2" fill="white" fill-opacity="0.08"/>
<circle cx="905" cy="80.5" r="2" fill="white" fill-opacity="0.08"/>
<circle cx="949" cy="80.5" r="2" fill="white" fill-opacity="0.08"/>
<circle cx="993" cy="80.5" r="2" fill="white" fill-opacity="0.08"/>
<circle cx="1037" cy="80.5" r="2" fill="white" fill-opacity="0.08"/>
<circle cx="1081" cy="80.5" r="2" fill="white" fill-opacity="0.08"/>
<circle cx="1125" cy="80.5" r="2" fill="white" fill-opacity="0.08"/>
<circle cx="1169" cy="80.5" r="2" fill="white" fill-opacity="0.08"/>
<circle cx="25" cy="124.5" r="2" fill="white" fill-opacity="0.08"/>
<circle cx="69" cy="124.5" r="2" fill="white" fill-opacity="0.08"/>
<circle cx="113" cy="124.5" r="2" fill="white" fill-opacity="0.08"/>
<circle cx="157" cy="124.5" r="2" fill="white" fill-opacity="0.08"/>
<circle cx="201" cy="124.5" r="2" fill="white" fill-opacity="0.08"/>
<circle cx="245" cy="124.5" r="2" fill="white" fill-opacity="0.08"/>
<circle cx="289" cy="124.5" r="2" fill="white" fill-opacity="0.08"/>
<circle cx="333" cy="124.5" r="2" fill="white" fill-opacity="0.08"/>
<circle cx="377" cy="124.5" r="2" fill="white" fill-opacity="0.08"/>
<circle cx="421" cy="124.5" r="2" fill="white" fill-opacity="0.08"/>
<circle cx="465" cy="124.5" r="2" fill="white" fill-opacity="0.08"/>
<circle cx="509" cy="124.5" r="2" fill="white" fill-opacity="0.08"/>
<circle cx="597" cy="124.5" r="2" fill="white" fill-opacity="0.08"/>
<circle cx="641" cy="124.5" r="2" fill="white" fill-opacity="0.08"/>
<circle cx="685" cy="124.5" r="2" fill="white" fill-opacity="0.08"/>
<circle cx="729" cy="124.5" r="2" fill="white" fill-opacity="0.08"/>
<circle cx="773" cy="124.5" r="2" fill="white" fill-opacity="0.08"/>
<circle cx="817" cy="124.5" r="2" fill="white" fill-opacity="0.08"/>
<circle cx="861" cy="124.5" r="2" fill="white" fill-opacity="0.08"/>
<circle cx="905" cy="124.5" r="2" fill="white" fill-opacity="0.08"/>
<circle cx="949" cy="124.5" r="2" fill="white" fill-opacity="0.08"/>
<circle cx="993" cy="124.5" r="2" fill="white" fill-opacity="0.08"/>
<circle cx="1037" cy="124.5" r="2" fill="white" fill-opacity="0.08"/>
<circle cx="1081" cy="124.5" r="2" fill="white" fill-opacity="0.08"/>
<circle cx="1125" cy="124.5" r="2" fill="white" fill-opacity="0.08"/>
<circle cx="1169" cy="124.5" r="2" fill="white" fill-opacity="0.08"/>
<circle cx="25" cy="168.5" r="2" fill="white" fill-opacity="0.08"/>
<circle cx="69" cy="168.5" r="2" fill="white" fill-opacity="0.08"/>
<circle cx="113" cy="168.5" r="2" fill="white" fill-opacity="0.08"/>
<circle cx="157" cy="168.5" r="2" fill="white" fill-opacity="0.08"/>
<circle cx="201" cy="168.5" r="2" fill="white" fill-opacity="0.08"/>
<circle cx="245" cy="168.5" r="2" fill="white" fill-opacity="0.08"/>
<circle cx="289" cy="168.5" r="2" fill="white" fill-opacity="0.08"/>
<circle cx="333" cy="168.5" r="2" fill="white" fill-opacity="0.08"/>
<circle cx="377" cy="168.5" r="2" fill="white" fill-opacity="0.08"/>
<circle cx="421" cy="168.5" r="2" fill="white" fill-opacity="0.08"/>
<circle cx="465" cy="168.5" r="2" fill="white" fill-opacity="0.08"/>
<circle cx="509" cy="168.5" r="2" fill="white" fill-opacity="0.08"/>
<circle cx="597" cy="168.5" r="2" fill="white" fill-opacity="0.08"/>
<circle cx="641" cy="168.5" r="2" fill="white" fill-opacity="0.08"/>
<circle cx="685" cy="168.5" r="2" fill="white" fill-opacity="0.08"/>
<circle cx="729" cy="168.5" r="2" fill="white" fill-opacity="0.08"/>
<circle cx="773" cy="168.5" r="2" fill="white" fill-opacity="0.08"/>
<circle cx="817" cy="168.5" r="2" fill="white" fill-opacity="0.08"/>
<circle cx="861" cy="168.5" r="2" fill="white" fill-opacity="0.08"/>
<circle cx="905" cy="168.5" r="2" fill="white" fill-opacity="0.08"/>
<circle cx="949" cy="168.5" r="2" fill="white" fill-opacity="0.08"/>
<circle cx="993" cy="168.5" r="2" fill="white" fill-opacity="0.08"/>
<circle cx="1037" cy="168.5" r="2" fill="white" fill-opacity="0.08"/>
<circle cx="1081" cy="168.5" r="2" fill="white" fill-opacity="0.08"/>
<circle cx="1125" cy="168.5" r="2" fill="white" fill-opacity="0.08"/>
<circle cx="1169" cy="168.5" r="2" fill="white" fill-opacity="0.08"/>
<circle cx="25" cy="212.5" r="2" fill="white" fill-opacity="0.08"/>
<circle cx="69" cy="212.5" r="2" fill="white" fill-opacity="0.08"/>
<circle cx="113" cy="212.5" r="2" fill="white" fill-opacity="0.08"/>
<circle cx="157" cy="212.5" r="2" fill="#00B27A"/>
<circle cx="201" cy="212.5" r="2" fill="white" fill-opacity="0.08"/>
<circle cx="245" cy="212.5" r="2" fill="white" fill-opacity="0.08"/>
<circle cx="289" cy="212.5" r="2" fill="white" fill-opacity="0.08"/>
<circle cx="333" cy="212.5" r="2" fill="white" fill-opacity="0.08"/>
<circle cx="377" cy="212.5" r="2" fill="white" fill-opacity="0.08"/>
<circle cx="421" cy="212.5" r="2" fill="white" fill-opacity="0.08"/>
<circle cx="465" cy="212.5" r="2" fill="white" fill-opacity="0.08"/>
<circle cx="509" cy="212.5" r="2" fill="white" fill-opacity="0.08"/>
<circle cx="597" cy="212.5" r="2" fill="white" fill-opacity="0.08"/>
<circle cx="641" cy="212.5" r="2" fill="white" fill-opacity="0.08"/>
<circle cx="685" cy="212.5" r="2" fill="white" fill-opacity="0.08"/>
<circle cx="729" cy="212.5" r="2" fill="white" fill-opacity="0.08"/>
<circle cx="773" cy="212.5" r="2" fill="white" fill-opacity="0.08"/>
<circle cx="817" cy="212.5" r="2" fill="white" fill-opacity="0.08"/>
<circle cx="861" cy="212.5" r="2" fill="white" fill-opacity="0.08"/>
<circle cx="905" cy="212.5" r="2" fill="white" fill-opacity="0.08"/>
<circle cx="949" cy="212.5" r="2" fill="white" fill-opacity="0.08"/>
<circle cx="993" cy="212.5" r="2" fill="white" fill-opacity="0.08"/>
<circle cx="1037" cy="212.5" r="2" fill="#00B27A"/>
<circle cx="1081" cy="212.5" r="2" fill="white" fill-opacity="0.08"/>
<circle cx="1125" cy="212.5" r="2" fill="white" fill-opacity="0.08"/>
<circle cx="1169" cy="212.5" r="2" fill="white" fill-opacity="0.08"/>
<circle cx="25" cy="256.5" r="2" fill="white" fill-opacity="0.08"/>
<circle cx="69" cy="256.5" r="2" fill="white" fill-opacity="0.08"/>
<circle cx="113" cy="256.5" r="2" fill="white" fill-opacity="0.08"/>
<circle cx="157" cy="256.5" r="2" fill="white" fill-opacity="0.08"/>
<circle cx="201" cy="256.5" r="2" fill="white" fill-opacity="0.08"/>
<circle cx="245" cy="256.5" r="2" fill="white" fill-opacity="0.08"/>
<circle cx="289" cy="256.5" r="2" fill="white" fill-opacity="0.08"/>
<circle cx="333" cy="256.5" r="2" fill="white" fill-opacity="0.08"/>
<circle cx="377" cy="256.5" r="2" fill="white" fill-opacity="0.08"/>
<circle cx="421" cy="256.5" r="2" fill="white" fill-opacity="0.08"/>
<circle cx="465" cy="256.5" r="2" fill="white" fill-opacity="0.08"/>
<circle cx="509" cy="256.5" r="2" fill="white" fill-opacity="0.08"/>
<circle cx="597" cy="256.5" r="2" fill="white" fill-opacity="0.08"/>
<circle cx="641" cy="256.5" r="2" fill="white" fill-opacity="0.08"/>
<circle cx="685" cy="256.5" r="2" fill="white" fill-opacity="0.08"/>
<circle cx="729" cy="256.5" r="2" fill="white" fill-opacity="0.08"/>
<circle cx="773" cy="256.5" r="2" fill="white" fill-opacity="0.08"/>
<circle cx="817" cy="256.5" r="2" fill="white" fill-opacity="0.08"/>
<circle cx="861" cy="256.5" r="2" fill="white" fill-opacity="0.08"/>
<circle cx="905" cy="256.5" r="2" fill="white" fill-opacity="0.08"/>
<circle cx="949" cy="256.5" r="2" fill="white" fill-opacity="0.08"/>
<circle cx="993" cy="256.5" r="2" fill="white" fill-opacity="0.08"/>
<circle cx="1037" cy="256.5" r="2" fill="white" fill-opacity="0.08"/>
<circle cx="1081" cy="256.5" r="2" fill="white" fill-opacity="0.08"/>
<circle cx="1125" cy="256.5" r="2" fill="white" fill-opacity="0.08"/>
<circle cx="1169" cy="256.5" r="2" fill="white" fill-opacity="0.08"/>
<circle cx="25" cy="300.5" r="2" fill="white" fill-opacity="0.08"/>
<circle cx="69" cy="300.5" r="2" fill="white" fill-opacity="0.08"/>
<circle cx="113" cy="300.5" r="2" fill="white" fill-opacity="0.08"/>
<circle cx="157" cy="300.5" r="2" fill="white" fill-opacity="0.08"/>
<circle cx="201" cy="300.5" r="2" fill="white" fill-opacity="0.08"/>
<circle cx="245" cy="300.5" r="2" fill="white" fill-opacity="0.08"/>
<circle cx="289" cy="300.5" r="2" fill="white" fill-opacity="0.08"/>
<circle cx="333" cy="300.5" r="2" fill="white" fill-opacity="0.08"/>
<circle cx="377" cy="300.5" r="2" fill="white" fill-opacity="0.08"/>
<circle cx="421" cy="300.5" r="2" fill="white" fill-opacity="0.08"/>
<circle cx="465" cy="300.5" r="2" fill="white" fill-opacity="0.08"/>
<circle cx="509" cy="300.5" r="2" fill="white" fill-opacity="0.08"/>
<circle cx="597" cy="300.5" r="2" fill="white" fill-opacity="0.08"/>
<circle cx="641" cy="300.5" r="2" fill="white" fill-opacity="0.08"/>
<circle cx="685" cy="300.5" r="2" fill="white" fill-opacity="0.08"/>
<circle cx="729" cy="300.5" r="2" fill="white" fill-opacity="0.08"/>
<circle cx="773" cy="300.5" r="2" fill="white" fill-opacity="0.08"/>
<circle cx="817" cy="300.5" r="2" fill="white" fill-opacity="0.08"/>
<circle cx="861" cy="300.5" r="2" fill="#00B27A"/>
<circle cx="905" cy="300.5" r="2" fill="white" fill-opacity="0.08"/>
<circle cx="949" cy="300.5" r="2" fill="white" fill-opacity="0.08"/>
<circle cx="993" cy="300.5" r="2" fill="white" fill-opacity="0.08"/>
<circle cx="1037" cy="300.5" r="2" fill="white" fill-opacity="0.08"/>
<circle cx="1081" cy="300.5" r="2" fill="white" fill-opacity="0.08"/>
<circle cx="1125" cy="300.5" r="2" fill="white" fill-opacity="0.08"/>
<circle cx="1169" cy="300.5" r="2" fill="white" fill-opacity="0.08"/>
<circle cx="25" cy="344.5" r="2" fill="white" fill-opacity="0.08"/>
<circle cx="69" cy="344.5" r="2" fill="white" fill-opacity="0.08"/>
<circle cx="113" cy="344.5" r="2" fill="white" fill-opacity="0.08"/>
<circle cx="157" cy="344.5" r="2" fill="white" fill-opacity="0.08"/>
<circle cx="201" cy="344.5" r="2" fill="white" fill-opacity="0.08"/>
<circle cx="245" cy="344.5" r="2" fill="white" fill-opacity="0.08"/>
<circle cx="289" cy="344.5" r="2" fill="white" fill-opacity="0.08"/>
<circle cx="333" cy="344.5" r="2" fill="white" fill-opacity="0.08"/>
<circle cx="377" cy="344.5" r="2" fill="white" fill-opacity="0.08"/>
<circle cx="421" cy="344.5" r="2" fill="white" fill-opacity="0.08"/>
<circle cx="465" cy="344.5" r="2" fill="#00B27A"/>
<circle cx="509" cy="344.5" r="2" fill="white" fill-opacity="0.08"/>
<circle cx="597" cy="344.5" r="2" fill="white" fill-opacity="0.08"/>
<circle cx="641" cy="344.5" r="2" fill="white" fill-opacity="0.08"/>
<circle cx="685" cy="344.5" r="2" fill="white" fill-opacity="0.08"/>
<circle cx="729" cy="344.5" r="2" fill="white" fill-opacity="0.08"/>
<circle cx="773" cy="344.5" r="2" fill="white" fill-opacity="0.08"/>
<circle cx="817" cy="344.5" r="2" fill="white" fill-opacity="0.08"/>
<circle cx="861" cy="344.5" r="2" fill="white" fill-opacity="0.08"/>
<circle cx="905" cy="344.5" r="2" fill="white" fill-opacity="0.08"/>
<circle cx="949" cy="344.5" r="2" fill="white" fill-opacity="0.08"/>
<circle cx="993" cy="344.5" r="2" fill="white" fill-opacity="0.08"/>
<circle cx="1037" cy="344.5" r="2" fill="white" fill-opacity="0.08"/>
<circle cx="1081" cy="344.5" r="2" fill="white" fill-opacity="0.08"/>
<circle cx="1125" cy="344.5" r="2" fill="white" fill-opacity="0.08"/>
<circle cx="1169" cy="344.5" r="2" fill="white" fill-opacity="0.08"/>
</g>
<defs>
<clipPath id="clip0">
<rect width="1194" height="369" rx="8" fill="white"/>
</clipPath>
</defs>
</svg>
