<svg width="40" height="40" viewBox="0 0 40 40" fill="none" xmlns="http://www.w3.org/2000/svg">
<rect width="40" height="40" rx="4" fill="#2C2A64" fill-opacity="0.03"/>
<path d="M27.1172 28.4306L16.876 11.1805C17.1278 11.0634 17.4051 11 17.6912 11H22.3085C23.0069 11 23.6528 11.3778 24.0047 11.9923L29.7323 21.9922C30.0889 22.6149 30.0889 23.3849 29.7323 24.0076L27.4413 28.0076C27.3512 28.1649 27.2418 28.3067 27.1172 28.4306Z" fill="#FCB900"/>
<path d="M12.8857 28.4306L23.127 11.1805C22.8751 11.0634 22.5978 11 22.3117 11H17.6944C16.996 11 16.3501 11.3778 15.9982 11.9923L10.2707 21.9922C9.91398 22.6149 9.91399 23.3849 10.2707 24.0076L12.5617 28.0076C12.6518 28.1649 12.7611 28.3067 12.8857 28.4306Z" fill="#02AA49"/>
<path d="M16.877 11.1816L20.0017 16.4448L23.1264 11.1816C22.8739 11.0638 22.5958 11 22.3088 11H17.6945C17.4075 11 17.1294 11.0638 16.877 11.1816Z" fill="#01832C"/>
<path d="M29.9998 23H10C10 23.3482 10.0892 23.6964 10.2675 24.0077L12.5585 28.0077C12.9104 28.6221 13.5563 29 14.2548 29H25.7451C26.4435 29 27.0894 28.6221 27.4413 28.0077L29.7323 24.0077C29.9107 23.6964 29.9998 23.3482 29.9998 23Z" fill="#2785FC"/>
<path d="M16.1096 23L12.8855 28.4307C12.7609 28.3068 12.6515 28.165 12.5615 28.0077L10.2704 24.0077C10.0921 23.6964 10.0029 23.3482 10.0029 23H16.1096Z" fill="#0364D7"/>
<path d="M23.8936 23L27.1177 28.4307C27.2423 28.3068 27.3516 28.165 27.4417 28.0077L29.7328 24.0077C29.9111 23.6964 30.0003 23.3482 30.0003 23H23.8936Z" fill="#E54635"/>
</svg>
