<svg width="40" height="40" viewBox="0 0 40 40" fill="none" xmlns="http://www.w3.org/2000/svg">
<rect width="40" height="40" rx="4" fill="#2C2A64" fill-opacity="0.03"/>
<path d="M12.2813 24.8125H27.7187C27.9687 24.8125 28.1562 24.625 28.1562 24.375V14.0625C28.1562 13.8125 27.9687 13.625 27.7187 13.625H12.2813C12.0625 13.625 11.875 13.8125 11.875 14.0625V24.375C11.875 24.625 12.0625 24.8125 12.2813 24.8125Z" fill="#212528"/>
<path d="M10.625 26.3438C10.625 26.8438 11.0312 27.375 11.5625 27.375H28.4375C28.9375 27.375 29.375 26.8438 29.375 26.3438H10.625Z" fill="#212528"/>
<path d="M27.8125 24.8125H12.1875L10.625 26.3437H29.375L27.8125 24.8125Z" fill="#DDDDDD"/>
<path d="M27.2812 24.9375H12.7187L12.1875 25.5625H27.8125L27.2812 24.9375Z" fill="#BFBEBE"/>
<path d="M21.5937 25.8438H18.4062L18.1562 26.1875H21.8437L21.5937 25.8438Z" fill="#212528"/>
<path d="M12.8125 14.5625H27.1875V23.875H12.8125V14.5625Z" fill="#3E4347"/>
<path d="M20 14.375C20.1381 14.375 20.25 14.2631 20.25 14.125C20.25 13.9869 20.1381 13.875 20 13.875C19.8619 13.875 19.75 13.9869 19.75 14.125C19.75 14.2631 19.8619 14.375 20 14.375Z" fill="#DDDDDD"/>
<path d="M21.3437 27H18.6562C18.5625 27 18.3125 27 18.3125 26.6875H21.6875C21.6875 27 21.4375 27 21.3437 27Z" fill="#3E4347"/>
</svg>
