<svg width="40" height="40" viewBox="0 0 40 40" fill="none" xmlns="http://www.w3.org/2000/svg">
<rect width="40" height="40" rx="4" fill="#2C2A64" fill-opacity="0.03"/>
<path d="M14 29C15.6569 29 17 27.6569 17 26C17 24.3431 15.6569 23 14 23C12.3431 23 11 24.3431 11 26C11 27.6569 12.3431 29 14 29Z" stroke="#44C3C3" stroke-width="2" stroke-linecap="round" stroke-linejoin="round"/>
<path d="M17 26V13L29 11V24" stroke="#44C3C3" stroke-width="2" stroke-linecap="round" stroke-linejoin="round"/>
<path d="M26 27C27.6569 27 29 25.6569 29 24C29 22.3431 27.6569 21 26 21C24.3431 21 23 22.3431 23 24C23 25.6569 24.3431 27 26 27Z" stroke="#44C3C3" stroke-width="2" stroke-linecap="round" stroke-linejoin="round"/>
</svg>
