<svg width="150" height="151" viewBox="0 0 150 151" fill="none" xmlns="http://www.w3.org/2000/svg">
<g filter="url(#filter0_d)">
<path d="M31.25 50.3611C31.25 39.4712 31.25 34.0262 33.3693 29.8669C35.2335 26.2081 38.2081 23.2335 41.8669 21.3693C46.0262 19.25 51.4712 19.25 62.3611 19.25H87.6389C98.5288 19.25 103.974 19.25 108.133 21.3693C111.792 23.2335 114.766 26.2081 116.631 29.8669C118.75 34.0262 118.75 39.4712 118.75 50.3611V75.6389C118.75 86.5288 118.75 91.9738 116.631 96.1331C114.766 99.7919 111.792 102.766 108.133 104.631C103.974 106.75 98.5288 106.75 87.6389 106.75H62.3611C51.4712 106.75 46.0262 106.75 41.8669 104.631C38.2081 102.766 35.2335 99.7919 33.3693 96.1331C31.25 91.9738 31.25 86.5288 31.25 75.6389V50.3611Z" fill="white"/>
</g>
<path d="M97.2425 89.3461L65.2383 35.439C66.0254 35.0731 66.8919 34.875 67.786 34.875H82.215C84.3976 34.875 86.416 36.0557 87.5158 37.9758L105.415 69.2258C106.529 71.1718 106.529 73.5782 105.415 75.5242L98.255 88.0242C97.9735 88.5157 97.6317 88.9588 97.2425 89.3461Z" fill="#FCB900"/>
<path d="M52.7673 89.3461L84.7715 35.439C83.9844 35.0731 83.1179 34.875 82.2238 34.875H67.7948C65.6122 34.875 63.5938 36.0557 62.494 37.9758L44.5952 69.2258C43.4806 71.1718 43.4806 73.5782 44.5952 75.5242L51.7548 88.0242C52.0363 88.5157 52.378 88.9588 52.7673 89.3461Z" fill="#02AA49"/>
<path d="M65.2402 35.4424L75.005 51.89L84.7699 35.4424C83.9808 35.0743 83.1117 34.875 82.2149 34.875H67.7952C66.8983 34.875 66.0293 35.0743 65.2402 35.4424Z" fill="#01832C"/>
<path d="M106.25 72.375H43.75C43.75 73.4631 44.0286 74.5512 44.5859 75.5242L51.7455 88.0242C52.8452 89.9443 54.8636 91.125 57.0462 91.125H92.9538C95.1364 91.125 97.1548 89.9443 98.2545 88.0242L105.414 75.5242C105.971 74.5512 106.25 73.4631 106.25 72.375Z" fill="#2785FC"/>
<path d="M62.8424 72.375L52.7668 89.3461C52.3775 88.9588 52.0358 88.5157 51.7542 88.0242L44.5947 75.5242C44.0374 74.5512 43.7588 73.4631 43.7588 72.375H62.8424Z" fill="#0364D7"/>
<path d="M87.166 72.375L97.2416 89.3461C97.6309 88.9588 97.9726 88.5157 98.2542 88.0242L105.414 75.5242C105.971 74.5512 106.25 73.4631 106.25 72.375H87.166Z" fill="#E54635"/>
<defs>
<filter id="filter0_d" x="-1.90735e-06" y="0.499999" width="150" height="150" filterUnits="userSpaceOnUse" color-interpolation-filters="sRGB">
<feFlood flood-opacity="0" result="BackgroundImageFix"/>
<feColorMatrix in="SourceAlpha" type="matrix" values="0 0 0 0 0 0 0 0 0 0 0 0 0 0 0 0 0 0 127 0"/>
<feOffset dy="12.5"/>
<feGaussianBlur stdDeviation="15.625"/>
<feColorMatrix type="matrix" values="0 0 0 0 0.117647 0 0 0 0 0.121569 0 0 0 0 0.141176 0 0 0 0.05 0"/>
<feBlend mode="normal" in2="BackgroundImageFix" result="effect1_dropShadow"/>
<feBlend mode="normal" in="SourceGraphic" in2="effect1_dropShadow" result="shape"/>
</filter>
</defs>
</svg>
