<svg width="16" height="16" viewBox="0 0 16 16" fill="none" xmlns="http://www.w3.org/2000/svg">
<path d="M13.9163 6.80309V12.6654C13.9163 13.3557 13.3567 13.9154 12.6663 13.9154H3.33301C2.64265 13.9154 2.08301 13.3557 2.08301 12.6654V6.80309C2.08301 6.20403 2.56864 5.7184 3.1677 5.7184C4.41377 5.7184 5.37983 4.8421 5.83309 3.87248C6.28784 2.89969 6.98013 2.08203 7.99967 2.08203C9.01922 2.08203 9.71151 2.89969 10.1663 3.87248C10.6195 4.8421 11.5856 5.7184 12.8316 5.7184C13.4307 5.7184 13.9163 6.20403 13.9163 6.80309Z" stroke="#77777D" stroke-width="1.5"/>
<rect x="6.08301" y="10.75" width="3.83333" height="3.16667" rx="1.25" stroke="#77777D" stroke-width="1.5"/>
<circle cx="5.33366" cy="7.9987" r="0.5" stroke="#77777D" stroke-width="0.333333"/>
<mask id="path-4-inside-1" fill="white">
<ellipse cx="10.6667" cy="7.9987" rx="0.666667" ry="0.666667"/>
</mask>
<path d="M10.3333 7.9987C10.3333 7.8146 10.4826 7.66536 10.6667 7.66536V9.66536C11.5871 9.66536 12.3333 8.91917 12.3333 7.9987H10.3333ZM10.6667 7.66536C10.8508 7.66536 11 7.8146 11 7.9987H9C9 8.91917 9.74619 9.66536 10.6667 9.66536V7.66536ZM11 7.9987C11 8.18279 10.8508 8.33203 10.6667 8.33203V6.33203C9.74619 6.33203 9 7.07822 9 7.9987H11ZM10.6667 8.33203C10.4826 8.33203 10.3333 8.18279 10.3333 7.9987H12.3333C12.3333 7.07822 11.5871 6.33203 10.6667 6.33203V8.33203Z" fill="#77777D" mask="url(#path-4-inside-1)"/>
<circle cx="7.99967" cy="7.9987" r="0.5" stroke="#77777D" stroke-width="0.333333"/>
<circle cx="7.99967" cy="5.33464" r="0.5" stroke="#77777D" stroke-width="0.333333"/>
</svg>
