<svg width="24" height="24" viewBox="0 0 24 24" fill="none" xmlns="http://www.w3.org/2000/svg">
<path d="M21 9.45455V20C21 20.5523 20.5523 21 20 21H4C3.44772 21 3 20.5523 3 20V9.45455C3 8.90226 3.44772 8.45455 4 8.45455H5.36633C6.80806 8.45455 7.94634 7.45012 8.41665 6.26801C8.71384 5.52103 9.15504 4.67659 9.7657 4.03277C10.3607 3.40547 11.0813 3 12 3C12.9187 3 13.6393 3.40547 14.2343 4.03277C14.845 4.67659 15.2862 5.52103 15.5834 6.26801C16.0537 7.45012 17.1919 8.45455 18.6337 8.45455H20C20.5523 8.45455 21 8.90226 21 9.45455Z" stroke="#00B27A" stroke-width="2"/>
<rect x="9" y="16" width="6" height="5" rx="1" stroke="#00B27A" stroke-width="2"/>
<circle cx="8" cy="12" r="0.5" stroke="#00B27A"/>
<circle cx="16" cy="12" r="0.5" stroke="#00B27A"/>
<circle cx="12" cy="12" r="0.5" stroke="#00B27A"/>
<circle cx="12" cy="8" r="0.5" stroke="#00B27A"/>
</svg>
