<svg width="24" height="24" viewBox="0 0 24 24" fill="none" xmlns="http://www.w3.org/2000/svg">
<path d="M19.28 8.625L19.955 12H4.295L4.97 8.625H19.28ZM21.125 4.125C21.125 3.50368 20.6213 3 20 3H4.25C3.62868 3 3.125 3.50368 3.125 4.125V4.125C3.125 4.74632 3.62868 5.25 4.25 5.25H20C20.6213 5.25 21.125 4.74632 21.125 4.125V4.125ZM21.2858 7.17888C21.1923 6.71146 20.7819 6.375 20.3052 6.375H3.9448C3.46812 6.375 3.05771 6.71146 2.96422 7.17888L2 12V13.25C2 13.8023 2.44772 14.25 3 14.25H3.125V20C3.125 20.5523 3.57272 21 4.125 21H13.375C13.9273 21 14.375 20.5523 14.375 20V14.25H18.875V19.875C18.875 20.4963 19.3787 21 20 21V21C20.6213 21 21.125 20.4963 21.125 19.875V14.25H21.25C21.8023 14.25 22.25 13.8023 22.25 13.25V12L21.2858 7.17888ZM5.375 18.75V14.25H12.125V18.75H5.375Z" fill="#78797C"/>
</svg>
