<svg width="479" height="358" viewBox="0 0 479 358" fill="none" xmlns="http://www.w3.org/2000/svg">
<g clip-path="url(#clip0)">
<rect width="479" height="358" rx="8" fill="black" fill-opacity="0.02"/>
<circle cx="19" cy="4" r="2" fill="#14172E" fill-opacity="0.06"/>
<circle cx="53" cy="4" r="2" fill="#14172E" fill-opacity="0.06"/>
<circle cx="87" cy="4" r="2" fill="#14172E" fill-opacity="0.06"/>
<circle cx="121" cy="4" r="2" fill="#14172E" fill-opacity="0.06"/>
<circle cx="155" cy="4" r="2" fill="#14172E" fill-opacity="0.06"/>
<circle cx="189" cy="4" r="2" fill="#14172E" fill-opacity="0.06"/>
<circle cx="223" cy="4" r="2" fill="#14172E" fill-opacity="0.06"/>
<circle cx="257" cy="4" r="2" fill="#14172E" fill-opacity="0.06"/>
<circle cx="291" cy="4" r="2" fill="#14172E" fill-opacity="0.06"/>
<circle cx="325" cy="4" r="2" fill="#14172E" fill-opacity="0.06"/>
<circle cx="359" cy="4" r="2" fill="#14172E" fill-opacity="0.06"/>
<circle cx="393" cy="4" r="2" fill="#14172E" fill-opacity="0.06"/>
<circle cx="427" cy="4" r="2" fill="#14172E" fill-opacity="0.06"/>
<circle cx="461" cy="4" r="2" fill="#14172E" fill-opacity="0.06"/>
<circle cx="19" cy="43" r="2" fill="#14172E" fill-opacity="0.06"/>
<circle cx="53" cy="43" r="2" fill="#14172E" fill-opacity="0.06"/>
<circle cx="87" cy="43" r="2" fill="#14172E" fill-opacity="0.06"/>
<circle cx="121" cy="43" r="2" fill="#14172E" fill-opacity="0.06"/>
<circle cx="155" cy="43" r="2" fill="#1E1F24"/>
<circle cx="189" cy="43" r="2" fill="#14172E" fill-opacity="0.06"/>
<circle cx="223" cy="43" r="2" fill="#14172E" fill-opacity="0.06"/>
<circle cx="257" cy="43" r="2" fill="#14172E" fill-opacity="0.06"/>
<circle cx="291" cy="43" r="2" fill="#14172E" fill-opacity="0.06"/>
<circle cx="325" cy="43" r="2" fill="#14172E" fill-opacity="0.06"/>
<circle cx="359" cy="43" r="2" fill="#14172E" fill-opacity="0.06"/>
<circle cx="393" cy="43" r="2" fill="#14172E" fill-opacity="0.06"/>
<circle cx="427" cy="43" r="2" fill="#1E1F24"/>
<circle cx="461" cy="43" r="2" fill="#14172E" fill-opacity="0.06"/>
<circle cx="19" cy="82" r="2" fill="#14172E" fill-opacity="0.06"/>
<circle cx="53" cy="82" r="2" fill="#14172E" fill-opacity="0.06"/>
<circle cx="87" cy="82" r="2" fill="#14172E" fill-opacity="0.06"/>
<circle cx="121" cy="82" r="2" fill="#14172E" fill-opacity="0.06"/>
<circle cx="155" cy="82" r="2" fill="#14172E" fill-opacity="0.06"/>
<circle cx="189" cy="82" r="2" fill="#14172E" fill-opacity="0.06"/>
<circle cx="223" cy="82" r="2" fill="#14172E" fill-opacity="0.06"/>
<circle cx="257" cy="82" r="2" fill="#14172E" fill-opacity="0.06"/>
<circle cx="291" cy="82" r="2" fill="#14172E" fill-opacity="0.06"/>
<circle cx="325" cy="82" r="2" fill="#14172E" fill-opacity="0.06"/>
<circle cx="359" cy="82" r="2" fill="#14172E" fill-opacity="0.06"/>
<circle cx="393" cy="82" r="2" fill="#14172E" fill-opacity="0.06"/>
<circle cx="427" cy="82" r="2" fill="#14172E" fill-opacity="0.06"/>
<circle cx="461" cy="82" r="2" fill="#14172E" fill-opacity="0.06"/>
<circle cx="19" cy="121" r="2" fill="#14172E" fill-opacity="0.06"/>
<circle cx="53" cy="121" r="2" fill="#14172E" fill-opacity="0.06"/>
<circle cx="87" cy="121" r="2" fill="#14172E" fill-opacity="0.06"/>
<circle cx="121" cy="121" r="2" fill="#14172E" fill-opacity="0.06"/>
<circle cx="155" cy="121" r="2" fill="#14172E" fill-opacity="0.06"/>
<circle cx="189" cy="121" r="2" fill="#14172E" fill-opacity="0.06"/>
<circle cx="223" cy="121" r="2" fill="#14172E" fill-opacity="0.06"/>
<circle cx="257" cy="121" r="2" fill="#14172E" fill-opacity="0.06"/>
<circle cx="291" cy="121" r="2" fill="#14172E" fill-opacity="0.06"/>
<circle cx="325" cy="121" r="2" fill="#14172E" fill-opacity="0.06"/>
<circle cx="359" cy="121" r="2" fill="#14172E" fill-opacity="0.06"/>
<circle cx="393" cy="121" r="2" fill="#14172E" fill-opacity="0.06"/>
<circle cx="427" cy="121" r="2" fill="#14172E" fill-opacity="0.06"/>
<circle cx="461" cy="121" r="2" fill="#14172E" fill-opacity="0.06"/>
<circle cx="19" cy="160" r="2" fill="#14172E" fill-opacity="0.06"/>
<circle cx="53" cy="160" r="2" fill="#14172E" fill-opacity="0.06"/>
<circle cx="87" cy="160" r="2" fill="#14172E" fill-opacity="0.06"/>
<circle cx="121" cy="160" r="2" fill="#14172E" fill-opacity="0.06"/>
<circle cx="155" cy="160" r="2" fill="#14172E" fill-opacity="0.06"/>
<circle cx="189" cy="160" r="2" fill="#14172E" fill-opacity="0.06"/>
<circle cx="223" cy="160" r="2" fill="#14172E" fill-opacity="0.06"/>
<circle cx="257" cy="160" r="2" fill="#14172E" fill-opacity="0.06"/>
<circle cx="291" cy="160" r="2" fill="#14172E" fill-opacity="0.06"/>
<circle cx="325" cy="160" r="2" fill="#14172E" fill-opacity="0.06"/>
<circle cx="359" cy="160" r="2" fill="#14172E" fill-opacity="0.06"/>
<circle cx="393" cy="160" r="2" fill="#14172E" fill-opacity="0.06"/>
<circle cx="427" cy="160" r="2" fill="#14172E" fill-opacity="0.06"/>
<circle cx="461" cy="160" r="2" fill="#14172E" fill-opacity="0.06"/>
<circle cx="19" cy="199" r="2" fill="#1E1F24"/>
<circle cx="53" cy="199" r="2" fill="#14172E" fill-opacity="0.06"/>
<circle cx="87" cy="199" r="2" fill="#14172E" fill-opacity="0.06"/>
<circle cx="121" cy="199" r="2" fill="#14172E" fill-opacity="0.06"/>
<circle cx="155" cy="199" r="2" fill="#14172E" fill-opacity="0.06"/>
<circle cx="189" cy="199" r="2" fill="#14172E" fill-opacity="0.06"/>
<circle cx="223" cy="199" r="2" fill="#14172E" fill-opacity="0.06"/>
<circle cx="257" cy="199" r="2" fill="#14172E" fill-opacity="0.06"/>
<circle cx="291" cy="199" r="2" fill="#14172E" fill-opacity="0.06"/>
<circle cx="325" cy="199" r="2" fill="#14172E" fill-opacity="0.06"/>
<circle cx="359" cy="199" r="2" fill="#14172E" fill-opacity="0.06"/>
<circle cx="393" cy="199" r="2" fill="#14172E" fill-opacity="0.06"/>
<circle cx="427" cy="199" r="2" fill="#14172E" fill-opacity="0.06"/>
<circle cx="461" cy="199" r="2" fill="#14172E" fill-opacity="0.06"/>
<circle cx="19" cy="238" r="2" fill="#14172E" fill-opacity="0.06"/>
<circle cx="53" cy="238" r="2" fill="#14172E" fill-opacity="0.06"/>
<circle cx="87" cy="238" r="2" fill="#14172E" fill-opacity="0.06"/>
<circle cx="121" cy="238" r="2" fill="#14172E" fill-opacity="0.06"/>
<circle cx="155" cy="238" r="2" fill="#14172E" fill-opacity="0.06"/>
<circle cx="189" cy="238" r="2" fill="#14172E" fill-opacity="0.06"/>
<circle cx="223" cy="238" r="2" fill="#14172E" fill-opacity="0.06"/>
<circle cx="257" cy="238" r="2" fill="#14172E" fill-opacity="0.06"/>
<circle cx="291" cy="238" r="2" fill="#14172E" fill-opacity="0.06"/>
<circle cx="325" cy="238" r="2" fill="#14172E" fill-opacity="0.06"/>
<circle cx="359" cy="238" r="2" fill="#14172E" fill-opacity="0.06"/>
<circle cx="393" cy="238" r="2" fill="#14172E" fill-opacity="0.06"/>
<circle cx="427" cy="238" r="2" fill="#14172E" fill-opacity="0.06"/>
<circle cx="461" cy="238" r="2" fill="#14172E" fill-opacity="0.06"/>
<circle cx="19" cy="277" r="2" fill="#14172E" fill-opacity="0.06"/>
<circle cx="53" cy="277" r="2" fill="#14172E" fill-opacity="0.06"/>
<circle cx="87" cy="277" r="2" fill="#14172E" fill-opacity="0.06"/>
<circle cx="121" cy="277" r="2" fill="#14172E" fill-opacity="0.06"/>
<circle cx="155" cy="277" r="2" fill="#14172E" fill-opacity="0.06"/>
<circle cx="189" cy="277" r="2" fill="#14172E" fill-opacity="0.06"/>
<circle cx="223" cy="277" r="2" fill="#14172E" fill-opacity="0.06"/>
<circle cx="257" cy="277" r="2" fill="#14172E" fill-opacity="0.06"/>
<circle cx="291" cy="277" r="2" fill="#14172E" fill-opacity="0.06"/>
<circle cx="325" cy="277" r="2" fill="#14172E" fill-opacity="0.06"/>
<circle cx="359" cy="277" r="2" fill="#14172E" fill-opacity="0.06"/>
<circle cx="393" cy="277" r="2" fill="#14172E" fill-opacity="0.06"/>
<circle cx="427" cy="277" r="2" fill="#14172E" fill-opacity="0.06"/>
<circle cx="461" cy="277" r="2" fill="#14172E" fill-opacity="0.06"/>
<circle cx="19" cy="316" r="2" fill="#14172E" fill-opacity="0.06"/>
<circle cx="53" cy="316" r="2" fill="#14172E" fill-opacity="0.06"/>
<circle cx="87" cy="316" r="2" fill="#14172E" fill-opacity="0.06"/>
<circle cx="121" cy="316" r="2" fill="#14172E" fill-opacity="0.06"/>
<circle cx="155" cy="316" r="2" fill="#14172E" fill-opacity="0.06"/>
<circle cx="189" cy="316" r="2" fill="#1E1F24"/>
<circle cx="223" cy="316" r="2" fill="#14172E" fill-opacity="0.06"/>
<circle cx="257" cy="316" r="2" fill="#14172E" fill-opacity="0.06"/>
<circle cx="291" cy="316" r="2" fill="#14172E" fill-opacity="0.06"/>
<circle cx="325" cy="316" r="2" fill="#14172E" fill-opacity="0.06"/>
<circle cx="359" cy="316" r="2" fill="#14172E" fill-opacity="0.06"/>
<circle cx="393" cy="316" r="2" fill="#14172E" fill-opacity="0.06"/>
<circle cx="427" cy="316" r="2" fill="#14172E" fill-opacity="0.06"/>
<circle cx="461" cy="316" r="2" fill="#14172E" fill-opacity="0.06"/>
<circle cx="19" cy="355" r="2" fill="#14172E" fill-opacity="0.06"/>
<circle cx="53" cy="355" r="2" fill="#14172E" fill-opacity="0.06"/>
<circle cx="87" cy="355" r="2" fill="#14172E" fill-opacity="0.06"/>
<circle cx="121" cy="355" r="2" fill="#14172E" fill-opacity="0.06"/>
<circle cx="155" cy="355" r="2" fill="#14172E" fill-opacity="0.06"/>
<circle cx="189" cy="355" r="2" fill="#14172E" fill-opacity="0.06"/>
<circle cx="223" cy="355" r="2" fill="#14172E" fill-opacity="0.06"/>
<circle cx="257" cy="355" r="2" fill="#14172E" fill-opacity="0.06"/>
<circle cx="291" cy="355" r="2" fill="#14172E" fill-opacity="0.06"/>
<circle cx="325" cy="355" r="2" fill="#14172E" fill-opacity="0.06"/>
<circle cx="359" cy="355" r="2" fill="#14172E" fill-opacity="0.06"/>
<circle cx="393" cy="355" r="2" fill="#14172E" fill-opacity="0.06"/>
<circle cx="427" cy="355" r="2" fill="#14172E" fill-opacity="0.06"/>
</g>
<defs>
<clipPath id="clip0">
<rect width="479" height="358" rx="8" fill="white"/>
</clipPath>
</defs>
</svg>
