<svg width="1058" height="343" viewBox="0 0 1058 343" fill="none" xmlns="http://www.w3.org/2000/svg">
<g filter="url(#filter0_ii)">
<rect x="74" y="16" width="972" height="81.6" fill="white"/>
</g>
<g filter="url(#filter1_i)">
<rect x="74" y="97.6001" width="972" height="81.6" fill="white"/>
</g>
<g filter="url(#filter2_i)">
<rect x="74" y="179.2" width="972" height="81.6" fill="white"/>
</g>
<g filter="url(#filter3_i)">
<rect x="74" y="260.8" width="972" height="81.6" fill="white"/>
</g>
<path opacity="0.7" d="M75.408 50.672H82.432V51.92H76.752V55.664H82.032V56.912H76.752V62H75.408V50.672ZM84.1866 49.904H85.4346V62H84.1866V49.904ZM87.4864 58.256C87.4864 57.6693 87.5877 57.136 87.7904 56.656C87.993 56.176 88.2704 55.7653 88.6224 55.424C88.9744 55.072 89.3957 54.8 89.8864 54.608C90.377 54.416 90.9104 54.32 91.4864 54.32C92.0624 54.32 92.5957 54.416 93.0864 54.608C93.577 54.8 93.9984 55.072 94.3504 55.424C94.7024 55.7653 94.9797 56.176 95.1824 56.656C95.385 57.136 95.4864 57.6693 95.4864 58.256C95.4864 58.8427 95.385 59.376 95.1824 59.856C94.9797 60.336 94.7024 60.752 94.3504 61.104C93.9984 61.4453 93.577 61.712 93.0864 61.904C92.5957 62.096 92.0624 62.192 91.4864 62.192C90.9104 62.192 90.377 62.096 89.8864 61.904C89.3957 61.712 88.9744 61.4453 88.6224 61.104C88.2704 60.752 87.993 60.336 87.7904 59.856C87.5877 59.376 87.4864 58.8427 87.4864 58.256ZM88.8304 58.256C88.8304 58.6507 88.889 59.0187 89.0064 59.36C89.1344 59.6907 89.3157 59.984 89.5504 60.24C89.785 60.4853 90.0624 60.6827 90.3824 60.832C90.713 60.9707 91.081 61.04 91.4864 61.04C91.8917 61.04 92.2544 60.9707 92.5744 60.832C92.905 60.6827 93.1877 60.4853 93.4224 60.24C93.657 59.984 93.833 59.6907 93.9504 59.36C94.0784 59.0187 94.1424 58.6507 94.1424 58.256C94.1424 57.8613 94.0784 57.4987 93.9504 57.168C93.833 56.8267 93.657 56.5333 93.4224 56.288C93.1877 56.032 92.905 55.8347 92.5744 55.696C92.2544 55.5467 91.8917 55.472 91.4864 55.472C91.081 55.472 90.713 55.5467 90.3824 55.696C90.0624 55.8347 89.785 56.032 89.5504 56.288C89.3157 56.5333 89.1344 56.8267 89.0064 57.168C88.889 57.4987 88.8304 57.8613 88.8304 58.256ZM103.946 60.224C103.946 60.5653 103.957 60.8853 103.978 61.184C104 61.4827 104.01 61.7547 104.01 62H102.826C102.826 61.7973 102.821 61.5947 102.81 61.392C102.8 61.1893 102.794 60.9813 102.794 60.768H102.762C102.677 60.9493 102.554 61.1253 102.394 61.296C102.245 61.4667 102.064 61.6213 101.85 61.76C101.637 61.888 101.397 61.9893 101.13 62.064C100.864 62.1493 100.576 62.192 100.266 62.192C99.7757 62.192 99.349 62.1173 98.9864 61.968C98.6344 61.8187 98.341 61.6107 98.1064 61.344C97.8717 61.0773 97.6957 60.7573 97.5784 60.384C97.4717 60 97.4184 59.584 97.4184 59.136V54.512H98.6664V59.008C98.6664 59.6373 98.805 60.1333 99.0824 60.496C99.3597 60.8587 99.7917 61.04 100.378 61.04C100.784 61.04 101.13 60.9707 101.418 60.832C101.717 60.6933 101.957 60.496 102.138 60.24C102.33 59.984 102.469 59.68 102.554 59.328C102.65 58.976 102.698 58.5867 102.698 58.16V54.512H103.946V60.224ZM106.309 56.288C106.309 55.9467 106.298 55.6267 106.277 55.328C106.256 55.0293 106.245 54.7573 106.245 54.512H107.429C107.429 54.7147 107.434 54.9173 107.445 55.12C107.456 55.3227 107.461 55.5307 107.461 55.744H107.493C107.578 55.5627 107.696 55.3867 107.845 55.216C108.005 55.0453 108.192 54.896 108.405 54.768C108.618 54.6293 108.858 54.5227 109.125 54.448C109.392 54.3627 109.68 54.32 109.989 54.32C110.074 54.32 110.16 54.3253 110.245 54.336C110.33 54.3467 110.416 54.368 110.501 54.4L110.421 55.664C110.208 55.6 109.984 55.568 109.749 55.568C108.981 55.568 108.421 55.8187 108.069 56.32C107.728 56.8107 107.557 57.488 107.557 58.352V62H106.309V56.288Z" fill="black"/>
<path opacity="0.7" d="M80.672 142.288C79.808 142.288 79.0133 142.139 78.288 141.84C77.5733 141.541 76.9493 141.131 76.416 140.608C75.8933 140.075 75.4827 139.445 75.184 138.72C74.896 137.984 74.752 137.189 74.752 136.336C74.752 135.483 74.896 134.693 75.184 133.968C75.4827 133.232 75.8933 132.603 76.416 132.08C76.9493 131.547 77.5733 131.131 78.288 130.832C79.0133 130.533 79.808 130.384 80.672 130.384C81.536 130.384 82.3253 130.533 83.04 130.832C83.7653 131.131 84.3893 131.547 84.912 132.08C85.4453 132.603 85.856 133.232 86.144 133.968C86.4427 134.693 86.592 135.483 86.592 136.336C86.592 137.189 86.4427 137.984 86.144 138.72C85.856 139.445 85.4453 140.075 84.912 140.608C84.3893 141.131 83.7653 141.541 83.04 141.84C82.3253 142.139 81.536 142.288 80.672 142.288ZM80.672 141.04C81.3333 141.04 81.936 140.917 82.48 140.672C83.0347 140.427 83.5093 140.091 83.904 139.664C84.2987 139.237 84.6027 138.741 84.816 138.176C85.04 137.6 85.152 136.987 85.152 136.336C85.152 135.685 85.04 135.077 84.816 134.512C84.6027 133.936 84.2987 133.435 83.904 133.008C83.5093 132.581 83.0347 132.245 82.48 132C81.936 131.755 81.3333 131.632 80.672 131.632C80.0107 131.632 79.4027 131.755 78.848 132C78.304 132.245 77.8347 132.581 77.44 133.008C77.0453 133.435 76.736 133.936 76.512 134.512C76.2987 135.077 76.192 135.685 76.192 136.336C76.192 136.987 76.2987 137.6 76.512 138.176C76.736 138.741 77.0453 139.237 77.44 139.664C77.8347 140.091 78.304 140.427 78.848 140.672C79.4027 140.917 80.0107 141.04 80.672 141.04ZM88.6398 134.512H89.8878V142H88.6398V134.512ZM88.3518 131.584C88.3518 131.339 88.4371 131.125 88.6078 130.944C88.7891 130.763 89.0078 130.672 89.2638 130.672C89.5198 130.672 89.7331 130.763 89.9038 130.944C90.0851 131.125 90.1758 131.339 90.1758 131.584C90.1758 131.851 90.0904 132.069 89.9198 132.24C89.7491 132.411 89.5304 132.496 89.2638 132.496C88.9971 132.496 88.7784 132.411 88.6078 132.24C88.4371 132.069 88.3518 131.851 88.3518 131.584ZM92.4835 129.904H93.7315V142H92.4835V129.904Z" fill="black"/>
<path opacity="0.7" d="M80.784 212.672C80.56 212.309 80.2613 212.048 79.888 211.888C79.5147 211.717 79.1253 211.632 78.72 211.632C78.4213 211.632 78.128 211.669 77.84 211.744C77.552 211.819 77.2907 211.931 77.056 212.08C76.832 212.229 76.6507 212.427 76.512 212.672C76.3733 212.917 76.304 213.205 76.304 213.536C76.304 213.792 76.3413 214.021 76.416 214.224C76.5013 214.416 76.6347 214.592 76.816 214.752C76.9973 214.912 77.2427 215.061 77.552 215.2C77.8613 215.339 78.24 215.477 78.688 215.616C79.1253 215.755 79.5467 215.904 79.952 216.064C80.368 216.224 80.7307 216.427 81.04 216.672C81.36 216.917 81.6107 217.227 81.792 217.6C81.984 217.963 82.08 218.421 82.08 218.976C82.08 219.541 81.968 220.032 81.744 220.448C81.52 220.864 81.2213 221.211 80.848 221.488C80.4853 221.755 80.064 221.952 79.584 222.08C79.104 222.219 78.608 222.288 78.096 222.288C77.7653 222.288 77.4347 222.256 77.104 222.192C76.7733 222.139 76.4533 222.053 76.144 221.936C75.8453 221.808 75.5627 221.648 75.296 221.456C75.0293 221.253 74.8 221.008 74.608 220.72L75.76 219.776C76.0053 220.192 76.3467 220.507 76.784 220.72C77.2213 220.933 77.6853 221.04 78.176 221.04C78.464 221.04 78.752 220.997 79.04 220.912C79.3387 220.827 79.6053 220.704 79.84 220.544C80.0747 220.373 80.2667 220.165 80.416 219.92C80.5653 219.675 80.64 219.392 80.64 219.072C80.64 218.72 80.5813 218.437 80.464 218.224C80.3467 218 80.1653 217.808 79.92 217.648C79.6747 217.488 79.3653 217.344 78.992 217.216C78.6187 217.088 78.1813 216.939 77.68 216.768C77.2747 216.64 76.9013 216.496 76.56 216.336C76.2187 216.165 75.92 215.963 75.664 215.728C75.4187 215.483 75.2213 215.195 75.072 214.864C74.9333 214.523 74.864 214.117 74.864 213.648C74.864 213.104 74.9707 212.629 75.184 212.224C75.3973 211.819 75.6853 211.483 76.048 211.216C76.4107 210.939 76.8213 210.731 77.28 210.592C77.7387 210.453 78.2187 210.384 78.72 210.384C79.36 210.384 79.9413 210.485 80.464 210.688C80.9973 210.88 81.472 211.221 81.888 211.712L80.784 212.672ZM90.6026 220.224C90.6026 220.565 90.6133 220.885 90.6346 221.184C90.656 221.483 90.6666 221.755 90.6666 222H89.4826C89.4826 221.797 89.4773 221.595 89.4666 221.392C89.456 221.189 89.4506 220.981 89.4506 220.768H89.4186C89.3333 220.949 89.2106 221.125 89.0506 221.296C88.9013 221.467 88.72 221.621 88.5066 221.76C88.2933 221.888 88.0533 221.989 87.7866 222.064C87.52 222.149 87.232 222.192 86.9226 222.192C86.432 222.192 86.0053 222.117 85.6426 221.968C85.2906 221.819 84.9973 221.611 84.7626 221.344C84.528 221.077 84.352 220.757 84.2346 220.384C84.128 220 84.0746 219.584 84.0746 219.136V214.512H85.3226V219.008C85.3226 219.637 85.4613 220.133 85.7386 220.496C86.016 220.859 86.448 221.04 87.0346 221.04C87.44 221.04 87.7866 220.971 88.0746 220.832C88.3733 220.693 88.6133 220.496 88.7946 220.24C88.9866 219.984 89.1253 219.68 89.2106 219.328C89.3066 218.976 89.3546 218.587 89.3546 218.16V214.512H90.6026V220.224ZM100.437 221.664C100.437 223.029 100.085 224.064 99.3813 224.768C98.6879 225.483 97.6799 225.84 96.3573 225.84C95.6213 225.84 94.9546 225.733 94.3573 225.52C93.7706 225.307 93.2106 224.939 92.6773 224.416L93.5733 223.392C93.9679 223.819 94.3839 224.139 94.8213 224.352C95.2693 224.576 95.7813 224.688 96.3573 224.688C96.9119 224.688 97.3706 224.603 97.7333 224.432C98.1066 224.272 98.3999 224.048 98.6133 223.76C98.8266 223.483 98.9759 223.163 99.0613 222.8C99.1466 222.437 99.1893 222.059 99.1893 221.664V220.704H99.1573C98.8586 221.184 98.4693 221.536 97.9893 221.76C97.5093 221.984 97.0186 222.096 96.5173 222.096C95.9306 222.096 95.3919 222 94.9013 221.808C94.4106 221.616 93.9893 221.349 93.6373 221.008C93.2853 220.667 93.0133 220.261 92.8213 219.792C92.6293 219.323 92.5333 218.811 92.5333 218.256C92.5333 217.648 92.6293 217.099 92.8213 216.608C93.0133 216.117 93.2799 215.707 93.6213 215.376C93.9733 215.035 94.3946 214.773 94.8853 214.592C95.3759 214.411 95.9199 214.32 96.5173 214.32C96.7733 214.32 97.0293 214.352 97.2853 214.416C97.5413 214.469 97.7866 214.56 98.0213 214.688C98.2666 214.805 98.4853 214.96 98.6773 215.152C98.8693 215.333 99.0293 215.547 99.1573 215.792H99.1893V214.512H100.437V221.664ZM93.8773 218.256C93.8773 218.64 93.9466 218.997 94.0853 219.328C94.2239 219.648 94.4106 219.931 94.6453 220.176C94.8906 220.411 95.1733 220.597 95.4933 220.736C95.8133 220.875 96.1546 220.944 96.5173 220.944C96.9439 220.944 97.3226 220.869 97.6533 220.72C97.9839 220.571 98.2613 220.373 98.4853 220.128C98.7199 219.872 98.8959 219.584 99.0133 219.264C99.1306 218.933 99.1893 218.587 99.1893 218.224C99.1893 217.819 99.1253 217.451 98.9973 217.12C98.8693 216.779 98.6879 216.485 98.4533 216.24C98.2186 215.995 97.9359 215.808 97.6053 215.68C97.2746 215.541 96.9119 215.472 96.5173 215.472C96.1226 215.472 95.7599 215.547 95.4293 215.696C95.1093 215.835 94.8319 216.032 94.5973 216.288C94.3733 216.533 94.1973 216.827 94.0693 217.168C93.9413 217.499 93.8773 217.861 93.8773 218.256ZM102.651 215.472C103.035 215.077 103.488 214.789 104.011 214.608C104.544 214.416 105.083 214.32 105.627 214.32C106.736 214.32 107.536 214.581 108.027 215.104C108.517 215.627 108.763 216.421 108.763 217.488V220.704C108.763 220.917 108.773 221.141 108.795 221.376C108.816 221.6 108.843 221.808 108.875 222H107.675C107.632 221.829 107.605 221.643 107.595 221.44C107.595 221.227 107.595 221.04 107.595 220.88H107.563C107.317 221.264 106.987 221.579 106.571 221.824C106.165 222.069 105.675 222.192 105.099 222.192C104.715 222.192 104.352 222.144 104.011 222.048C103.68 221.952 103.387 221.813 103.131 221.632C102.885 221.44 102.688 221.205 102.539 220.928C102.389 220.651 102.315 220.331 102.315 219.968C102.315 219.349 102.475 218.864 102.795 218.512C103.115 218.16 103.509 217.899 103.979 217.728C104.459 217.557 104.971 217.451 105.515 217.408C106.069 217.365 106.576 217.344 107.035 217.344H107.515V217.12C107.515 216.576 107.349 216.165 107.019 215.888C106.699 215.611 106.245 215.472 105.659 215.472C105.253 215.472 104.853 215.541 104.459 215.68C104.075 215.808 103.733 216.011 103.435 216.288L102.651 215.472ZM106.266 218.4C105.467 218.4 104.832 218.512 104.363 218.736C103.893 218.96 103.659 219.328 103.659 219.84C103.659 220.309 103.813 220.645 104.123 220.848C104.443 221.04 104.837 221.136 105.307 221.136C105.669 221.136 105.984 221.077 106.251 220.96C106.528 220.832 106.757 220.667 106.939 220.464C107.12 220.261 107.259 220.027 107.355 219.76C107.451 219.483 107.504 219.189 107.515 218.88V218.4H106.266ZM111.043 216.288C111.043 215.947 111.033 215.627 111.011 215.328C110.99 215.029 110.979 214.757 110.979 214.512H112.163C112.163 214.715 112.169 214.917 112.179 215.12C112.19 215.323 112.195 215.531 112.195 215.744H112.227C112.313 215.563 112.43 215.387 112.579 215.216C112.739 215.045 112.926 214.896 113.139 214.768C113.353 214.629 113.593 214.523 113.859 214.448C114.126 214.363 114.414 214.32 114.723 214.32C114.809 214.32 114.894 214.325 114.979 214.336C115.065 214.347 115.15 214.368 115.235 214.4L115.155 215.664C114.942 215.6 114.718 215.568 114.483 215.568C113.715 215.568 113.155 215.819 112.803 216.32C112.462 216.811 112.291 217.488 112.291 218.352V222H111.043V216.288Z" fill="black"/>
<path opacity="0.7" d="M80.784 292.672C80.56 292.309 80.2613 292.048 79.888 291.888C79.5147 291.717 79.1253 291.632 78.72 291.632C78.4213 291.632 78.128 291.669 77.84 291.744C77.552 291.819 77.2907 291.931 77.056 292.08C76.832 292.229 76.6507 292.427 76.512 292.672C76.3733 292.917 76.304 293.205 76.304 293.536C76.304 293.792 76.3413 294.021 76.416 294.224C76.5013 294.416 76.6347 294.592 76.816 294.752C76.9973 294.912 77.2427 295.061 77.552 295.2C77.8613 295.339 78.24 295.477 78.688 295.616C79.1253 295.755 79.5467 295.904 79.952 296.064C80.368 296.224 80.7307 296.427 81.04 296.672C81.36 296.917 81.6107 297.227 81.792 297.6C81.984 297.963 82.08 298.421 82.08 298.976C82.08 299.541 81.968 300.032 81.744 300.448C81.52 300.864 81.2213 301.211 80.848 301.488C80.4853 301.755 80.064 301.952 79.584 302.08C79.104 302.219 78.608 302.288 78.096 302.288C77.7653 302.288 77.4347 302.256 77.104 302.192C76.7733 302.139 76.4533 302.053 76.144 301.936C75.8453 301.808 75.5627 301.648 75.296 301.456C75.0293 301.253 74.8 301.008 74.608 300.72L75.76 299.776C76.0053 300.192 76.3467 300.507 76.784 300.72C77.2213 300.933 77.6853 301.04 78.176 301.04C78.464 301.04 78.752 300.997 79.04 300.912C79.3387 300.827 79.6053 300.704 79.84 300.544C80.0747 300.373 80.2667 300.165 80.416 299.92C80.5653 299.675 80.64 299.392 80.64 299.072C80.64 298.72 80.5813 298.437 80.464 298.224C80.3467 298 80.1653 297.808 79.92 297.648C79.6747 297.488 79.3653 297.344 78.992 297.216C78.6187 297.088 78.1813 296.939 77.68 296.768C77.2747 296.64 76.9013 296.496 76.56 296.336C76.2187 296.165 75.92 295.963 75.664 295.728C75.4187 295.483 75.2213 295.195 75.072 294.864C74.9333 294.523 74.864 294.117 74.864 293.648C74.864 293.104 74.9707 292.629 75.184 292.224C75.3973 291.819 75.6853 291.483 76.048 291.216C76.4107 290.939 76.8213 290.731 77.28 290.592C77.7387 290.453 78.2187 290.384 78.72 290.384C79.36 290.384 79.9413 290.485 80.464 290.688C80.9973 290.88 81.472 291.221 81.888 291.712L80.784 292.672ZM83.9786 295.472C84.3626 295.077 84.816 294.789 85.3386 294.608C85.872 294.416 86.4106 294.32 86.9546 294.32C88.064 294.32 88.864 294.581 89.3546 295.104C89.8453 295.627 90.0906 296.421 90.0906 297.488V300.704C90.0906 300.917 90.1013 301.141 90.1226 301.376C90.144 301.6 90.1706 301.808 90.2026 302H89.0026C88.96 301.829 88.9333 301.643 88.9226 301.44C88.9226 301.227 88.9226 301.04 88.9226 300.88H88.8906C88.6453 301.264 88.3146 301.579 87.8986 301.824C87.4933 302.069 87.0026 302.192 86.4266 302.192C86.0426 302.192 85.68 302.144 85.3386 302.048C85.008 301.952 84.7146 301.813 84.4586 301.632C84.2133 301.44 84.016 301.205 83.8666 300.928C83.7173 300.651 83.6426 300.331 83.6426 299.968C83.6426 299.349 83.8026 298.864 84.1226 298.512C84.4426 298.16 84.8373 297.899 85.3066 297.728C85.7866 297.557 86.2986 297.451 86.8426 297.408C87.3973 297.365 87.904 297.344 88.3626 297.344H88.8426V297.12C88.8426 296.576 88.6773 296.165 88.3466 295.888C88.0266 295.611 87.5733 295.472 86.9866 295.472C86.5813 295.472 86.1813 295.541 85.7866 295.68C85.4026 295.808 85.0613 296.011 84.7626 296.288L83.9786 295.472ZM87.5946 298.4C86.7946 298.4 86.16 298.512 85.6906 298.736C85.2213 298.96 84.9866 299.328 84.9866 299.84C84.9866 300.309 85.1413 300.645 85.4506 300.848C85.7706 301.04 86.1653 301.136 86.6346 301.136C86.9973 301.136 87.312 301.077 87.5786 300.96C87.856 300.832 88.0853 300.667 88.2666 300.464C88.448 300.261 88.5866 300.027 88.6826 299.76C88.7786 299.483 88.832 299.189 88.8426 298.88V298.4H87.5946ZM92.4835 289.904H93.7315V302H92.4835V289.904ZM100.327 295.568H98.1189V299.312C98.1189 299.557 98.1242 299.787 98.1349 300C98.1455 300.203 98.1882 300.384 98.2629 300.544C98.3375 300.693 98.4495 300.816 98.5989 300.912C98.7482 300.997 98.9615 301.04 99.2389 301.04C99.4202 301.04 99.6069 301.019 99.7989 300.976C99.9909 300.933 100.172 300.869 100.343 300.784L100.391 301.92C100.178 302.016 99.9375 302.085 99.6709 302.128C99.4149 302.171 99.1695 302.192 98.9349 302.192C98.4869 302.192 98.1295 302.133 97.8629 302.016C97.5962 301.899 97.3882 301.733 97.2389 301.52C97.0895 301.307 96.9882 301.045 96.9349 300.736C96.8922 300.416 96.8709 300.064 96.8709 299.68V295.568H95.2389V294.512H96.8709V292.384H98.1189V294.512H100.327V295.568Z" fill="black"/>
<path d="M151 74L376.603 53L601.743 74L826.883 52L1046 63" stroke="#C4C4CD" stroke-width="4" stroke-linecap="round"/>
<circle cx="376" cy="53" r="6" fill="#C4C4CD"/>
<circle cx="151" cy="74" r="6" fill="#C4C4CD"/>
<circle cx="603" cy="74" r="6" fill="#A4D278"/>
<circle cx="826" cy="52" r="6" fill="#A4D278"/>
<circle cx="1046" cy="63" r="6" fill="#C4C4CD"/>
<path d="M151 299H376.603L601.743 329L826.883 313L1041.5 294.5" stroke="#C4C4CD" stroke-width="4" stroke-linecap="round"/>
<circle cx="375" cy="299" r="6" fill="#C4C4CD"/>
<circle cx="151" cy="299" r="6" fill="#C4C4CD"/>
<circle cx="603" cy="329" r="6" fill="#A4D278"/>
<circle cx="828" cy="312" r="6" fill="#C4C4CD"/>
<circle cx="1046" cy="293" r="6" fill="#A4D278"/>
<circle opacity="0.5" cx="1046" cy="293" r="11" stroke="#A4D278" stroke-width="2"/>
<path d="M148.5 143L376.603 134.5L601.743 152L826.883 144L1041.5 124.5" stroke="#C4C4CD" stroke-width="4" stroke-linecap="round"/>
<circle cx="375" cy="135" r="6" fill="#C4C4CD"/>
<circle cx="151" cy="142" r="6" fill="#C4C4CD"/>
<circle cx="603" cy="152" r="6" fill="#C4C4CD"/>
<circle cx="828" cy="144" r="6" fill="#C4C4CD"/>
<circle cx="1046" cy="123" r="6" fill="#A4D278"/>
<path d="M151 228L376.603 212H601.743L826.883 243.5L1038.5 224" stroke="#C4C4CD" stroke-width="4" stroke-linecap="round"/>
<circle cx="376" cy="212" r="6" fill="#C4C4CD"/>
<circle cx="151" cy="227" r="6" fill="#C4C4CD"/>
<circle cx="605" cy="212" r="6" fill="#C4C4CD"/>
<circle cx="828" cy="243" r="6" fill="#A4D278"/>
<circle cx="1042" cy="223" r="6" fill="#C4C4CD"/>
<defs>
<filter id="filter0_ii" x="74" y="16" width="972" height="81.6" filterUnits="userSpaceOnUse" color-interpolation-filters="sRGB">
<feFlood flood-opacity="0" result="BackgroundImageFix"/>
<feBlend mode="normal" in="SourceGraphic" in2="BackgroundImageFix" result="shape"/>
<feColorMatrix in="SourceAlpha" type="matrix" values="0 0 0 0 0 0 0 0 0 0 0 0 0 0 0 0 0 0 127 0" result="hardAlpha"/>
<feOffset dy="-1"/>
<feComposite in2="hardAlpha" operator="arithmetic" k2="-1" k3="1"/>
<feColorMatrix type="matrix" values="0 0 0 0 0 0 0 0 0 0 0 0 0 0 0 0 0 0 0.1 0"/>
<feBlend mode="normal" in2="shape" result="effect1_innerShadow"/>
<feColorMatrix in="SourceAlpha" type="matrix" values="0 0 0 0 0 0 0 0 0 0 0 0 0 0 0 0 0 0 127 0" result="hardAlpha"/>
<feOffset dy="1"/>
<feComposite in2="hardAlpha" operator="arithmetic" k2="-1" k3="1"/>
<feColorMatrix type="matrix" values="0 0 0 0 0 0 0 0 0 0 0 0 0 0 0 0 0 0 0.1 0"/>
<feBlend mode="normal" in2="effect1_innerShadow" result="effect2_innerShadow"/>
</filter>
<filter id="filter1_i" x="74" y="97.6001" width="972" height="81.6" filterUnits="userSpaceOnUse" color-interpolation-filters="sRGB">
<feFlood flood-opacity="0" result="BackgroundImageFix"/>
<feBlend mode="normal" in="SourceGraphic" in2="BackgroundImageFix" result="shape"/>
<feColorMatrix in="SourceAlpha" type="matrix" values="0 0 0 0 0 0 0 0 0 0 0 0 0 0 0 0 0 0 127 0" result="hardAlpha"/>
<feOffset dy="-1"/>
<feComposite in2="hardAlpha" operator="arithmetic" k2="-1" k3="1"/>
<feColorMatrix type="matrix" values="0 0 0 0 0 0 0 0 0 0 0 0 0 0 0 0 0 0 0.1 0"/>
<feBlend mode="normal" in2="shape" result="effect1_innerShadow"/>
</filter>
<filter id="filter2_i" x="74" y="179.2" width="972" height="81.6" filterUnits="userSpaceOnUse" color-interpolation-filters="sRGB">
<feFlood flood-opacity="0" result="BackgroundImageFix"/>
<feBlend mode="normal" in="SourceGraphic" in2="BackgroundImageFix" result="shape"/>
<feColorMatrix in="SourceAlpha" type="matrix" values="0 0 0 0 0 0 0 0 0 0 0 0 0 0 0 0 0 0 127 0" result="hardAlpha"/>
<feOffset dy="-1"/>
<feComposite in2="hardAlpha" operator="arithmetic" k2="-1" k3="1"/>
<feColorMatrix type="matrix" values="0 0 0 0 0 0 0 0 0 0 0 0 0 0 0 0 0 0 0.1 0"/>
<feBlend mode="normal" in2="shape" result="effect1_innerShadow"/>
</filter>
<filter id="filter3_i" x="74" y="260.8" width="972" height="81.6" filterUnits="userSpaceOnUse" color-interpolation-filters="sRGB">
<feFlood flood-opacity="0" result="BackgroundImageFix"/>
<feBlend mode="normal" in="SourceGraphic" in2="BackgroundImageFix" result="shape"/>
<feColorMatrix in="SourceAlpha" type="matrix" values="0 0 0 0 0 0 0 0 0 0 0 0 0 0 0 0 0 0 127 0" result="hardAlpha"/>
<feOffset dy="-1"/>
<feComposite in2="hardAlpha" operator="arithmetic" k2="-1" k3="1"/>
<feColorMatrix type="matrix" values="0 0 0 0 0 0 0 0 0 0 0 0 0 0 0 0 0 0 0.1 0"/>
<feBlend mode="normal" in2="shape" result="effect1_innerShadow"/>
</filter>
</defs>
</svg>
