<svg width="24" height="24" viewBox="0 0 24 24" fill="none" xmlns="http://www.w3.org/2000/svg">
<path d="M16.2727 3C15.7204 3 15.2727 3.44772 15.2727 4V7.47464L12.8182 8.93182V7.89895C12.8182 7.26892 12.1253 6.88476 11.5909 7.21855V7.21855L8.72727 8.93182V7.89895C8.72727 7.26892 8.03434 6.88476 7.5 7.21855V7.21855L3.40909 9.67309V9.67309C3.1564 9.8151 3 10.0824 3 10.3723V20C3 20.5523 3.44772 21 4 21H20C20.5523 21 21 20.5523 21 20V4C21 3.44772 20.5523 3 20 3H16.2727ZM16.9091 4.63636H19.3636V19.3636H4.63636V10.7981L7.09091 9.34091V11.8208L8.31818 11.0542L11.1818 9.34091V11.8208L12.4091 11.0542L16.5 8.59964L16.9091 8.36973V4.63636ZM6.87273 12.8182C6.54136 12.8182 6.27273 13.0868 6.27273 13.4182V13.8545C6.27273 14.1859 6.54136 14.4545 6.87273 14.4545H7.30909C7.64046 14.4545 7.90909 14.1859 7.90909 13.8545V13.4182C7.90909 13.0868 7.64046 12.8182 7.30909 12.8182H6.87273ZM10.1455 12.8182C9.81408 12.8182 9.54545 13.0868 9.54545 13.4182V13.8545C9.54545 14.1859 9.81408 14.4545 10.1455 14.4545H10.5818C10.9132 14.4545 11.1818 14.1859 11.1818 13.8545V13.4182C11.1818 13.0868 10.9132 12.8182 10.5818 12.8182H10.1455ZM13.4182 12.8182C13.0868 12.8182 12.8182 13.0868 12.8182 13.4182V13.8545C12.8182 14.1859 13.0868 14.4545 13.4182 14.4545H13.8545C14.1859 14.4545 14.4545 14.1859 14.4545 13.8545V13.4182C14.4545 13.0868 14.1859 12.8182 13.8545 12.8182H13.4182ZM16.6909 12.8182C16.3595 12.8182 16.0909 13.0868 16.0909 13.4182V13.8545C16.0909 14.1859 16.3595 14.4545 16.6909 14.4545H17.1273C17.4586 14.4545 17.7273 14.1859 17.7273 13.8545V13.4182C17.7273 13.0868 17.4586 12.8182 17.1273 12.8182H16.6909ZM6.87273 16.0909C6.54136 16.0909 6.27273 16.3595 6.27273 16.6909V17.1273C6.27273 17.4586 6.54136 17.7273 6.87273 17.7273H7.30909C7.64046 17.7273 7.90909 17.4586 7.90909 17.1273V16.6909C7.90909 16.3595 7.64046 16.0909 7.30909 16.0909H6.87273ZM10.1455 16.0909C9.81408 16.0909 9.54545 16.3595 9.54545 16.6909V17.1273C9.54545 17.4586 9.81408 17.7273 10.1455 17.7273H10.5818C10.9132 17.7273 11.1818 17.4586 11.1818 17.1273V16.6909C11.1818 16.3595 10.9132 16.0909 10.5818 16.0909H10.1455ZM13.4182 16.0909C13.0868 16.0909 12.8182 16.3595 12.8182 16.6909V17.1273C12.8182 17.4586 13.0868 17.7273 13.4182 17.7273H13.8545C14.1859 17.7273 14.4545 17.4586 14.4545 17.1273V16.6909C14.4545 16.3595 14.1859 16.0909 13.8545 16.0909H13.4182ZM16.6909 16.0909C16.3595 16.0909 16.0909 16.3595 16.0909 16.6909V17.1273C16.0909 17.4586 16.3595 17.7273 16.6909 17.7273H17.1273C17.4586 17.7273 17.7273 17.4586 17.7273 17.1273V16.6909C17.7273 16.3595 17.4586 16.0909 17.1273 16.0909H16.6909Z" fill="#78797C"/>
</svg>
