<svg width="151" height="151" viewBox="0 0 151 151" fill="none" xmlns="http://www.w3.org/2000/svg">
<g filter="url(#filter0_d)">
<path d="M31.75 50.3611C31.75 39.4712 31.75 34.0262 33.8693 29.8669C35.7335 26.2081 38.7081 23.2335 42.3669 21.3693C46.5262 19.25 51.9712 19.25 62.8611 19.25H88.1389C99.0288 19.25 104.474 19.25 108.633 21.3693C112.292 23.2335 115.266 26.2081 117.131 29.8669C119.25 34.0262 119.25 39.4712 119.25 50.3611V75.6389C119.25 86.5288 119.25 91.9738 117.131 96.1331C115.266 99.7919 112.292 102.766 108.633 104.631C104.474 106.75 99.0288 106.75 88.1389 106.75H62.8611C51.9712 106.75 46.5262 106.75 42.3669 104.631C38.7081 102.766 35.7335 99.7919 33.8693 96.1331C31.75 91.9738 31.75 86.5288 31.75 75.6389V50.3611Z" fill="white"/>
</g>
<path d="M51.3 78.8H100.7C101.5 78.8 102.1 78.2 102.1 77.4V44.4C102.1 43.6 101.5 43 100.7 43H51.3C50.6 43 50 43.6 50 44.4V77.4C50 78.2 50.6 78.8 51.3 78.8Z" fill="#212528"/>
<path d="M46 83.7002C46 85.3002 47.3 87.0002 49 87.0002H103C104.6 87.0002 106 85.3002 106 83.7002H46Z" fill="#212528"/>
<path d="M101 78.7998H51L46 83.6998H106L101 78.7998Z" fill="#DDDDDD"/>
<path d="M99.3 79.2002H52.7L51 81.2002H101L99.3 79.2002Z" fill="#BFBEBE"/>
<path d="M81.0996 82.0996H70.8996L70.0996 83.1996H81.8996L81.0996 82.0996Z" fill="#212528"/>
<path d="M53 46H99V75.8H53V46Z" fill="#3E4347"/>
<path d="M76.0002 45.3998C76.442 45.3998 76.8002 45.0416 76.8002 44.5998C76.8002 44.158 76.442 43.7998 76.0002 43.7998C75.5584 43.7998 75.2002 44.158 75.2002 44.5998C75.2002 45.0416 75.5584 45.3998 76.0002 45.3998Z" fill="#DDDDDD"/>
<path d="M80.2996 85.7998H71.6996C71.3996 85.7998 70.5996 85.7998 70.5996 84.7998H81.3996C81.3996 85.7998 80.5996 85.7998 80.2996 85.7998Z" fill="#3E4347"/>
<defs>
<filter id="filter0_d" x="0.499998" y="0.499999" width="150" height="150" filterUnits="userSpaceOnUse" color-interpolation-filters="sRGB">
<feFlood flood-opacity="0" result="BackgroundImageFix"/>
<feColorMatrix in="SourceAlpha" type="matrix" values="0 0 0 0 0 0 0 0 0 0 0 0 0 0 0 0 0 0 127 0"/>
<feOffset dy="12.5"/>
<feGaussianBlur stdDeviation="15.625"/>
<feColorMatrix type="matrix" values="0 0 0 0 0.117647 0 0 0 0 0.121569 0 0 0 0 0.141176 0 0 0 0.05 0"/>
<feBlend mode="normal" in2="BackgroundImageFix" result="effect1_dropShadow"/>
<feBlend mode="normal" in="SourceGraphic" in2="effect1_dropShadow" result="shape"/>
</filter>
</defs>
</svg>
