<svg width="16" height="17" viewBox="0 0 16 17" fill="none" xmlns="http://www.w3.org/2000/svg">
<g clip-path="url(#clip0)">
<path d="M12.6667 7.83203H3.33333C2.59695 7.83203 2 8.42898 2 9.16536V13.832C2 14.5684 2.59695 15.1654 3.33333 15.1654H12.6667C13.403 15.1654 14 14.5684 14 13.832V9.16536C14 8.42898 13.403 7.83203 12.6667 7.83203Z" stroke="#D6341F" stroke-width="2" stroke-linecap="round" stroke-linejoin="round"/>
<path d="M4.66699 7.83203V5.16536C4.66699 4.28131 5.01818 3.43346 5.6433 2.80834C6.26842 2.18322 7.11627 1.83203 8.00033 1.83203C8.88438 1.83203 9.73223 2.18322 10.3573 2.80834C10.9825 3.43346 11.3337 4.28131 11.3337 5.16536V7.83203" stroke="#D6341F" stroke-width="2" stroke-linecap="round" stroke-linejoin="round"/>
</g>
<defs>
<clipPath id="clip0">
<rect width="16" height="16" fill="white" transform="translate(0 0.5)"/>
</clipPath>
</defs>
</svg>
