<svg width="84" height="40" viewBox="0 0 84 40" fill="none" xmlns="http://www.w3.org/2000/svg">
<path d="M26.2397 13.1735C24.881 12.4594 23.2966 12.3062 21.8264 12.7468C21.7548 11.2514 21.1103 9.84099 20.0267 8.80802C18.9431 7.77504 17.5034 7.19879 16.0064 7.19879C14.5093 7.19879 13.0696 7.77504 11.986 8.80802C10.9024 9.84099 10.258 11.2514 10.1864 12.7468C8.72007 12.3052 7.14019 12.4436 5.77303 13.1335C4.76622 13.6627 3.93631 14.4749 3.38564 15.4702C2.83497 16.4654 2.58762 17.6 2.67409 18.7341C2.76057 19.8682 3.17709 20.9522 3.87229 21.8525C4.56748 22.7527 5.51096 23.4297 6.58636 23.8001C5.89994 24.7769 5.52782 25.9397 5.51969 27.1335C5.52561 27.4687 5.55681 27.803 5.61303 28.1335C5.83756 29.4875 6.5361 30.7177 7.58388 31.6043C8.63167 32.4909 9.96048 32.9762 11.333 32.9735C11.6171 32.993 11.9022 32.993 12.1864 32.9735C13.7104 32.7334 15.0795 31.9052 15.9997 30.6668C16.9294 31.8852 18.2973 32.6935 19.813 32.9201C20.0971 32.9396 20.3822 32.9396 20.6664 32.9201C21.7306 32.9189 22.774 32.6256 23.683 32.0721C24.5919 31.5187 25.3315 30.7263 25.8211 29.7815C26.3108 28.8366 26.5316 27.7755 26.4597 26.7137C26.3877 25.6519 26.0257 24.6303 25.413 23.7601C26.4937 23.3961 27.4434 22.7223 28.144 21.8226C28.8446 20.9229 29.2651 19.837 29.3533 18.7001C29.4414 17.5632 29.1932 16.4255 28.6395 15.4286C28.0859 14.4317 27.2514 13.6196 26.2397 13.0935V13.1735ZM13.7864 10.5868C14.382 10.0164 15.1749 9.69791 15.9997 9.69791C16.8245 9.69791 17.6174 10.0164 18.213 10.5868C18.6678 11.0423 18.9766 11.6228 19.1001 12.2545C19.2236 12.8862 19.1561 13.5403 18.9064 14.1335L18.5597 14.9201L17.6797 15.6935C17.1387 15.5078 16.5717 15.4088 15.9997 15.4001C15.2605 15.4009 14.5294 15.5552 13.853 15.8535L13.1064 14.1335C12.8476 13.5429 12.7741 12.8878 12.8955 12.2545C13.0169 11.6213 13.3275 11.0398 13.7864 10.5868ZM5.65303 19.7068C5.35537 19.0518 5.29013 18.3149 5.46808 17.6178C5.64603 16.9207 6.05652 16.3052 6.6317 15.8731C7.20688 15.4409 7.91231 15.2179 8.63138 15.241C9.35045 15.2642 10.0401 15.5319 10.5864 16.0001L11.2397 16.5735L11.7064 17.6401C11.0384 18.5338 10.674 19.6178 10.6664 20.7335C10.6505 20.9332 10.6505 21.1338 10.6664 21.3335H9.93303L8.81303 21.4401C8.17242 21.5077 7.52646 21.378 6.96168 21.0682C6.3969 20.7584 5.94029 20.2834 5.65303 19.7068ZM14.453 27.8135C14.2925 28.5253 13.8916 29.16 13.3178 29.6108C12.7441 30.0615 12.0325 30.3008 11.303 30.2883C10.5734 30.2757 9.87046 30.0122 9.31251 29.542C8.75455 29.0718 8.37568 28.4237 8.23969 27.7068C8.22691 27.5204 8.22691 27.3333 8.23969 27.1468C8.24452 26.6049 8.39105 26.0736 8.66471 25.6058C8.93837 25.138 9.32965 24.7499 9.79969 24.4801L10.4797 24.0001L11.693 23.8668C12.4578 24.9307 13.5874 25.6758 14.8664 25.9601L14.453 27.8135ZM15.9997 23.4001C15.4723 23.4001 14.9567 23.2437 14.5182 22.9507C14.0796 22.6577 13.7378 22.2412 13.536 21.754C13.3342 21.2667 13.2814 20.7305 13.3843 20.2132C13.4872 19.696 13.7411 19.2208 14.1141 18.8479C14.487 18.4749 14.9622 18.2209 15.4795 18.118C15.9967 18.0152 16.5329 18.068 17.0202 18.2698C17.5075 18.4716 17.9239 18.8134 18.2169 19.252C18.51 19.6905 18.6664 20.2061 18.6664 20.7335C18.6664 21.4407 18.3854 22.119 17.8853 22.6191C17.3852 23.1192 16.7069 23.4001 15.9997 23.4001ZM23.7597 27.6935C23.6221 28.507 23.1705 29.234 22.5022 29.7178C21.8338 30.2016 21.0022 30.4036 20.1864 30.2801C19.5435 30.1896 18.9437 29.9048 18.4671 29.464C17.9906 29.0232 17.66 28.4473 17.5197 27.8135L17.333 27.0135L17.613 25.7868C18.843 25.3862 19.8855 24.5522 20.5464 23.4401L21.213 23.8401H21.333L22.213 24.3601C22.7848 24.6866 23.2408 25.1829 23.5179 25.7802C23.7951 26.3774 23.8795 27.0461 23.7597 27.6935ZM26.3464 19.6935C26.0841 20.2235 25.6796 20.67 25.178 20.9832C24.6765 21.2964 24.0977 21.4638 23.5064 21.4668H23.1864L22.333 21.3335L21.333 20.7868C21.3312 19.4904 20.8572 18.2391 19.9997 17.2668L20.573 16.7735L21.413 16.0001C21.9608 15.5131 22.6609 15.2317 23.3934 15.2041C24.1258 15.1764 24.8451 15.4042 25.4281 15.8485C26.0111 16.2929 26.4214 16.926 26.589 17.6396C26.7565 18.3532 26.6707 19.1028 26.3464 19.7601V19.6935Z" fill="#00B37A"/>
<path d="M39.2648 28V11.2H42.9128L48.2648 21.856L53.5448 11.2H57.1928V28H54.1208V16.408L49.4408 25.6H47.0168L42.3368 16.408V28H39.2648ZM60.4523 28V11.2H71.3003V13.672H63.5243V18.376H69.8123V20.8H63.5243V28H60.4523ZM73.6711 28V11.2H76.7431V28H73.6711Z" fill="#006B50"/>
</svg>
