<svg width="84" height="40" viewBox="0 0 84 40" fill="none" xmlns="http://www.w3.org/2000/svg">
<path d="M26.2387 13.1734C24.8801 12.4593 23.2957 12.3062 21.8254 12.7467C21.7538 11.2514 21.1094 9.84093 20.0257 8.80796C18.9421 7.77498 17.5025 7.19873 16.0054 7.19873C14.5083 7.19873 13.0686 7.77498 11.985 8.80796C10.9014 9.84093 10.257 11.2514 10.1854 12.7467C8.71909 12.3052 7.13921 12.4436 5.77205 13.1334C4.76524 13.6626 3.93533 14.4749 3.38466 15.4701C2.83399 16.4653 2.58664 17.5999 2.67312 18.7341C2.75959 19.8682 3.17611 20.9522 3.87131 21.8524C4.56651 22.7526 5.50998 23.4297 6.58538 23.8001C5.89897 24.7768 5.52685 25.9397 5.51872 27.1334C5.52464 27.4686 5.55584 27.8029 5.61205 28.1334C5.83659 29.4875 6.53512 30.7176 7.58291 31.6042C8.63069 32.4908 9.9595 32.9761 11.332 32.9734C11.6162 32.9929 11.9013 32.9929 12.1854 32.9734C13.7094 32.7333 15.0785 31.9052 15.9987 30.6668C16.9285 31.8851 18.2963 32.6934 19.812 32.9201C20.0962 32.9396 20.3813 32.9396 20.6654 32.9201C21.7296 32.9189 22.773 32.6255 23.682 32.0721C24.5909 31.5186 25.3305 30.7263 25.8202 29.7814C26.3098 28.8365 26.5307 27.7754 26.4587 26.7136C26.3867 25.6519 26.0247 24.6302 25.412 23.7601C26.4927 23.3961 27.4424 22.7223 28.143 21.8226C28.8436 20.9229 29.2642 19.837 29.3523 18.7001C29.4404 17.5632 29.1922 16.4255 28.6386 15.4286C28.085 14.4317 27.2504 13.6196 26.2387 13.0934V13.1734ZM13.7854 10.5867C14.381 10.0163 15.174 9.69784 15.9987 9.69784C16.8235 9.69784 17.6164 10.0163 18.212 10.5867C18.6668 11.0422 18.9756 11.6228 19.0991 12.2544C19.2226 12.8861 19.1552 13.5402 18.9054 14.1334L18.5587 14.9201L17.6787 15.6934C17.1377 15.5077 16.5707 15.4087 15.9987 15.4001C15.2595 15.4008 14.5285 15.5552 13.852 15.8534L13.1054 14.1334C12.8466 13.5429 12.7731 12.8877 12.8945 12.2545C13.0159 11.6212 13.3265 11.0397 13.7854 10.5867ZM5.65205 19.7067C5.35439 19.0518 5.28915 18.3148 5.4671 17.6177C5.64505 16.9207 6.05555 16.3052 6.63073 15.873C7.20591 15.4408 7.91134 15.2179 8.63041 15.241C9.34948 15.2641 10.0391 15.5319 10.5854 16.0001L11.2387 16.5734L11.7054 17.6401C11.0374 18.5338 10.673 19.6177 10.6654 20.7334C10.6496 20.9331 10.6496 21.1337 10.6654 21.3334H9.93205L8.81205 21.4401C8.17144 21.5077 7.52548 21.3779 6.9607 21.0681C6.39593 20.7583 5.93932 20.2833 5.65205 19.7067ZM14.452 27.8134C14.2915 28.5252 13.8906 29.1599 13.3169 29.6107C12.7431 30.0615 12.0315 30.3007 11.302 30.2882C10.5724 30.2757 9.86949 30.0121 9.31153 29.5419C8.75358 29.0717 8.3747 28.4236 8.23872 27.7068C8.22593 27.5203 8.22593 27.3332 8.23872 27.1468C8.24355 26.6048 8.39007 26.0736 8.66373 25.6058C8.9374 25.138 9.32868 24.7499 9.79872 24.4801L10.4787 24.0001L11.692 23.8667C12.4568 24.9306 13.5864 25.6758 14.8654 25.9601L14.452 27.8134ZM15.9987 23.4001C15.4713 23.4001 14.9557 23.2437 14.5172 22.9507C14.0787 22.6577 13.7369 22.2412 13.535 21.7539C13.3332 21.2666 13.2804 20.7305 13.3833 20.2132C13.4862 19.6959 13.7402 19.2207 14.1131 18.8478C14.486 18.4749 14.9612 18.2209 15.4785 18.118C15.9958 18.0151 16.5319 18.0679 17.0192 18.2697C17.5065 18.4716 17.9229 18.8134 18.216 19.2519C18.509 19.6904 18.6654 20.206 18.6654 20.7334C18.6654 21.4407 18.3844 22.1189 17.8843 22.619C17.3842 23.1191 16.706 23.4001 15.9987 23.4001ZM23.7587 27.6934C23.6212 28.507 23.1696 29.2339 22.5012 29.7178C21.8328 30.2016 21.0012 30.4035 20.1854 30.2801C19.5426 30.1895 18.9427 29.9047 18.4662 29.4639C17.9896 29.0231 17.659 28.4472 17.5187 27.8134L17.332 27.0134L17.612 25.7868C18.8421 25.3862 19.8846 24.5522 20.5454 23.4401L21.212 23.8401H21.332L22.212 24.3601C22.7838 24.6866 23.2398 25.1828 23.517 25.7801C23.7941 26.3773 23.8786 27.046 23.7587 27.6934ZM26.3454 19.6934C26.0831 20.2234 25.6786 20.6699 25.177 20.9831C24.6755 21.2963 24.0967 21.4638 23.5054 21.4668H23.1854L22.332 21.3334L21.332 20.7867C21.3302 19.4904 20.8562 18.239 19.9987 17.2667L20.572 16.7734L21.412 16.0001C21.9599 15.5131 22.6599 15.2316 23.3924 15.204C24.1249 15.1763 24.8442 15.4042 25.4271 15.8485C26.0101 16.2928 26.4205 16.926 26.588 17.6396C26.7555 18.3531 26.6697 19.1028 26.3454 19.7601V19.6934Z" fill="white"/>
<path d="M39.2648 28V11.2H42.9128L48.2648 21.856L53.5448 11.2H57.1928V28H54.1208V16.408L49.4408 25.6H47.0168L42.3368 16.408V28H39.2648ZM60.4523 28V11.2H71.3003V13.672H63.5243V18.376H69.8123V20.8H63.5243V28H60.4523ZM73.6711 28V11.2H76.7431V28H73.6711Z" fill="white"/>
</svg>
