<svg width="720" height="438" viewBox="0 0 720 438" fill="none" xmlns="http://www.w3.org/2000/svg">
<path fill-rule="evenodd" clip-rule="evenodd" d="M113.63 127.996H181.917V127.996H187.771V138.402H181.917V378.738H187.771V397.598H107.777V378.738H113.63V138.402H107.778V127.996H113.63V127.996Z" fill="#B7B7BA"/>
<path fill-rule="evenodd" clip-rule="evenodd" d="M539.63 127.996H607.917V127.996H613.771V138.402H607.917V378.738H613.771V397.598H533.777V378.738H539.63V138.402H533.778V127.996H539.63V127.996Z" fill="#B7B7BA"/>
<path fill-rule="evenodd" clip-rule="evenodd" d="M362.002 16.2227L88.8535 128.409H362.002H635.151L362.002 16.2227Z" fill="#B7B7BA"/>
<path d="M90.8047 127.435L362.002 16.875L230.306 127.435H90.8047Z" fill="white" fill-opacity="0.2"/>
<path fill-rule="evenodd" clip-rule="evenodd" d="M329.628 127.996H397.915V127.996H403.769V138.402H397.915V378.738H403.769V397.598H323.775V378.738H329.628V138.402H323.776V127.996H329.628V127.996Z" fill="#B7B7BA"/>
<path d="M100.561 276.447L140.557 238.727L180.554 276.447" stroke="#1E1F24" stroke-opacity="0.3"/>
<circle cx="140.558" cy="239.052" r="1.62588" fill="white"/>
<g clip-path="url(#clip0)">
<path fill-rule="evenodd" clip-rule="evenodd" d="M224.028 267.992H51.8516V334.945H51.7871L56.5682 339.727H228.743V272.773L224.028 268.083V267.992Z" fill="#1E1F24"/>
</g>
<rect x="52.6916" y="268.785" width="170.582" height="53.0379" rx="1.8043" fill="white" stroke="#1E1F24" stroke-width="1.59422"/>
<path d="M85.0982 292.648V285.512H87.7388C88.3097 285.512 88.7821 285.607 89.1559 285.797C89.5298 285.987 89.8084 286.249 89.9919 286.582C90.1755 286.915 90.2672 287.289 90.2672 287.704C90.2672 288.098 90.1789 288.462 90.0021 288.795C89.8254 289.121 89.5501 289.386 89.1763 289.59C88.8025 289.787 88.3233 289.885 87.7388 289.885H86.4032V292.648H85.0982ZM86.4032 288.825H87.6572C88.1126 288.825 88.4389 288.727 88.636 288.53C88.8399 288.326 88.9418 288.05 88.9418 287.704C88.9418 287.35 88.8399 287.075 88.636 286.878C88.4389 286.674 88.1126 286.572 87.6572 286.572H86.4032V288.825ZM92.5655 292.648V285.512H95.1857C95.7566 285.512 96.2256 285.61 96.5926 285.807C96.9665 285.998 97.2451 286.259 97.4287 286.592C97.6122 286.919 97.7039 287.282 97.7039 287.683C97.7039 288.118 97.5884 288.516 97.3573 288.876C97.133 289.236 96.7795 289.498 96.297 289.661L97.7753 292.648H96.2766L94.9512 289.835H93.8705V292.648H92.5655ZM93.8705 288.876H95.1041C95.5391 288.876 95.8586 288.771 96.0625 288.56C96.2664 288.349 96.3683 288.071 96.3683 287.724C96.3683 287.384 96.2664 287.112 96.0625 286.908C95.8654 286.705 95.5425 286.603 95.0939 286.603H93.8705V288.876ZM103.536 292.771C102.822 292.771 102.197 292.614 101.66 292.302C101.13 291.989 100.712 291.558 100.406 291.007C100.107 290.45 99.9576 289.807 99.9576 289.08C99.9576 288.353 100.107 287.714 100.406 287.163C100.712 286.606 101.13 286.171 101.66 285.858C102.197 285.546 102.822 285.389 103.536 285.389C104.243 285.389 104.865 285.546 105.402 285.858C105.939 286.171 106.357 286.606 106.656 287.163C106.955 287.714 107.105 288.353 107.105 289.08C107.105 289.807 106.955 290.45 106.656 291.007C106.357 291.558 105.939 291.989 105.402 292.302C104.865 292.614 104.243 292.771 103.536 292.771ZM103.536 291.598C104.216 291.598 104.756 291.374 105.157 290.925C105.565 290.477 105.769 289.862 105.769 289.08C105.769 288.298 105.565 287.683 105.157 287.235C104.756 286.786 104.216 286.562 103.536 286.562C102.856 286.562 102.313 286.786 101.905 287.235C101.497 287.683 101.293 288.298 101.293 289.08C101.293 289.862 101.497 290.477 101.905 290.925C102.313 291.374 102.856 291.598 103.536 291.598ZM109.531 292.648V285.512H111.968C112.804 285.512 113.49 285.661 114.027 285.96C114.571 286.253 114.972 286.667 115.23 287.204C115.495 287.734 115.628 288.36 115.628 289.08C115.628 289.801 115.495 290.429 115.23 290.966C114.972 291.496 114.571 291.911 114.027 292.21C113.49 292.502 112.804 292.648 111.968 292.648H109.531ZM110.836 291.527H111.907C112.505 291.527 112.977 291.432 113.324 291.241C113.67 291.044 113.919 290.766 114.068 290.405C114.218 290.038 114.292 289.597 114.292 289.08C114.292 288.57 114.218 288.132 114.068 287.765C113.919 287.398 113.67 287.116 113.324 286.919C112.977 286.722 112.505 286.623 111.907 286.623H110.836V291.527ZM120.807 292.771C120.283 292.771 119.811 292.669 119.389 292.465C118.968 292.254 118.632 291.938 118.38 291.517C118.135 291.095 118.013 290.562 118.013 289.916V285.512H119.318V289.926C119.318 290.484 119.451 290.898 119.716 291.17C119.988 291.442 120.361 291.578 120.837 291.578C121.306 291.578 121.677 291.442 121.948 291.17C122.22 290.898 122.356 290.484 122.356 289.926V285.512H123.661V289.916C123.661 290.562 123.532 291.095 123.274 291.517C123.016 291.938 122.669 292.254 122.234 292.465C121.806 292.669 121.33 292.771 120.807 292.771ZM129.5 292.771C128.779 292.771 128.161 292.618 127.644 292.312C127.128 291.999 126.73 291.568 126.451 291.017C126.173 290.46 126.033 289.818 126.033 289.09C126.033 288.363 126.173 287.721 126.451 287.163C126.73 286.606 127.128 286.171 127.644 285.858C128.161 285.546 128.779 285.389 129.5 285.389C130.356 285.389 131.056 285.603 131.6 286.032C132.151 286.453 132.494 287.048 132.63 287.816H131.192C131.104 287.428 130.914 287.126 130.621 286.908C130.336 286.684 129.955 286.572 129.479 286.572C128.82 286.572 128.304 286.796 127.93 287.245C127.556 287.693 127.369 288.309 127.369 289.09C127.369 289.872 127.556 290.487 127.93 290.936C128.304 291.377 128.82 291.598 129.479 291.598C129.955 291.598 130.336 291.496 130.621 291.292C130.914 291.082 131.104 290.793 131.192 290.426H132.63C132.494 291.16 132.151 291.734 131.6 292.149C131.056 292.563 130.356 292.771 129.5 292.771ZM136.632 292.648V286.562H134.552V285.512H140.027V286.562H137.937V292.648H136.632ZM149.316 292.771C148.602 292.771 147.977 292.614 147.44 292.302C146.91 291.989 146.492 291.558 146.186 291.007C145.887 290.45 145.737 289.807 145.737 289.08C145.737 288.353 145.887 287.714 146.186 287.163C146.492 286.606 146.91 286.171 147.44 285.858C147.977 285.546 148.602 285.389 149.316 285.389C150.023 285.389 150.644 285.546 151.181 285.858C151.718 286.171 152.136 286.606 152.435 287.163C152.734 287.714 152.884 288.353 152.884 289.08C152.884 289.76 152.751 290.368 152.486 290.905C152.221 291.435 151.854 291.857 151.385 292.169L153.037 293.943H151.416L150.294 292.659C149.982 292.733 149.655 292.771 149.316 292.771ZM149.316 291.598C149.995 291.598 150.536 291.374 150.937 290.925C151.345 290.477 151.548 289.862 151.548 289.08C151.548 288.298 151.345 287.683 150.937 287.235C150.536 286.786 149.995 286.562 149.316 286.562C148.636 286.562 148.092 286.786 147.684 287.235C147.277 287.683 147.073 288.298 147.073 289.08C147.073 289.862 147.277 290.477 147.684 290.925C148.092 291.374 148.636 291.598 149.316 291.598ZM158.034 292.771C157.51 292.771 157.038 292.669 156.616 292.465C156.195 292.254 155.859 291.938 155.607 291.517C155.362 291.095 155.24 290.562 155.24 289.916V285.512H156.545V289.926C156.545 290.484 156.678 290.898 156.943 291.17C157.215 291.442 157.588 291.578 158.064 291.578C158.533 291.578 158.904 291.442 159.175 291.17C159.447 290.898 159.583 290.484 159.583 289.926V285.512H160.888V289.916C160.888 290.562 160.759 291.095 160.501 291.517C160.243 291.938 159.896 292.254 159.461 292.465C159.033 292.669 158.557 292.771 158.034 292.771ZM162.727 292.648L165.337 285.512H166.806L169.416 292.648H168.029L167.458 290.997H164.675L164.094 292.648H162.727ZM165.032 289.977H167.101L166.061 287.01L165.032 289.977ZM171.609 292.648V285.512H172.914V291.629H176.075V292.648H171.609ZM178.499 292.648V285.512H179.804V292.648H178.499ZM184.124 292.648V286.562H182.044V285.512H187.519V286.562H185.429V292.648H184.124ZM191.605 292.648V290.11L189.209 285.512H190.688L192.268 288.805L193.838 285.512H195.296L192.91 290.11V292.648H191.605ZM118.162 308.648V302.562H116.083V301.512H121.558V302.562H119.467V308.648H118.162ZM123.799 308.648V301.512H128.458V302.562H125.104V304.519H128.152V305.539H125.104V307.598H128.458V308.648H123.799ZM133.404 308.771C132.881 308.771 132.418 308.682 132.017 308.506C131.616 308.322 131.3 308.064 131.069 307.731C130.838 307.391 130.719 306.98 130.712 306.497H132.089C132.102 306.83 132.221 307.112 132.446 307.343C132.677 307.568 132.993 307.68 133.394 307.68C133.74 307.68 134.016 307.598 134.22 307.435C134.424 307.265 134.525 307.041 134.525 306.762C134.525 306.47 134.434 306.242 134.25 306.079C134.073 305.916 133.836 305.784 133.537 305.682C133.237 305.58 132.918 305.471 132.578 305.355C132.028 305.165 131.606 304.92 131.314 304.621C131.028 304.322 130.886 303.925 130.886 303.428C130.879 303.007 130.977 302.647 131.181 302.348C131.392 302.042 131.678 301.807 132.038 301.644C132.398 301.474 132.813 301.389 133.282 301.389C133.757 301.389 134.175 301.474 134.536 301.644C134.903 301.814 135.188 302.052 135.392 302.358C135.603 302.664 135.715 303.027 135.729 303.449H134.332C134.325 303.197 134.226 302.976 134.036 302.786C133.853 302.589 133.594 302.49 133.261 302.49C132.976 302.484 132.734 302.555 132.537 302.705C132.347 302.847 132.252 303.058 132.252 303.337C132.252 303.575 132.327 303.765 132.476 303.908C132.626 304.044 132.83 304.159 133.088 304.254C133.346 304.349 133.642 304.451 133.975 304.56C134.328 304.682 134.651 304.825 134.943 304.988C135.236 305.151 135.47 305.369 135.647 305.641C135.824 305.906 135.912 306.249 135.912 306.671C135.912 307.044 135.817 307.391 135.627 307.71C135.436 308.03 135.154 308.288 134.78 308.485C134.407 308.676 133.948 308.771 133.404 308.771ZM139.897 308.648V302.562H137.817V301.512H143.292V302.562H141.202V308.648H139.897ZM145.533 308.648V301.512H146.838V308.648H145.533ZM149.496 308.648V301.512H150.801L154.155 306.538V301.512H155.46V308.648H154.155L150.801 303.632V308.648H149.496ZM161.238 308.771C160.565 308.771 159.977 308.618 159.474 308.312C158.971 308.006 158.581 307.581 158.302 307.038C158.023 306.487 157.884 305.848 157.884 305.121C157.884 304.387 158.027 303.741 158.312 303.184C158.604 302.62 159.016 302.181 159.546 301.869C160.083 301.549 160.718 301.389 161.452 301.389C162.288 301.389 162.982 301.59 163.532 301.991C164.083 302.392 164.439 302.946 164.603 303.653H163.145C163.036 303.32 162.839 303.061 162.553 302.878C162.268 302.688 161.901 302.592 161.452 302.592C160.739 302.592 160.188 302.82 159.801 303.275C159.413 303.724 159.219 304.343 159.219 305.131C159.219 305.919 159.41 306.531 159.79 306.966C160.178 307.394 160.701 307.609 161.36 307.609C162.006 307.609 162.492 307.435 162.818 307.089C163.151 306.735 163.352 306.273 163.42 305.702H161.615V304.723H164.735V308.648H163.532L163.43 307.71C163.199 308.05 162.91 308.312 162.564 308.496C162.217 308.679 161.775 308.771 161.238 308.771Z" fill="black"/>
<path d="M322.516 234.533L362.512 196.812L402.509 234.533" stroke="#1E1F24" stroke-opacity="0.3"/>
<circle cx="362.513" cy="197.138" r="1.62588" fill="white"/>
<g clip-path="url(#clip1)">
<path fill-rule="evenodd" clip-rule="evenodd" d="M445.98 226.078H273.804V293.031H273.738L278.519 297.813H450.694V230.859L445.98 226.17V226.078Z" fill="#1E1F24"/>
</g>
<rect x="274.645" y="226.871" width="170.582" height="53.0379" rx="1.8043" fill="white" stroke="#1E1F24" stroke-width="1.59422"/>
<path d="M286.159 258.144C285.636 258.144 285.174 258.055 284.773 257.879C284.372 257.695 284.056 257.437 283.825 257.104C283.594 256.764 283.475 256.353 283.468 255.87H284.844C284.858 256.203 284.977 256.485 285.201 256.716C285.432 256.941 285.748 257.053 286.149 257.053C286.496 257.053 286.771 256.971 286.975 256.808C287.179 256.638 287.281 256.414 287.281 256.135C287.281 255.843 287.189 255.615 287.006 255.452C286.829 255.289 286.591 255.157 286.292 255.055C285.993 254.953 285.673 254.844 285.334 254.728C284.783 254.538 284.362 254.293 284.069 253.994C283.784 253.695 283.641 253.298 283.641 252.801C283.634 252.38 283.733 252.02 283.937 251.721C284.147 251.415 284.433 251.18 284.793 251.017C285.153 250.847 285.568 250.762 286.037 250.762C286.513 250.762 286.931 250.847 287.291 251.017C287.658 251.187 287.944 251.425 288.147 251.731C288.358 252.037 288.47 252.4 288.484 252.822H287.087C287.08 252.57 286.982 252.349 286.791 252.159C286.608 251.962 286.35 251.863 286.017 251.863C285.731 251.857 285.49 251.928 285.293 252.078C285.102 252.22 285.007 252.431 285.007 252.71C285.007 252.948 285.082 253.138 285.232 253.281C285.381 253.417 285.585 253.532 285.843 253.627C286.102 253.722 286.397 253.824 286.73 253.933C287.084 254.055 287.407 254.198 287.699 254.361C287.991 254.524 288.226 254.742 288.402 255.014C288.579 255.279 288.667 255.622 288.667 256.044C288.667 256.417 288.572 256.764 288.382 257.084C288.192 257.403 287.91 257.661 287.536 257.858C287.162 258.049 286.703 258.144 286.159 258.144ZM291.08 258.021V250.885H295.74V251.935H292.385V253.892H295.434V254.912H292.385V256.971H295.74V258.021H291.08ZM298.249 258.021V250.885H299.554V257.002H302.715V258.021H298.249ZM305.139 258.021V250.885H309.747V251.935H306.444V253.933H309.115V254.963H306.444V258.021H305.139ZM311.886 255.615V254.524H316.158V255.615H311.886ZM321.925 258.021L324.535 250.885H326.003L328.613 258.021H327.226L326.655 256.37H323.872L323.291 258.021H321.925ZM324.229 255.35H326.298L325.258 252.383L324.229 255.35ZM333.243 258.144C332.72 258.144 332.258 258.055 331.857 257.879C331.456 257.695 331.139 257.437 330.908 257.104C330.677 256.764 330.558 256.353 330.552 255.87H331.928C331.942 256.203 332.06 256.485 332.285 256.716C332.516 256.941 332.832 257.053 333.233 257.053C333.58 257.053 333.855 256.971 334.059 256.808C334.263 256.638 334.365 256.414 334.365 256.135C334.365 255.843 334.273 255.615 334.089 255.452C333.913 255.289 333.675 255.157 333.376 255.055C333.077 254.953 332.757 254.844 332.417 254.728C331.867 254.538 331.445 254.293 331.153 253.994C330.868 253.695 330.725 253.298 330.725 252.801C330.718 252.38 330.817 252.02 331.021 251.721C331.231 251.415 331.517 251.18 331.877 251.017C332.237 250.847 332.652 250.762 333.121 250.762C333.597 250.762 334.015 250.847 334.375 251.017C334.742 251.187 335.027 251.425 335.231 251.731C335.442 252.037 335.554 252.4 335.568 252.822H334.171C334.164 252.57 334.066 252.349 333.875 252.159C333.692 251.962 333.433 251.863 333.1 251.863C332.815 251.857 332.574 251.928 332.377 252.078C332.186 252.22 332.091 252.431 332.091 252.71C332.091 252.948 332.166 253.138 332.315 253.281C332.465 253.417 332.669 253.532 332.927 253.627C333.185 253.722 333.481 253.824 333.814 253.933C334.168 254.055 334.49 254.198 334.783 254.361C335.075 254.524 335.309 254.742 335.486 255.014C335.663 255.279 335.751 255.622 335.751 256.044C335.751 256.417 335.656 256.764 335.466 257.084C335.275 257.403 334.993 257.661 334.62 257.858C334.246 258.049 333.787 258.144 333.243 258.144ZM340.601 258.144C340.078 258.144 339.615 258.055 339.214 257.879C338.813 257.695 338.497 257.437 338.266 257.104C338.035 256.764 337.916 256.353 337.909 255.87H339.286C339.299 256.203 339.418 256.485 339.643 256.716C339.874 256.941 340.19 257.053 340.591 257.053C340.937 257.053 341.213 256.971 341.417 256.808C341.62 256.638 341.722 256.414 341.722 256.135C341.722 255.843 341.631 255.615 341.447 255.452C341.27 255.289 341.033 255.157 340.733 255.055C340.434 254.953 340.115 254.844 339.775 254.728C339.225 254.538 338.803 254.293 338.511 253.994C338.225 253.695 338.083 253.298 338.083 252.801C338.076 252.38 338.174 252.02 338.378 251.721C338.589 251.415 338.874 251.18 339.235 251.017C339.595 250.847 340.01 250.762 340.479 250.762C340.954 250.762 341.372 250.847 341.733 251.017C342.1 251.187 342.385 251.425 342.589 251.731C342.8 252.037 342.912 252.4 342.925 252.822H341.529C341.522 252.57 341.423 252.349 341.233 252.159C341.049 251.962 340.791 251.863 340.458 251.863C340.173 251.857 339.931 251.928 339.734 252.078C339.544 252.22 339.449 252.431 339.449 252.71C339.449 252.948 339.524 253.138 339.673 253.281C339.823 253.417 340.027 253.532 340.285 253.627C340.543 253.722 340.839 253.824 341.172 253.933C341.525 254.055 341.848 254.198 342.14 254.361C342.433 254.524 342.667 254.742 342.844 255.014C343.021 255.279 343.109 255.622 343.109 256.044C343.109 256.417 343.014 256.764 342.823 257.084C342.633 257.403 342.351 257.661 341.977 257.858C341.603 258.049 341.145 258.144 340.601 258.144ZM345.522 258.021V250.885H350.181V251.935H346.827V253.892H349.875V254.912H346.827V256.971H350.181V258.021H345.522ZM355.127 258.144C354.604 258.144 354.142 258.055 353.741 257.879C353.34 257.695 353.024 257.437 352.793 257.104C352.561 256.764 352.443 256.353 352.436 255.87H353.812C353.826 256.203 353.945 256.485 354.169 256.716C354.4 256.941 354.716 257.053 355.117 257.053C355.464 257.053 355.739 256.971 355.943 256.808C356.147 256.638 356.249 256.414 356.249 256.135C356.249 255.843 356.157 255.615 355.973 255.452C355.797 255.289 355.559 255.157 355.26 255.055C354.961 254.953 354.641 254.844 354.301 254.728C353.751 254.538 353.33 254.293 353.037 253.994C352.752 253.695 352.609 253.298 352.609 252.801C352.602 252.38 352.701 252.02 352.905 251.721C353.115 251.415 353.401 251.18 353.761 251.017C354.121 250.847 354.536 250.762 355.005 250.762C355.481 250.762 355.899 250.847 356.259 251.017C356.626 251.187 356.911 251.425 357.115 251.731C357.326 252.037 357.438 252.4 357.452 252.822H356.055C356.048 252.57 355.95 252.349 355.759 252.159C355.576 251.962 355.318 251.863 354.985 251.863C354.699 251.857 354.458 251.928 354.261 252.078C354.07 252.22 353.975 252.431 353.975 252.71C353.975 252.948 354.05 253.138 354.2 253.281C354.349 253.417 354.553 253.532 354.811 253.627C355.07 253.722 355.365 253.824 355.698 253.933C356.052 254.055 356.375 254.198 356.667 254.361C356.959 254.524 357.194 254.742 357.37 255.014C357.547 255.279 357.635 255.622 357.635 256.044C357.635 256.417 357.54 256.764 357.35 257.084C357.16 257.403 356.877 257.661 356.504 257.858C356.13 258.049 355.671 258.144 355.127 258.144ZM362.485 258.144C361.962 258.144 361.5 258.055 361.098 257.879C360.697 257.695 360.381 257.437 360.15 257.104C359.919 256.764 359.8 256.353 359.793 255.87H361.17C361.183 256.203 361.302 256.485 361.527 256.716C361.758 256.941 362.074 257.053 362.475 257.053C362.822 257.053 363.097 256.971 363.301 256.808C363.505 256.638 363.607 256.414 363.607 256.135C363.607 255.843 363.515 255.615 363.331 255.452C363.155 255.289 362.917 255.157 362.618 255.055C362.319 254.953 361.999 254.844 361.659 254.728C361.109 254.538 360.687 254.293 360.395 253.994C360.11 253.695 359.967 253.298 359.967 252.801C359.96 252.38 360.059 252.02 360.262 251.721C360.473 251.415 360.759 251.18 361.119 251.017C361.479 250.847 361.894 250.762 362.363 250.762C362.838 250.762 363.257 250.847 363.617 251.017C363.984 251.187 364.269 251.425 364.473 251.731C364.684 252.037 364.796 252.4 364.81 252.822H363.413C363.406 252.57 363.307 252.349 363.117 252.159C362.934 251.962 362.675 251.863 362.342 251.863C362.057 251.857 361.816 251.928 361.618 252.078C361.428 252.22 361.333 252.431 361.333 252.71C361.333 252.948 361.408 253.138 361.557 253.281C361.707 253.417 361.911 253.532 362.169 253.627C362.427 253.722 362.723 253.824 363.056 253.933C363.409 254.055 363.732 254.198 364.025 254.361C364.317 254.524 364.551 254.742 364.728 255.014C364.905 255.279 364.993 255.622 364.993 256.044C364.993 256.417 364.898 256.764 364.708 257.084C364.517 257.403 364.235 257.661 363.861 257.858C363.488 258.049 363.029 258.144 362.485 258.144ZM367.406 258.021V250.885H368.956L371.229 255.411L373.472 250.885H375.022V258.021H373.717V253.097L371.729 257.002H370.699L368.711 253.097V258.021H367.406ZM377.681 258.021V250.885H382.34V251.935H378.986V253.892H382.035V254.912H378.986V256.971H382.34V258.021H377.681ZM384.85 258.021V250.885H386.155L389.509 255.911V250.885H390.814V258.021H389.509L386.155 253.005V258.021H384.85ZM395.134 258.021V251.935H393.054V250.885H398.529V251.935H396.439V258.021H395.134ZM406.136 258.021V251.935H404.056V250.885H409.531V251.935H407.441V258.021H406.136ZM414.857 258.144C414.143 258.144 413.518 257.987 412.981 257.675C412.451 257.362 412.033 256.931 411.727 256.38C411.428 255.823 411.278 255.18 411.278 254.453C411.278 253.726 411.428 253.087 411.727 252.536C412.033 251.979 412.451 251.544 412.981 251.231C413.518 250.919 414.143 250.762 414.857 250.762C415.564 250.762 416.186 250.919 416.723 251.231C417.26 251.544 417.678 251.979 417.977 252.536C418.276 253.087 418.425 253.726 418.425 254.453C418.425 255.18 418.276 255.823 417.977 256.38C417.678 256.931 417.26 257.362 416.723 257.675C416.186 257.987 415.564 258.144 414.857 258.144ZM414.857 256.971C415.537 256.971 416.077 256.747 416.478 256.298C416.886 255.85 417.09 255.235 417.09 254.453C417.09 253.671 416.886 253.056 416.478 252.608C416.077 252.159 415.537 251.935 414.857 251.935C414.177 251.935 413.634 252.159 413.226 252.608C412.818 253.056 412.614 253.671 412.614 254.453C412.614 255.235 412.818 255.85 413.226 256.298C413.634 256.747 414.177 256.971 414.857 256.971ZM424.196 258.144C423.482 258.144 422.857 257.987 422.32 257.675C421.79 257.362 421.372 256.931 421.066 256.38C420.767 255.823 420.618 255.18 420.618 254.453C420.618 253.726 420.767 253.087 421.066 252.536C421.372 251.979 421.79 251.544 422.32 251.231C422.857 250.919 423.482 250.762 424.196 250.762C424.903 250.762 425.525 250.919 426.062 251.231C426.599 251.544 427.017 251.979 427.316 252.536C427.615 253.087 427.765 253.726 427.765 254.453C427.765 255.18 427.615 255.823 427.316 256.38C427.017 256.931 426.599 257.362 426.062 257.675C425.525 257.987 424.903 258.144 424.196 258.144ZM424.196 256.971C424.876 256.971 425.416 256.747 425.817 256.298C426.225 255.85 426.429 255.235 426.429 254.453C426.429 253.671 426.225 253.056 425.817 252.608C425.416 252.159 424.876 251.935 424.196 251.935C423.516 251.935 422.973 252.159 422.565 252.608C422.157 253.056 421.953 253.671 421.953 254.453C421.953 255.235 422.157 255.85 422.565 256.298C422.973 256.747 423.516 256.971 424.196 256.971ZM430.191 258.021V250.885H431.496V257.002H434.657V258.021H430.191Z" fill="black"/>
<path d="M444.902 84.0814L445.16 84.2994C446.598 85.511 447.427 87.2951 447.427 89.1749V153.164H275.253L275.238 153.152L271.042 149.559V142.938L422.087 82.5801H440.792C441.619 82.5801 442.431 82.7408 443.186 83.0466C443.804 83.297 444.384 83.6448 444.902 84.0814Z" fill="#1E1F24"/>
<rect x="271.862" y="83.3596" width="170.582" height="65.3631" fill="white"/>
<rect x="271.862" y="83.3596" width="170.582" height="65.3631" fill="#00B37A"/>
<rect x="271.862" y="83.3596" width="170.582" height="65.3631" stroke="#1E1F24" stroke-width="1.59422"/>
<path d="M287.222 120.84V112.093H289.122L291.908 117.641L294.657 112.093H296.556V120.84H294.957V114.805L292.52 119.59H291.258L288.822 114.805V120.84H287.222ZM300.645 120.84V112.093H306.292V113.38H302.244V115.829H305.518V117.091H302.244V120.84H300.645ZM309.918 120.84V112.093H311.517V120.84H309.918ZM324.934 120.99C324.051 120.99 323.293 120.802 322.659 120.427C322.026 120.044 321.539 119.515 321.197 118.841C320.856 118.158 320.685 117.37 320.685 116.479C320.685 115.588 320.856 114.8 321.197 114.117C321.539 113.434 322.026 112.901 322.659 112.518C323.293 112.135 324.051 111.943 324.934 111.943C325.983 111.943 326.841 112.206 327.508 112.73C328.182 113.247 328.603 113.976 328.77 114.917H327.008C326.9 114.442 326.666 114.072 326.308 113.805C325.958 113.53 325.492 113.393 324.909 113.393C324.101 113.393 323.467 113.667 323.009 114.217C322.551 114.767 322.322 115.521 322.322 116.479C322.322 117.437 322.551 118.191 323.009 118.741C323.467 119.282 324.101 119.553 324.909 119.553C325.492 119.553 325.958 119.428 326.308 119.178C326.666 118.92 326.9 118.566 327.008 118.116H328.77C328.603 119.016 328.182 119.719 327.508 120.228C326.841 120.736 325.983 120.99 324.934 120.99ZM336.675 120.99C335.8 120.99 335.034 120.798 334.376 120.415C333.726 120.032 333.214 119.503 332.839 118.828C332.473 118.145 332.289 117.358 332.289 116.466C332.289 115.575 332.473 114.792 332.839 114.117C333.214 113.434 333.726 112.901 334.376 112.518C335.034 112.135 335.8 111.943 336.675 111.943C337.542 111.943 338.304 112.135 338.962 112.518C339.62 112.901 340.132 113.434 340.499 114.117C340.865 114.792 341.049 115.575 341.049 116.466C341.049 117.358 340.865 118.145 340.499 118.828C340.132 119.503 339.62 120.032 338.962 120.415C338.304 120.798 337.542 120.99 336.675 120.99ZM336.675 119.553C337.508 119.553 338.17 119.278 338.662 118.728C339.162 118.178 339.412 117.424 339.412 116.466C339.412 115.508 339.162 114.755 338.662 114.205C338.17 113.655 337.508 113.38 336.675 113.38C335.842 113.38 335.176 113.655 334.676 114.205C334.176 114.755 333.926 115.508 333.926 116.466C333.926 117.424 334.176 118.178 334.676 118.728C335.176 119.278 335.842 119.553 336.675 119.553ZM344.852 120.84V112.093H346.751L349.538 117.641L352.287 112.093H354.186V120.84H352.587V114.805L350.15 119.59H348.888L346.451 114.805V120.84H344.852ZM358.274 120.84V112.093H361.511C362.21 112.093 362.789 112.21 363.247 112.443C363.706 112.676 364.047 112.997 364.272 113.405C364.497 113.813 364.609 114.271 364.609 114.78C364.609 115.263 364.501 115.708 364.285 116.117C364.068 116.516 363.731 116.841 363.272 117.091C362.814 117.333 362.227 117.454 361.511 117.454H359.874V120.84H358.274ZM359.874 116.154H361.411C361.969 116.154 362.369 116.033 362.61 115.792C362.86 115.542 362.985 115.204 362.985 114.78C362.985 114.346 362.86 114.009 362.61 113.767C362.369 113.518 361.969 113.393 361.411 113.393H359.874V116.154ZM372.354 120.99C371.479 120.99 370.713 120.798 370.055 120.415C369.405 120.032 368.893 119.503 368.518 118.828C368.151 118.145 367.968 117.358 367.968 116.466C367.968 115.575 368.151 114.792 368.518 114.117C368.893 113.434 369.405 112.901 370.055 112.518C370.713 112.135 371.479 111.943 372.354 111.943C373.22 111.943 373.982 112.135 374.641 112.518C375.299 112.901 375.811 113.434 376.177 114.117C376.544 114.792 376.727 115.575 376.727 116.466C376.727 117.358 376.544 118.145 376.177 118.828C375.811 119.503 375.299 120.032 374.641 120.415C373.982 120.798 373.22 120.99 372.354 120.99ZM372.354 119.553C373.187 119.553 373.849 119.278 374.341 118.728C374.84 118.178 375.09 117.424 375.09 116.466C375.09 115.508 374.84 114.755 374.341 114.205C373.849 113.655 373.187 113.38 372.354 113.38C371.521 113.38 370.854 113.655 370.355 114.205C369.855 114.755 369.605 115.508 369.605 116.466C369.605 117.424 369.855 118.178 370.355 118.728C370.854 119.278 371.521 119.553 372.354 119.553ZM380.531 120.84V112.093H382.13L386.241 118.253V112.093H387.84V120.84H386.241L382.13 114.692V120.84H380.531ZM391.927 120.84V112.093H397.638V113.38H393.527V115.779H397.263V117.029H393.527V119.553H397.638V120.84H391.927ZM401.542 120.84V112.093H403.142L407.253 118.253V112.093H408.852V120.84H407.253L403.142 114.692V120.84H401.542ZM414.976 120.84V113.38H412.427V112.093H419.137V113.38H416.575V120.84H414.976ZM425.589 120.99C424.948 120.99 424.382 120.881 423.89 120.665C423.399 120.44 423.011 120.123 422.728 119.715C422.445 119.299 422.299 118.795 422.291 118.203H423.978C423.994 118.611 424.14 118.957 424.415 119.24C424.698 119.515 425.085 119.653 425.577 119.653C426.002 119.653 426.339 119.553 426.589 119.353C426.839 119.145 426.964 118.87 426.964 118.528C426.964 118.17 426.852 117.891 426.627 117.691C426.41 117.491 426.118 117.329 425.752 117.204C425.385 117.079 424.994 116.945 424.577 116.804C423.903 116.571 423.386 116.271 423.028 115.904C422.678 115.538 422.503 115.05 422.503 114.442C422.495 113.926 422.616 113.484 422.865 113.118C423.124 112.743 423.474 112.455 423.915 112.256C424.357 112.047 424.865 111.943 425.44 111.943C426.023 111.943 426.535 112.047 426.976 112.256C427.426 112.464 427.776 112.755 428.026 113.13C428.284 113.505 428.422 113.951 428.438 114.467H426.727C426.718 114.159 426.597 113.888 426.364 113.655C426.139 113.413 425.823 113.293 425.415 113.293C425.065 113.284 424.769 113.372 424.527 113.555C424.294 113.73 424.177 113.988 424.177 114.33C424.177 114.621 424.269 114.855 424.452 115.029C424.636 115.196 424.886 115.338 425.202 115.454C425.519 115.571 425.881 115.696 426.289 115.829C426.722 115.979 427.118 116.154 427.476 116.354C427.834 116.554 428.122 116.82 428.338 117.154C428.555 117.479 428.663 117.899 428.663 118.416C428.663 118.874 428.547 119.299 428.313 119.69C428.08 120.082 427.735 120.398 427.276 120.64C426.818 120.873 426.256 120.99 425.589 120.99Z" fill="white"/>
<path d="M319.387 83.2127L359.383 45.4922L399.38 83.2127" stroke="#1E1F24" stroke-opacity="0.3"/>
<circle cx="359.384" cy="45.8173" r="1.62588" fill="white"/>
<path d="M540.471 276.533L580.467 238.812L620.464 276.533" stroke="#1E1F24" stroke-opacity="0.3"/>
<circle cx="580.468" cy="239.138" r="1.62588" fill="white"/>
<g clip-path="url(#clip2)">
<path fill-rule="evenodd" clip-rule="evenodd" d="M663.934 268.078H491.758V335.031H491.693L496.474 339.813H668.649V272.859L663.934 268.17V268.078Z" fill="#1E1F24"/>
</g>
<rect x="492.6" y="268.871" width="170.582" height="53.0379" rx="1.8043" fill="white" stroke="#1E1F24" stroke-width="1.59422"/>
<path d="M527.49 292.734V285.598H528.795V292.734H527.49ZM531.452 292.734V285.598H532.757L536.112 290.624V285.598H537.417V292.734H536.112L532.757 287.718V292.734H531.452ZM540.075 292.734V285.598H542.511C543.347 285.598 544.034 285.747 544.571 286.046C545.115 286.338 545.516 286.753 545.774 287.29C546.039 287.82 546.171 288.446 546.171 289.166C546.171 289.886 546.039 290.515 545.774 291.052C545.516 291.582 545.115 291.997 544.571 292.296C544.034 292.588 543.347 292.734 542.511 292.734H540.075ZM541.38 291.613H542.45C543.048 291.613 543.521 291.518 543.867 291.327C544.214 291.13 544.462 290.852 544.612 290.491C544.761 290.124 544.836 289.683 544.836 289.166C544.836 288.656 544.761 288.218 544.612 287.851C544.462 287.484 544.214 287.202 543.867 287.005C543.521 286.807 543.048 286.709 542.45 286.709H541.38V291.613ZM551.35 292.857C550.827 292.857 550.354 292.755 549.933 292.551C549.512 292.34 549.175 292.024 548.924 291.603C548.679 291.181 548.557 290.648 548.557 290.002V285.598H549.862V290.012C549.862 290.57 549.994 290.984 550.259 291.256C550.531 291.528 550.905 291.664 551.381 291.664C551.85 291.664 552.22 291.528 552.492 291.256C552.764 290.984 552.9 290.57 552.9 290.012V285.598H554.205V290.002C554.205 290.648 554.076 291.181 553.817 291.603C553.559 292.024 553.212 292.34 552.777 292.551C552.349 292.755 551.873 292.857 551.35 292.857ZM559.248 292.857C558.725 292.857 558.262 292.768 557.861 292.592C557.46 292.408 557.144 292.15 556.913 291.817C556.682 291.477 556.563 291.066 556.556 290.583H557.933C557.946 290.916 558.065 291.198 558.29 291.429C558.521 291.654 558.837 291.766 559.238 291.766C559.584 291.766 559.86 291.684 560.064 291.521C560.268 291.351 560.37 291.127 560.37 290.848C560.37 290.556 560.278 290.328 560.094 290.165C559.918 290.002 559.68 289.869 559.381 289.768C559.082 289.666 558.762 289.557 558.422 289.441C557.872 289.251 557.45 289.006 557.158 288.707C556.873 288.408 556.73 288.011 556.73 287.514C556.723 287.093 556.822 286.733 557.025 286.434C557.236 286.128 557.522 285.893 557.882 285.73C558.242 285.56 558.657 285.475 559.126 285.475C559.601 285.475 560.019 285.56 560.38 285.73C560.747 285.9 561.032 286.138 561.236 286.444C561.447 286.75 561.559 287.113 561.573 287.535H560.176C560.169 287.283 560.07 287.062 559.88 286.872C559.697 286.675 559.438 286.576 559.105 286.576C558.82 286.57 558.579 286.641 558.381 286.79C558.191 286.933 558.096 287.144 558.096 287.423C558.096 287.66 558.171 287.851 558.32 287.994C558.47 288.129 558.674 288.245 558.932 288.34C559.19 288.435 559.486 288.537 559.819 288.646C560.172 288.768 560.495 288.911 560.788 289.074C561.08 289.237 561.314 289.455 561.491 289.727C561.668 289.992 561.756 290.335 561.756 290.756C561.756 291.13 561.661 291.477 561.471 291.796C561.28 292.116 560.998 292.374 560.624 292.571C560.251 292.762 559.792 292.857 559.248 292.857ZM565.741 292.734V286.648H563.662V285.598H569.136V286.648H567.046V292.734H565.741ZM571.378 292.734V285.598H573.998C574.569 285.598 575.038 285.696 575.405 285.893C575.779 286.084 576.057 286.345 576.241 286.678C576.424 287.005 576.516 287.368 576.516 287.769C576.516 288.204 576.4 288.602 576.169 288.962C575.945 289.322 575.592 289.584 575.109 289.747L576.587 292.734H575.089L573.763 289.92H572.683V292.734H571.378ZM572.683 288.962H573.916C574.351 288.962 574.671 288.857 574.875 288.646C575.078 288.435 575.18 288.157 575.18 287.81C575.18 287.47 575.078 287.198 574.875 286.994C574.677 286.79 574.355 286.689 573.906 286.689H572.683V288.962ZM580.601 292.734V290.196L578.205 285.598H579.683L581.263 288.891L582.833 285.598H584.291L581.906 290.196V292.734H580.601ZM590.106 292.734V285.598H594.765V286.648H591.411V288.605H594.459V289.625H591.411V291.684H594.765V292.734H590.106ZM596.927 292.734L599.16 289.125L596.897 285.598H598.396L599.996 288.085L601.464 285.598H602.933L600.7 289.186L602.984 292.734H601.485L599.864 290.216L598.396 292.734H596.927ZM605.269 292.734V285.598H607.91C608.481 285.598 608.953 285.693 609.327 285.883C609.701 286.073 609.979 286.335 610.163 286.668C610.346 287.001 610.438 287.375 610.438 287.79C610.438 288.184 610.35 288.547 610.173 288.881C609.996 289.207 609.721 289.472 609.347 289.676C608.973 289.873 608.494 289.971 607.91 289.971H606.574V292.734H605.269ZM606.574 288.911H607.828C608.284 288.911 608.61 288.813 608.807 288.615C609.011 288.412 609.113 288.136 609.113 287.79C609.113 287.436 609.011 287.161 608.807 286.964C608.61 286.76 608.284 286.658 607.828 286.658H606.574V288.911ZM612.736 292.734V285.598H617.396V286.648H614.041V288.605H617.09V289.625H614.041V291.684H617.396V292.734H612.736ZM619.905 292.734V285.598H622.525C623.096 285.598 623.565 285.696 623.932 285.893C624.306 286.084 624.585 286.345 624.768 286.678C624.952 287.005 625.043 287.368 625.043 287.769C625.043 288.204 624.928 288.602 624.697 288.962C624.473 289.322 624.119 289.584 623.637 289.747L625.115 292.734H623.616L622.291 289.92H621.21V292.734H619.905ZM621.21 288.962H622.444C622.879 288.962 623.198 288.857 623.402 288.646C623.606 288.435 623.708 288.157 623.708 287.81C623.708 287.47 623.606 287.198 623.402 286.994C623.205 286.79 622.882 286.689 622.433 286.689H621.21V288.962ZM629.193 292.734V286.648H627.114V285.598H632.589V286.648H630.498V292.734H629.193ZM546.669 308.857C545.996 308.857 545.408 308.704 544.905 308.398C544.402 308.092 544.012 307.667 543.733 307.124C543.454 306.573 543.315 305.934 543.315 305.207C543.315 304.473 543.458 303.827 543.743 303.27C544.035 302.706 544.447 302.267 544.977 301.954C545.514 301.635 546.149 301.475 546.883 301.475C547.719 301.475 548.413 301.676 548.963 302.077C549.514 302.478 549.871 303.032 550.034 303.739H548.576C548.467 303.406 548.27 303.147 547.984 302.964C547.699 302.773 547.332 302.678 546.883 302.678C546.17 302.678 545.619 302.906 545.232 303.361C544.844 303.81 544.651 304.429 544.651 305.217C544.651 306.005 544.841 306.617 545.221 307.052C545.609 307.48 546.132 307.694 546.792 307.694C547.437 307.694 547.923 307.521 548.249 307.174C548.583 306.821 548.783 306.359 548.851 305.788H547.046V304.809H550.166V308.734H548.963L548.861 307.796C548.63 308.136 548.341 308.398 547.995 308.581C547.648 308.765 547.206 308.857 546.669 308.857ZM552.709 308.734V301.598H555.33C555.9 301.598 556.369 301.696 556.736 301.893C557.11 302.084 557.389 302.345 557.572 302.678C557.756 303.005 557.848 303.368 557.848 303.769C557.848 304.204 557.732 304.602 557.501 304.962C557.277 305.322 556.923 305.584 556.441 305.747L557.919 308.734H556.42L555.095 305.92H554.014V308.734H552.709ZM554.014 304.962H555.248C555.683 304.962 556.002 304.857 556.206 304.646C556.41 304.435 556.512 304.157 556.512 303.81C556.512 303.47 556.41 303.198 556.206 302.994C556.009 302.79 555.686 302.689 555.238 302.689H554.014V304.962ZM563.68 308.857C562.966 308.857 562.341 308.7 561.804 308.388C561.274 308.075 560.856 307.643 560.55 307.093C560.251 306.536 560.101 305.893 560.101 305.166C560.101 304.439 560.251 303.8 560.55 303.249C560.856 302.692 561.274 302.257 561.804 301.944C562.341 301.632 562.966 301.475 563.68 301.475C564.387 301.475 565.009 301.632 565.546 301.944C566.083 302.257 566.501 302.692 566.8 303.249C567.099 303.8 567.248 304.439 567.248 305.166C567.248 305.893 567.099 306.536 566.8 307.093C566.501 307.643 566.083 308.075 565.546 308.388C565.009 308.7 564.387 308.857 563.68 308.857ZM563.68 307.684C564.36 307.684 564.9 307.46 565.301 307.011C565.709 306.563 565.913 305.948 565.913 305.166C565.913 304.384 565.709 303.769 565.301 303.321C564.9 302.872 564.36 302.648 563.68 302.648C563 302.648 562.457 302.872 562.049 303.321C561.641 303.769 561.437 304.384 561.437 305.166C561.437 305.948 561.641 306.563 562.049 307.011C562.457 307.46 563 307.684 563.68 307.684ZM572.428 308.857C571.904 308.857 571.432 308.755 571.011 308.551C570.589 308.34 570.253 308.024 570.001 307.603C569.757 307.181 569.634 306.648 569.634 306.002V301.598H570.939V306.012C570.939 306.57 571.072 306.984 571.337 307.256C571.609 307.528 571.983 307.664 572.458 307.664C572.927 307.664 573.298 307.528 573.57 307.256C573.842 306.984 573.977 306.57 573.977 306.012V301.598H575.282V306.002C575.282 306.648 575.153 307.181 574.895 307.603C574.637 308.024 574.29 308.34 573.855 308.551C573.427 308.755 572.951 308.857 572.428 308.857ZM577.889 308.734V301.598H580.53C581.101 301.598 581.573 301.693 581.947 301.883C582.321 302.073 582.599 302.335 582.783 302.668C582.966 303.001 583.058 303.375 583.058 303.79C583.058 304.184 582.97 304.547 582.793 304.881C582.616 305.207 582.341 305.472 581.967 305.676C581.593 305.873 581.114 305.971 580.53 305.971H579.194V308.734H577.889ZM579.194 304.911H580.448C580.903 304.911 581.23 304.813 581.427 304.615C581.631 304.412 581.733 304.136 581.733 303.79C581.733 303.436 581.631 303.161 581.427 302.964C581.23 302.76 580.903 302.658 580.448 302.658H579.194V304.911ZM590.804 310.213C590.423 309.832 590.083 309.39 589.784 308.887C589.492 308.391 589.257 307.844 589.08 307.246C588.911 306.648 588.826 306.012 588.826 305.339C588.826 304.666 588.911 304.031 589.08 303.433C589.257 302.835 589.492 302.288 589.784 301.791C590.083 301.288 590.423 300.847 590.804 300.466H592.109V300.588C591.497 301.234 591.011 301.965 590.651 302.78C590.29 303.589 590.11 304.442 590.11 305.339C590.11 306.237 590.29 307.093 590.651 307.909C591.011 308.717 591.497 309.445 592.109 310.09V310.213H590.804ZM594.407 308.734V301.598H595.712V308.734H594.407ZM598.369 308.734V301.598H603.029V302.648H599.674V304.605H602.723V305.625H599.674V307.684H603.029V308.734H598.369ZM608.658 308.857C607.985 308.857 607.397 308.704 606.894 308.398C606.391 308.092 606 307.667 605.721 307.124C605.443 306.573 605.303 305.934 605.303 305.207C605.303 304.473 605.446 303.827 605.732 303.27C606.024 302.706 606.435 302.267 606.965 301.954C607.502 301.635 608.138 301.475 608.872 301.475C609.708 301.475 610.401 301.676 610.952 302.077C611.502 302.478 611.859 303.032 612.022 303.739H610.564C610.455 303.406 610.258 303.147 609.973 302.964C609.687 302.773 609.32 302.678 608.872 302.678C608.158 302.678 607.608 302.906 607.22 303.361C606.833 303.81 606.639 304.429 606.639 305.217C606.639 306.005 606.829 306.617 607.21 307.052C607.597 307.48 608.121 307.694 608.78 307.694C609.426 307.694 609.912 307.521 610.238 307.174C610.571 306.821 610.772 306.359 610.84 305.788H609.035V304.809H612.155V308.734H610.952L610.85 307.796C610.619 308.136 610.33 308.398 609.983 308.581C609.636 308.765 609.195 308.857 608.658 308.857ZM614.331 310.213V310.09C614.943 309.445 615.428 308.717 615.789 307.909C616.149 307.093 616.329 306.237 616.329 305.339C616.329 304.442 616.149 303.589 615.789 302.78C615.428 301.965 614.943 301.234 614.331 300.588V300.466H615.636C616.016 300.847 616.353 301.288 616.645 301.791C616.944 302.288 617.179 302.835 617.349 303.433C617.525 304.031 617.614 304.666 617.614 305.339C617.614 306.012 617.525 306.648 617.349 307.246C617.179 307.844 616.944 308.391 616.645 308.887C616.353 309.39 616.016 309.832 615.636 310.213H614.331Z" fill="black"/>
<rect width="720" height="42" transform="translate(0 396)" fill="#B7B7BA"/>
<path d="M174.245 422.5V414.66H175.679V422.5H174.245ZM179.198 422.5V414.66H180.901L183.398 419.633L185.862 414.66H187.565V422.5H186.131V417.09L183.947 421.38H182.816L180.632 417.09V422.5H179.198ZM191.086 422.5V414.66H193.987C194.614 414.66 195.133 414.765 195.543 414.974C195.954 415.183 196.26 415.47 196.462 415.836C196.663 416.202 196.764 416.613 196.764 417.068C196.764 417.501 196.667 417.901 196.473 418.266C196.279 418.625 195.976 418.916 195.566 419.14C195.155 419.357 194.629 419.465 193.987 419.465H192.519V422.5H191.086ZM192.519 418.3H193.897C194.397 418.3 194.756 418.192 194.972 417.975C195.196 417.751 195.308 417.449 195.308 417.068C195.308 416.68 195.196 416.377 194.972 416.161C194.756 415.937 194.397 415.825 193.897 415.825H192.519V418.3ZM199.889 422.5V414.66H202.767C203.395 414.66 203.91 414.768 204.313 414.985C204.724 415.194 205.03 415.481 205.231 415.847C205.433 416.206 205.534 416.605 205.534 417.046C205.534 417.523 205.407 417.96 205.153 418.356C204.907 418.752 204.518 419.039 203.988 419.218L205.612 422.5H203.966L202.51 419.409H201.323V422.5H199.889ZM201.323 418.356H202.678C203.156 418.356 203.507 418.24 203.731 418.009C203.955 417.777 204.067 417.471 204.067 417.09C204.067 416.717 203.955 416.418 203.731 416.194C203.514 415.97 203.159 415.858 202.667 415.858H201.323V418.356ZM212.541 422.634C211.757 422.634 211.07 422.463 210.48 422.119C209.897 421.776 209.438 421.302 209.102 420.697C208.774 420.085 208.609 419.379 208.609 418.58C208.609 417.781 208.774 417.079 209.102 416.474C209.438 415.862 209.897 415.384 210.48 415.041C211.07 414.697 211.757 414.526 212.541 414.526C213.317 414.526 214 414.697 214.59 415.041C215.18 415.384 215.639 415.862 215.968 416.474C216.296 417.079 216.461 417.781 216.461 418.58C216.461 419.379 216.296 420.085 215.968 420.697C215.639 421.302 215.18 421.776 214.59 422.119C214 422.463 213.317 422.634 212.541 422.634ZM212.541 421.346C213.287 421.346 213.881 421.1 214.321 420.607C214.769 420.114 214.993 419.439 214.993 418.58C214.993 417.721 214.769 417.046 214.321 416.553C213.881 416.06 213.287 415.814 212.541 415.814C211.794 415.814 211.197 416.06 210.749 416.553C210.301 417.046 210.077 417.721 210.077 418.58C210.077 419.439 210.301 420.114 210.749 420.607C211.197 421.1 211.794 421.346 212.541 421.346ZM221.738 422.5L218.87 414.66H220.405L222.622 421.033L224.851 414.66H226.363L223.496 422.5H221.738ZM229.295 422.5V414.66H234.414V415.814H230.729V417.964H234.078V419.084H230.729V421.346H234.414V422.5H229.295ZM237.77 422.5V414.66H240.447C241.365 414.66 242.12 414.824 242.709 415.153C243.307 415.474 243.747 415.929 244.031 416.519C244.322 417.102 244.468 417.789 244.468 418.58C244.468 419.371 244.322 420.062 244.031 420.652C243.747 421.234 243.307 421.69 242.709 422.018C242.12 422.339 241.365 422.5 240.447 422.5H237.77ZM239.204 421.268H240.38C241.037 421.268 241.556 421.163 241.937 420.954C242.317 420.738 242.59 420.432 242.754 420.036C242.918 419.633 243.001 419.147 243.001 418.58C243.001 418.02 242.918 417.538 242.754 417.135C242.59 416.732 242.317 416.422 241.937 416.206C241.556 415.989 241.037 415.881 240.38 415.881H239.204V421.268ZM251.897 422.5L254.765 414.66H256.377L259.245 422.5H257.721L257.094 420.686H254.037L253.398 422.5H251.897ZM254.429 419.566H256.702L255.56 416.306L254.429 419.566ZM265.357 422.634C264.565 422.634 263.886 422.466 263.318 422.13C262.751 421.787 262.314 421.313 262.008 420.708C261.702 420.096 261.549 419.39 261.549 418.591C261.549 417.792 261.702 417.087 262.008 416.474C262.314 415.862 262.751 415.384 263.318 415.041C263.886 414.697 264.565 414.526 265.357 414.526C266.297 414.526 267.066 414.761 267.664 415.231C268.269 415.694 268.646 416.347 268.795 417.191H267.216C267.119 416.766 266.91 416.433 266.589 416.194C266.275 415.948 265.857 415.825 265.334 415.825C264.61 415.825 264.042 416.071 263.632 416.564C263.221 417.057 263.016 417.733 263.016 418.591C263.016 419.45 263.221 420.126 263.632 420.618C264.042 421.104 264.61 421.346 265.334 421.346C265.857 421.346 266.275 421.234 266.589 421.01C266.91 420.779 267.119 420.462 267.216 420.058H268.795C268.646 420.865 268.269 421.496 267.664 421.951C267.066 422.407 266.297 422.634 265.357 422.634ZM275.614 422.634C274.823 422.634 274.143 422.466 273.576 422.13C273.008 421.787 272.572 421.313 272.266 420.708C271.959 420.096 271.806 419.39 271.806 418.591C271.806 417.792 271.959 417.087 272.266 416.474C272.572 415.862 273.008 415.384 273.576 415.041C274.143 414.697 274.823 414.526 275.614 414.526C276.555 414.526 277.324 414.761 277.922 415.231C278.526 415.694 278.903 416.347 279.053 417.191H277.474C277.376 416.766 277.167 416.433 276.846 416.194C276.533 415.948 276.115 415.825 275.592 415.825C274.868 415.825 274.3 416.071 273.89 416.564C273.479 417.057 273.274 417.733 273.274 418.591C273.274 419.45 273.479 420.126 273.89 420.618C274.3 421.104 274.868 421.346 275.592 421.346C276.115 421.346 276.533 421.234 276.846 421.01C277.167 420.779 277.376 420.462 277.474 420.058H279.053C278.903 420.865 278.526 421.496 277.922 421.951C277.324 422.407 276.555 422.634 275.614 422.634ZM282.322 422.5V414.66H287.44V415.814H283.755V417.964H287.104V419.084H283.755V421.346H287.44V422.5H282.322ZM293.474 422.634C292.899 422.634 292.391 422.537 291.95 422.343C291.51 422.142 291.163 421.858 290.909 421.492C290.655 421.119 290.524 420.667 290.517 420.137H292.029C292.044 420.503 292.174 420.813 292.421 421.066C292.675 421.313 293.022 421.436 293.462 421.436C293.843 421.436 294.146 421.346 294.37 421.167C294.594 420.981 294.706 420.734 294.706 420.428C294.706 420.107 294.605 419.857 294.403 419.678C294.209 419.498 293.948 419.353 293.619 419.241C293.291 419.129 292.94 419.009 292.566 418.882C291.962 418.673 291.499 418.405 291.178 418.076C290.864 417.747 290.707 417.311 290.707 416.766C290.7 416.303 290.808 415.907 291.032 415.578C291.263 415.242 291.577 414.985 291.973 414.806C292.368 414.619 292.824 414.526 293.339 414.526C293.862 414.526 294.321 414.619 294.717 414.806C295.12 414.992 295.434 415.254 295.658 415.59C295.889 415.926 296.012 416.325 296.027 416.788H294.493C294.485 416.512 294.377 416.269 294.168 416.06C293.966 415.843 293.683 415.735 293.317 415.735C293.003 415.728 292.738 415.806 292.522 415.97C292.312 416.127 292.208 416.359 292.208 416.665C292.208 416.926 292.29 417.135 292.454 417.292C292.619 417.441 292.843 417.568 293.126 417.673C293.41 417.777 293.735 417.889 294.101 418.009C294.489 418.143 294.844 418.3 295.165 418.479C295.486 418.658 295.743 418.897 295.938 419.196C296.132 419.487 296.229 419.864 296.229 420.327C296.229 420.738 296.124 421.119 295.915 421.47C295.706 421.821 295.396 422.104 294.986 422.321C294.575 422.53 294.071 422.634 293.474 422.634ZM302.156 422.634C301.581 422.634 301.074 422.537 300.633 422.343C300.193 422.142 299.845 421.858 299.592 421.492C299.338 421.119 299.207 420.667 299.2 420.137H300.712C300.727 420.503 300.857 420.813 301.104 421.066C301.357 421.313 301.705 421.436 302.145 421.436C302.526 421.436 302.828 421.346 303.052 421.167C303.276 420.981 303.388 420.734 303.388 420.428C303.388 420.107 303.288 419.857 303.086 419.678C302.892 419.498 302.631 419.353 302.302 419.241C301.973 419.129 301.623 419.009 301.249 418.882C300.644 418.673 300.181 418.405 299.86 418.076C299.547 417.747 299.39 417.311 299.39 416.766C299.383 416.303 299.491 415.907 299.715 415.578C299.946 415.242 300.26 414.985 300.656 414.806C301.051 414.619 301.507 414.526 302.022 414.526C302.545 414.526 303.004 414.619 303.4 414.806C303.803 414.992 304.116 415.254 304.34 415.59C304.572 415.926 304.695 416.325 304.71 416.788H303.176C303.168 416.512 303.06 416.269 302.851 416.06C302.649 415.843 302.365 415.735 302 415.735C301.686 415.728 301.421 415.806 301.204 415.97C300.995 416.127 300.891 416.359 300.891 416.665C300.891 416.926 300.973 417.135 301.137 417.292C301.301 417.441 301.525 417.568 301.809 417.673C302.093 417.777 302.418 417.889 302.784 418.009C303.172 418.143 303.527 418.3 303.848 418.479C304.169 418.658 304.426 418.897 304.62 419.196C304.815 419.487 304.912 419.864 304.912 420.327C304.912 420.738 304.807 421.119 304.598 421.47C304.389 421.821 304.079 422.104 303.668 422.321C303.258 422.53 302.754 422.634 302.156 422.634ZM314.657 422.5V415.814H312.372V414.66H318.386V415.814H316.09V422.5H314.657ZM324.838 422.634C324.054 422.634 323.367 422.463 322.777 422.119C322.194 421.776 321.735 421.302 321.399 420.697C321.071 420.085 320.906 419.379 320.906 418.58C320.906 417.781 321.071 417.079 321.399 416.474C321.735 415.862 322.194 415.384 322.777 415.041C323.367 414.697 324.054 414.526 324.838 414.526C325.614 414.526 326.297 414.697 326.887 415.041C327.477 415.384 327.936 415.862 328.265 416.474C328.593 417.079 328.758 417.781 328.758 418.58C328.758 419.379 328.593 420.085 328.265 420.697C327.936 421.302 327.477 421.776 326.887 422.119C326.297 422.463 325.614 422.634 324.838 422.634ZM324.838 421.346C325.584 421.346 326.178 421.1 326.618 420.607C327.066 420.114 327.29 419.439 327.29 418.58C327.29 417.721 327.066 417.046 326.618 416.553C326.178 416.06 325.584 415.814 324.838 415.814C324.091 415.814 323.494 416.06 323.046 416.553C322.598 417.046 322.374 417.721 322.374 418.58C322.374 419.439 322.598 420.114 323.046 420.607C323.494 421.1 324.091 421.346 324.838 421.346ZM339.369 422.634C338.794 422.634 338.286 422.537 337.846 422.343C337.405 422.142 337.058 421.858 336.804 421.492C336.55 421.119 336.42 420.667 336.412 420.137H337.924C337.939 420.503 338.07 420.813 338.316 421.066C338.57 421.313 338.917 421.436 339.358 421.436C339.738 421.436 340.041 421.346 340.265 421.167C340.489 420.981 340.601 420.734 340.601 420.428C340.601 420.107 340.5 419.857 340.298 419.678C340.104 419.498 339.843 419.353 339.514 419.241C339.186 419.129 338.835 419.009 338.462 418.882C337.857 418.673 337.394 418.405 337.073 418.076C336.759 417.747 336.602 417.311 336.602 416.766C336.595 416.303 336.703 415.907 336.927 415.578C337.159 415.242 337.472 414.985 337.868 414.806C338.264 414.619 338.719 414.526 339.234 414.526C339.757 414.526 340.216 414.619 340.612 414.806C341.015 414.992 341.329 415.254 341.553 415.59C341.784 415.926 341.908 416.325 341.922 416.788H340.388C340.381 416.512 340.272 416.269 340.063 416.06C339.862 415.843 339.578 415.735 339.212 415.735C338.898 415.728 338.633 415.806 338.417 415.97C338.208 416.127 338.103 416.359 338.103 416.665C338.103 416.926 338.185 417.135 338.35 417.292C338.514 417.441 338.738 417.568 339.022 417.673C339.305 417.777 339.63 417.889 339.996 418.009C340.384 418.143 340.739 418.3 341.06 418.479C341.381 418.658 341.639 418.897 341.833 419.196C342.027 419.487 342.124 419.864 342.124 420.327C342.124 420.738 342.02 421.119 341.81 421.47C341.601 421.821 341.292 422.104 340.881 422.321C340.47 422.53 339.966 422.634 339.369 422.634ZM344.871 422.5L347.738 414.66H349.351L352.218 422.5H350.695L350.068 420.686H347.01L346.372 422.5H344.871ZM347.402 419.566H349.676L348.533 416.306L347.402 419.566ZM355.228 422.5V414.66H360.29V415.814H356.662V418.009H359.596V419.14H356.662V422.5H355.228ZM363.397 422.5V414.66H368.515V415.814H364.83V417.964H368.179V419.084H364.83V421.346H368.515V422.5H363.397ZM376.037 422.5L378.904 414.66H380.517L383.384 422.5H381.861L381.233 420.686H378.176L377.537 422.5H376.037ZM378.568 419.566H380.841L379.699 416.306L378.568 419.566ZM386.394 422.5V414.66H387.827L391.512 420.182V414.66H392.946V422.5H391.512L387.827 416.99V422.5H386.394ZM396.466 422.5V414.66H399.142C400.061 414.66 400.815 414.824 401.405 415.153C402.002 415.474 402.443 415.929 402.726 416.519C403.018 417.102 403.163 417.789 403.163 418.58C403.163 419.371 403.018 420.062 402.726 420.652C402.443 421.234 402.002 421.69 401.405 422.018C400.815 422.339 400.061 422.5 399.142 422.5H396.466ZM397.899 421.268H399.075C399.732 421.268 400.251 421.163 400.632 420.954C401.013 420.738 401.285 420.432 401.45 420.036C401.614 419.633 401.696 419.147 401.696 418.58C401.696 418.02 401.614 417.538 401.45 417.135C401.285 416.732 401.013 416.422 400.632 416.206C400.251 415.989 399.732 415.881 399.075 415.881H397.899V421.268ZM411.097 422.5V414.66H412.53L416.215 420.182V414.66H417.649V422.5H416.215L412.53 416.99V422.5H411.097ZM424.193 422.634C423.618 422.634 423.099 422.522 422.636 422.298C422.173 422.067 421.803 421.72 421.527 421.257C421.258 420.794 421.124 420.208 421.124 419.498V414.66H422.557V419.51C422.557 420.122 422.703 420.577 422.994 420.876C423.293 421.175 423.704 421.324 424.226 421.324C424.741 421.324 425.148 421.175 425.447 420.876C425.746 420.577 425.895 420.122 425.895 419.51V414.66H427.329V419.498C427.329 420.208 427.187 420.794 426.903 421.257C426.619 421.72 426.238 422.067 425.761 422.298C425.29 422.522 424.768 422.634 424.193 422.634ZM432.618 422.5V415.814H430.333V414.66H436.347V415.814H434.051V422.5H432.618ZM439.409 422.5V414.66H442.288C442.915 414.66 443.43 414.768 443.833 414.985C444.244 415.194 444.55 415.481 444.752 415.847C444.953 416.206 445.054 416.605 445.054 417.046C445.054 417.523 444.927 417.96 444.673 418.356C444.427 418.752 444.039 419.039 443.508 419.218L445.132 422.5H443.486L442.03 419.409H440.843V422.5H439.409ZM440.843 418.356H442.198C442.676 418.356 443.027 418.24 443.251 418.009C443.475 417.777 443.587 417.471 443.587 417.09C443.587 416.717 443.475 416.418 443.251 416.194C443.034 415.97 442.68 415.858 442.187 415.858H440.843V418.356ZM448.387 422.5V414.66H449.821V422.5H448.387ZM455.166 422.5V415.814H452.881V414.66H458.896V415.814H456.6V422.5H455.166ZM461.958 422.5V414.66H463.391V422.5H461.958ZM470.584 422.634C469.8 422.634 469.113 422.463 468.524 422.119C467.941 421.776 467.482 421.302 467.146 420.697C466.817 420.085 466.653 419.379 466.653 418.58C466.653 417.781 466.817 417.079 467.146 416.474C467.482 415.862 467.941 415.384 468.524 415.041C469.113 414.697 469.8 414.526 470.584 414.526C471.361 414.526 472.044 414.697 472.634 415.041C473.224 415.384 473.683 415.862 474.012 416.474C474.34 417.079 474.504 417.781 474.504 418.58C474.504 419.379 474.34 420.085 474.012 420.697C473.683 421.302 473.224 421.776 472.634 422.119C472.044 422.463 471.361 422.634 470.584 422.634ZM470.584 421.346C471.331 421.346 471.925 421.1 472.365 420.607C472.813 420.114 473.037 419.439 473.037 418.58C473.037 417.721 472.813 417.046 472.365 416.553C471.925 416.06 471.331 415.814 470.584 415.814C469.838 415.814 469.24 416.06 468.792 416.553C468.344 417.046 468.12 417.721 468.12 418.58C468.12 419.439 468.344 420.114 468.792 420.607C469.24 421.1 469.838 421.346 470.584 421.346ZM480.794 422.634C480.219 422.634 479.7 422.522 479.237 422.298C478.774 422.067 478.405 421.72 478.129 421.257C477.86 420.794 477.725 420.208 477.725 419.498V414.66H479.159V419.51C479.159 420.122 479.305 420.577 479.596 420.876C479.894 421.175 480.305 421.324 480.828 421.324C481.343 421.324 481.75 421.175 482.049 420.876C482.347 420.577 482.497 420.122 482.497 419.51V414.66H483.93V419.498C483.93 420.208 483.788 420.794 483.505 421.257C483.221 421.72 482.84 422.067 482.362 422.298C481.892 422.522 481.369 422.634 480.794 422.634ZM490.07 422.634C489.495 422.634 488.988 422.537 488.547 422.343C488.107 422.142 487.759 421.858 487.506 421.492C487.252 421.119 487.121 420.667 487.114 420.137H488.626C488.641 420.503 488.771 420.813 489.018 421.066C489.271 421.313 489.619 421.436 490.059 421.436C490.44 421.436 490.742 421.346 490.966 421.167C491.19 420.981 491.302 420.734 491.302 420.428C491.302 420.107 491.202 419.857 491 419.678C490.806 419.498 490.545 419.353 490.216 419.241C489.887 419.129 489.537 419.009 489.163 418.882C488.558 418.673 488.095 418.405 487.774 418.076C487.461 417.747 487.304 417.311 487.304 416.766C487.297 416.303 487.405 415.907 487.629 415.578C487.86 415.242 488.174 414.985 488.57 414.806C488.965 414.619 489.421 414.526 489.936 414.526C490.459 414.526 490.918 414.619 491.314 414.806C491.717 414.992 492.03 415.254 492.254 415.59C492.486 415.926 492.609 416.325 492.624 416.788H491.09C491.082 416.512 490.974 416.269 490.765 416.06C490.563 415.843 490.279 415.735 489.914 415.735C489.6 415.728 489.335 415.806 489.118 415.97C488.909 416.127 488.805 416.359 488.805 416.665C488.805 416.926 488.887 417.135 489.051 417.292C489.215 417.441 489.439 417.568 489.723 417.673C490.007 417.777 490.332 417.889 490.698 418.009C491.086 418.143 491.441 418.3 491.762 418.479C492.083 418.658 492.34 418.897 492.534 419.196C492.729 419.487 492.826 419.864 492.826 420.327C492.826 420.738 492.721 421.119 492.512 421.47C492.303 421.821 491.993 422.104 491.582 422.321C491.172 422.53 490.668 422.634 490.07 422.634ZM500.745 422.5V414.66H505.808V415.814H502.179V418.009H505.113V419.14H502.179V422.5H500.745ZM512.588 422.634C511.804 422.634 511.117 422.463 510.527 422.119C509.944 421.776 509.485 421.302 509.149 420.697C508.821 420.085 508.656 419.379 508.656 418.58C508.656 417.781 508.821 417.079 509.149 416.474C509.485 415.862 509.944 415.384 510.527 415.041C511.117 414.697 511.804 414.526 512.588 414.526C513.364 414.526 514.047 414.697 514.637 415.041C515.227 415.384 515.686 415.862 516.015 416.474C516.343 417.079 516.508 417.781 516.508 418.58C516.508 419.379 516.343 420.085 516.015 420.697C515.686 421.302 515.227 421.776 514.637 422.119C514.047 422.463 513.364 422.634 512.588 422.634ZM512.588 421.346C513.334 421.346 513.928 421.1 514.368 420.607C514.816 420.114 515.04 419.439 515.04 418.58C515.04 417.721 514.816 417.046 514.368 416.553C513.928 416.06 513.334 415.814 512.588 415.814C511.841 415.814 511.244 416.06 510.796 416.553C510.348 417.046 510.124 417.721 510.124 418.58C510.124 419.439 510.348 420.114 510.796 420.607C511.244 421.1 511.841 421.346 512.588 421.346ZM523.447 422.634C522.663 422.634 521.976 422.463 521.386 422.119C520.804 421.776 520.345 421.302 520.009 420.697C519.68 420.085 519.516 419.379 519.516 418.58C519.516 417.781 519.68 417.079 520.009 416.474C520.345 415.862 520.804 415.384 521.386 415.041C521.976 414.697 522.663 414.526 523.447 414.526C524.223 414.526 524.907 414.697 525.497 415.041C526.086 415.384 526.546 415.862 526.874 416.474C527.203 417.079 527.367 417.781 527.367 418.58C527.367 419.379 527.203 420.085 526.874 420.697C526.546 421.302 526.086 421.776 525.497 422.119C524.907 422.463 524.223 422.634 523.447 422.634ZM523.447 421.346C524.194 421.346 524.787 421.1 525.228 420.607C525.676 420.114 525.9 419.439 525.9 418.58C525.9 417.721 525.676 417.046 525.228 416.553C524.787 416.06 524.194 415.814 523.447 415.814C522.7 415.814 522.103 416.06 521.655 416.553C521.207 417.046 520.983 417.721 520.983 418.58C520.983 419.439 521.207 420.114 521.655 420.607C522.103 421.1 522.7 421.346 523.447 421.346ZM530.633 422.5V414.66H533.309C534.228 414.66 534.982 414.824 535.572 415.153C536.169 415.474 536.61 415.929 536.893 416.519C537.185 417.102 537.33 417.789 537.33 418.58C537.33 419.371 537.185 420.062 536.893 420.652C536.61 421.234 536.169 421.69 535.572 422.018C534.982 422.339 534.228 422.5 533.309 422.5H530.633ZM532.066 421.268H533.242C533.899 421.268 534.418 421.163 534.799 420.954C535.18 420.738 535.452 420.432 535.617 420.036C535.781 419.633 535.863 419.147 535.863 418.58C535.863 418.02 535.781 417.538 535.617 417.135C535.452 416.732 535.18 416.422 534.799 416.206C534.418 415.989 533.899 415.881 533.242 415.881H532.066V421.268ZM543.272 422.634C542.697 422.634 542.189 422.537 541.749 422.343C541.308 422.142 540.961 421.858 540.707 421.492C540.453 421.119 540.323 420.667 540.315 420.137H541.827C541.842 420.503 541.973 420.813 542.219 421.066C542.473 421.313 542.82 421.436 543.261 421.436C543.642 421.436 543.944 421.346 544.168 421.167C544.392 420.981 544.504 420.734 544.504 420.428C544.504 420.107 544.403 419.857 544.202 419.678C544.007 419.498 543.746 419.353 543.418 419.241C543.089 419.129 542.738 419.009 542.365 418.882C541.76 418.673 541.297 418.405 540.976 418.076C540.662 417.747 540.506 417.311 540.506 416.766C540.498 416.303 540.606 415.907 540.83 415.578C541.062 415.242 541.375 414.985 541.771 414.806C542.167 414.619 542.622 414.526 543.138 414.526C543.66 414.526 544.119 414.619 544.515 414.806C544.918 414.992 545.232 415.254 545.456 415.59C545.687 415.926 545.811 416.325 545.826 416.788H544.291C544.284 416.512 544.175 416.269 543.966 416.06C543.765 415.843 543.481 415.735 543.115 415.735C542.802 415.728 542.537 415.806 542.32 415.97C542.111 416.127 542.006 416.359 542.006 416.665C542.006 416.926 542.089 417.135 542.253 417.292C542.417 417.441 542.641 417.568 542.925 417.673C543.209 417.777 543.533 417.889 543.899 418.009C544.287 418.143 544.642 418.3 544.963 418.479C545.284 418.658 545.542 418.897 545.736 419.196C545.93 419.487 546.027 419.864 546.027 420.327C546.027 420.738 545.923 421.119 545.714 421.47C545.505 421.821 545.195 422.104 544.784 422.321C544.373 422.53 543.869 422.634 543.272 422.634Z" fill="white"/>
<defs>
<clipPath id="clip0">
<rect x="51.7852" y="267.988" width="176.956" height="58.5318" rx="1.30071" fill="white"/>
</clipPath>
<clipPath id="clip1">
<rect x="273.738" y="226.074" width="176.956" height="58.5318" rx="1.30071" fill="white"/>
</clipPath>
<clipPath id="clip2">
<rect x="491.693" y="268.074" width="176.956" height="58.5318" rx="1.30071" fill="white"/>
</clipPath>
</defs>
</svg>
