<svg width="63" height="33" viewBox="0 0 63 33" fill="none" xmlns="http://www.w3.org/2000/svg">
<path d="M21.1349 11.3943C20.0406 10.8192 18.7644 10.6958 17.5802 11.0507C17.5225 9.84624 17.0034 8.7102 16.1306 7.87818C15.2578 7.04617 14.0983 6.58203 12.8925 6.58203C11.6866 6.58203 10.5271 7.04617 9.65426 7.87818C8.78146 8.7102 8.26239 9.84624 8.20473 11.0507C7.0237 10.695 5.75119 10.8065 4.65 11.3621C3.83907 11.7884 3.17062 12.4426 2.72708 13.2442C2.28354 14.0458 2.08431 14.9597 2.15397 15.8732C2.22362 16.7866 2.55911 17.6598 3.11905 18.3848C3.679 19.1099 4.43892 19.6553 5.3051 19.9536C4.75223 20.7403 4.45251 21.6769 4.44596 22.6384C4.45073 22.9084 4.47586 23.1777 4.52113 23.4439C4.70199 24.5345 5.26462 25.5254 6.10856 26.2395C6.9525 26.9536 8.02279 27.3444 9.12831 27.3423C9.35715 27.358 9.58679 27.358 9.81563 27.3423C11.0432 27.1489 12.1459 26.4818 12.8871 25.4844C13.636 26.4657 14.7377 27.1167 15.9585 27.2993C16.1874 27.315 16.417 27.315 16.6459 27.2993C17.503 27.2983 18.3435 27.0621 19.0756 26.6163C19.8077 26.1705 20.4034 25.5323 20.7978 24.7713C21.1921 24.0102 21.37 23.1555 21.3121 22.3003C21.2541 21.4451 20.9625 20.6223 20.4691 19.9214C21.3395 19.6282 22.1044 19.0855 22.6687 18.3608C23.233 17.6362 23.5718 16.7615 23.6427 15.8458C23.7137 14.9301 23.5138 14.0137 23.0679 13.2108C22.622 12.4078 21.9497 11.7537 21.1349 11.3299V11.3943ZM11.1044 9.31091C11.5841 8.85144 12.2228 8.59494 12.8871 8.59494C13.5514 8.59494 14.19 8.85144 14.6698 9.31091C15.0361 9.67776 15.2848 10.1454 15.3843 10.6542C15.4838 11.1629 15.4294 11.6898 15.2283 12.1676L14.949 12.8012L14.2402 13.4241C13.8045 13.2745 13.3478 13.1948 12.8871 13.1878C12.2917 13.1884 11.7029 13.3127 11.158 13.553L10.5566 12.1676C10.3482 11.6919 10.289 11.1642 10.3868 10.6542C10.4846 10.1441 10.7348 9.67576 11.1044 9.31091ZM4.55335 16.6566C4.3136 16.1291 4.26105 15.5355 4.40438 14.974C4.54771 14.4126 4.87835 13.9168 5.34163 13.5687C5.80491 13.2206 6.37309 13.0411 6.95227 13.0597C7.53145 13.0783 8.08693 13.294 8.52691 13.6711L9.05314 14.1329L9.42901 14.992C8.89102 15.7118 8.59748 16.5849 8.59134 17.4836C8.57861 17.6444 8.57861 17.806 8.59134 17.9668H8.00068L7.09858 18.0527C6.5826 18.1072 6.06231 18.0026 5.60741 17.7531C5.15251 17.5036 4.78473 17.121 4.55335 16.6566ZM11.6413 23.1861C11.512 23.7595 11.1891 24.2707 10.727 24.6338C10.2648 24.9968 9.69171 25.1896 9.10409 25.1795C8.51648 25.1694 7.95029 24.9571 7.50088 24.5784C7.05148 24.1997 6.74631 23.6776 6.63678 23.1002C6.62649 22.9501 6.62649 22.7994 6.63678 22.6492C6.64067 22.2127 6.75869 21.7848 6.97911 21.408C7.19954 21.0312 7.51469 20.7186 7.89329 20.5013L8.44099 20.1147L9.41827 20.0073C10.0342 20.8642 10.9441 21.4644 11.9742 21.6934L11.6413 23.1861ZM12.8871 19.6314C12.4623 19.6314 12.047 19.5055 11.6938 19.2694C11.3406 19.0334 11.0653 18.698 10.9027 18.3055C10.7401 17.913 10.6976 17.4812 10.7805 17.0645C10.8634 16.6479 11.0679 16.2652 11.3683 15.9648C11.6687 15.6644 12.0514 15.4598 12.4681 15.377C12.8847 15.2941 13.3166 15.3366 13.709 15.4992C14.1015 15.6617 14.437 15.937 14.673 16.2903C14.909 16.6435 15.0349 17.0587 15.0349 17.4836C15.0349 18.0532 14.8087 18.5995 14.4059 19.0023C14.003 19.4051 13.4567 19.6314 12.8871 19.6314ZM19.1374 23.0895C19.0266 23.7448 18.6628 24.3303 18.1245 24.72C17.5862 25.1097 16.9163 25.2723 16.2592 25.1729C15.7415 25.1 15.2583 24.8706 14.8745 24.5155C14.4906 24.1605 14.2244 23.6967 14.1114 23.1861L13.961 22.5418L14.1865 21.5538C15.1773 21.2311 16.0169 20.5594 16.5492 19.6636L17.0862 19.9858H17.1828L17.8916 20.4047C18.3521 20.6676 18.7194 21.0674 18.9427 21.5484C19.1659 22.0295 19.2339 22.568 19.1374 23.0895ZM21.2208 16.6459C21.0096 17.0728 20.6838 17.4324 20.2798 17.6847C19.8758 17.9369 19.4096 18.0718 18.9333 18.0742H18.6756L17.9883 17.9668L17.1828 17.5265C17.1813 16.4823 16.7995 15.4745 16.1089 14.6913L16.5707 14.294L17.2473 13.6711C17.6885 13.2788 18.2524 13.0521 18.8423 13.0299C19.4323 13.0076 20.0116 13.1911 20.4812 13.549C20.9508 13.9069 21.2813 14.4168 21.4162 14.9916C21.5511 15.5664 21.4821 16.1701 21.2208 16.6996V16.6459Z" fill="#00B37A"/>
<path d="M31.6259 23.7812V10.2497H34.5641L38.8749 18.8326L43.1277 10.2497H46.066V23.7812H43.5916V14.4445L39.8221 21.8482H37.8697L34.1002 14.4445V23.7812H31.6259ZM48.6914 23.7812V10.2497H57.4289V12.2408H51.1657V16.0296H56.2304V17.982H51.1657V23.7812H48.6914ZM59.3384 23.7812V10.2497H61.8128V23.7812H59.3384Z" fill="#00B37A"/>
</svg>
