<svg width="32" height="32" viewBox="0 0 32 32" fill="none" xmlns="http://www.w3.org/2000/svg">
<rect width="32" height="32" rx="8" fill="white" fill-opacity="0.1"/>
<g opacity="0.8">
<path opacity="0.3" d="M14.9999 8H7.99988C7.46944 8 6.96074 8.21071 6.58566 8.58579C6.21059 8.96086 5.99988 9.46957 5.99988 10V24C5.99988 24.5304 6.21059 25.0391 6.58566 25.4142C6.96074 25.7893 7.46944 26 7.99988 26H21.9999C22.5303 26 23.039 25.7893 23.4141 25.4142C23.7892 25.0391 23.9999 24.5304 23.9999 24V17" fill="white"/>
<path d="M22.4999 6.50023C22.8977 6.1024 23.4373 5.87891 23.9999 5.87891C24.5625 5.87891 25.1021 6.1024 25.4999 6.50023C25.8977 6.89805 26.1212 7.43762 26.1212 8.00023C26.1212 8.56284 25.8977 9.1024 25.4999 9.50023L15.9999 19.0002L11.9999 20.0002L12.9999 16.0002L22.4999 6.50023Z" stroke="white" stroke-width="2" stroke-linecap="round" stroke-linejoin="round"/>
</g>
</svg>
