<svg width="166" height="166" viewBox="0 0 166 166" fill="none" xmlns="http://www.w3.org/2000/svg">
<path d="M83 82.9889V1C128.287 1 165 37.7077 165 82.9889C165 118.509 142.125 149.989 108.339 160.965L83 82.9889Z" fill="#67C587" stroke="white" stroke-width="1.64366"/>
<path d="M83 82.9898L108.339 160.966C65.2686 174.959 19.0079 151.391 5.01338 108.326C1.28338 96.8476 0.133767 84.6876 1.6466 72.7139L83 82.9898Z" fill="#EAF6ED" stroke="white" stroke-width="1.64366"/>
<path d="M82.998 82.9822L1.64453 72.7062C4.25854 52.017 14.659 33.1012 30.7292 19.8086L82.998 82.9822Z" fill="#C9EAD4" stroke="white" stroke-width="1.64366"/>
<path d="M83.0012 82.989L30.7324 19.8154C45.4351 7.65387 63.9195 1 83.0012 1V82.989Z" fill="#A9DEBA" stroke="white" stroke-width="1.64366"/>
</svg>
