<svg width="618" height="396" viewBox="0 0 618 396" fill="none" xmlns="http://www.w3.org/2000/svg">
<path fill-rule="evenodd" clip-rule="evenodd" d="M62.6303 127.996H130.917V127.996H136.771V138.402H130.917V376.738H136.771V395.598H56.7773V376.738H62.6303V138.402H56.7778V127.996H62.6303V127.996Z" fill="#B7B7BA"/>
<path fill-rule="evenodd" clip-rule="evenodd" d="M488.63 127.996H556.917V127.996H562.771V138.402H556.917V376.738H562.771V395.598H482.777V376.738H488.63V138.402H482.778V127.996H488.63V127.996Z" fill="#B7B7BA"/>
<path fill-rule="evenodd" clip-rule="evenodd" d="M311.002 16.2227L37.8535 128.409H311.002H584.151L311.002 16.2227Z" fill="#B7B7BA"/>
<path d="M39.8047 127.435L311.002 16.875L179.306 127.435H39.8047Z" fill="white" fill-opacity="0.2"/>
<path d="M49.5605 246.533L89.5573 208.812L129.554 246.533" stroke="#1E1F24" stroke-opacity="0.3"/>
<circle cx="89.5575" cy="209.138" r="1.62588" fill="white"/>
<g clip-path="url(#clip0)">
<path fill-rule="evenodd" clip-rule="evenodd" d="M173.024 238.078H0.848267V305.031H0.783203L5.56431 309.813H177.739V242.859L173.024 238.17V238.078Z" fill="#1E1F24"/>
</g>
<rect x="1.68969" y="238.871" width="170.582" height="53.0379" rx="1.8043" fill="white" stroke="#1E1F24" stroke-width="1.59422"/>
<path d="M36.5796 262.734V255.598H37.8846V262.734H36.5796ZM40.5423 262.734V255.598H41.8473L45.2015 260.624V255.598H46.5065V262.734H45.2015L41.8473 257.718V262.734H40.5423ZM49.1645 262.734V255.598H51.6012C52.4372 255.598 53.1237 255.747 53.6606 256.046C54.2044 256.338 54.6054 256.753 54.8637 257.29C55.1288 257.82 55.2613 258.446 55.2613 259.166C55.2613 259.886 55.1288 260.515 54.8637 261.052C54.6054 261.582 54.2044 261.997 53.6606 262.296C53.1237 262.588 52.4372 262.734 51.6012 262.734H49.1645ZM50.4695 261.613H51.54C52.1381 261.613 52.6105 261.518 52.9572 261.327C53.3038 261.13 53.5519 260.852 53.7014 260.491C53.851 260.124 53.9257 259.683 53.9257 259.166C53.9257 258.656 53.851 258.218 53.7014 257.851C53.5519 257.484 53.3038 257.202 52.9572 257.005C52.6105 256.807 52.1381 256.709 51.54 256.709H50.4695V261.613ZM60.4399 262.857C59.9165 262.857 59.4442 262.755 59.0228 262.551C58.6013 262.34 58.2649 262.024 58.0134 261.603C57.7687 261.181 57.6464 260.648 57.6464 260.002V255.598H58.9514V260.012C58.9514 260.57 59.0839 260.984 59.349 261.256C59.6209 261.528 59.9947 261.664 60.4705 261.664C60.9395 261.664 61.3099 261.528 61.5818 261.256C61.8537 260.984 61.9896 260.57 61.9896 260.012V255.598H63.2946V260.002C63.2946 260.648 63.1655 261.181 62.9072 261.603C62.6489 262.024 62.3023 262.34 61.8673 262.551C61.4391 262.755 60.9633 262.857 60.4399 262.857ZM68.3379 262.857C67.8145 262.857 67.3523 262.768 66.9513 262.592C66.5503 262.408 66.2342 262.15 66.0031 261.817C65.7721 261.477 65.6531 261.066 65.6463 260.583H67.0227C67.0363 260.916 67.1552 261.198 67.3795 261.429C67.6106 261.654 67.9267 261.766 68.3277 261.766C68.6743 261.766 68.9496 261.684 69.1535 261.521C69.3574 261.351 69.4594 261.127 69.4594 260.848C69.4594 260.556 69.3676 260.328 69.1841 260.165C69.0074 260.002 68.7695 259.869 68.4704 259.768C68.1714 259.666 67.8519 259.557 67.5121 259.441C66.9615 259.251 66.5401 259.006 66.2478 258.707C65.9624 258.408 65.8196 258.011 65.8196 257.514C65.8128 257.093 65.9114 256.733 66.1153 256.434C66.326 256.128 66.6115 255.893 66.9717 255.73C67.3319 255.56 67.7466 255.475 68.2155 255.475C68.6913 255.475 69.1093 255.56 69.4696 255.73C69.8366 255.9 70.1221 256.138 70.326 256.444C70.5367 256.75 70.6488 257.113 70.6624 257.535H69.2657C69.2589 257.283 69.1603 257.062 68.97 256.872C68.7865 256.675 68.5282 256.576 68.1951 256.576C67.9097 256.57 67.6684 256.641 67.4713 256.79C67.281 256.933 67.1858 257.144 67.1858 257.423C67.1858 257.66 67.2606 257.851 67.4101 257.994C67.5596 258.129 67.7635 258.245 68.0218 258.34C68.2801 258.435 68.5758 258.537 68.9088 258.646C69.2623 258.768 69.5851 258.911 69.8774 259.074C70.1696 259.237 70.4041 259.455 70.5809 259.727C70.7576 259.992 70.8459 260.335 70.8459 260.756C70.8459 261.13 70.7508 261.477 70.5605 261.796C70.3702 262.116 70.0881 262.374 69.7143 262.571C69.3404 262.762 68.8816 262.857 68.3379 262.857ZM74.8312 262.734V256.648H72.7513V255.598H78.2262V256.648H76.1362V262.734H74.8312ZM80.4674 262.734V255.598H83.0876C83.6585 255.598 84.1275 255.696 84.4946 255.893C84.8684 256.084 85.1471 256.345 85.3306 256.678C85.5141 257.005 85.6059 257.368 85.6059 257.769C85.6059 258.204 85.4903 258.602 85.2592 258.962C85.0349 259.322 84.6815 259.584 84.1989 259.747L85.6772 262.734H84.1785L82.8531 259.92H81.7724V262.734H80.4674ZM81.7724 258.962H83.006C83.441 258.962 83.7605 258.857 83.9644 258.646C84.1683 258.435 84.2703 258.157 84.2703 257.81C84.2703 257.47 84.1683 257.198 83.9644 256.994C83.7673 256.79 83.4444 256.689 82.9958 256.689H81.7724V258.962ZM89.6904 262.734V260.196L87.2945 255.598H88.7729L90.3531 258.891L91.9232 255.598H93.3812L90.9954 260.196V262.734H89.6904ZM99.1954 262.734V255.598H103.855V256.648H100.5V258.605H103.549V259.625H100.5V261.684H103.855V262.734H99.1954ZM106.017 262.734L108.25 259.125L105.987 255.598H107.485L109.086 258.085L110.554 255.598H112.022L109.79 259.186L112.073 262.734H110.575L108.954 260.216L107.485 262.734H106.017ZM114.359 262.734V255.598H117C117.57 255.598 118.043 255.693 118.417 255.883C118.791 256.073 119.069 256.335 119.253 256.668C119.436 257.001 119.528 257.375 119.528 257.79C119.528 258.184 119.44 258.547 119.263 258.881C119.086 259.207 118.811 259.472 118.437 259.676C118.063 259.873 117.584 259.971 117 259.971H115.664V262.734H114.359ZM115.664 258.911H116.918C117.373 258.911 117.7 258.813 117.897 258.615C118.101 258.412 118.203 258.136 118.203 257.79C118.203 257.436 118.101 257.161 117.897 256.964C117.7 256.76 117.373 256.658 116.918 256.658H115.664V258.911ZM121.826 262.734V255.598H126.486V256.648H123.131V258.605H126.18V259.625H123.131V261.684H126.486V262.734H121.826ZM128.995 262.734V255.598H131.615C132.186 255.598 132.655 255.696 133.022 255.893C133.396 256.084 133.675 256.345 133.858 256.678C134.042 257.005 134.133 257.368 134.133 257.769C134.133 258.204 134.018 258.602 133.787 258.962C133.562 259.322 133.209 259.584 132.726 259.747L134.205 262.734H132.706L131.381 259.92H130.3V262.734H128.995ZM130.3 258.962H131.533C131.969 258.962 132.288 258.857 132.492 258.646C132.696 258.435 132.798 258.157 132.798 257.81C132.798 257.47 132.696 257.198 132.492 256.994C132.295 256.79 131.972 256.689 131.523 256.689H130.3V258.962ZM138.283 262.734V256.648H136.203V255.598H141.678V256.648H139.588V262.734H138.283ZM55.7591 278.857C55.0862 278.857 54.4982 278.704 53.9953 278.398C53.4923 278.092 53.1015 277.667 52.8228 277.124C52.5441 276.573 52.4048 275.934 52.4048 275.207C52.4048 274.473 52.5475 273.827 52.833 273.27C53.1253 272.706 53.5365 272.267 54.0666 271.954C54.6036 271.635 55.2391 271.475 55.9732 271.475C56.8092 271.475 57.5025 271.676 58.053 272.077C58.6036 272.478 58.9604 273.032 59.1235 273.739H57.6656C57.5568 273.406 57.3597 273.147 57.0743 272.964C56.7888 272.773 56.4217 272.678 55.9732 272.678C55.2595 272.678 54.7089 272.906 54.3215 273.361C53.9341 273.81 53.7404 274.429 53.7404 275.217C53.7404 276.005 53.9307 276.617 54.3113 277.052C54.6987 277.48 55.2221 277.694 55.8814 277.694C56.5271 277.694 57.0131 277.521 57.3393 277.174C57.6724 276.821 57.8729 276.359 57.9409 275.788H56.1363V274.809H59.2561V278.734H58.053L57.9511 277.796C57.72 278.136 57.4311 278.398 57.0844 278.581C56.7378 278.765 56.296 278.857 55.7591 278.857ZM61.7992 278.734V271.598H64.4194C64.9903 271.598 65.4593 271.696 65.8263 271.893C66.2001 272.084 66.4788 272.345 66.6623 272.678C66.8459 273.005 66.9376 273.368 66.9376 273.769C66.9376 274.204 66.8221 274.602 66.591 274.962C66.3667 275.322 66.0132 275.584 65.5307 275.747L67.009 278.734H65.5103L64.1849 275.92H63.1042V278.734H61.7992ZM63.1042 274.962H64.3378C64.7728 274.962 65.0923 274.857 65.2962 274.646C65.5001 274.435 65.602 274.157 65.602 273.81C65.602 273.47 65.5001 273.198 65.2962 272.994C65.0991 272.79 64.7762 272.689 64.3276 272.689H63.1042V274.962ZM72.7698 278.857C72.0562 278.857 71.4308 278.7 70.8939 278.388C70.3637 278.075 69.9457 277.643 69.6399 277.093C69.3408 276.536 69.1913 275.893 69.1913 275.166C69.1913 274.439 69.3408 273.8 69.6399 273.249C69.9457 272.692 70.3637 272.257 70.8939 271.944C71.4308 271.632 72.0562 271.475 72.7698 271.475C73.4767 271.475 74.0986 271.632 74.6356 271.944C75.1725 272.257 75.5905 272.692 75.8896 273.249C76.1887 273.8 76.3382 274.439 76.3382 275.166C76.3382 275.893 76.1887 276.536 75.8896 277.093C75.5905 277.643 75.1725 278.075 74.6356 278.388C74.0986 278.7 73.4767 278.857 72.7698 278.857ZM72.7698 277.684C73.4495 277.684 73.9899 277.46 74.3909 277.011C74.7987 276.563 75.0026 275.948 75.0026 275.166C75.0026 274.384 74.7987 273.769 74.3909 273.321C73.9899 272.872 73.4495 272.648 72.7698 272.648C72.0901 272.648 71.5464 272.872 71.1386 273.321C70.7308 273.769 70.5269 274.384 70.5269 275.166C70.5269 275.948 70.7308 276.563 71.1386 277.011C71.5464 277.46 72.0901 277.684 72.7698 277.684ZM81.5176 278.857C80.9942 278.857 80.5218 278.755 80.1004 278.551C79.679 278.34 79.3426 278.024 79.0911 277.603C78.8464 277.181 78.7241 276.648 78.7241 276.002V271.598H80.0291V276.012C80.0291 276.57 80.1616 276.984 80.4267 277.256C80.6986 277.528 81.0724 277.664 81.5482 277.664C82.0172 277.664 82.3876 277.528 82.6595 277.256C82.9313 276.984 83.0673 276.57 83.0673 276.012V271.598H84.3723V276.002C84.3723 276.648 84.2432 277.181 83.9849 277.603C83.7266 278.024 83.3799 278.34 82.9449 278.551C82.5167 278.755 82.041 278.857 81.5176 278.857ZM86.9789 278.734V271.598H89.6195C90.1904 271.598 90.6628 271.693 91.0366 271.883C91.4105 272.073 91.6891 272.335 91.8726 272.668C92.0562 273.001 92.1479 273.375 92.1479 273.79C92.1479 274.184 92.0596 274.547 91.8828 274.881C91.7061 275.207 91.4308 275.472 91.057 275.676C90.6832 275.873 90.204 275.971 89.6195 275.971H88.2839V278.734H86.9789ZM88.2839 274.911H89.5379C89.9933 274.911 90.3196 274.813 90.5167 274.615C90.7206 274.412 90.8225 274.136 90.8225 273.79C90.8225 273.436 90.7206 273.161 90.5167 272.964C90.3196 272.76 89.9933 272.658 89.5379 272.658H88.2839V274.911ZM99.8934 280.213C99.5127 279.832 99.1729 279.39 98.8738 278.887C98.5816 278.391 98.3471 277.844 98.1703 277.246C98.0004 276.648 97.9155 276.012 97.9155 275.339C97.9155 274.666 98.0004 274.031 98.1703 273.433C98.3471 272.835 98.5816 272.288 98.8738 271.791C99.1729 271.288 99.5127 270.847 99.8934 270.466H101.198V270.588C100.587 271.234 100.101 271.965 99.7404 272.78C99.3802 273.589 99.2001 274.442 99.2001 275.339C99.2001 276.237 99.3802 277.093 99.7404 277.909C100.101 278.717 100.587 279.445 101.198 280.09V280.213H99.8934ZM103.497 278.734V271.598H104.802V278.734H103.497ZM107.459 278.734V271.598H112.118V272.648H108.764V274.605H111.813V275.625H108.764V277.684H112.118V278.734H107.459ZM117.748 278.857C117.075 278.857 116.487 278.704 115.984 278.398C115.481 278.092 115.09 277.667 114.811 277.124C114.533 276.573 114.393 275.934 114.393 275.207C114.393 274.473 114.536 273.827 114.821 273.27C115.114 272.706 115.525 272.267 116.055 271.954C116.592 271.635 117.228 271.475 117.962 271.475C118.798 271.475 119.491 271.676 120.042 272.077C120.592 272.478 120.949 273.032 121.112 273.739H119.654C119.545 273.406 119.348 273.147 119.063 272.964C118.777 272.773 118.41 272.678 117.962 272.678C117.248 272.678 116.697 272.906 116.31 273.361C115.923 273.81 115.729 274.429 115.729 275.217C115.729 276.005 115.919 276.617 116.3 277.052C116.687 277.48 117.211 277.694 117.87 277.694C118.516 277.694 119.002 277.521 119.328 277.174C119.661 276.821 119.861 276.359 119.929 275.788H118.125V274.809H121.245V278.734H120.042L119.94 277.796C119.708 278.136 119.42 278.398 119.073 278.581C118.726 278.765 118.285 278.857 117.748 278.857ZM123.421 280.213V280.09C124.032 279.445 124.518 278.717 124.879 277.909C125.239 277.093 125.419 276.237 125.419 275.339C125.419 274.442 125.239 273.589 124.879 272.78C124.518 271.965 124.032 271.234 123.421 270.588V270.466H124.726C125.106 270.847 125.443 271.288 125.735 271.791C126.034 272.288 126.269 272.835 126.438 273.433C126.615 274.031 126.704 274.666 126.704 275.339C126.704 276.012 126.615 276.648 126.438 277.246C126.269 277.844 126.034 278.391 125.735 278.887C125.443 279.39 125.106 279.832 124.726 280.213H123.421Z" fill="black"/>
<path fill-rule="evenodd" clip-rule="evenodd" d="M278.628 127.996H346.915V127.996H352.769V138.402H346.915V376.738H352.769V395.598H272.775V376.738H278.628V138.402H272.776V127.996H278.628V127.996Z" fill="#B7B7BA"/>
<path d="M271.777 246.447L311.774 208.727L351.771 246.447" stroke="#1E1F24" stroke-opacity="0.3"/>
<circle cx="311.774" cy="209.052" r="1.62588" fill="white"/>
<g clip-path="url(#clip1)">
<path fill-rule="evenodd" clip-rule="evenodd" d="M395.244 237.992H223.068V304.945H223.004L227.785 309.727H399.959V242.773L395.244 238.083V237.992Z" fill="#1E1F24"/>
</g>
<rect x="223.908" y="238.785" width="170.582" height="53.0379" rx="1.8043" fill="white" stroke="#1E1F24" stroke-width="1.59422"/>
<path d="M256.315 262.648V255.512H258.956C259.527 255.512 259.999 255.607 260.373 255.797C260.747 255.987 261.025 256.249 261.209 256.582C261.392 256.915 261.484 257.289 261.484 257.704C261.484 258.098 261.396 258.462 261.219 258.795C261.042 259.121 260.767 259.386 260.393 259.59C260.019 259.787 259.54 259.885 258.956 259.885H257.62V262.648H256.315ZM257.62 258.825H258.874C259.329 258.825 259.656 258.727 259.853 258.53C260.057 258.326 260.159 258.05 260.159 257.704C260.159 257.35 260.057 257.075 259.853 256.878C259.656 256.674 259.329 256.572 258.874 256.572H257.62V258.825ZM263.782 262.648V255.512H266.402C266.973 255.512 267.442 255.61 267.809 255.807C268.183 255.998 268.462 256.259 268.645 256.592C268.829 256.919 268.921 257.282 268.921 257.683C268.921 258.118 268.805 258.516 268.574 258.876C268.35 259.236 267.996 259.498 267.514 259.661L268.992 262.648H267.493L266.168 259.835H265.087V262.648H263.782ZM265.087 258.876H266.321C266.756 258.876 267.075 258.771 267.279 258.56C267.483 258.349 267.585 258.071 267.585 257.724C267.585 257.384 267.483 257.112 267.279 256.908C267.082 256.705 266.759 256.603 266.311 256.603H265.087V258.876ZM274.753 262.771C274.039 262.771 273.414 262.614 272.877 262.302C272.347 261.989 271.929 261.558 271.623 261.007C271.324 260.45 271.174 259.807 271.174 259.08C271.174 258.353 271.324 257.714 271.623 257.163C271.929 256.606 272.347 256.171 272.877 255.858C273.414 255.546 274.039 255.389 274.753 255.389C275.46 255.389 276.082 255.546 276.619 255.858C277.156 256.171 277.574 256.606 277.873 257.163C278.172 257.714 278.321 258.353 278.321 259.08C278.321 259.807 278.172 260.45 277.873 261.007C277.574 261.558 277.156 261.989 276.619 262.302C276.082 262.614 275.46 262.771 274.753 262.771ZM274.753 261.598C275.433 261.598 275.973 261.374 276.374 260.925C276.782 260.477 276.986 259.862 276.986 259.08C276.986 258.298 276.782 257.683 276.374 257.235C275.973 256.786 275.433 256.562 274.753 256.562C274.073 256.562 273.529 256.786 273.122 257.235C272.714 257.683 272.51 258.298 272.51 259.08C272.51 259.862 272.714 260.477 273.122 260.925C273.529 261.374 274.073 261.598 274.753 261.598ZM280.748 262.648V255.512H283.185C284.021 255.512 284.707 255.661 285.244 255.96C285.788 256.253 286.189 256.667 286.447 257.204C286.712 257.734 286.845 258.36 286.845 259.08C286.845 259.801 286.712 260.429 286.447 260.966C286.189 261.496 285.788 261.911 285.244 262.21C284.707 262.502 284.021 262.648 283.185 262.648H280.748ZM282.053 261.527H283.123C283.722 261.527 284.194 261.432 284.541 261.241C284.887 261.044 285.135 260.766 285.285 260.405C285.434 260.038 285.509 259.597 285.509 259.08C285.509 258.57 285.434 258.132 285.285 257.765C285.135 257.398 284.887 257.116 284.541 256.919C284.194 256.722 283.722 256.623 283.123 256.623H282.053V261.527ZM292.023 262.771C291.5 262.771 291.028 262.669 290.606 262.465C290.185 262.254 289.848 261.938 289.597 261.517C289.352 261.095 289.23 260.562 289.23 259.916V255.512H290.535V259.926C290.535 260.484 290.667 260.898 290.932 261.17C291.204 261.442 291.578 261.578 292.054 261.578C292.523 261.578 292.893 261.442 293.165 261.17C293.437 260.898 293.573 260.484 293.573 259.926V255.512H294.878V259.916C294.878 260.562 294.749 261.095 294.491 261.517C294.232 261.938 293.886 262.254 293.451 262.465C293.023 262.669 292.547 262.771 292.023 262.771ZM300.717 262.771C299.996 262.771 299.378 262.618 298.861 262.312C298.344 261.999 297.947 261.568 297.668 261.017C297.39 260.46 297.25 259.818 297.25 259.09C297.25 258.363 297.39 257.721 297.668 257.163C297.947 256.606 298.344 256.171 298.861 255.858C299.378 255.546 299.996 255.389 300.717 255.389C301.573 255.389 302.273 255.603 302.817 256.032C303.367 256.453 303.711 257.048 303.847 257.816H302.409C302.321 257.428 302.13 257.126 301.838 256.908C301.553 256.684 301.172 256.572 300.696 256.572C300.037 256.572 299.52 256.796 299.146 257.245C298.773 257.693 298.586 258.309 298.586 259.09C298.586 259.872 298.773 260.487 299.146 260.936C299.52 261.377 300.037 261.598 300.696 261.598C301.172 261.598 301.553 261.496 301.838 261.292C302.13 261.082 302.321 260.793 302.409 260.426H303.847C303.711 261.16 303.367 261.734 302.817 262.149C302.273 262.563 301.573 262.771 300.717 262.771ZM307.848 262.648V256.562H305.769V255.512H311.243V256.562H309.153V262.648H307.848ZM320.532 262.771C319.819 262.771 319.193 262.614 318.656 262.302C318.126 261.989 317.708 261.558 317.402 261.007C317.103 260.45 316.954 259.807 316.954 259.08C316.954 258.353 317.103 257.714 317.402 257.163C317.708 256.606 318.126 256.171 318.656 255.858C319.193 255.546 319.819 255.389 320.532 255.389C321.239 255.389 321.861 255.546 322.398 255.858C322.935 256.171 323.353 256.606 323.652 257.163C323.951 257.714 324.101 258.353 324.101 259.08C324.101 259.76 323.968 260.368 323.703 260.905C323.438 261.435 323.071 261.857 322.602 262.169L324.254 263.943H322.633L321.511 262.659C321.199 262.733 320.872 262.771 320.532 262.771ZM320.532 261.598C321.212 261.598 321.752 261.374 322.153 260.925C322.561 260.477 322.765 259.862 322.765 259.08C322.765 258.298 322.561 257.683 322.153 257.235C321.752 256.786 321.212 256.562 320.532 256.562C319.853 256.562 319.309 256.786 318.901 257.235C318.493 257.683 318.289 258.298 318.289 259.08C318.289 259.862 318.493 260.477 318.901 260.925C319.309 261.374 319.853 261.598 320.532 261.598ZM329.25 262.771C328.727 262.771 328.255 262.669 327.833 262.465C327.412 262.254 327.075 261.938 326.824 261.517C326.579 261.095 326.457 260.562 326.457 259.916V255.512H327.762V259.926C327.762 260.484 327.894 260.898 328.159 261.17C328.431 261.442 328.805 261.578 329.281 261.578C329.75 261.578 330.12 261.442 330.392 261.17C330.664 260.898 330.8 260.484 330.8 259.926V255.512H332.105V259.916C332.105 260.562 331.976 261.095 331.718 261.517C331.459 261.938 331.113 262.254 330.678 262.465C330.249 262.669 329.774 262.771 329.25 262.771ZM333.944 262.648L336.554 255.512H338.022L340.632 262.648H339.246L338.675 260.997H335.891L335.31 262.648H333.944ZM336.248 259.977H338.318L337.278 257.01L336.248 259.977ZM342.826 262.648V255.512H344.131V261.629H347.292V262.648H342.826ZM349.716 262.648V255.512H351.021V262.648H349.716ZM355.34 262.648V256.562H353.261V255.512H358.735V256.562H356.645V262.648H355.34ZM362.822 262.648V260.11L360.426 255.512H361.904L363.485 258.805L365.055 255.512H366.513L364.127 260.11V262.648H362.822ZM289.379 278.648V272.562H287.299V271.512H292.774V272.562H290.684V278.648H289.379ZM295.015 278.648V271.512H299.675V272.562H296.32V274.519H299.369V275.539H296.32V277.598H299.675V278.648H295.015ZM304.621 278.771C304.097 278.771 303.635 278.682 303.234 278.506C302.833 278.322 302.517 278.064 302.286 277.731C302.055 277.391 301.936 276.98 301.929 276.497H303.306C303.319 276.83 303.438 277.112 303.662 277.343C303.894 277.568 304.21 277.68 304.611 277.68C304.957 277.68 305.232 277.598 305.436 277.435C305.64 277.265 305.742 277.041 305.742 276.762C305.742 276.47 305.651 276.242 305.467 276.079C305.29 275.916 305.052 275.784 304.753 275.682C304.454 275.58 304.135 275.471 303.795 275.355C303.244 275.165 302.823 274.92 302.531 274.621C302.245 274.322 302.103 273.925 302.103 273.428C302.096 273.007 302.194 272.647 302.398 272.348C302.609 272.042 302.894 271.807 303.255 271.644C303.615 271.474 304.029 271.389 304.498 271.389C304.974 271.389 305.392 271.474 305.752 271.644C306.119 271.814 306.405 272.052 306.609 272.358C306.82 272.664 306.932 273.027 306.945 273.449H305.549C305.542 273.197 305.443 272.976 305.253 272.786C305.069 272.589 304.811 272.49 304.478 272.49C304.193 272.484 303.951 272.555 303.754 272.705C303.564 272.847 303.469 273.058 303.469 273.337C303.469 273.575 303.543 273.765 303.693 273.908C303.843 274.044 304.046 274.159 304.305 274.254C304.563 274.349 304.859 274.451 305.192 274.56C305.545 274.682 305.868 274.825 306.16 274.988C306.453 275.151 306.687 275.369 306.864 275.641C307.04 275.906 307.129 276.249 307.129 276.671C307.129 277.044 307.034 277.391 306.843 277.71C306.653 278.03 306.371 278.288 305.997 278.485C305.623 278.676 305.165 278.771 304.621 278.771ZM311.114 278.648V272.562H309.034V271.512H314.509V272.562H312.419V278.648H311.114ZM316.75 278.648V271.512H318.055V278.648H316.75ZM320.713 278.648V271.512H322.018L325.372 276.538V271.512H326.677V278.648H325.372L322.018 273.632V278.648H320.713ZM332.455 278.771C331.782 278.771 331.194 278.618 330.691 278.312C330.188 278.006 329.797 277.581 329.519 277.038C329.24 276.487 329.101 275.848 329.101 275.121C329.101 274.387 329.243 273.741 329.529 273.184C329.821 272.62 330.232 272.181 330.763 271.869C331.299 271.549 331.935 271.389 332.669 271.389C333.505 271.389 334.198 271.59 334.749 271.991C335.299 272.392 335.656 272.946 335.819 273.653H334.361C334.253 273.32 334.056 273.061 333.77 272.878C333.485 272.688 333.118 272.592 332.669 272.592C331.955 272.592 331.405 272.82 331.017 273.275C330.63 273.724 330.436 274.343 330.436 275.131C330.436 275.919 330.627 276.531 331.007 276.966C331.395 277.394 331.918 277.609 332.577 277.609C333.223 277.609 333.709 277.435 334.035 277.089C334.368 276.735 334.569 276.273 334.637 275.702H332.832V274.723H335.952V278.648H334.749L334.647 277.71C334.416 278.05 334.127 278.312 333.78 278.496C333.434 278.679 332.992 278.771 332.455 278.771Z" fill="black"/>
<path d="M489.199 246.533L529.196 208.812L569.193 246.533" stroke="#1E1F24" stroke-opacity="0.3"/>
<circle cx="529.196" cy="209.138" r="1.62588" fill="white"/>
<g clip-path="url(#clip2)">
<path fill-rule="evenodd" clip-rule="evenodd" d="M612.663 238.078H440.487V305.031H440.422L445.203 309.813H617.377V242.859L612.663 238.17V238.078Z" fill="#1E1F24"/>
</g>
<rect x="441.328" y="238.871" width="170.582" height="53.0379" rx="1.8043" fill="white" stroke="#1E1F24" stroke-width="1.59422"/>
<path d="M452.843 270.144C452.32 270.144 451.857 270.055 451.456 269.879C451.055 269.695 450.739 269.437 450.508 269.104C450.277 268.764 450.158 268.353 450.151 267.87H451.528C451.541 268.203 451.66 268.485 451.885 268.716C452.116 268.941 452.432 269.053 452.833 269.053C453.179 269.053 453.455 268.971 453.659 268.808C453.862 268.638 453.964 268.414 453.964 268.135C453.964 267.843 453.873 267.615 453.689 267.452C453.512 267.289 453.275 267.157 452.975 267.055C452.676 266.953 452.357 266.844 452.017 266.728C451.467 266.538 451.045 266.293 450.753 265.994C450.467 265.695 450.325 265.298 450.325 264.801C450.318 264.38 450.416 264.02 450.62 263.721C450.831 263.415 451.117 263.18 451.477 263.017C451.837 262.847 452.252 262.762 452.721 262.762C453.196 262.762 453.614 262.847 453.975 263.017C454.342 263.187 454.627 263.425 454.831 263.731C455.042 264.037 455.154 264.4 455.167 264.822H453.771C453.764 264.57 453.665 264.349 453.475 264.159C453.292 263.962 453.033 263.863 452.7 263.863C452.415 263.857 452.173 263.928 451.976 264.078C451.786 264.22 451.691 264.431 451.691 264.71C451.691 264.948 451.766 265.138 451.915 265.281C452.065 265.417 452.269 265.532 452.527 265.627C452.785 265.722 453.081 265.824 453.414 265.933C453.767 266.055 454.09 266.198 454.382 266.361C454.675 266.524 454.909 266.742 455.086 267.014C455.263 267.279 455.351 267.622 455.351 268.044C455.351 268.417 455.256 268.764 455.066 269.084C454.875 269.403 454.593 269.661 454.219 269.858C453.845 270.049 453.387 270.144 452.843 270.144ZM457.764 270.021V262.885H462.423V263.935H459.069V265.892H462.117V266.912H459.069V268.971H462.423V270.021H457.764ZM464.933 270.021V262.885H466.238V269.002H469.398V270.021H464.933ZM471.822 270.021V262.885H476.431V263.935H473.127V265.933H475.799V266.963H473.127V270.021H471.822ZM478.57 267.615V266.524H482.841V267.615H478.57ZM488.608 270.021L491.218 262.885H492.686L495.296 270.021H493.91L493.339 268.37H490.555L489.974 270.021H488.608ZM490.912 267.35H492.982L491.942 264.383L490.912 267.35ZM499.927 270.144C499.403 270.144 498.941 270.055 498.54 269.879C498.139 269.695 497.823 269.437 497.592 269.104C497.361 268.764 497.242 268.353 497.235 267.87H498.612C498.625 268.203 498.744 268.485 498.968 268.716C499.199 268.941 499.516 269.053 499.917 269.053C500.263 269.053 500.538 268.971 500.742 268.808C500.946 268.638 501.048 268.414 501.048 268.135C501.048 267.843 500.956 267.615 500.773 267.452C500.596 267.289 500.358 267.157 500.059 267.055C499.76 266.953 499.441 266.844 499.101 266.728C498.55 266.538 498.129 266.293 497.837 265.994C497.551 265.695 497.408 265.298 497.408 264.801C497.402 264.38 497.5 264.02 497.704 263.721C497.915 263.415 498.2 263.18 498.561 263.017C498.921 262.847 499.335 262.762 499.804 262.762C500.28 262.762 500.698 262.847 501.058 263.017C501.425 263.187 501.711 263.425 501.915 263.731C502.126 264.037 502.238 264.4 502.251 264.822H500.855C500.848 264.57 500.749 264.349 500.559 264.159C500.375 263.962 500.117 263.863 499.784 263.863C499.499 263.857 499.257 263.928 499.06 264.078C498.87 264.22 498.775 264.431 498.775 264.71C498.775 264.948 498.849 265.138 498.999 265.281C499.148 265.417 499.352 265.532 499.611 265.627C499.869 265.722 500.165 265.824 500.498 265.933C500.851 266.055 501.174 266.198 501.466 266.361C501.758 266.524 501.993 266.742 502.17 267.014C502.346 267.279 502.435 267.622 502.435 268.044C502.435 268.417 502.34 268.764 502.149 269.084C501.959 269.403 501.677 269.661 501.303 269.858C500.929 270.049 500.47 270.144 499.927 270.144ZM507.284 270.144C506.761 270.144 506.299 270.055 505.898 269.879C505.497 269.695 505.181 269.437 504.95 269.104C504.719 268.764 504.6 268.353 504.593 267.87H505.969C505.983 268.203 506.102 268.485 506.326 268.716C506.557 268.941 506.873 269.053 507.274 269.053C507.621 269.053 507.896 268.971 508.1 268.808C508.304 268.638 508.406 268.414 508.406 268.135C508.406 267.843 508.314 267.615 508.131 267.452C507.954 267.289 507.716 267.157 507.417 267.055C507.118 266.953 506.799 266.844 506.459 266.728C505.908 266.538 505.487 266.293 505.194 265.994C504.909 265.695 504.766 265.298 504.766 264.801C504.759 264.38 504.858 264.02 505.062 263.721C505.273 263.415 505.558 263.18 505.918 263.017C506.279 262.847 506.693 262.762 507.162 262.762C507.638 262.762 508.056 262.847 508.416 263.017C508.783 263.187 509.069 263.425 509.273 263.731C509.483 264.037 509.595 264.4 509.609 264.822H508.212C508.205 264.57 508.107 264.349 507.917 264.159C507.733 263.962 507.475 263.863 507.142 263.863C506.856 263.857 506.615 263.928 506.418 264.078C506.228 264.22 506.132 264.431 506.132 264.71C506.132 264.948 506.207 265.138 506.357 265.281C506.506 265.417 506.71 265.532 506.968 265.627C507.227 265.722 507.522 265.824 507.855 265.933C508.209 266.055 508.532 266.198 508.824 266.361C509.116 266.524 509.351 266.742 509.527 267.014C509.704 267.279 509.793 267.622 509.793 268.044C509.793 268.417 509.697 268.764 509.507 269.084C509.317 269.403 509.035 269.661 508.661 269.858C508.287 270.049 507.828 270.144 507.284 270.144ZM512.206 270.021V262.885H516.865V263.935H513.511V265.892H516.559V266.912H513.511V268.971H516.865V270.021H512.206ZM521.811 270.144C521.288 270.144 520.825 270.055 520.424 269.879C520.023 269.695 519.707 269.437 519.476 269.104C519.245 268.764 519.126 268.353 519.119 267.87H520.496C520.509 268.203 520.628 268.485 520.853 268.716C521.084 268.941 521.4 269.053 521.801 269.053C522.147 269.053 522.423 268.971 522.627 268.808C522.83 268.638 522.932 268.414 522.932 268.135C522.932 267.843 522.841 267.615 522.657 267.452C522.48 267.289 522.242 267.157 521.943 267.055C521.644 266.953 521.325 266.844 520.985 266.728C520.435 266.538 520.013 266.293 519.721 265.994C519.435 265.695 519.293 265.298 519.293 264.801C519.286 264.38 519.384 264.02 519.588 263.721C519.799 263.415 520.084 263.18 520.445 263.017C520.805 262.847 521.22 262.762 521.689 262.762C522.164 262.762 522.582 262.847 522.943 263.017C523.31 263.187 523.595 263.425 523.799 263.731C524.01 264.037 524.122 264.4 524.135 264.822H522.739C522.732 264.57 522.633 264.349 522.443 264.159C522.259 263.962 522.001 263.863 521.668 263.863C521.383 263.857 521.141 263.928 520.944 264.078C520.754 264.22 520.659 264.431 520.659 264.71C520.659 264.948 520.734 265.138 520.883 265.281C521.033 265.417 521.237 265.532 521.495 265.627C521.753 265.722 522.049 265.824 522.382 265.933C522.735 266.055 523.058 266.198 523.35 266.361C523.643 266.524 523.877 266.742 524.054 267.014C524.231 267.279 524.319 267.622 524.319 268.044C524.319 268.417 524.224 268.764 524.033 269.084C523.843 269.403 523.561 269.661 523.187 269.858C522.813 270.049 522.355 270.144 521.811 270.144ZM529.169 270.144C528.645 270.144 528.183 270.055 527.782 269.879C527.381 269.695 527.065 269.437 526.834 269.104C526.603 268.764 526.484 268.353 526.477 267.87H527.853C527.867 268.203 527.986 268.485 528.21 268.716C528.441 268.941 528.757 269.053 529.158 269.053C529.505 269.053 529.78 268.971 529.984 268.808C530.188 268.638 530.29 268.414 530.29 268.135C530.29 267.843 530.198 267.615 530.015 267.452C529.838 267.289 529.6 267.157 529.301 267.055C529.002 266.953 528.683 266.844 528.343 266.728C527.792 266.538 527.371 266.293 527.079 265.994C526.793 265.695 526.65 265.298 526.65 264.801C526.644 264.38 526.742 264.02 526.946 263.721C527.157 263.415 527.442 263.18 527.802 263.017C528.163 262.847 528.577 262.762 529.046 262.762C529.522 262.762 529.94 262.847 530.3 263.017C530.667 263.187 530.953 263.425 531.157 263.731C531.367 264.037 531.48 264.4 531.493 264.822H530.096C530.09 264.57 529.991 264.349 529.801 264.159C529.617 263.962 529.359 263.863 529.026 263.863C528.74 263.857 528.499 263.928 528.302 264.078C528.112 264.22 528.017 264.431 528.017 264.71C528.017 264.948 528.091 265.138 528.241 265.281C528.39 265.417 528.594 265.532 528.853 265.627C529.111 265.722 529.407 265.824 529.74 265.933C530.093 266.055 530.416 266.198 530.708 266.361C531 266.524 531.235 266.742 531.412 267.014C531.588 267.279 531.677 267.622 531.677 268.044C531.677 268.417 531.582 268.764 531.391 269.084C531.201 269.403 530.919 269.661 530.545 269.858C530.171 270.049 529.712 270.144 529.169 270.144ZM534.09 270.021V262.885H535.639L537.913 267.411L540.156 262.885H541.706V270.021H540.401V265.097L538.413 269.002H537.383L535.395 265.097V270.021H534.09ZM544.365 270.021V262.885H549.024V263.935H545.67V265.892H548.718V266.912H545.67V268.971H549.024V270.021H544.365ZM551.533 270.021V262.885H552.838L556.193 267.911V262.885H557.498V270.021H556.193L552.838 265.005V270.021H551.533ZM561.817 270.021V263.935H559.738V262.885H565.212V263.935H563.122V270.021H561.817ZM572.819 270.021V263.935H570.739V262.885H576.214V263.935H574.124V270.021H572.819ZM581.541 270.144C580.827 270.144 580.202 269.987 579.665 269.675C579.135 269.362 578.717 268.931 578.411 268.38C578.112 267.823 577.962 267.18 577.962 266.453C577.962 265.726 578.112 265.087 578.411 264.536C578.717 263.979 579.135 263.544 579.665 263.231C580.202 262.919 580.827 262.762 581.541 262.762C582.248 262.762 582.869 262.919 583.406 263.231C583.943 263.544 584.361 263.979 584.66 264.536C584.959 265.087 585.109 265.726 585.109 266.453C585.109 267.18 584.959 267.823 584.66 268.38C584.361 268.931 583.943 269.362 583.406 269.675C582.869 269.987 582.248 270.144 581.541 270.144ZM581.541 268.971C582.22 268.971 582.761 268.747 583.162 268.298C583.57 267.85 583.773 267.235 583.773 266.453C583.773 265.671 583.57 265.056 583.162 264.608C582.761 264.159 582.22 263.935 581.541 263.935C580.861 263.935 580.317 264.159 579.909 264.608C579.502 265.056 579.298 265.671 579.298 266.453C579.298 267.235 579.502 267.85 579.909 268.298C580.317 268.747 580.861 268.971 581.541 268.971ZM590.88 270.144C590.166 270.144 589.541 269.987 589.004 269.675C588.474 269.362 588.056 268.931 587.75 268.38C587.451 267.823 587.301 267.18 587.301 266.453C587.301 265.726 587.451 265.087 587.75 264.536C588.056 263.979 588.474 263.544 589.004 263.231C589.541 262.919 590.166 262.762 590.88 262.762C591.587 262.762 592.209 262.919 592.745 263.231C593.282 263.544 593.7 263.979 594 264.536C594.299 265.087 594.448 265.726 594.448 266.453C594.448 267.18 594.299 267.823 594 268.38C593.7 268.931 593.282 269.362 592.745 269.675C592.209 269.987 591.587 270.144 590.88 270.144ZM590.88 268.971C591.559 268.971 592.1 268.747 592.501 268.298C592.909 267.85 593.113 267.235 593.113 266.453C593.113 265.671 592.909 265.056 592.501 264.608C592.1 264.159 591.559 263.935 590.88 263.935C590.2 263.935 589.656 264.159 589.248 264.608C588.841 265.056 588.637 265.671 588.637 266.453C588.637 267.235 588.841 267.85 589.248 268.298C589.656 268.747 590.2 268.971 590.88 268.971ZM596.875 270.021V262.885H598.18V269.002H601.34V270.021H596.875Z" fill="black"/>
<path d="M393.902 84.0814L394.16 84.2994C395.598 85.511 396.427 87.2951 396.427 89.1749V153.164H224.253L224.238 153.152L220.042 149.559V142.938L371.087 82.5801H389.792C390.619 82.5801 391.431 82.7408 392.186 83.0466C392.804 83.297 393.384 83.6448 393.902 84.0814Z" fill="#1E1F24"/>
<rect x="220.862" y="83.3596" width="170.582" height="65.3631" fill="white"/>
<rect x="220.862" y="83.3596" width="170.582" height="65.3631" fill="#00B37A"/>
<rect x="220.862" y="83.3596" width="170.582" height="65.3631" stroke="#1E1F24" stroke-width="1.59422"/>
<path d="M236.222 120.84V112.093H238.122L240.908 117.641L243.657 112.093H245.556V120.84H243.957V114.805L241.52 119.59H240.258L237.822 114.805V120.84H236.222ZM249.645 120.84V112.093H255.292V113.38H251.244V115.829H254.518V117.091H251.244V120.84H249.645ZM258.918 120.84V112.093H260.517V120.84H258.918ZM273.934 120.99C273.051 120.99 272.293 120.802 271.659 120.427C271.026 120.044 270.539 119.515 270.197 118.841C269.856 118.158 269.685 117.37 269.685 116.479C269.685 115.588 269.856 114.8 270.197 114.117C270.539 113.434 271.026 112.901 271.659 112.518C272.293 112.135 273.051 111.943 273.934 111.943C274.983 111.943 275.841 112.206 276.508 112.73C277.182 113.247 277.603 113.976 277.77 114.917H276.008C275.9 114.442 275.666 114.072 275.308 113.805C274.958 113.53 274.492 113.393 273.909 113.393C273.101 113.393 272.467 113.667 272.009 114.217C271.551 114.767 271.322 115.521 271.322 116.479C271.322 117.437 271.551 118.191 272.009 118.741C272.467 119.282 273.101 119.553 273.909 119.553C274.492 119.553 274.958 119.428 275.308 119.178C275.666 118.92 275.9 118.566 276.008 118.116H277.77C277.603 119.016 277.182 119.719 276.508 120.228C275.841 120.736 274.983 120.99 273.934 120.99ZM285.675 120.99C284.8 120.99 284.034 120.798 283.376 120.415C282.726 120.032 282.214 119.503 281.839 118.828C281.473 118.145 281.289 117.358 281.289 116.466C281.289 115.575 281.473 114.792 281.839 114.117C282.214 113.434 282.726 112.901 283.376 112.518C284.034 112.135 284.8 111.943 285.675 111.943C286.542 111.943 287.304 112.135 287.962 112.518C288.62 112.901 289.132 113.434 289.499 114.117C289.865 114.792 290.049 115.575 290.049 116.466C290.049 117.358 289.865 118.145 289.499 118.828C289.132 119.503 288.62 120.032 287.962 120.415C287.304 120.798 286.542 120.99 285.675 120.99ZM285.675 119.553C286.508 119.553 287.17 119.278 287.662 118.728C288.162 118.178 288.412 117.424 288.412 116.466C288.412 115.508 288.162 114.755 287.662 114.205C287.17 113.655 286.508 113.38 285.675 113.38C284.842 113.38 284.176 113.655 283.676 114.205C283.176 114.755 282.926 115.508 282.926 116.466C282.926 117.424 283.176 118.178 283.676 118.728C284.176 119.278 284.842 119.553 285.675 119.553ZM293.852 120.84V112.093H295.751L298.538 117.641L301.287 112.093H303.186V120.84H301.587V114.805L299.15 119.59H297.888L295.451 114.805V120.84H293.852ZM307.274 120.84V112.093H310.511C311.21 112.093 311.789 112.21 312.247 112.443C312.706 112.676 313.047 112.997 313.272 113.405C313.497 113.813 313.609 114.271 313.609 114.78C313.609 115.263 313.501 115.708 313.285 116.117C313.068 116.516 312.731 116.841 312.272 117.091C311.814 117.333 311.227 117.454 310.511 117.454H308.874V120.84H307.274ZM308.874 116.154H310.411C310.969 116.154 311.369 116.033 311.61 115.792C311.86 115.542 311.985 115.204 311.985 114.78C311.985 114.346 311.86 114.009 311.61 113.767C311.369 113.518 310.969 113.393 310.411 113.393H308.874V116.154ZM321.354 120.99C320.479 120.99 319.713 120.798 319.055 120.415C318.405 120.032 317.893 119.503 317.518 118.828C317.151 118.145 316.968 117.358 316.968 116.466C316.968 115.575 317.151 114.792 317.518 114.117C317.893 113.434 318.405 112.901 319.055 112.518C319.713 112.135 320.479 111.943 321.354 111.943C322.22 111.943 322.982 112.135 323.641 112.518C324.299 112.901 324.811 113.434 325.177 114.117C325.544 114.792 325.727 115.575 325.727 116.466C325.727 117.358 325.544 118.145 325.177 118.828C324.811 119.503 324.299 120.032 323.641 120.415C322.982 120.798 322.22 120.99 321.354 120.99ZM321.354 119.553C322.187 119.553 322.849 119.278 323.341 118.728C323.84 118.178 324.09 117.424 324.09 116.466C324.09 115.508 323.84 114.755 323.341 114.205C322.849 113.655 322.187 113.38 321.354 113.38C320.521 113.38 319.854 113.655 319.355 114.205C318.855 114.755 318.605 115.508 318.605 116.466C318.605 117.424 318.855 118.178 319.355 118.728C319.854 119.278 320.521 119.553 321.354 119.553ZM329.531 120.84V112.093H331.13L335.241 118.253V112.093H336.84V120.84H335.241L331.13 114.692V120.84H329.531ZM340.927 120.84V112.093H346.638V113.38H342.527V115.779H346.263V117.029H342.527V119.553H346.638V120.84H340.927ZM350.542 120.84V112.093H352.142L356.253 118.253V112.093H357.852V120.84H356.253L352.142 114.692V120.84H350.542ZM363.976 120.84V113.38H361.427V112.093H368.137V113.38H365.575V120.84H363.976ZM374.589 120.99C373.948 120.99 373.382 120.881 372.89 120.665C372.399 120.44 372.011 120.123 371.728 119.715C371.445 119.299 371.299 118.795 371.291 118.203H372.978C372.994 118.611 373.14 118.957 373.415 119.24C373.698 119.515 374.085 119.653 374.577 119.653C375.002 119.653 375.339 119.553 375.589 119.353C375.839 119.145 375.964 118.87 375.964 118.528C375.964 118.17 375.852 117.891 375.627 117.691C375.41 117.491 375.118 117.329 374.752 117.204C374.385 117.079 373.994 116.945 373.577 116.804C372.903 116.571 372.386 116.271 372.028 115.904C371.678 115.538 371.503 115.05 371.503 114.442C371.495 113.926 371.616 113.484 371.865 113.118C372.124 112.743 372.474 112.455 372.915 112.256C373.357 112.047 373.865 111.943 374.44 111.943C375.023 111.943 375.535 112.047 375.976 112.256C376.426 112.464 376.776 112.755 377.026 113.13C377.284 113.505 377.422 113.951 377.438 114.467H375.727C375.718 114.159 375.597 113.888 375.364 113.655C375.139 113.413 374.823 113.293 374.415 113.293C374.065 113.284 373.769 113.372 373.527 113.555C373.294 113.73 373.177 113.988 373.177 114.33C373.177 114.621 373.269 114.855 373.452 115.029C373.636 115.196 373.886 115.338 374.202 115.454C374.519 115.571 374.881 115.696 375.289 115.829C375.722 115.979 376.118 116.154 376.476 116.354C376.834 116.554 377.122 116.82 377.338 117.154C377.555 117.479 377.663 117.899 377.663 118.416C377.663 118.874 377.547 119.299 377.313 119.69C377.08 120.082 376.735 120.398 376.276 120.64C375.818 120.873 375.256 120.99 374.589 120.99Z" fill="white"/>
<path d="M268.387 83.2127L308.383 45.4922L348.38 83.2127" stroke="#1E1F24" stroke-opacity="0.3"/>
<circle cx="308.384" cy="45.8173" r="1.62588" fill="white"/>
<defs>
<clipPath id="clip0">
<rect x="0.783203" y="238.074" width="176.956" height="58.5318" rx="1.30071" fill="white"/>
</clipPath>
<clipPath id="clip1">
<rect x="223.002" y="237.988" width="176.956" height="58.5318" rx="1.30071" fill="white"/>
</clipPath>
<clipPath id="clip2">
<rect x="440.422" y="238.074" width="176.956" height="58.5318" rx="1.30071" fill="white"/>
</clipPath>
</defs>
</svg>
