<svg width="1047" height="353" viewBox="0 0 1047 353" fill="none" xmlns="http://www.w3.org/2000/svg">
<rect x="74" y="19" width="972" height="74" fill="white" stroke="black" stroke-opacity="0.1"/>
<rect x="74" y="93" width="972" height="74" fill="white" stroke="black" stroke-opacity="0.1"/>
<rect x="74" y="167" width="972" height="74" fill="white" stroke="black" stroke-opacity="0.1"/>
<rect x="74" y="241" width="972" height="75" fill="white" stroke="black" stroke-opacity="0.1"/>
<rect x="268" y="19" width="194" height="297" stroke="black" stroke-opacity="0.1"/>
<rect x="656" y="19" width="194" height="297" stroke="black" stroke-opacity="0.1"/>
<rect x="850" y="19" width="196" height="297" stroke="black" stroke-opacity="0.1"/>
<path d="M134 84.7143C134 82.6629 135.663 81 137.714 81H167.286C169.337 81 171 82.6629 171 84.7143V316H134V84.7143Z" fill="#CAD3F4" stroke="white" stroke-width="1.85714"/>
<path d="M328 84.7143C328 82.6629 329.663 81 331.714 81H361.286C363.337 81 365 82.6629 365 84.7143V316H328V84.7143Z" fill="#CAD3F4" stroke="white" stroke-width="1.85714"/>
<path d="M522 152.714C522 150.663 523.663 149 525.714 149H555.286C557.337 149 559 150.663 559 152.714V316H522V152.714Z" fill="#CAD3F4" stroke="white" stroke-width="1.85714"/>
<path d="M716 126.714C716 124.663 717.663 123 719.714 123H749.286C751.337 123 753 124.663 753 126.714V316H716V126.714Z" fill="#CAD3F4" stroke="white" stroke-width="1.85714"/>
<path d="M365.143 71.7143C365.143 69.6629 366.806 68 368.857 68H398.428C400.48 68 402.143 69.6629 402.143 71.7143V316H365.143V71.7143Z" fill="#526CDB" stroke="white" stroke-width="1.85714"/>
<path d="M171.143 90.7143C171.143 88.6629 172.806 87 174.857 87H204.428C206.48 87 208.143 88.6629 208.143 90.7143V316H171.143V90.7143Z" fill="#526CDB" stroke="white" stroke-width="1.85714"/>
<path d="M559.143 152.714C559.143 150.663 560.806 149 562.857 149H592.428C594.48 149 596.143 150.663 596.143 152.714V316H559.143V152.714Z" fill="#526CDB" stroke="white" stroke-width="1.85714"/>
<path d="M753 132.714C753 130.663 754.663 129 756.714 129H786.286C788.337 129 790 130.663 790 132.714V316H753V132.714Z" fill="#526CDB" stroke="white" stroke-width="1.85714"/>
<path opacity="0.7" d="M45.1013 87.9256L40.8967 97.2856H39.4853L43.7641 87.9256H38.683V86.7668H45.1013V87.9256ZM53.2677 87.9256H48.974L48.9294 90.7634C49.1275 90.6643 49.3454 90.5999 49.5831 90.5702C49.8308 90.5306 50.0635 90.5108 50.2814 90.5108C50.7866 90.5108 51.2422 90.5999 51.6483 90.7782C52.0643 90.9466 52.4209 91.1893 52.718 91.5062C53.0151 91.8133 53.2429 92.1797 53.4014 92.6056C53.5599 93.0216 53.6391 93.4773 53.6391 93.9725C53.6391 94.4975 53.545 94.9778 53.3568 95.4136C53.1786 95.8396 52.926 96.206 52.5991 96.5131C52.2822 96.8102 51.9009 97.043 51.4551 97.2114C51.0193 97.3797 50.5439 97.4639 50.0289 97.4639C49.2266 97.4639 48.5778 97.2906 48.0826 96.9439C47.5972 96.5973 47.2109 96.1317 46.9237 95.5474L48.1717 95.0719C48.35 95.4681 48.6075 95.79 48.9443 96.0376C49.2909 96.2754 49.6871 96.3942 50.1329 96.3942C50.4498 96.3942 50.742 96.3397 51.0094 96.2308C51.2868 96.1119 51.5245 95.9485 51.7226 95.7405C51.9306 95.5226 52.094 95.2651 52.2129 94.9679C52.3317 94.6708 52.3911 94.339 52.3911 93.9725C52.3911 93.5862 52.3218 93.2445 52.1831 92.9474C52.0544 92.6502 51.8711 92.4026 51.6334 92.2045C51.4056 91.9965 51.1332 91.843 50.8163 91.7439C50.4993 91.635 50.1576 91.5805 49.7911 91.5805C49.4346 91.5805 49.0681 91.6449 48.6917 91.7736C48.3153 91.8925 47.9687 92.046 47.6517 92.2342L47.7557 86.7668H53.2677V87.9256ZM55.0456 89.1885C55.0456 88.822 55.11 88.4803 55.2387 88.1634C55.3774 87.8464 55.5606 87.574 55.7884 87.3462C56.0261 87.1085 56.3035 86.9253 56.6204 86.7965C56.9374 86.6578 57.2791 86.5885 57.6456 86.5885C58.012 86.5885 58.3538 86.6578 58.6707 86.7965C58.9877 86.9253 59.26 87.1085 59.4879 87.3462C59.7256 87.574 59.9088 87.8464 60.0376 88.1634C60.1762 88.4803 60.2456 88.822 60.2456 89.1885C60.2456 89.555 60.1762 89.8967 60.0376 90.2136C59.9088 90.5306 59.7256 90.8079 59.4879 91.0456C59.26 91.2735 58.9877 91.4567 58.6707 91.5954C58.3538 91.7241 58.012 91.7885 57.6456 91.7885C57.2791 91.7885 56.9374 91.7241 56.6204 91.5954C56.3035 91.4567 56.0261 91.2735 55.7884 91.0456C55.5606 90.8079 55.3774 90.5306 55.2387 90.2136C55.11 89.8967 55.0456 89.555 55.0456 89.1885ZM56.1153 89.1885C56.1153 89.3965 56.1549 89.5946 56.2341 89.7828C56.3233 89.9611 56.4372 90.1245 56.5759 90.2731C56.7145 90.4117 56.873 90.5207 57.0513 90.5999C57.2395 90.6792 57.4376 90.7188 57.6456 90.7188C57.8536 90.7188 58.0467 90.6792 58.225 90.5999C58.4132 90.5207 58.5766 90.4117 58.7153 90.2731C58.8539 90.1245 58.9629 89.9611 59.0421 89.7828C59.1313 89.5946 59.1759 89.3965 59.1759 89.1885C59.1759 88.9805 59.1313 88.7874 59.0421 88.6091C58.9629 88.4209 58.8539 88.2575 58.7153 88.1188C58.5766 87.9702 58.4132 87.8563 58.225 87.7771C58.0467 87.6978 57.8536 87.6582 57.6456 87.6582C57.4376 87.6582 57.2395 87.6978 57.0513 87.7771C56.873 87.8563 56.7145 87.9702 56.5759 88.1188C56.4372 88.2575 56.3233 88.4209 56.2341 88.6091C56.1549 88.7874 56.1153 88.9805 56.1153 89.1885ZM61.0924 94.8639C61.0924 94.4975 61.1568 94.1557 61.2856 93.8388C61.4242 93.5218 61.6075 93.2495 61.8353 93.0216C62.073 92.7839 62.3503 92.6007 62.6673 92.4719C62.9842 92.3333 63.3259 92.2639 63.6924 92.2639C64.0589 92.2639 64.4006 92.3333 64.7176 92.4719C65.0345 92.6007 65.3069 92.7839 65.5347 93.0216C65.7724 93.2495 65.9557 93.5218 66.0844 93.8388C66.2231 94.1557 66.2924 94.4975 66.2924 94.8639C66.2924 95.2304 66.2231 95.5721 66.0844 95.8891C65.9557 96.206 65.7724 96.4834 65.5347 96.7211C65.3069 96.9489 65.0345 97.1321 64.7176 97.2708C64.4006 97.3995 64.0589 97.4639 63.6924 97.4639C63.3259 97.4639 62.9842 97.3995 62.6673 97.2708C62.3503 97.1321 62.073 96.9489 61.8353 96.7211C61.6075 96.4834 61.4242 96.206 61.2856 95.8891C61.1568 95.5721 61.0924 95.2304 61.0924 94.8639ZM62.1621 94.8639C62.1621 95.0719 62.2018 95.27 62.281 95.4582C62.3701 95.6365 62.484 95.7999 62.6227 95.9485C62.7614 96.0872 62.9199 96.1961 63.0981 96.2754C63.2863 96.3546 63.4844 96.3942 63.6924 96.3942C63.9004 96.3942 64.0936 96.3546 64.2719 96.2754C64.46 96.1961 64.6235 96.0872 64.7621 95.9485C64.9008 95.7999 65.0098 95.6365 65.089 95.4582C65.1781 95.27 65.2227 95.0719 65.2227 94.8639C65.2227 94.6559 65.1781 94.4628 65.089 94.2845C65.0098 94.0963 64.9008 93.9329 64.7621 93.7942C64.6235 93.6456 64.46 93.5317 64.2719 93.4525C64.0936 93.3733 63.9004 93.3336 63.6924 93.3336C63.4844 93.3336 63.2863 93.3733 63.0981 93.4525C62.9199 93.5317 62.7614 93.6456 62.6227 93.7942C62.484 93.9329 62.3701 94.0963 62.281 94.2845C62.2018 94.4628 62.1621 94.6559 62.1621 94.8639ZM63.6033 86.2914L64.4204 86.7668L57.8239 97.7611L57.0067 97.2856L63.6033 86.2914Z" fill="black"/>
<path opacity="0.7" d="M38.7127 244.433L42.6796 240.57C42.9272 240.333 43.1451 240.115 43.3333 239.917C43.5215 239.709 43.675 239.51 43.7938 239.322C43.9226 239.124 44.0167 238.921 44.0761 238.713C44.1356 238.505 44.1653 238.272 44.1653 238.015C44.1653 237.737 44.1157 237.49 44.0167 237.272C43.9177 237.054 43.779 236.871 43.6007 236.722C43.4323 236.564 43.2293 236.445 42.9916 236.366C42.7638 236.277 42.5161 236.232 42.2487 236.232C41.7138 236.232 41.2731 236.385 40.9264 236.693C40.5798 237 40.3569 237.406 40.2578 237.911L38.9058 237.792C38.9752 237.366 39.1039 236.99 39.2921 236.663C39.4902 236.326 39.7329 236.049 40.0201 235.831C40.3173 235.613 40.6491 235.449 41.0156 235.341C41.382 235.222 41.7782 235.162 42.2041 235.162C42.6399 235.162 43.051 235.227 43.4373 235.355C43.8236 235.474 44.1603 235.653 44.4476 235.89C44.7447 236.128 44.9775 236.425 45.1458 236.782C45.3241 237.138 45.4133 237.549 45.4133 238.015C45.4133 238.431 45.3538 238.807 45.235 239.144C45.126 239.481 44.9725 239.793 44.7744 240.08C44.5862 240.357 44.3683 240.625 44.1207 240.882C43.883 241.13 43.6304 241.377 43.363 241.625L40.1241 244.671V244.701H45.4876V245.859H38.7127V244.433ZM53.2677 236.499H48.974L48.9294 239.337C49.1275 239.238 49.3454 239.174 49.5831 239.144C49.8308 239.104 50.0635 239.085 50.2814 239.085C50.7866 239.085 51.2422 239.174 51.6483 239.352C52.0643 239.52 52.4209 239.763 52.718 240.08C53.0151 240.387 53.2429 240.753 53.4014 241.179C53.5599 241.595 53.6391 242.051 53.6391 242.546C53.6391 243.071 53.545 243.552 53.3568 243.987C53.1786 244.413 52.926 244.78 52.5991 245.087C52.2822 245.384 51.9009 245.617 51.4551 245.785C51.0193 245.953 50.5439 246.038 50.0289 246.038C49.2266 246.038 48.5778 245.864 48.0826 245.518C47.5972 245.171 47.2109 244.705 46.9237 244.121L48.1717 243.646C48.35 244.042 48.6075 244.364 48.9443 244.611C49.2909 244.849 49.6871 244.968 50.1329 244.968C50.4498 244.968 50.742 244.913 51.0094 244.805C51.2868 244.686 51.5245 244.522 51.7226 244.314C51.9306 244.096 52.094 243.839 52.2129 243.542C52.3317 243.245 52.3911 242.913 52.3911 242.546C52.3911 242.16 52.3218 241.818 52.1831 241.521C52.0544 241.224 51.8711 240.976 51.6334 240.778C51.4056 240.57 51.1332 240.417 50.8163 240.318C50.4993 240.209 50.1576 240.154 49.7911 240.154C49.4346 240.154 49.0681 240.219 48.6917 240.347C48.3153 240.466 47.9687 240.62 47.6517 240.808L47.7557 235.341H53.2677V236.499ZM55.0456 237.762C55.0456 237.396 55.11 237.054 55.2387 236.737C55.3774 236.42 55.5606 236.148 55.7884 235.92C56.0261 235.682 56.3035 235.499 56.6204 235.37C56.9374 235.232 57.2791 235.162 57.6456 235.162C58.012 235.162 58.3538 235.232 58.6707 235.37C58.9877 235.499 59.26 235.682 59.4879 235.92C59.7256 236.148 59.9088 236.42 60.0376 236.737C60.1762 237.054 60.2456 237.396 60.2456 237.762C60.2456 238.129 60.1762 238.47 60.0376 238.787C59.9088 239.104 59.7256 239.382 59.4879 239.619C59.26 239.847 58.9877 240.03 58.6707 240.169C58.3538 240.298 58.012 240.362 57.6456 240.362C57.2791 240.362 56.9374 240.298 56.6204 240.169C56.3035 240.03 56.0261 239.847 55.7884 239.619C55.5606 239.382 55.3774 239.104 55.2387 238.787C55.11 238.47 55.0456 238.129 55.0456 237.762ZM56.1153 237.762C56.1153 237.97 56.1549 238.168 56.2341 238.357C56.3233 238.535 56.4372 238.698 56.5759 238.847C56.7145 238.985 56.873 239.094 57.0513 239.174C57.2395 239.253 57.4376 239.293 57.6456 239.293C57.8536 239.293 58.0467 239.253 58.225 239.174C58.4132 239.094 58.5766 238.985 58.7153 238.847C58.8539 238.698 58.9629 238.535 59.0421 238.357C59.1313 238.168 59.1759 237.97 59.1759 237.762C59.1759 237.554 59.1313 237.361 59.0421 237.183C58.9629 236.995 58.8539 236.831 58.7153 236.693C58.5766 236.544 58.4132 236.43 58.225 236.351C58.0467 236.272 57.8536 236.232 57.6456 236.232C57.4376 236.232 57.2395 236.272 57.0513 236.351C56.873 236.43 56.7145 236.544 56.5759 236.693C56.4372 236.831 56.3233 236.995 56.2341 237.183C56.1549 237.361 56.1153 237.554 56.1153 237.762ZM61.0924 243.438C61.0924 243.071 61.1568 242.729 61.2856 242.413C61.4242 242.096 61.6075 241.823 61.8353 241.595C62.073 241.358 62.3503 241.174 62.6673 241.046C62.9842 240.907 63.3259 240.838 63.6924 240.838C64.0589 240.838 64.4006 240.907 64.7176 241.046C65.0345 241.174 65.3069 241.358 65.5347 241.595C65.7724 241.823 65.9557 242.096 66.0844 242.413C66.2231 242.729 66.2924 243.071 66.2924 243.438C66.2924 243.804 66.2231 244.146 66.0844 244.463C65.9557 244.78 65.7724 245.057 65.5347 245.295C65.3069 245.523 65.0345 245.706 64.7176 245.845C64.4006 245.973 64.0589 246.038 63.6924 246.038C63.3259 246.038 62.9842 245.973 62.6673 245.845C62.3503 245.706 62.073 245.523 61.8353 245.295C61.6075 245.057 61.4242 244.78 61.2856 244.463C61.1568 244.146 61.0924 243.804 61.0924 243.438ZM62.1621 243.438C62.1621 243.646 62.2018 243.844 62.281 244.032C62.3701 244.21 62.484 244.374 62.6227 244.522C62.7614 244.661 62.9199 244.77 63.0981 244.849C63.2863 244.928 63.4844 244.968 63.6924 244.968C63.9004 244.968 64.0936 244.928 64.2719 244.849C64.46 244.77 64.6235 244.661 64.7621 244.522C64.9008 244.374 65.0098 244.21 65.089 244.032C65.1781 243.844 65.2227 243.646 65.2227 243.438C65.2227 243.23 65.1781 243.037 65.089 242.858C65.0098 242.67 64.9008 242.507 64.7621 242.368C64.6235 242.219 64.46 242.105 64.2719 242.026C64.0936 241.947 63.9004 241.907 63.6924 241.907C63.4844 241.907 63.2863 241.947 63.0981 242.026C62.9199 242.105 62.7614 242.219 62.6227 242.368C62.484 242.507 62.3701 242.67 62.281 242.858C62.2018 243.037 62.1621 243.23 62.1621 243.438ZM63.6033 234.865L64.4204 235.341L57.8239 246.335L57.0067 245.859L63.6033 234.865Z" fill="black"/>
<path opacity="0.7" d="M46.79 314.881C46.79 314.287 46.8395 313.668 46.9386 313.024C47.0376 312.38 47.2209 311.796 47.4883 311.271C47.7557 310.736 48.1172 310.3 48.5729 309.963C49.0384 309.617 49.6327 309.443 50.3557 309.443C51.0788 309.443 51.6681 309.617 52.1237 309.963C52.5892 310.3 52.9557 310.736 53.2231 311.271C53.4906 311.796 53.6738 312.38 53.7728 313.024C53.8719 313.668 53.9214 314.287 53.9214 314.881C53.9214 315.475 53.8719 316.095 53.7728 316.738C53.6738 317.382 53.4906 317.971 53.2231 318.506C52.9557 319.031 52.5892 319.467 52.1237 319.814C51.6681 320.151 51.0788 320.319 50.3557 320.319C49.6327 320.319 49.0384 320.151 48.5729 319.814C48.1172 319.467 47.7557 319.031 47.4883 318.506C47.2209 317.971 47.0376 317.382 46.9386 316.738C46.8395 316.095 46.79 315.475 46.79 314.881ZM48.038 314.881C48.038 315.139 48.0479 315.426 48.0677 315.743C48.0875 316.06 48.1222 316.382 48.1717 316.709C48.2311 317.026 48.3104 317.338 48.4094 317.645C48.5184 317.952 48.657 318.224 48.8254 318.462C49.0037 318.699 49.2167 318.893 49.4643 319.041C49.7119 319.18 50.009 319.249 50.3557 319.249C50.7024 319.249 50.9995 319.18 51.2471 319.041C51.4948 318.893 51.7028 318.699 51.8711 318.462C52.0494 318.224 52.1881 317.952 52.2871 317.645C52.3961 317.338 52.4753 317.026 52.5249 316.709C52.5843 316.382 52.6239 316.06 52.6437 315.743C52.6635 315.426 52.6734 315.139 52.6734 314.881C52.6734 314.624 52.6635 314.336 52.6437 314.019C52.6239 313.703 52.5843 313.386 52.5249 313.069C52.4753 312.742 52.3961 312.425 52.2871 312.118C52.1881 311.811 52.0494 311.538 51.8711 311.301C51.7028 311.063 51.4948 310.875 51.2471 310.736C50.9995 310.587 50.7024 310.513 50.3557 310.513C50.009 310.513 49.7119 310.587 49.4643 310.736C49.2167 310.875 49.0037 311.063 48.8254 311.301C48.657 311.538 48.5184 311.811 48.4094 312.118C48.3104 312.425 48.2311 312.742 48.1717 313.069C48.1222 313.386 48.0875 313.703 48.0677 314.019C48.0479 314.336 48.038 314.624 48.038 314.881ZM55.0456 312.043C55.0456 311.677 55.11 311.335 55.2387 311.018C55.3774 310.701 55.5606 310.429 55.7884 310.201C56.0261 309.963 56.3035 309.78 56.6204 309.651C56.9374 309.513 57.2791 309.443 57.6456 309.443C58.012 309.443 58.3538 309.513 58.6707 309.651C58.9877 309.78 59.26 309.963 59.4879 310.201C59.7256 310.429 59.9088 310.701 60.0376 311.018C60.1762 311.335 60.2456 311.677 60.2456 312.043C60.2456 312.41 60.1762 312.752 60.0376 313.069C59.9088 313.386 59.7256 313.663 59.4879 313.901C59.26 314.128 58.9877 314.312 58.6707 314.45C58.3538 314.579 58.012 314.643 57.6456 314.643C57.2791 314.643 56.9374 314.579 56.6204 314.45C56.3035 314.312 56.0261 314.128 55.7884 313.901C55.5606 313.663 55.3774 313.386 55.2387 313.069C55.11 312.752 55.0456 312.41 55.0456 312.043ZM56.1153 312.043C56.1153 312.251 56.1549 312.45 56.2341 312.638C56.3233 312.816 56.4372 312.979 56.5759 313.128C56.7145 313.267 56.873 313.376 57.0513 313.455C57.2395 313.534 57.4376 313.574 57.6456 313.574C57.8536 313.574 58.0467 313.534 58.225 313.455C58.4132 313.376 58.5766 313.267 58.7153 313.128C58.854 312.979 58.9629 312.816 59.0421 312.638C59.1313 312.45 59.1759 312.251 59.1759 312.043C59.1759 311.835 59.1313 311.642 59.0421 311.464C58.9629 311.276 58.854 311.112 58.7153 310.974C58.5766 310.825 58.4132 310.711 58.225 310.632C58.0467 310.553 57.8536 310.513 57.6456 310.513C57.4376 310.513 57.2395 310.553 57.0513 310.632C56.873 310.711 56.7145 310.825 56.5759 310.974C56.4372 311.112 56.3233 311.276 56.2341 311.464C56.1549 311.642 56.1153 311.835 56.1153 312.043ZM61.0924 317.719C61.0924 317.352 61.1568 317.011 61.2856 316.694C61.4242 316.377 61.6075 316.104 61.8353 315.877C62.073 315.639 62.3503 315.456 62.6673 315.327C62.9842 315.188 63.3259 315.119 63.6924 315.119C64.0589 315.119 64.4006 315.188 64.7176 315.327C65.0345 315.456 65.3069 315.639 65.5347 315.877C65.7724 316.104 65.9557 316.377 66.0844 316.694C66.2231 317.011 66.2924 317.352 66.2924 317.719C66.2924 318.085 66.2231 318.427 66.0844 318.744C65.9557 319.061 65.7724 319.338 65.5347 319.576C65.3069 319.804 65.0345 319.987 64.7176 320.126C64.4006 320.255 64.0589 320.319 63.6924 320.319C63.3259 320.319 62.9842 320.255 62.6673 320.126C62.3503 319.987 62.073 319.804 61.8353 319.576C61.6075 319.338 61.4242 319.061 61.2856 318.744C61.1568 318.427 61.0924 318.085 61.0924 317.719ZM62.1621 317.719C62.1621 317.927 62.2018 318.125 62.281 318.313C62.3701 318.491 62.484 318.655 62.6227 318.803C62.7614 318.942 62.9199 319.051 63.0981 319.13C63.2863 319.21 63.4844 319.249 63.6924 319.249C63.9004 319.249 64.0936 319.21 64.2719 319.13C64.46 319.051 64.6235 318.942 64.7621 318.803C64.9008 318.655 65.0098 318.491 65.089 318.313C65.1781 318.125 65.2227 317.927 65.2227 317.719C65.2227 317.511 65.1781 317.318 65.089 317.139C65.0098 316.951 64.9008 316.788 64.7621 316.649C64.6235 316.501 64.46 316.387 64.2719 316.307C64.0936 316.228 63.9004 316.189 63.6924 316.189C63.4844 316.189 63.2863 316.228 63.0981 316.307C62.9199 316.387 62.7614 316.501 62.6227 316.649C62.484 316.788 62.3701 316.951 62.281 317.139C62.2018 317.318 62.1621 317.511 62.1621 317.719ZM63.6033 309.146L64.4204 309.622L57.8239 320.616L57.0067 320.141L63.6033 309.146Z" fill="black"/>
<path opacity="0.7" d="M35.0628 22.9995H33.8148V14.0852H33.7851L31.8983 15.6749L31.1554 14.7687L33.9783 12.4807H35.0628V22.9995ZM38.5344 17.7401C38.5344 17.1458 38.5839 16.5268 38.683 15.8829C38.782 15.2391 38.9653 14.6548 39.2327 14.1298C39.5001 13.5949 39.8617 13.1591 40.3173 12.8224C40.7828 12.4757 41.3771 12.3024 42.1001 12.3024C42.8232 12.3024 43.4125 12.4757 43.8681 12.8224C44.3337 13.1591 44.7001 13.5949 44.9676 14.1298C45.235 14.6548 45.4182 15.2391 45.5173 15.8829C45.6163 16.5268 45.6658 17.1458 45.6658 17.7401C45.6658 18.3344 45.6163 18.9534 45.5173 19.5972C45.4182 20.241 45.235 20.8304 44.9676 21.3652C44.7001 21.8902 44.3337 22.326 43.8681 22.6727C43.4125 23.0094 42.8232 23.1778 42.1001 23.1778C41.3771 23.1778 40.7828 23.0094 40.3173 22.6727C39.8617 22.326 39.5001 21.8902 39.2327 21.3652C38.9653 20.8304 38.782 20.241 38.683 19.5972C38.5839 18.9534 38.5344 18.3344 38.5344 17.7401ZM39.7824 17.7401C39.7824 17.9976 39.7923 18.2848 39.8121 18.6018C39.8319 18.9188 39.8666 19.2407 39.9161 19.5675C39.9756 19.8845 40.0548 20.1965 40.1538 20.5035C40.2628 20.8106 40.4015 21.0829 40.5698 21.3207C40.7481 21.5584 40.9611 21.7515 41.2087 21.9001C41.4563 22.0388 41.7535 22.1081 42.1001 22.1081C42.4468 22.1081 42.7439 22.0388 42.9916 21.9001C43.2392 21.7515 43.4472 21.5584 43.6156 21.3207C43.7938 21.0829 43.9325 20.8106 44.0316 20.5035C44.1405 20.1965 44.2197 19.8845 44.2693 19.5675C44.3287 19.2407 44.3683 18.9188 44.3881 18.6018C44.4079 18.2848 44.4178 17.9976 44.4178 17.7401C44.4178 17.4826 44.4079 17.1953 44.3881 16.8784C44.3683 16.5614 44.3287 16.2445 44.2693 15.9275C44.2197 15.6007 44.1405 15.2837 44.0316 14.9767C43.9325 14.6696 43.7938 14.3972 43.6156 14.1595C43.4472 13.9218 43.2392 13.7336 42.9916 13.5949C42.7439 13.4464 42.4468 13.3721 42.1001 13.3721C41.7535 13.3721 41.4563 13.4464 41.2087 13.5949C40.9611 13.7336 40.7481 13.9218 40.5698 14.1595C40.4015 14.3972 40.2628 14.6696 40.1538 14.9767C40.0548 15.2837 39.9756 15.6007 39.9161 15.9275C39.8666 16.2445 39.8319 16.5614 39.8121 16.8784C39.7923 17.1953 39.7824 17.4826 39.7824 17.7401ZM46.79 17.7401C46.79 17.1458 46.8395 16.5268 46.9386 15.8829C47.0376 15.2391 47.2209 14.6548 47.4883 14.1298C47.7557 13.5949 48.1172 13.1591 48.5729 12.8224C49.0384 12.4757 49.6327 12.3024 50.3557 12.3024C51.0788 12.3024 51.6681 12.4757 52.1237 12.8224C52.5892 13.1591 52.9557 13.5949 53.2231 14.1298C53.4906 14.6548 53.6738 15.2391 53.7728 15.8829C53.8719 16.5268 53.9214 17.1458 53.9214 17.7401C53.9214 18.3344 53.8719 18.9534 53.7728 19.5972C53.6738 20.241 53.4906 20.8304 53.2231 21.3652C52.9557 21.8902 52.5892 22.326 52.1237 22.6727C51.6681 23.0094 51.0788 23.1778 50.3557 23.1778C49.6327 23.1778 49.0384 23.0094 48.5729 22.6727C48.1172 22.326 47.7557 21.8902 47.4883 21.3652C47.2209 20.8304 47.0376 20.241 46.9386 19.5972C46.8395 18.9534 46.79 18.3344 46.79 17.7401ZM48.038 17.7401C48.038 17.9976 48.0479 18.2848 48.0677 18.6018C48.0875 18.9188 48.1222 19.2407 48.1717 19.5675C48.2311 19.8845 48.3104 20.1965 48.4094 20.5035C48.5184 20.8106 48.657 21.0829 48.8254 21.3207C49.0037 21.5584 49.2167 21.7515 49.4643 21.9001C49.7119 22.0388 50.009 22.1081 50.3557 22.1081C50.7024 22.1081 50.9995 22.0388 51.2471 21.9001C51.4948 21.7515 51.7028 21.5584 51.8711 21.3207C52.0494 21.0829 52.1881 20.8106 52.2871 20.5035C52.3961 20.1965 52.4753 19.8845 52.5249 19.5675C52.5843 19.2407 52.6239 18.9188 52.6437 18.6018C52.6635 18.2848 52.6734 17.9976 52.6734 17.7401C52.6734 17.4826 52.6635 17.1953 52.6437 16.8784C52.6239 16.5614 52.5843 16.2445 52.5249 15.9275C52.4753 15.6007 52.3961 15.2837 52.2871 14.9767C52.1881 14.6696 52.0494 14.3972 51.8711 14.1595C51.7028 13.9218 51.4948 13.7336 51.2471 13.5949C50.9995 13.4464 50.7024 13.3721 50.3557 13.3721C50.009 13.3721 49.7119 13.4464 49.4643 13.5949C49.2167 13.7336 49.0037 13.9218 48.8254 14.1595C48.657 14.3972 48.5184 14.6696 48.4094 14.9767C48.3104 15.2837 48.2311 15.6007 48.1717 15.9275C48.1222 16.2445 48.0875 16.5614 48.0677 16.8784C48.0479 17.1953 48.038 17.4826 48.038 17.7401ZM55.0456 14.9024C55.0456 14.5359 55.11 14.1942 55.2387 13.8772C55.3774 13.5603 55.5606 13.2879 55.7884 13.0601C56.0261 12.8224 56.3035 12.6391 56.6204 12.5104C56.9374 12.3717 57.2791 12.3024 57.6456 12.3024C58.012 12.3024 58.3538 12.3717 58.6707 12.5104C58.9877 12.6391 59.26 12.8224 59.4879 13.0601C59.7256 13.2879 59.9088 13.5603 60.0376 13.8772C60.1762 14.1942 60.2456 14.5359 60.2456 14.9024C60.2456 15.2688 60.1762 15.6106 60.0376 15.9275C59.9088 16.2445 59.7256 16.5218 59.4879 16.7595C59.26 16.9873 58.9877 17.1706 58.6707 17.3092C58.3538 17.438 58.012 17.5024 57.6456 17.5024C57.2791 17.5024 56.9374 17.438 56.6204 17.3092C56.3035 17.1706 56.0261 16.9873 55.7884 16.7595C55.5606 16.5218 55.3774 16.2445 55.2387 15.9275C55.11 15.6106 55.0456 15.2688 55.0456 14.9024ZM56.1153 14.9024C56.1153 15.1104 56.1549 15.3085 56.2341 15.4967C56.3233 15.6749 56.4372 15.8384 56.5759 15.9869C56.7145 16.1256 56.873 16.2346 57.0513 16.3138C57.2395 16.393 57.4376 16.4327 57.6456 16.4327C57.8536 16.4327 58.0467 16.393 58.225 16.3138C58.4132 16.2346 58.5766 16.1256 58.7153 15.9869C58.854 15.8384 58.9629 15.6749 59.0421 15.4967C59.1313 15.3085 59.1759 15.1104 59.1759 14.9024C59.1759 14.6944 59.1313 14.5012 59.0421 14.3229C58.9629 14.1348 58.854 13.9713 58.7153 13.8327C58.5766 13.6841 58.4132 13.5702 58.225 13.4909C58.0467 13.4117 57.8536 13.3721 57.6456 13.3721C57.4376 13.3721 57.2395 13.4117 57.0513 13.4909C56.873 13.5702 56.7145 13.6841 56.5759 13.8327C56.4372 13.9713 56.3233 14.1348 56.2341 14.3229C56.1549 14.5012 56.1153 14.6944 56.1153 14.9024ZM61.0924 20.5778C61.0924 20.2113 61.1568 19.8696 61.2856 19.5527C61.4242 19.2357 61.6075 18.9633 61.8353 18.7355C62.073 18.4978 62.3503 18.3146 62.6673 18.1858C62.9842 18.0471 63.3259 17.9778 63.6924 17.9778C64.0589 17.9778 64.4006 18.0471 64.7176 18.1858C65.0345 18.3146 65.3069 18.4978 65.5347 18.7355C65.7724 18.9633 65.9557 19.2357 66.0844 19.5527C66.2231 19.8696 66.2924 20.2113 66.2924 20.5778C66.2924 20.9443 66.2231 21.286 66.0844 21.6029C65.9557 21.9199 65.7724 22.1972 65.5347 22.4349C65.3069 22.6628 65.0345 22.846 64.7176 22.9847C64.4006 23.1134 64.0589 23.1778 63.6924 23.1778C63.3259 23.1778 62.9842 23.1134 62.6673 22.9847C62.3503 22.846 62.073 22.6628 61.8353 22.4349C61.6075 22.1972 61.4242 21.9199 61.2856 21.6029C61.1568 21.286 61.0924 20.9443 61.0924 20.5778ZM62.1621 20.5778C62.1621 20.7858 62.2018 20.9839 62.281 21.1721C62.3701 21.3504 62.484 21.5138 62.6227 21.6624C62.7614 21.801 62.9199 21.91 63.0981 21.9892C63.2863 22.0685 63.4844 22.1081 63.6924 22.1081C63.9004 22.1081 64.0936 22.0685 64.2719 21.9892C64.46 21.91 64.6235 21.801 64.7621 21.6624C64.9008 21.5138 65.0098 21.3504 65.089 21.1721C65.1781 20.9839 65.2227 20.7858 65.2227 20.5778C65.2227 20.3698 65.1781 20.1767 65.089 19.9984C65.0098 19.8102 64.9008 19.6468 64.7621 19.5081C64.6235 19.3595 64.46 19.2456 64.2719 19.1664C64.0936 19.0871 63.9004 19.0475 63.6924 19.0475C63.4844 19.0475 63.2863 19.0871 63.0981 19.1664C62.9199 19.2456 62.7614 19.3595 62.6227 19.5081C62.484 19.6468 62.3701 19.8102 62.281 19.9984C62.2018 20.1767 62.1621 20.3698 62.1621 20.5778ZM63.6033 12.0052L64.4204 12.4807L57.8239 23.4749L57.0067 22.9995L63.6033 12.0052Z" fill="black"/>
<path d="M331.847 329.088H334.787C335.245 329.088 335.679 329.135 336.089 329.228C336.509 329.312 336.878 329.461 337.195 329.676C337.522 329.881 337.779 330.161 337.965 330.516C338.161 330.861 338.259 331.291 338.259 331.804C338.259 332.345 338.157 332.793 337.951 333.148C337.746 333.503 337.48 333.783 337.153 333.988C336.836 334.193 336.486 334.338 336.103 334.422C335.721 334.506 335.357 334.548 335.011 334.548H333.023V339H331.847V329.088ZM333.023 333.456H335.011C335.599 333.456 336.075 333.325 336.439 333.064C336.813 332.793 336.999 332.378 336.999 331.818C336.999 331.258 336.813 330.847 336.439 330.586C336.075 330.315 335.599 330.18 335.011 330.18H333.023V333.456ZM339.95 334.002C339.95 333.703 339.941 333.423 339.922 333.162C339.903 332.901 339.894 332.663 339.894 332.448H340.93C340.93 332.625 340.935 332.803 340.944 332.98C340.953 333.157 340.958 333.339 340.958 333.526H340.986C341.061 333.367 341.163 333.213 341.294 333.064C341.434 332.915 341.597 332.784 341.784 332.672C341.971 332.551 342.181 332.457 342.414 332.392C342.647 332.317 342.899 332.28 343.17 332.28C343.245 332.28 343.319 332.285 343.394 332.294C343.469 332.303 343.543 332.322 343.618 332.35L343.548 333.456C343.361 333.4 343.165 333.372 342.96 333.372C342.288 333.372 341.798 333.591 341.49 334.03C341.191 334.459 341.042 335.052 341.042 335.808V339H339.95V334.002ZM344.248 335.724C344.248 335.211 344.337 334.744 344.514 334.324C344.691 333.904 344.934 333.545 345.242 333.246C345.55 332.938 345.919 332.7 346.348 332.532C346.777 332.364 347.244 332.28 347.748 332.28C348.252 332.28 348.719 332.364 349.148 332.532C349.577 332.7 349.946 332.938 350.254 333.246C350.562 333.545 350.805 333.904 350.982 334.324C351.159 334.744 351.248 335.211 351.248 335.724C351.248 336.237 351.159 336.704 350.982 337.124C350.805 337.544 350.562 337.908 350.254 338.216C349.946 338.515 349.577 338.748 349.148 338.916C348.719 339.084 348.252 339.168 347.748 339.168C347.244 339.168 346.777 339.084 346.348 338.916C345.919 338.748 345.55 338.515 345.242 338.216C344.934 337.908 344.691 337.544 344.514 337.124C344.337 336.704 344.248 336.237 344.248 335.724ZM345.424 335.724C345.424 336.069 345.475 336.391 345.578 336.69C345.69 336.979 345.849 337.236 346.054 337.46C346.259 337.675 346.502 337.847 346.782 337.978C347.071 338.099 347.393 338.16 347.748 338.16C348.103 338.16 348.42 338.099 348.7 337.978C348.989 337.847 349.237 337.675 349.442 337.46C349.647 337.236 349.801 336.979 349.904 336.69C350.016 336.391 350.072 336.069 350.072 335.724C350.072 335.379 350.016 335.061 349.904 334.772C349.801 334.473 349.647 334.217 349.442 334.002C349.237 333.778 348.989 333.605 348.7 333.484C348.42 333.353 348.103 333.288 347.748 333.288C347.393 333.288 347.071 333.353 346.782 333.484C346.502 333.605 346.259 333.778 346.054 334.002C345.849 334.217 345.69 334.473 345.578 334.772C345.475 335.061 345.424 335.379 345.424 335.724ZM358.384 337.838H358.356C358.151 338.211 357.824 338.529 357.376 338.79C356.938 339.042 356.424 339.168 355.836 339.168C355.379 339.168 354.95 339.084 354.548 338.916C354.147 338.739 353.797 338.496 353.498 338.188C353.209 337.88 352.98 337.516 352.812 337.096C352.644 336.676 352.56 336.219 352.56 335.724C352.56 335.229 352.644 334.772 352.812 334.352C352.98 333.932 353.214 333.568 353.512 333.26C353.811 332.952 354.17 332.714 354.59 332.546C355.02 332.369 355.491 332.28 356.004 332.28C356.48 332.28 356.914 332.378 357.306 332.574C357.708 332.77 358.058 333.045 358.356 333.4H358.384V328.416H359.476V339H358.384V337.838ZM358.384 335.724C358.384 335.379 358.328 335.061 358.216 334.772C358.114 334.473 357.96 334.217 357.754 334.002C357.549 333.778 357.302 333.605 357.012 333.484C356.732 333.353 356.415 333.288 356.06 333.288C355.706 333.288 355.384 333.353 355.094 333.484C354.814 333.605 354.572 333.778 354.366 334.002C354.161 334.217 354.002 334.473 353.89 334.772C353.788 335.061 353.736 335.379 353.736 335.724C353.736 336.069 353.788 336.391 353.89 336.69C354.002 336.979 354.161 337.236 354.366 337.46C354.572 337.675 354.814 337.847 355.094 337.978C355.384 338.099 355.706 338.16 356.06 338.16C356.415 338.16 356.732 338.099 357.012 337.978C357.302 337.847 357.549 337.675 357.754 337.46C357.96 337.236 358.114 336.979 358.216 336.69C358.328 336.391 358.384 336.069 358.384 335.724ZM367.209 337.446C367.209 337.745 367.218 338.025 367.237 338.286C367.256 338.547 367.265 338.785 367.265 339H366.229C366.229 338.823 366.224 338.645 366.215 338.468C366.206 338.291 366.201 338.109 366.201 337.922H366.173C366.098 338.081 365.991 338.235 365.851 338.384C365.72 338.533 365.562 338.669 365.375 338.79C365.188 338.902 364.978 338.991 364.745 339.056C364.512 339.131 364.26 339.168 363.989 339.168C363.56 339.168 363.186 339.103 362.869 338.972C362.561 338.841 362.304 338.659 362.099 338.426C361.894 338.193 361.74 337.913 361.637 337.586C361.544 337.25 361.497 336.886 361.497 336.494V332.448H362.589V336.382C362.589 336.933 362.71 337.367 362.953 337.684C363.196 338.001 363.574 338.16 364.087 338.16C364.442 338.16 364.745 338.099 364.997 337.978C365.258 337.857 365.468 337.684 365.627 337.46C365.795 337.236 365.916 336.97 365.991 336.662C366.075 336.354 366.117 336.013 366.117 335.64V332.448H367.209V337.446ZM373.938 334.086C373.705 333.806 373.453 333.605 373.182 333.484C372.912 333.353 372.613 333.288 372.286 333.288C371.922 333.288 371.6 333.353 371.32 333.484C371.04 333.605 370.807 333.778 370.62 334.002C370.443 334.226 370.308 334.487 370.214 334.786C370.121 335.075 370.074 335.388 370.074 335.724C370.074 336.06 370.126 336.377 370.228 336.676C370.34 336.965 370.49 337.222 370.676 337.446C370.872 337.67 371.106 337.847 371.376 337.978C371.647 338.099 371.95 338.16 372.286 338.16C373.005 338.16 373.56 337.889 373.952 337.348L374.764 338.118C374.447 338.482 374.074 338.748 373.644 338.916C373.215 339.084 372.762 339.168 372.286 339.168C371.782 339.168 371.32 339.084 370.9 338.916C370.48 338.748 370.121 338.51 369.822 338.202C369.533 337.894 369.304 337.53 369.136 337.11C368.978 336.69 368.898 336.228 368.898 335.724C368.898 335.229 368.978 334.772 369.136 334.352C369.304 333.932 369.538 333.568 369.836 333.26C370.135 332.952 370.49 332.714 370.9 332.546C371.32 332.369 371.782 332.28 372.286 332.28C372.772 332.28 373.229 332.364 373.658 332.532C374.097 332.7 374.48 332.961 374.806 333.316L373.938 334.086ZM379.614 333.372H377.682V336.648C377.682 336.863 377.687 337.063 377.696 337.25C377.705 337.427 377.743 337.586 377.808 337.726C377.873 337.857 377.971 337.964 378.102 338.048C378.233 338.123 378.419 338.16 378.662 338.16C378.821 338.16 378.984 338.141 379.152 338.104C379.32 338.067 379.479 338.011 379.628 337.936L379.67 338.93C379.483 339.014 379.273 339.075 379.04 339.112C378.816 339.149 378.601 339.168 378.396 339.168C378.004 339.168 377.691 339.117 377.458 339.014C377.225 338.911 377.043 338.767 376.912 338.58C376.781 338.393 376.693 338.165 376.646 337.894C376.609 337.614 376.59 337.306 376.59 336.97V333.372H375.162V332.448H376.59V330.586H377.682V332.448H379.614V333.372ZM381.064 332.448H382.156V339H381.064V332.448ZM380.812 329.886C380.812 329.671 380.886 329.485 381.036 329.326C381.194 329.167 381.386 329.088 381.61 329.088C381.834 329.088 382.02 329.167 382.17 329.326C382.328 329.485 382.408 329.671 382.408 329.886C382.408 330.119 382.333 330.311 382.184 330.46C382.034 330.609 381.843 330.684 381.61 330.684C381.376 330.684 381.185 330.609 381.036 330.46C380.886 330.311 380.812 330.119 380.812 329.886ZM383.951 335.724C383.951 335.211 384.04 334.744 384.217 334.324C384.394 333.904 384.637 333.545 384.945 333.246C385.253 332.938 385.622 332.7 386.051 332.532C386.48 332.364 386.947 332.28 387.451 332.28C387.955 332.28 388.422 332.364 388.851 332.532C389.28 332.7 389.649 332.938 389.957 333.246C390.265 333.545 390.508 333.904 390.685 334.324C390.862 334.744 390.951 335.211 390.951 335.724C390.951 336.237 390.862 336.704 390.685 337.124C390.508 337.544 390.265 337.908 389.957 338.216C389.649 338.515 389.28 338.748 388.851 338.916C388.422 339.084 387.955 339.168 387.451 339.168C386.947 339.168 386.48 339.084 386.051 338.916C385.622 338.748 385.253 338.515 384.945 338.216C384.637 337.908 384.394 337.544 384.217 337.124C384.04 336.704 383.951 336.237 383.951 335.724ZM385.127 335.724C385.127 336.069 385.178 336.391 385.281 336.69C385.393 336.979 385.552 337.236 385.757 337.46C385.962 337.675 386.205 337.847 386.485 337.978C386.774 338.099 387.096 338.16 387.451 338.16C387.806 338.16 388.123 338.099 388.403 337.978C388.692 337.847 388.94 337.675 389.145 337.46C389.35 337.236 389.504 336.979 389.607 336.69C389.719 336.391 389.775 336.069 389.775 335.724C389.775 335.379 389.719 335.061 389.607 334.772C389.504 334.473 389.35 334.217 389.145 334.002C388.94 333.778 388.692 333.605 388.403 333.484C388.123 333.353 387.806 333.288 387.451 333.288C387.096 333.288 386.774 333.353 386.485 333.484C386.205 333.605 385.962 333.778 385.757 334.002C385.552 334.217 385.393 334.473 385.281 334.772C385.178 335.061 385.127 335.379 385.127 335.724ZM392.641 334.002C392.641 333.703 392.632 333.423 392.613 333.162C392.595 332.901 392.585 332.663 392.585 332.448H393.621C393.621 332.625 393.626 332.803 393.635 332.98C393.645 333.157 393.649 333.339 393.649 333.526H393.677C393.752 333.367 393.855 333.213 393.985 333.064C394.125 332.915 394.289 332.784 394.475 332.672C394.662 332.551 394.872 332.457 395.105 332.392C395.339 332.317 395.591 332.28 395.861 332.28C396.291 332.28 396.659 332.345 396.967 332.476C397.285 332.607 397.546 332.789 397.751 333.022C397.957 333.255 398.106 333.54 398.199 333.876C398.302 334.203 398.353 334.562 398.353 334.954V339H397.261V335.066C397.261 334.515 397.14 334.081 396.897 333.764C396.655 333.447 396.277 333.288 395.763 333.288C395.409 333.288 395.101 333.349 394.839 333.47C394.587 333.591 394.377 333.764 394.209 333.988C394.051 334.212 393.929 334.478 393.845 334.786C393.771 335.094 393.733 335.435 393.733 335.808V339H392.641V334.002Z" fill="#1C1D26" fill-opacity="0.6"/>
<path d="M141.245 329.088H144.185C144.642 329.088 145.076 329.135 145.487 329.228C145.907 329.312 146.275 329.461 146.593 329.676C146.919 329.881 147.176 330.161 147.363 330.516C147.559 330.861 147.657 331.291 147.657 331.804C147.657 332.345 147.554 332.793 147.349 333.148C147.143 333.503 146.877 333.783 146.551 333.988C146.233 334.193 145.883 334.338 145.501 334.422C145.118 334.506 144.754 334.548 144.409 334.548H142.421V339H141.245V329.088ZM142.421 333.456H144.409C144.997 333.456 145.473 333.325 145.837 333.064C146.21 332.793 146.397 332.378 146.397 331.818C146.397 331.258 146.21 330.847 145.837 330.586C145.473 330.315 144.997 330.18 144.409 330.18H142.421V333.456ZM155.2 337.81C154.808 338.314 154.378 338.669 153.912 338.874C153.445 339.07 152.904 339.168 152.288 339.168C151.774 339.168 151.312 339.079 150.902 338.902C150.491 338.715 150.141 338.468 149.852 338.16C149.572 337.852 149.352 337.488 149.194 337.068C149.044 336.648 148.97 336.2 148.97 335.724C148.97 335.22 149.054 334.758 149.222 334.338C149.39 333.909 149.623 333.545 149.922 333.246C150.22 332.938 150.575 332.7 150.986 332.532C151.396 332.364 151.844 332.28 152.33 332.28C152.787 332.28 153.207 332.359 153.59 332.518C153.972 332.667 154.299 332.891 154.57 333.19C154.85 333.479 155.064 333.839 155.214 334.268C155.363 334.688 155.438 335.169 155.438 335.71V336.06H150.146C150.164 336.34 150.23 336.611 150.342 336.872C150.463 337.124 150.617 337.348 150.804 337.544C150.99 337.731 151.21 337.88 151.462 337.992C151.714 338.104 151.989 338.16 152.288 338.16C152.764 338.16 153.165 338.076 153.492 337.908C153.818 337.74 154.112 337.493 154.374 337.166L155.2 337.81ZM154.262 335.136C154.243 334.576 154.061 334.128 153.716 333.792C153.37 333.456 152.894 333.288 152.288 333.288C151.681 333.288 151.191 333.456 150.818 333.792C150.444 334.128 150.22 334.576 150.146 335.136H154.262ZM157.127 334.002C157.127 333.703 157.117 333.423 157.099 333.162C157.08 332.901 157.071 332.663 157.071 332.448H158.107C158.107 332.625 158.111 332.803 158.121 332.98C158.13 333.157 158.135 333.339 158.135 333.526H158.163C158.237 333.367 158.34 333.213 158.471 333.064C158.611 332.915 158.774 332.784 158.961 332.672C159.147 332.551 159.357 332.457 159.591 332.392C159.824 332.317 160.076 332.28 160.347 332.28C160.421 332.28 160.496 332.285 160.571 332.294C160.645 332.303 160.72 332.322 160.795 332.35L160.725 333.456C160.538 333.4 160.342 333.372 160.137 333.372C159.465 333.372 158.975 333.591 158.667 334.03C158.368 334.459 158.219 335.052 158.219 335.808V339H157.127V334.002ZM162.189 337.278C162.403 337.549 162.637 337.763 162.889 337.922C163.15 338.081 163.477 338.16 163.869 338.16C164.037 338.16 164.205 338.141 164.373 338.104C164.55 338.067 164.709 338.006 164.849 337.922C164.989 337.838 165.101 337.735 165.185 337.614C165.269 337.483 165.311 337.329 165.311 337.152C165.311 336.975 165.269 336.83 165.185 336.718C165.11 336.606 165.007 336.513 164.877 336.438C164.746 336.354 164.597 336.289 164.429 336.242C164.261 336.195 164.088 336.153 163.911 336.116C163.603 336.051 163.309 335.976 163.029 335.892C162.749 335.808 162.501 335.701 162.287 335.57C162.081 335.43 161.913 335.253 161.783 335.038C161.661 334.823 161.601 334.548 161.601 334.212C161.601 333.895 161.671 333.615 161.811 333.372C161.951 333.129 162.137 332.929 162.371 332.77C162.604 332.611 162.865 332.49 163.155 332.406C163.444 332.322 163.743 332.28 164.051 332.28C164.517 332.28 164.947 332.373 165.339 332.56C165.74 332.747 166.053 333.05 166.277 333.47L165.367 334.072C165.227 333.839 165.04 333.652 164.807 333.512C164.583 333.363 164.307 333.288 163.981 333.288C163.831 333.288 163.677 333.307 163.519 333.344C163.369 333.381 163.234 333.437 163.113 333.512C162.991 333.587 162.889 333.685 162.805 333.806C162.73 333.918 162.693 334.049 162.693 334.198C162.693 334.338 162.735 334.459 162.819 334.562C162.912 334.655 163.033 334.739 163.183 334.814C163.341 334.889 163.519 334.954 163.715 335.01C163.92 335.066 164.13 335.113 164.345 335.15C164.634 335.206 164.909 335.281 165.171 335.374C165.432 335.458 165.661 335.575 165.857 335.724C166.053 335.873 166.207 336.06 166.319 336.284C166.431 336.508 166.487 336.783 166.487 337.11C166.487 337.483 166.412 337.801 166.263 338.062C166.113 338.323 165.913 338.538 165.661 338.706C165.418 338.865 165.138 338.981 164.821 339.056C164.513 339.131 164.195 339.168 163.869 339.168C163.309 339.168 162.823 339.084 162.413 338.916C162.011 338.739 161.647 338.417 161.321 337.95L162.189 337.278ZM167.632 335.724C167.632 335.211 167.72 334.744 167.898 334.324C168.075 333.904 168.318 333.545 168.626 333.246C168.934 332.938 169.302 332.7 169.732 332.532C170.161 332.364 170.628 332.28 171.132 332.28C171.636 332.28 172.102 332.364 172.532 332.532C172.961 332.7 173.33 332.938 173.638 333.246C173.946 333.545 174.188 333.904 174.366 334.324C174.543 334.744 174.632 335.211 174.632 335.724C174.632 336.237 174.543 336.704 174.366 337.124C174.188 337.544 173.946 337.908 173.638 338.216C173.33 338.515 172.961 338.748 172.532 338.916C172.102 339.084 171.636 339.168 171.132 339.168C170.628 339.168 170.161 339.084 169.732 338.916C169.302 338.748 168.934 338.515 168.626 338.216C168.318 337.908 168.075 337.544 167.898 337.124C167.72 336.704 167.632 336.237 167.632 335.724ZM168.808 335.724C168.808 336.069 168.859 336.391 168.962 336.69C169.074 336.979 169.232 337.236 169.438 337.46C169.643 337.675 169.886 337.847 170.166 337.978C170.455 338.099 170.777 338.16 171.132 338.16C171.486 338.16 171.804 338.099 172.084 337.978C172.373 337.847 172.62 337.675 172.826 337.46C173.031 337.236 173.185 336.979 173.288 336.69C173.4 336.391 173.456 336.069 173.456 335.724C173.456 335.379 173.4 335.061 173.288 334.772C173.185 334.473 173.031 334.217 172.826 334.002C172.62 333.778 172.373 333.605 172.084 333.484C171.804 333.353 171.486 333.288 171.132 333.288C170.777 333.288 170.455 333.353 170.166 333.484C169.886 333.605 169.643 333.778 169.438 334.002C169.232 334.217 169.074 334.473 168.962 334.772C168.859 335.061 168.808 335.379 168.808 335.724ZM176.322 334.002C176.322 333.703 176.313 333.423 176.294 333.162C176.275 332.901 176.266 332.663 176.266 332.448H177.302C177.302 332.625 177.307 332.803 177.316 332.98C177.325 333.157 177.33 333.339 177.33 333.526H177.358C177.433 333.367 177.535 333.213 177.666 333.064C177.806 332.915 177.969 332.784 178.156 332.672C178.343 332.551 178.553 332.457 178.786 332.392C179.019 332.317 179.271 332.28 179.542 332.28C179.971 332.28 180.34 332.345 180.648 332.476C180.965 332.607 181.227 332.789 181.432 333.022C181.637 333.255 181.787 333.54 181.88 333.876C181.983 334.203 182.034 334.562 182.034 334.954V339H180.942V335.066C180.942 334.515 180.821 334.081 180.578 333.764C180.335 333.447 179.957 333.288 179.444 333.288C179.089 333.288 178.781 333.349 178.52 333.47C178.268 333.591 178.058 333.764 177.89 333.988C177.731 334.212 177.61 334.478 177.526 334.786C177.451 335.094 177.414 335.435 177.414 335.808V339H176.322V334.002ZM184.101 334.002C184.101 333.703 184.092 333.423 184.073 333.162C184.055 332.901 184.045 332.663 184.045 332.448H185.081C185.081 332.625 185.086 332.803 185.095 332.98C185.105 333.157 185.109 333.339 185.109 333.526H185.137C185.212 333.367 185.315 333.213 185.445 333.064C185.585 332.915 185.749 332.784 185.935 332.672C186.122 332.551 186.332 332.457 186.565 332.392C186.799 332.317 187.051 332.28 187.321 332.28C187.751 332.28 188.119 332.345 188.427 332.476C188.745 332.607 189.006 332.789 189.211 333.022C189.417 333.255 189.566 333.54 189.659 333.876C189.762 334.203 189.813 334.562 189.813 334.954V339H188.721V335.066C188.721 334.515 188.6 334.081 188.357 333.764C188.115 333.447 187.737 333.288 187.223 333.288C186.869 333.288 186.561 333.349 186.299 333.47C186.047 333.591 185.837 333.764 185.669 333.988C185.511 334.212 185.389 334.478 185.305 334.786C185.231 335.094 185.193 335.435 185.193 335.808V339H184.101V334.002ZM197.733 337.81C197.341 338.314 196.911 338.669 196.445 338.874C195.978 339.07 195.437 339.168 194.821 339.168C194.307 339.168 193.845 339.079 193.435 338.902C193.024 338.715 192.674 338.468 192.385 338.16C192.105 337.852 191.885 337.488 191.727 337.068C191.577 336.648 191.503 336.2 191.503 335.724C191.503 335.22 191.587 334.758 191.755 334.338C191.923 333.909 192.156 333.545 192.455 333.246C192.753 332.938 193.108 332.7 193.519 332.532C193.929 332.364 194.377 332.28 194.863 332.28C195.32 332.28 195.74 332.359 196.123 332.518C196.505 332.667 196.832 332.891 197.103 333.19C197.383 333.479 197.597 333.839 197.747 334.268C197.896 334.688 197.971 335.169 197.971 335.71V336.06H192.679C192.697 336.34 192.763 336.611 192.875 336.872C192.996 337.124 193.15 337.348 193.337 337.544C193.523 337.731 193.743 337.88 193.995 337.992C194.247 338.104 194.522 338.16 194.821 338.16C195.297 338.16 195.698 338.076 196.025 337.908C196.351 337.74 196.645 337.493 196.907 337.166L197.733 337.81ZM196.795 335.136C196.776 334.576 196.594 334.128 196.249 333.792C195.903 333.456 195.427 333.288 194.821 333.288C194.214 333.288 193.724 333.456 193.351 333.792C192.977 334.128 192.753 334.576 192.679 335.136H196.795ZM199.758 328.416H200.85V339H199.758V328.416Z" fill="#1C1D26" fill-opacity="0.6"/>
<path d="M482.801 329.088H485.741C486.199 329.088 486.633 329.135 487.043 329.228C487.463 329.312 487.832 329.461 488.149 329.676C488.476 329.881 488.733 330.161 488.919 330.516C489.115 330.861 489.213 331.291 489.213 331.804C489.213 332.345 489.111 332.793 488.905 333.148C488.7 333.503 488.434 333.783 488.107 333.988C487.79 334.193 487.44 334.338 487.057 334.422C486.675 334.506 486.311 334.548 485.965 334.548H483.977V339H482.801V329.088ZM483.977 333.456H485.965C486.553 333.456 487.029 333.325 487.393 333.064C487.767 332.793 487.953 332.378 487.953 331.818C487.953 331.258 487.767 330.847 487.393 330.586C487.029 330.315 486.553 330.18 485.965 330.18H483.977V333.456ZM490.904 334.002C490.904 333.703 490.895 333.423 490.876 333.162C490.857 332.901 490.848 332.663 490.848 332.448H491.884C491.884 332.625 491.889 332.803 491.898 332.98C491.907 333.157 491.912 333.339 491.912 333.526H491.94C492.015 333.367 492.117 333.213 492.248 333.064C492.388 332.915 492.551 332.784 492.738 332.672C492.925 332.551 493.135 332.457 493.368 332.392C493.601 332.317 493.853 332.28 494.124 332.28C494.199 332.28 494.273 332.285 494.348 332.294C494.423 332.303 494.497 332.322 494.572 332.35L494.502 333.456C494.315 333.4 494.119 333.372 493.914 333.372C493.242 333.372 492.752 333.591 492.444 334.03C492.145 334.459 491.996 335.052 491.996 335.808V339H490.904V334.002ZM495.202 335.724C495.202 335.211 495.291 334.744 495.468 334.324C495.645 333.904 495.888 333.545 496.196 333.246C496.504 332.938 496.873 332.7 497.302 332.532C497.731 332.364 498.198 332.28 498.702 332.28C499.206 332.28 499.673 332.364 500.102 332.532C500.531 332.7 500.9 332.938 501.208 333.246C501.516 333.545 501.759 333.904 501.936 334.324C502.113 334.744 502.202 335.211 502.202 335.724C502.202 336.237 502.113 336.704 501.936 337.124C501.759 337.544 501.516 337.908 501.208 338.216C500.9 338.515 500.531 338.748 500.102 338.916C499.673 339.084 499.206 339.168 498.702 339.168C498.198 339.168 497.731 339.084 497.302 338.916C496.873 338.748 496.504 338.515 496.196 338.216C495.888 337.908 495.645 337.544 495.468 337.124C495.291 336.704 495.202 336.237 495.202 335.724ZM496.378 335.724C496.378 336.069 496.429 336.391 496.532 336.69C496.644 336.979 496.803 337.236 497.008 337.46C497.213 337.675 497.456 337.847 497.736 337.978C498.025 338.099 498.347 338.16 498.702 338.16C499.057 338.16 499.374 338.099 499.654 337.978C499.943 337.847 500.191 337.675 500.396 337.46C500.601 337.236 500.755 336.979 500.858 336.69C500.97 336.391 501.026 336.069 501.026 335.724C501.026 335.379 500.97 335.061 500.858 334.772C500.755 334.473 500.601 334.217 500.396 334.002C500.191 333.778 499.943 333.605 499.654 333.484C499.374 333.353 499.057 333.288 498.702 333.288C498.347 333.288 498.025 333.353 497.736 333.484C497.456 333.605 497.213 333.778 497.008 334.002C496.803 334.217 496.644 334.473 496.532 334.772C496.429 335.061 496.378 335.379 496.378 335.724ZM508.554 334.086C508.321 333.806 508.069 333.605 507.798 333.484C507.528 333.353 507.229 333.288 506.902 333.288C506.538 333.288 506.216 333.353 505.936 333.484C505.656 333.605 505.423 333.778 505.236 334.002C505.059 334.226 504.924 334.487 504.83 334.786C504.737 335.075 504.69 335.388 504.69 335.724C504.69 336.06 504.742 336.377 504.844 336.676C504.956 336.965 505.106 337.222 505.292 337.446C505.488 337.67 505.722 337.847 505.992 337.978C506.263 338.099 506.566 338.16 506.902 338.16C507.621 338.16 508.176 337.889 508.568 337.348L509.38 338.118C509.063 338.482 508.69 338.748 508.26 338.916C507.831 339.084 507.378 339.168 506.902 339.168C506.398 339.168 505.936 339.084 505.516 338.916C505.096 338.748 504.737 338.51 504.438 338.202C504.149 337.894 503.92 337.53 503.752 337.11C503.594 336.69 503.514 336.228 503.514 335.724C503.514 335.229 503.594 334.772 503.752 334.352C503.92 333.932 504.154 333.568 504.452 333.26C504.751 332.952 505.106 332.714 505.516 332.546C505.936 332.369 506.398 332.28 506.902 332.28C507.388 332.28 507.845 332.364 508.274 332.532C508.713 332.7 509.096 332.961 509.422 333.316L508.554 334.086ZM516.358 337.446C516.358 337.745 516.368 338.025 516.386 338.286C516.405 338.547 516.414 338.785 516.414 339H515.378C515.378 338.823 515.374 338.645 515.364 338.468C515.355 338.291 515.35 338.109 515.35 337.922H515.322C515.248 338.081 515.14 338.235 515 338.384C514.87 338.533 514.711 338.669 514.524 338.79C514.338 338.902 514.128 338.991 513.894 339.056C513.661 339.131 513.409 339.168 513.138 339.168C512.709 339.168 512.336 339.103 512.018 338.972C511.71 338.841 511.454 338.659 511.248 338.426C511.043 338.193 510.889 337.913 510.786 337.586C510.693 337.25 510.646 336.886 510.646 336.494V332.448H511.738V336.382C511.738 336.933 511.86 337.367 512.102 337.684C512.345 338.001 512.723 338.16 513.236 338.16C513.591 338.16 513.894 338.099 514.146 337.978C514.408 337.857 514.618 337.684 514.776 337.46C514.944 337.236 515.066 336.97 515.14 336.662C515.224 336.354 515.266 336.013 515.266 335.64V332.448H516.358V337.446ZM518.426 334.002C518.426 333.703 518.416 333.423 518.398 333.162C518.379 332.901 518.37 332.663 518.37 332.448H519.406C519.406 332.625 519.41 332.803 519.42 332.98C519.429 333.157 519.434 333.339 519.434 333.526H519.462C519.536 333.367 519.639 333.213 519.77 333.064C519.91 332.915 520.073 332.784 520.26 332.672C520.446 332.551 520.656 332.457 520.89 332.392C521.123 332.317 521.375 332.28 521.646 332.28C521.72 332.28 521.795 332.285 521.87 332.294C521.944 332.303 522.019 332.322 522.094 332.35L522.024 333.456C521.837 333.4 521.641 333.372 521.436 333.372C520.764 333.372 520.274 333.591 519.966 334.03C519.667 334.459 519.518 335.052 519.518 335.808V339H518.426V334.002ZM528.953 337.81C528.561 338.314 528.132 338.669 527.665 338.874C527.199 339.07 526.657 339.168 526.041 339.168C525.528 339.168 525.066 339.079 524.655 338.902C524.245 338.715 523.895 338.468 523.605 338.16C523.325 337.852 523.106 337.488 522.947 337.068C522.798 336.648 522.723 336.2 522.723 335.724C522.723 335.22 522.807 334.758 522.975 334.338C523.143 333.909 523.377 333.545 523.675 333.246C523.974 332.938 524.329 332.7 524.739 332.532C525.15 332.364 525.598 332.28 526.083 332.28C526.541 332.28 526.961 332.359 527.343 332.518C527.726 332.667 528.053 332.891 528.323 333.19C528.603 333.479 528.818 333.839 528.967 334.268C529.117 334.688 529.191 335.169 529.191 335.71V336.06H523.899C523.918 336.34 523.983 336.611 524.095 336.872C524.217 337.124 524.371 337.348 524.557 337.544C524.744 337.731 524.963 337.88 525.215 337.992C525.467 338.104 525.743 338.16 526.041 338.16C526.517 338.16 526.919 338.076 527.245 337.908C527.572 337.74 527.866 337.493 528.127 337.166L528.953 337.81ZM528.015 335.136C527.997 334.576 527.815 334.128 527.469 333.792C527.124 333.456 526.648 333.288 526.041 333.288C525.435 333.288 524.945 333.456 524.571 333.792C524.198 334.128 523.974 334.576 523.899 335.136H528.015ZM530.881 334.002C530.881 333.703 530.871 333.423 530.853 333.162C530.834 332.901 530.825 332.663 530.825 332.448H531.861C531.861 332.625 531.865 332.803 531.875 332.98C531.884 333.157 531.889 333.339 531.889 333.526H531.917C531.991 333.367 532.094 333.213 532.225 333.064C532.365 332.915 532.528 332.784 532.715 332.672C532.901 332.551 533.111 332.457 533.345 332.392C533.578 332.317 533.83 332.28 534.101 332.28C534.455 332.28 534.749 332.327 534.983 332.42C535.225 332.504 535.426 332.611 535.585 332.742C535.743 332.863 535.865 332.999 535.949 333.148C536.042 333.288 536.117 333.414 536.173 333.526C536.415 333.134 536.695 332.831 537.013 332.616C537.33 332.392 537.741 332.28 538.245 332.28C538.711 332.28 539.103 332.345 539.421 332.476C539.738 332.597 539.995 332.779 540.191 333.022C540.387 333.255 540.527 333.545 540.611 333.89C540.695 334.226 540.737 334.604 540.737 335.024V339H539.645V335.08C539.645 334.856 539.621 334.637 539.575 334.422C539.528 334.207 539.444 334.016 539.323 333.848C539.201 333.68 539.038 333.545 538.833 333.442C538.627 333.339 538.366 333.288 538.049 333.288C537.815 333.288 537.596 333.335 537.391 333.428C537.185 333.521 537.003 333.652 536.845 333.82C536.695 333.988 536.574 334.193 536.481 334.436C536.397 334.669 536.355 334.931 536.355 335.22V339H535.263V335.29C535.263 334.562 535.165 334.049 534.969 333.75C534.773 333.442 534.451 333.288 534.003 333.288C533.648 333.288 533.34 333.349 533.079 333.47C532.827 333.591 532.617 333.764 532.449 333.988C532.29 334.212 532.169 334.478 532.085 334.786C532.01 335.094 531.973 335.435 531.973 335.808V339H530.881V334.002ZM548.655 337.81C548.263 338.314 547.833 338.669 547.367 338.874C546.9 339.07 546.359 339.168 545.743 339.168C545.229 339.168 544.767 339.079 544.357 338.902C543.946 338.715 543.596 338.468 543.307 338.16C543.027 337.852 542.807 337.488 542.649 337.068C542.499 336.648 542.425 336.2 542.425 335.724C542.425 335.22 542.509 334.758 542.677 334.338C542.845 333.909 543.078 333.545 543.377 333.246C543.675 332.938 544.03 332.7 544.441 332.532C544.851 332.364 545.299 332.28 545.785 332.28C546.242 332.28 546.662 332.359 547.045 332.518C547.427 332.667 547.754 332.891 548.025 333.19C548.305 333.479 548.519 333.839 548.669 334.268C548.818 334.688 548.893 335.169 548.893 335.71V336.06H543.601C543.619 336.34 543.685 336.611 543.797 336.872C543.918 337.124 544.072 337.348 544.259 337.544C544.445 337.731 544.665 337.88 544.917 337.992C545.169 338.104 545.444 338.16 545.743 338.16C546.219 338.16 546.62 338.076 546.947 337.908C547.273 337.74 547.567 337.493 547.829 337.166L548.655 337.81ZM547.717 335.136C547.698 334.576 547.516 334.128 547.171 333.792C546.825 333.456 546.349 333.288 545.743 333.288C545.136 333.288 544.646 333.456 544.273 333.792C543.899 334.128 543.675 334.576 543.601 335.136H547.717ZM550.582 334.002C550.582 333.703 550.573 333.423 550.554 333.162C550.535 332.901 550.526 332.663 550.526 332.448H551.562C551.562 332.625 551.567 332.803 551.576 332.98C551.585 333.157 551.59 333.339 551.59 333.526H551.618C551.693 333.367 551.795 333.213 551.926 333.064C552.066 332.915 552.229 332.784 552.416 332.672C552.603 332.551 552.813 332.457 553.046 332.392C553.279 332.317 553.531 332.28 553.802 332.28C554.231 332.28 554.6 332.345 554.908 332.476C555.225 332.607 555.487 332.789 555.692 333.022C555.897 333.255 556.047 333.54 556.14 333.876C556.243 334.203 556.294 334.562 556.294 334.954V339H555.202V335.066C555.202 334.515 555.081 334.081 554.838 333.764C554.595 333.447 554.217 333.288 553.704 333.288C553.349 333.288 553.041 333.349 552.78 333.47C552.528 333.591 552.318 333.764 552.15 333.988C551.991 334.212 551.87 334.478 551.786 334.786C551.711 335.094 551.674 335.435 551.674 335.808V339H550.582V334.002ZM561.945 333.372H560.013V336.648C560.013 336.863 560.018 337.063 560.027 337.25C560.037 337.427 560.074 337.586 560.139 337.726C560.205 337.857 560.303 337.964 560.433 338.048C560.564 338.123 560.751 338.16 560.993 338.16C561.152 338.16 561.315 338.141 561.483 338.104C561.651 338.067 561.81 338.011 561.959 337.936L562.001 338.93C561.815 339.014 561.605 339.075 561.371 339.112C561.147 339.149 560.933 339.168 560.727 339.168C560.335 339.168 560.023 339.117 559.789 339.014C559.556 338.911 559.374 338.767 559.243 338.58C559.113 338.393 559.024 338.165 558.977 337.894C558.94 337.614 558.921 337.306 558.921 336.97V333.372H557.493V332.448H558.921V330.586H560.013V332.448H561.945V333.372ZM567.096 333.288C567.432 332.943 567.828 332.691 568.286 332.532C568.752 332.364 569.224 332.28 569.7 332.28C570.67 332.28 571.37 332.509 571.8 332.966C572.229 333.423 572.444 334.119 572.444 335.052V337.866C572.444 338.053 572.453 338.249 572.472 338.454C572.49 338.65 572.514 338.832 572.542 339H571.492C571.454 338.851 571.431 338.687 571.422 338.51C571.422 338.323 571.422 338.16 571.422 338.02H571.394C571.179 338.356 570.89 338.631 570.526 338.846C570.171 339.061 569.742 339.168 569.238 339.168C568.902 339.168 568.584 339.126 568.286 339.042C567.996 338.958 567.74 338.837 567.516 338.678C567.301 338.51 567.128 338.305 566.998 338.062C566.867 337.819 566.802 337.539 566.802 337.222C566.802 336.681 566.942 336.256 567.222 335.948C567.502 335.64 567.847 335.411 568.258 335.262C568.678 335.113 569.126 335.019 569.602 334.982C570.087 334.945 570.53 334.926 570.932 334.926H571.352V334.73C571.352 334.254 571.207 333.895 570.918 333.652C570.638 333.409 570.241 333.288 569.728 333.288C569.373 333.288 569.023 333.349 568.678 333.47C568.342 333.582 568.043 333.759 567.782 334.002L567.096 333.288ZM570.26 335.85C569.56 335.85 569.004 335.948 568.594 336.144C568.183 336.34 567.978 336.662 567.978 337.11C567.978 337.521 568.113 337.815 568.384 337.992C568.664 338.16 569.009 338.244 569.42 338.244C569.737 338.244 570.012 338.193 570.246 338.09C570.488 337.978 570.689 337.833 570.848 337.656C571.006 337.479 571.128 337.273 571.212 337.04C571.296 336.797 571.342 336.541 571.352 336.27V335.85H570.26ZM574.439 334.002C574.439 333.703 574.43 333.423 574.411 333.162C574.393 332.901 574.383 332.663 574.383 332.448H575.419C575.419 332.625 575.424 332.803 575.433 332.98C575.443 333.157 575.447 333.339 575.447 333.526H575.475C575.55 333.367 575.653 333.213 575.783 333.064C575.923 332.915 576.087 332.784 576.273 332.672C576.46 332.551 576.67 332.457 576.903 332.392C577.137 332.317 577.389 332.28 577.659 332.28C578.089 332.28 578.457 332.345 578.765 332.476C579.083 332.607 579.344 332.789 579.549 333.022C579.755 333.255 579.904 333.54 579.997 333.876C580.1 334.203 580.151 334.562 580.151 334.954V339H579.059V335.066C579.059 334.515 578.938 334.081 578.695 333.764C578.453 333.447 578.075 333.288 577.561 333.288C577.207 333.288 576.899 333.349 576.637 333.47C576.385 333.591 576.175 333.764 576.007 333.988C575.849 334.212 575.727 334.478 575.643 334.786C575.569 335.094 575.531 335.435 575.531 335.808V339H574.439V334.002ZM587.665 337.838H587.637C587.431 338.211 587.105 338.529 586.657 338.79C586.218 339.042 585.705 339.168 585.117 339.168C584.659 339.168 584.23 339.084 583.829 338.916C583.427 338.739 583.077 338.496 582.779 338.188C582.489 337.88 582.261 337.516 582.093 337.096C581.925 336.676 581.841 336.219 581.841 335.724C581.841 335.229 581.925 334.772 582.093 334.352C582.261 333.932 582.494 333.568 582.793 333.26C583.091 332.952 583.451 332.714 583.871 332.546C584.3 332.369 584.771 332.28 585.285 332.28C585.761 332.28 586.195 332.378 586.587 332.574C586.988 332.77 587.338 333.045 587.637 333.4H587.665V328.416H588.757V339H587.665V337.838ZM587.665 335.724C587.665 335.379 587.609 335.061 587.497 334.772C587.394 334.473 587.24 334.217 587.035 334.002C586.829 333.778 586.582 333.605 586.293 333.484C586.013 333.353 585.695 333.288 585.341 333.288C584.986 333.288 584.664 333.353 584.375 333.484C584.095 333.605 583.852 333.778 583.647 334.002C583.441 334.217 583.283 334.473 583.171 334.772C583.068 335.061 583.017 335.379 583.017 335.724C583.017 336.069 583.068 336.391 583.171 336.69C583.283 336.979 583.441 337.236 583.647 337.46C583.852 337.675 584.095 337.847 584.375 337.978C584.664 338.099 584.986 338.16 585.341 338.16C585.695 338.16 586.013 338.099 586.293 337.978C586.582 337.847 586.829 337.675 587.035 337.46C587.24 337.236 587.394 336.979 587.497 336.69C587.609 336.391 587.665 336.069 587.665 335.724ZM599.574 330.838C599.378 330.521 599.116 330.292 598.79 330.152C598.463 330.003 598.122 329.928 597.768 329.928C597.506 329.928 597.25 329.961 596.998 330.026C596.746 330.091 596.517 330.189 596.312 330.32C596.116 330.451 595.957 330.623 595.836 330.838C595.714 331.053 595.654 331.305 595.654 331.594C595.654 331.818 595.686 332.019 595.752 332.196C595.826 332.364 595.943 332.518 596.102 332.658C596.26 332.798 596.475 332.929 596.746 333.05C597.016 333.171 597.348 333.293 597.74 333.414C598.122 333.535 598.491 333.666 598.846 333.806C599.21 333.946 599.527 334.123 599.798 334.338C600.078 334.553 600.297 334.823 600.456 335.15C600.624 335.467 600.708 335.869 600.708 336.354C600.708 336.849 600.61 337.278 600.414 337.642C600.218 338.006 599.956 338.309 599.63 338.552C599.312 338.785 598.944 338.958 598.524 339.07C598.104 339.191 597.67 339.252 597.222 339.252C596.932 339.252 596.643 339.224 596.354 339.168C596.064 339.121 595.784 339.047 595.514 338.944C595.252 338.832 595.005 338.692 594.772 338.524C594.538 338.347 594.338 338.132 594.17 337.88L595.178 337.054C595.392 337.418 595.691 337.693 596.074 337.88C596.456 338.067 596.862 338.16 597.292 338.16C597.544 338.16 597.796 338.123 598.048 338.048C598.309 337.973 598.542 337.866 598.748 337.726C598.953 337.577 599.121 337.395 599.252 337.18C599.382 336.965 599.448 336.718 599.448 336.438C599.448 336.13 599.396 335.883 599.294 335.696C599.191 335.5 599.032 335.332 598.818 335.192C598.603 335.052 598.332 334.926 598.006 334.814C597.679 334.702 597.296 334.571 596.858 334.422C596.503 334.31 596.176 334.184 595.878 334.044C595.579 333.895 595.318 333.717 595.094 333.512C594.879 333.297 594.706 333.045 594.576 332.756C594.454 332.457 594.394 332.103 594.394 331.692C594.394 331.216 594.487 330.801 594.674 330.446C594.86 330.091 595.112 329.797 595.43 329.564C595.747 329.321 596.106 329.139 596.508 329.018C596.909 328.897 597.329 328.836 597.768 328.836C598.328 328.836 598.836 328.925 599.294 329.102C599.76 329.27 600.176 329.569 600.54 329.998L599.574 330.838ZM608.165 337.446C608.165 337.745 608.174 338.025 608.193 338.286C608.212 338.547 608.221 338.785 608.221 339H607.185C607.185 338.823 607.18 338.645 607.171 338.468C607.162 338.291 607.157 338.109 607.157 337.922H607.129C607.054 338.081 606.947 338.235 606.807 338.384C606.676 338.533 606.518 338.669 606.331 338.79C606.144 338.902 605.934 338.991 605.701 339.056C605.468 339.131 605.216 339.168 604.945 339.168C604.516 339.168 604.142 339.103 603.825 338.972C603.517 338.841 603.26 338.659 603.055 338.426C602.85 338.193 602.696 337.913 602.593 337.586C602.5 337.25 602.453 336.886 602.453 336.494V332.448H603.545V336.382C603.545 336.933 603.666 337.367 603.909 337.684C604.152 338.001 604.53 338.16 605.043 338.16C605.398 338.16 605.701 338.099 605.953 337.978C606.214 337.857 606.424 337.684 606.583 337.46C606.751 337.236 606.872 336.97 606.947 336.662C607.031 336.354 607.073 336.013 607.073 335.64V332.448H608.165V337.446ZM610.176 332.448H611.268V333.4H611.296C611.595 333.045 611.94 332.77 612.332 332.574C612.734 332.378 613.172 332.28 613.648 332.28C614.162 332.28 614.628 332.369 615.048 332.546C615.478 332.714 615.842 332.952 616.14 333.26C616.439 333.568 616.672 333.932 616.84 334.352C617.008 334.772 617.092 335.229 617.092 335.724C617.092 336.219 617.008 336.676 616.84 337.096C616.672 337.516 616.439 337.88 616.14 338.188C615.851 338.496 615.506 338.739 615.104 338.916C614.703 339.084 614.274 339.168 613.816 339.168C613.228 339.168 612.71 339.042 612.262 338.79C611.824 338.529 611.502 338.211 611.296 337.838H611.268V342.192H610.176V332.448ZM611.268 335.724C611.268 336.069 611.32 336.391 611.422 336.69C611.534 336.979 611.693 337.236 611.898 337.46C612.104 337.675 612.346 337.847 612.626 337.978C612.916 338.099 613.238 338.16 613.592 338.16C613.947 338.16 614.264 338.099 614.544 337.978C614.834 337.847 615.081 337.675 615.286 337.46C615.492 337.236 615.646 336.979 615.748 336.69C615.86 336.391 615.916 336.069 615.916 335.724C615.916 335.379 615.86 335.061 615.748 334.772C615.646 334.473 615.492 334.217 615.286 334.002C615.081 333.778 614.834 333.605 614.544 333.484C614.264 333.353 613.947 333.288 613.592 333.288C613.238 333.288 612.916 333.353 612.626 333.484C612.346 333.605 612.104 333.778 611.898 334.002C611.693 334.217 611.534 334.473 611.422 334.772C611.32 335.061 611.268 335.379 611.268 335.724ZM618.735 332.448H619.827V333.4H619.855C620.154 333.045 620.499 332.77 620.891 332.574C621.292 332.378 621.731 332.28 622.207 332.28C622.72 332.28 623.187 332.369 623.607 332.546C624.036 332.714 624.4 332.952 624.699 333.26C624.998 333.568 625.231 333.932 625.399 334.352C625.567 334.772 625.651 335.229 625.651 335.724C625.651 336.219 625.567 336.676 625.399 337.096C625.231 337.516 624.998 337.88 624.699 338.188C624.41 338.496 624.064 338.739 623.663 338.916C623.262 339.084 622.832 339.168 622.375 339.168C621.787 339.168 621.269 339.042 620.821 338.79C620.382 338.529 620.06 338.211 619.855 337.838H619.827V342.192H618.735V332.448ZM619.827 335.724C619.827 336.069 619.878 336.391 619.981 336.69C620.093 336.979 620.252 337.236 620.457 337.46C620.662 337.675 620.905 337.847 621.185 337.978C621.474 338.099 621.796 338.16 622.151 338.16C622.506 338.16 622.823 338.099 623.103 337.978C623.392 337.847 623.64 337.675 623.845 337.46C624.05 337.236 624.204 336.979 624.307 336.69C624.419 336.391 624.475 336.069 624.475 335.724C624.475 335.379 624.419 335.061 624.307 334.772C624.204 334.473 624.05 334.217 623.845 334.002C623.64 333.778 623.392 333.605 623.103 333.484C622.823 333.353 622.506 333.288 622.151 333.288C621.796 333.288 621.474 333.353 621.185 333.484C620.905 333.605 620.662 333.778 620.457 334.002C620.252 334.217 620.093 334.473 619.981 334.772C619.878 335.061 619.827 335.379 619.827 335.724ZM627.447 328.416H628.539V339H627.447V328.416ZM633.121 340.498C633.009 340.778 632.892 341.03 632.771 341.254C632.659 341.487 632.519 341.683 632.351 341.842C632.192 342.01 631.996 342.136 631.763 342.22C631.539 342.313 631.263 342.36 630.937 342.36C630.778 342.36 630.61 342.351 630.433 342.332C630.265 342.313 630.106 342.267 629.957 342.192L630.097 341.24C630.209 341.287 630.325 341.315 630.447 341.324C630.568 341.343 630.708 341.352 630.867 341.352C631.221 341.352 631.483 341.254 631.651 341.058C631.819 340.862 631.963 340.601 632.085 340.274L632.533 339.042L629.817 332.448H631.091L633.121 337.586H633.149L635.095 332.448H636.285L633.121 340.498Z" fill="#1C1D26" fill-opacity="0.6"/>
<path d="M692.9 329.088H695.84C696.297 329.088 696.731 329.135 697.142 329.228C697.562 329.312 697.931 329.461 698.248 329.676C698.575 329.881 698.831 330.161 699.018 330.516C699.214 330.861 699.312 331.291 699.312 331.804C699.312 332.345 699.209 332.793 699.004 333.148C698.799 333.503 698.533 333.783 698.206 333.988C697.889 334.193 697.539 334.338 697.156 334.422C696.773 334.506 696.409 334.548 696.064 334.548H694.076V339H692.9V329.088ZM694.076 333.456H696.064C696.652 333.456 697.128 333.325 697.492 333.064C697.865 332.793 698.052 332.378 698.052 331.818C698.052 331.258 697.865 330.847 697.492 330.586C697.128 330.315 696.652 330.18 696.064 330.18H694.076V333.456ZM706.715 337.446C706.715 337.745 706.724 338.025 706.743 338.286C706.761 338.547 706.771 338.785 706.771 339H705.735C705.735 338.823 705.73 338.645 705.721 338.468C705.711 338.291 705.707 338.109 705.707 337.922H705.679C705.604 338.081 705.497 338.235 705.357 338.384C705.226 338.533 705.067 338.669 704.881 338.79C704.694 338.902 704.484 338.991 704.251 339.056C704.017 339.131 703.765 339.168 703.495 339.168C703.065 339.168 702.692 339.103 702.375 338.972C702.067 338.841 701.81 338.659 701.605 338.426C701.399 338.193 701.245 337.913 701.143 337.586C701.049 337.25 701.003 336.886 701.003 336.494V332.448H702.095V336.382C702.095 336.933 702.216 337.367 702.459 337.684C702.701 338.001 703.079 338.16 703.593 338.16C703.947 338.16 704.251 338.099 704.503 337.978C704.764 337.857 704.974 337.684 705.133 337.46C705.301 337.236 705.422 336.97 705.497 336.662C705.581 336.354 705.623 336.013 705.623 335.64V332.448H706.715V337.446ZM708.726 328.416H709.818V333.4H709.846C710.145 333.045 710.49 332.77 710.882 332.574C711.283 332.378 711.722 332.28 712.198 332.28C712.711 332.28 713.178 332.369 713.598 332.546C714.027 332.714 714.391 332.952 714.69 333.26C714.989 333.568 715.222 333.932 715.39 334.352C715.558 334.772 715.642 335.229 715.642 335.724C715.642 336.219 715.558 336.676 715.39 337.096C715.222 337.516 714.989 337.88 714.69 338.188C714.401 338.496 714.055 338.739 713.654 338.916C713.253 339.084 712.823 339.168 712.366 339.168C711.778 339.168 711.26 339.042 710.812 338.79C710.373 338.529 710.051 338.211 709.846 337.838H709.818V339H708.726V328.416ZM709.818 335.724C709.818 336.069 709.869 336.391 709.972 336.69C710.084 336.979 710.243 337.236 710.448 337.46C710.653 337.675 710.896 337.847 711.176 337.978C711.465 338.099 711.787 338.16 712.142 338.16C712.497 338.16 712.814 338.099 713.094 337.978C713.383 337.847 713.631 337.675 713.836 337.46C714.041 337.236 714.195 336.979 714.298 336.69C714.41 336.391 714.466 336.069 714.466 335.724C714.466 335.379 714.41 335.061 714.298 334.772C714.195 334.473 714.041 334.217 713.836 334.002C713.631 333.778 713.383 333.605 713.094 333.484C712.814 333.353 712.497 333.288 712.142 333.288C711.787 333.288 711.465 333.353 711.176 333.484C710.896 333.605 710.653 333.778 710.448 334.002C710.243 334.217 710.084 334.473 709.972 334.772C709.869 335.061 709.818 335.379 709.818 335.724ZM717.439 328.416H718.531V339H717.439V328.416ZM720.816 332.448H721.908V339H720.816V332.448ZM720.564 329.886C720.564 329.671 720.638 329.485 720.788 329.326C720.946 329.167 721.138 329.088 721.362 329.088C721.586 329.088 721.772 329.167 721.922 329.326C722.08 329.485 722.16 329.671 722.16 329.886C722.16 330.119 722.085 330.311 721.936 330.46C721.786 330.609 721.595 330.684 721.362 330.684C721.128 330.684 720.937 330.609 720.788 330.46C720.638 330.311 720.564 330.119 720.564 329.886ZM728.743 334.086C728.51 333.806 728.258 333.605 727.987 333.484C727.716 333.353 727.418 333.288 727.091 333.288C726.727 333.288 726.405 333.353 726.125 333.484C725.845 333.605 725.612 333.778 725.425 334.002C725.248 334.226 725.112 334.487 725.019 334.786C724.926 335.075 724.879 335.388 724.879 335.724C724.879 336.06 724.93 336.377 725.033 336.676C725.145 336.965 725.294 337.222 725.481 337.446C725.677 337.67 725.91 337.847 726.181 337.978C726.452 338.099 726.755 338.16 727.091 338.16C727.81 338.16 728.365 337.889 728.757 337.348L729.569 338.118C729.252 338.482 728.878 338.748 728.449 338.916C728.02 339.084 727.567 339.168 727.091 339.168C726.587 339.168 726.125 339.084 725.705 338.916C725.285 338.748 724.926 338.51 724.627 338.202C724.338 337.894 724.109 337.53 723.941 337.11C723.782 336.69 723.703 336.228 723.703 335.724C723.703 335.229 723.782 334.772 723.941 334.352C724.109 333.932 724.342 333.568 724.641 333.26C724.94 332.952 725.294 332.714 725.705 332.546C726.125 332.369 726.587 332.28 727.091 332.28C727.576 332.28 728.034 332.364 728.463 332.532C728.902 332.7 729.284 332.961 729.611 333.316L728.743 334.086ZM734.927 329.088H741.157V330.18H736.103V333.288H740.821V334.38H736.103V337.908H741.409V339H734.927V329.088ZM743.03 334.002C743.03 333.703 743.021 333.423 743.002 333.162C742.983 332.901 742.974 332.663 742.974 332.448H744.01C744.01 332.625 744.015 332.803 744.024 332.98C744.033 333.157 744.038 333.339 744.038 333.526H744.066C744.141 333.367 744.243 333.213 744.374 333.064C744.514 332.915 744.677 332.784 744.864 332.672C745.051 332.551 745.261 332.457 745.494 332.392C745.727 332.317 745.979 332.28 746.25 332.28C746.679 332.28 747.048 332.345 747.356 332.476C747.673 332.607 747.935 332.789 748.14 333.022C748.345 333.255 748.495 333.54 748.588 333.876C748.691 334.203 748.742 334.562 748.742 334.954V339H747.65V335.066C747.65 334.515 747.529 334.081 747.286 333.764C747.043 333.447 746.665 333.288 746.152 333.288C745.797 333.288 745.489 333.349 745.228 333.47C744.976 333.591 744.766 333.764 744.598 333.988C744.439 334.212 744.318 334.478 744.234 334.786C744.159 335.094 744.122 335.435 744.122 335.808V339H743.03V334.002ZM757.347 338.706C757.347 339.901 757.039 340.806 756.423 341.422C755.817 342.047 754.935 342.36 753.777 342.36C753.133 342.36 752.55 342.267 752.027 342.08C751.514 341.893 751.024 341.571 750.557 341.114L751.341 340.218C751.687 340.591 752.051 340.871 752.433 341.058C752.825 341.254 753.273 341.352 753.777 341.352C754.263 341.352 754.664 341.277 754.981 341.128C755.308 340.988 755.565 340.792 755.751 340.54C755.938 340.297 756.069 340.017 756.143 339.7C756.218 339.383 756.255 339.051 756.255 338.706V337.866H756.227C755.966 338.286 755.625 338.594 755.205 338.79C754.785 338.986 754.356 339.084 753.917 339.084C753.404 339.084 752.933 339 752.503 338.832C752.074 338.664 751.705 338.431 751.397 338.132C751.089 337.833 750.851 337.479 750.683 337.068C750.515 336.657 750.431 336.209 750.431 335.724C750.431 335.192 750.515 334.711 750.683 334.282C750.851 333.853 751.085 333.493 751.383 333.204C751.691 332.905 752.06 332.677 752.489 332.518C752.919 332.359 753.395 332.28 753.917 332.28C754.141 332.28 754.365 332.308 754.589 332.364C754.813 332.411 755.028 332.49 755.233 332.602C755.448 332.705 755.639 332.84 755.807 333.008C755.975 333.167 756.115 333.353 756.227 333.568H756.255V332.448H757.347V338.706ZM751.607 335.724C751.607 336.06 751.668 336.373 751.789 336.662C751.911 336.942 752.074 337.189 752.279 337.404C752.494 337.609 752.741 337.773 753.021 337.894C753.301 338.015 753.6 338.076 753.917 338.076C754.291 338.076 754.622 338.011 754.911 337.88C755.201 337.749 755.443 337.577 755.639 337.362C755.845 337.138 755.999 336.886 756.101 336.606C756.204 336.317 756.255 336.013 756.255 335.696C756.255 335.341 756.199 335.019 756.087 334.73C755.975 334.431 755.817 334.175 755.611 333.96C755.406 333.745 755.159 333.582 754.869 333.47C754.58 333.349 754.263 333.288 753.917 333.288C753.572 333.288 753.255 333.353 752.965 333.484C752.685 333.605 752.443 333.778 752.237 334.002C752.041 334.217 751.887 334.473 751.775 334.772C751.663 335.061 751.607 335.379 751.607 335.724ZM759.284 333.288C759.62 332.943 760.017 332.691 760.474 332.532C760.941 332.364 761.412 332.28 761.888 332.28C762.859 332.28 763.559 332.509 763.988 332.966C764.417 333.423 764.632 334.119 764.632 335.052V337.866C764.632 338.053 764.641 338.249 764.66 338.454C764.679 338.65 764.702 338.832 764.73 339H763.68C763.643 338.851 763.619 338.687 763.61 338.51C763.61 338.323 763.61 338.16 763.61 338.02H763.582C763.367 338.356 763.078 338.631 762.714 338.846C762.359 339.061 761.93 339.168 761.426 339.168C761.09 339.168 760.773 339.126 760.474 339.042C760.185 338.958 759.928 338.837 759.704 338.678C759.489 338.51 759.317 338.305 759.186 338.062C759.055 337.819 758.99 337.539 758.99 337.222C758.99 336.681 759.13 336.256 759.41 335.948C759.69 335.64 760.035 335.411 760.446 335.262C760.866 335.113 761.314 335.019 761.79 334.982C762.275 334.945 762.719 334.926 763.12 334.926H763.54V334.73C763.54 334.254 763.395 333.895 763.106 333.652C762.826 333.409 762.429 333.288 761.916 333.288C761.561 333.288 761.211 333.349 760.866 333.47C760.53 333.582 760.231 333.759 759.97 334.002L759.284 333.288ZM762.448 335.85C761.748 335.85 761.193 335.948 760.782 336.144C760.371 336.34 760.166 336.662 760.166 337.11C760.166 337.521 760.301 337.815 760.572 337.992C760.852 338.16 761.197 338.244 761.608 338.244C761.925 338.244 762.201 338.193 762.434 338.09C762.677 337.978 762.877 337.833 763.036 337.656C763.195 337.479 763.316 337.273 763.4 337.04C763.484 336.797 763.531 336.541 763.54 336.27V335.85H762.448ZM773.166 338.706C773.166 339.901 772.858 340.806 772.242 341.422C771.635 342.047 770.753 342.36 769.596 342.36C768.952 342.36 768.368 342.267 767.846 342.08C767.332 341.893 766.842 341.571 766.376 341.114L767.16 340.218C767.505 340.591 767.869 340.871 768.252 341.058C768.644 341.254 769.092 341.352 769.596 341.352C770.081 341.352 770.482 341.277 770.8 341.128C771.126 340.988 771.383 340.792 771.57 340.54C771.756 340.297 771.887 340.017 771.962 339.7C772.036 339.383 772.074 339.051 772.074 338.706V337.866H772.046C771.784 338.286 771.444 338.594 771.024 338.79C770.604 338.986 770.174 339.084 769.736 339.084C769.222 339.084 768.751 339 768.322 338.832C767.892 338.664 767.524 338.431 767.216 338.132C766.908 337.833 766.67 337.479 766.502 337.068C766.334 336.657 766.25 336.209 766.25 335.724C766.25 335.192 766.334 334.711 766.502 334.282C766.67 333.853 766.903 333.493 767.202 333.204C767.51 332.905 767.878 332.677 768.308 332.518C768.737 332.359 769.213 332.28 769.736 332.28C769.96 332.28 770.184 332.308 770.408 332.364C770.632 332.411 770.846 332.49 771.052 332.602C771.266 332.705 771.458 332.84 771.626 333.008C771.794 333.167 771.934 333.353 772.046 333.568H772.074V332.448H773.166V338.706ZM767.426 335.724C767.426 336.06 767.486 336.373 767.608 336.662C767.729 336.942 767.892 337.189 768.098 337.404C768.312 337.609 768.56 337.773 768.84 337.894C769.12 338.015 769.418 338.076 769.736 338.076C770.109 338.076 770.44 338.011 770.73 337.88C771.019 337.749 771.262 337.577 771.458 337.362C771.663 337.138 771.817 336.886 771.92 336.606C772.022 336.317 772.074 336.013 772.074 335.696C772.074 335.341 772.018 335.019 771.906 334.73C771.794 334.431 771.635 334.175 771.43 333.96C771.224 333.745 770.977 333.582 770.688 333.47C770.398 333.349 770.081 333.288 769.736 333.288C769.39 333.288 769.073 333.353 768.784 333.484C768.504 333.605 768.261 333.778 768.056 334.002C767.86 334.217 767.706 334.473 767.594 334.772C767.482 335.061 767.426 335.379 767.426 335.724ZM781.038 337.81C780.646 338.314 780.217 338.669 779.75 338.874C779.284 339.07 778.742 339.168 778.126 339.168C777.613 339.168 777.151 339.079 776.74 338.902C776.33 338.715 775.98 338.468 775.69 338.16C775.41 337.852 775.191 337.488 775.032 337.068C774.883 336.648 774.808 336.2 774.808 335.724C774.808 335.22 774.892 334.758 775.06 334.338C775.228 333.909 775.462 333.545 775.76 333.246C776.059 332.938 776.414 332.7 776.824 332.532C777.235 332.364 777.683 332.28 778.168 332.28C778.626 332.28 779.046 332.359 779.428 332.518C779.811 332.667 780.138 332.891 780.408 333.19C780.688 333.479 780.903 333.839 781.052 334.268C781.202 334.688 781.276 335.169 781.276 335.71V336.06H775.984C776.003 336.34 776.068 336.611 776.18 336.872C776.302 337.124 776.456 337.348 776.642 337.544C776.829 337.731 777.048 337.88 777.3 337.992C777.552 338.104 777.828 338.16 778.126 338.16C778.602 338.16 779.004 338.076 779.33 337.908C779.657 337.74 779.951 337.493 780.212 337.166L781.038 337.81ZM780.1 335.136C780.082 334.576 779.9 334.128 779.554 333.792C779.209 333.456 778.733 333.288 778.126 333.288C777.52 333.288 777.03 333.456 776.656 333.792C776.283 334.128 776.059 334.576 775.984 335.136H780.1ZM782.966 334.002C782.966 333.703 782.956 333.423 782.938 333.162C782.919 332.901 782.91 332.663 782.91 332.448H783.946C783.946 332.625 783.95 332.803 783.96 332.98C783.969 333.157 783.974 333.339 783.974 333.526H784.002C784.076 333.367 784.179 333.213 784.31 333.064C784.45 332.915 784.613 332.784 784.8 332.672C784.986 332.551 785.196 332.457 785.43 332.392C785.663 332.317 785.915 332.28 786.186 332.28C786.54 332.28 786.834 332.327 787.068 332.42C787.31 332.504 787.511 332.611 787.67 332.742C787.828 332.863 787.95 332.999 788.034 333.148C788.127 333.288 788.202 333.414 788.258 333.526C788.5 333.134 788.78 332.831 789.098 332.616C789.415 332.392 789.826 332.28 790.33 332.28C790.796 332.28 791.188 332.345 791.506 332.476C791.823 332.597 792.08 332.779 792.276 333.022C792.472 333.255 792.612 333.545 792.696 333.89C792.78 334.226 792.822 334.604 792.822 335.024V339H791.73V335.08C791.73 334.856 791.706 334.637 791.66 334.422C791.613 334.207 791.529 334.016 791.408 333.848C791.286 333.68 791.123 333.545 790.918 333.442C790.712 333.339 790.451 333.288 790.134 333.288C789.9 333.288 789.681 333.335 789.476 333.428C789.27 333.521 789.088 333.652 788.93 333.82C788.78 333.988 788.659 334.193 788.566 334.436C788.482 334.669 788.44 334.931 788.44 335.22V339H787.348V335.29C787.348 334.562 787.25 334.049 787.054 333.75C786.858 333.442 786.536 333.288 786.088 333.288C785.733 333.288 785.425 333.349 785.164 333.47C784.912 333.591 784.702 333.764 784.534 333.988C784.375 334.212 784.254 334.478 784.17 334.786C784.095 335.094 784.058 335.435 784.058 335.808V339H782.966V334.002ZM800.74 337.81C800.348 338.314 799.918 338.669 799.452 338.874C798.985 339.07 798.444 339.168 797.828 339.168C797.314 339.168 796.852 339.079 796.442 338.902C796.031 338.715 795.681 338.468 795.392 338.16C795.112 337.852 794.892 337.488 794.734 337.068C794.584 336.648 794.51 336.2 794.51 335.724C794.51 335.22 794.594 334.758 794.762 334.338C794.93 333.909 795.163 333.545 795.462 333.246C795.76 332.938 796.115 332.7 796.526 332.532C796.936 332.364 797.384 332.28 797.87 332.28C798.327 332.28 798.747 332.359 799.13 332.518C799.512 332.667 799.839 332.891 800.11 333.19C800.39 333.479 800.604 333.839 800.754 334.268C800.903 334.688 800.978 335.169 800.978 335.71V336.06H795.686C795.704 336.34 795.77 336.611 795.882 336.872C796.003 337.124 796.157 337.348 796.344 337.544C796.53 337.731 796.75 337.88 797.002 337.992C797.254 338.104 797.529 338.16 797.828 338.16C798.304 338.16 798.705 338.076 799.032 337.908C799.358 337.74 799.652 337.493 799.914 337.166L800.74 337.81ZM799.802 335.136C799.783 334.576 799.601 334.128 799.256 333.792C798.91 333.456 798.434 333.288 797.828 333.288C797.221 333.288 796.731 333.456 796.358 333.792C795.984 334.128 795.76 334.576 795.686 335.136H799.802ZM802.667 334.002C802.667 333.703 802.658 333.423 802.639 333.162C802.62 332.901 802.611 332.663 802.611 332.448H803.647C803.647 332.625 803.652 332.803 803.661 332.98C803.67 333.157 803.675 333.339 803.675 333.526H803.703C803.778 333.367 803.88 333.213 804.011 333.064C804.151 332.915 804.314 332.784 804.501 332.672C804.688 332.551 804.898 332.457 805.131 332.392C805.364 332.317 805.616 332.28 805.887 332.28C806.316 332.28 806.685 332.345 806.993 332.476C807.31 332.607 807.572 332.789 807.777 333.022C807.982 333.255 808.132 333.54 808.225 333.876C808.328 334.203 808.379 334.562 808.379 334.954V339H807.287V335.066C807.287 334.515 807.166 334.081 806.923 333.764C806.68 333.447 806.302 333.288 805.789 333.288C805.434 333.288 805.126 333.349 804.865 333.47C804.613 333.591 804.403 333.764 804.235 333.988C804.076 334.212 803.955 334.478 803.871 334.786C803.796 335.094 803.759 335.435 803.759 335.808V339H802.667V334.002ZM814.03 333.372H812.098V336.648C812.098 336.863 812.103 337.063 812.112 337.25C812.121 337.427 812.159 337.586 812.224 337.726C812.289 337.857 812.387 337.964 812.518 338.048C812.649 338.123 812.835 338.16 813.078 338.16C813.237 338.16 813.4 338.141 813.568 338.104C813.736 338.067 813.895 338.011 814.044 337.936L814.086 338.93C813.899 339.014 813.689 339.075 813.456 339.112C813.232 339.149 813.017 339.168 812.812 339.168C812.42 339.168 812.107 339.117 811.874 339.014C811.641 338.911 811.459 338.767 811.328 338.58C811.197 338.393 811.109 338.165 811.062 337.894C811.025 337.614 811.006 337.306 811.006 336.97V333.372H809.578V332.448H811.006V330.586H812.098V332.448H814.03V333.372Z" fill="#1C1D26" fill-opacity="0.6"/>
<path d="M919.652 338.328C919.083 338.645 918.481 338.879 917.846 339.028C917.221 339.177 916.586 339.252 915.942 339.252C915.168 339.252 914.458 339.126 913.814 338.874C913.17 338.622 912.61 338.267 912.134 337.81C911.668 337.353 911.304 336.807 911.042 336.172C910.781 335.528 910.65 334.819 910.65 334.044C910.65 333.26 910.786 332.551 911.056 331.916C911.336 331.272 911.719 330.726 912.204 330.278C912.69 329.821 913.254 329.466 913.898 329.214C914.542 328.962 915.238 328.836 915.984 328.836C916.638 328.836 917.263 328.934 917.86 329.13C918.467 329.326 919.008 329.662 919.484 330.138L918.602 331.062C918.266 330.698 917.856 330.418 917.37 330.222C916.894 330.026 916.404 329.928 915.9 329.928C915.331 329.928 914.804 330.031 914.318 330.236C913.833 330.441 913.408 330.726 913.044 331.09C912.69 331.454 912.41 331.888 912.204 332.392C912.008 332.896 911.91 333.447 911.91 334.044C911.91 334.632 912.008 335.178 912.204 335.682C912.41 336.186 912.69 336.625 913.044 336.998C913.408 337.362 913.842 337.647 914.346 337.852C914.85 338.057 915.406 338.16 916.012 338.16C916.414 338.16 916.834 338.113 917.272 338.02C917.711 337.917 918.112 337.773 918.476 337.586V334.548H916.194V333.456H919.652V338.328ZM921.547 335.724C921.547 335.211 921.635 334.744 921.813 334.324C921.99 333.904 922.233 333.545 922.541 333.246C922.849 332.938 923.217 332.7 923.647 332.532C924.076 332.364 924.543 332.28 925.047 332.28C925.551 332.28 926.017 332.364 926.447 332.532C926.876 332.7 927.245 332.938 927.553 333.246C927.861 333.545 928.103 333.904 928.281 334.324C928.458 334.744 928.547 335.211 928.547 335.724C928.547 336.237 928.458 336.704 928.281 337.124C928.103 337.544 927.861 337.908 927.553 338.216C927.245 338.515 926.876 338.748 926.447 338.916C926.017 339.084 925.551 339.168 925.047 339.168C924.543 339.168 924.076 339.084 923.647 338.916C923.217 338.748 922.849 338.515 922.541 338.216C922.233 337.908 921.99 337.544 921.813 337.124C921.635 336.704 921.547 336.237 921.547 335.724ZM922.723 335.724C922.723 336.069 922.774 336.391 922.877 336.69C922.989 336.979 923.147 337.236 923.353 337.46C923.558 337.675 923.801 337.847 924.081 337.978C924.37 338.099 924.692 338.16 925.047 338.16C925.401 338.16 925.719 338.099 925.999 337.978C926.288 337.847 926.535 337.675 926.741 337.46C926.946 337.236 927.1 336.979 927.203 336.69C927.315 336.391 927.371 336.069 927.371 335.724C927.371 335.379 927.315 335.061 927.203 334.772C927.1 334.473 926.946 334.217 926.741 334.002C926.535 333.778 926.288 333.605 925.999 333.484C925.719 333.353 925.401 333.288 925.047 333.288C924.692 333.288 924.37 333.353 924.081 333.484C923.801 333.605 923.558 333.778 923.353 334.002C923.147 334.217 922.989 334.473 922.877 334.772C922.774 335.061 922.723 335.379 922.723 335.724ZM933.219 339H932.015L929.341 332.448H930.615L932.659 337.586H932.687L934.633 332.448H935.809L933.219 339ZM942.843 337.81C942.451 338.314 942.022 338.669 941.555 338.874C941.088 339.07 940.547 339.168 939.931 339.168C939.418 339.168 938.956 339.079 938.545 338.902C938.134 338.715 937.784 338.468 937.495 338.16C937.215 337.852 936.996 337.488 936.837 337.068C936.688 336.648 936.613 336.2 936.613 335.724C936.613 335.22 936.697 334.758 936.865 334.338C937.033 333.909 937.266 333.545 937.565 333.246C937.864 332.938 938.218 332.7 938.629 332.532C939.04 332.364 939.488 332.28 939.973 332.28C940.43 332.28 940.85 332.359 941.233 332.518C941.616 332.667 941.942 332.891 942.213 333.19C942.493 333.479 942.708 333.839 942.857 334.268C943.006 334.688 943.081 335.169 943.081 335.71V336.06H937.789C937.808 336.34 937.873 336.611 937.985 336.872C938.106 337.124 938.26 337.348 938.447 337.544C938.634 337.731 938.853 337.88 939.105 337.992C939.357 338.104 939.632 338.16 939.931 338.16C940.407 338.16 940.808 338.076 941.135 337.908C941.462 337.74 941.756 337.493 942.017 337.166L942.843 337.81ZM941.905 335.136C941.886 334.576 941.704 334.128 941.359 333.792C941.014 333.456 940.538 333.288 939.931 333.288C939.324 333.288 938.834 333.456 938.461 333.792C938.088 334.128 937.864 334.576 937.789 335.136H941.905ZM944.77 334.002C944.77 333.703 944.761 333.423 944.742 333.162C944.724 332.901 944.714 332.663 944.714 332.448H945.75C945.75 332.625 945.755 332.803 945.764 332.98C945.774 333.157 945.778 333.339 945.778 333.526H945.806C945.881 333.367 945.984 333.213 946.114 333.064C946.254 332.915 946.418 332.784 946.604 332.672C946.791 332.551 947.001 332.457 947.234 332.392C947.468 332.317 947.72 332.28 947.99 332.28C948.065 332.28 948.14 332.285 948.214 332.294C948.289 332.303 948.364 332.322 948.438 332.35L948.368 333.456C948.182 333.4 947.986 333.372 947.78 333.372C947.108 333.372 946.618 333.591 946.31 334.03C946.012 334.459 945.862 335.052 945.862 335.808V339H944.77V334.002ZM949.692 334.002C949.692 333.703 949.683 333.423 949.664 333.162C949.646 332.901 949.636 332.663 949.636 332.448H950.672C950.672 332.625 950.677 332.803 950.686 332.98C950.696 333.157 950.7 333.339 950.7 333.526H950.728C950.803 333.367 950.906 333.213 951.036 333.064C951.176 332.915 951.34 332.784 951.526 332.672C951.713 332.551 951.923 332.457 952.156 332.392C952.39 332.317 952.642 332.28 952.912 332.28C953.342 332.28 953.71 332.345 954.018 332.476C954.336 332.607 954.597 332.789 954.802 333.022C955.008 333.255 955.157 333.54 955.25 333.876C955.353 334.203 955.404 334.562 955.404 334.954V339H954.312V335.066C954.312 334.515 954.191 334.081 953.948 333.764C953.706 333.447 953.328 333.288 952.814 333.288C952.46 333.288 952.152 333.349 951.89 333.47C951.638 333.591 951.428 333.764 951.26 333.988C951.102 334.212 950.98 334.478 950.896 334.786C950.822 335.094 950.784 335.435 950.784 335.808V339H949.692V334.002ZM957.388 333.288C957.724 332.943 958.12 332.691 958.578 332.532C959.044 332.364 959.516 332.28 959.992 332.28C960.962 332.28 961.662 332.509 962.092 332.966C962.521 333.423 962.736 334.119 962.736 335.052V337.866C962.736 338.053 962.745 338.249 962.764 338.454C962.782 338.65 962.806 338.832 962.834 339H961.784C961.746 338.851 961.723 338.687 961.714 338.51C961.714 338.323 961.714 338.16 961.714 338.02H961.686C961.471 338.356 961.182 338.631 960.818 338.846C960.463 339.061 960.034 339.168 959.53 339.168C959.194 339.168 958.876 339.126 958.578 339.042C958.288 338.958 958.032 338.837 957.808 338.678C957.593 338.51 957.42 338.305 957.29 338.062C957.159 337.819 957.094 337.539 957.094 337.222C957.094 336.681 957.234 336.256 957.514 335.948C957.794 335.64 958.139 335.411 958.55 335.262C958.97 335.113 959.418 335.019 959.894 334.982C960.379 334.945 960.822 334.926 961.224 334.926H961.644V334.73C961.644 334.254 961.499 333.895 961.21 333.652C960.93 333.409 960.533 333.288 960.02 333.288C959.665 333.288 959.315 333.349 958.97 333.47C958.634 333.582 958.335 333.759 958.074 334.002L957.388 333.288ZM960.552 335.85C959.852 335.85 959.296 335.948 958.886 336.144C958.475 336.34 958.27 336.662 958.27 337.11C958.27 337.521 958.405 337.815 958.676 337.992C958.956 338.16 959.301 338.244 959.712 338.244C960.029 338.244 960.304 338.193 960.538 338.09C960.78 337.978 960.981 337.833 961.14 337.656C961.298 337.479 961.42 337.273 961.504 337.04C961.588 336.797 961.634 336.541 961.644 336.27V335.85H960.552ZM964.731 334.002C964.731 333.703 964.722 333.423 964.703 333.162C964.685 332.901 964.675 332.663 964.675 332.448H965.711C965.711 332.625 965.716 332.803 965.725 332.98C965.735 333.157 965.739 333.339 965.739 333.526H965.767C965.842 333.367 965.945 333.213 966.075 333.064C966.215 332.915 966.379 332.784 966.565 332.672C966.752 332.551 966.962 332.457 967.195 332.392C967.429 332.317 967.681 332.28 967.951 332.28C968.381 332.28 968.749 332.345 969.057 332.476C969.375 332.607 969.636 332.789 969.841 333.022C970.047 333.255 970.196 333.54 970.289 333.876C970.392 334.203 970.443 334.562 970.443 334.954V339H969.351V335.066C969.351 334.515 969.23 334.081 968.987 333.764C968.745 333.447 968.367 333.288 967.853 333.288C967.499 333.288 967.191 333.349 966.929 333.47C966.677 333.591 966.467 333.764 966.299 333.988C966.141 334.212 966.019 334.478 965.935 334.786C965.861 335.094 965.823 335.435 965.823 335.808V339H964.731V334.002ZM977.173 334.086C976.939 333.806 976.687 333.605 976.417 333.484C976.146 333.353 975.847 333.288 975.521 333.288C975.157 333.288 974.835 333.353 974.555 333.484C974.275 333.605 974.041 333.778 973.855 334.002C973.677 334.226 973.542 334.487 973.449 334.786C973.355 335.075 973.309 335.388 973.309 335.724C973.309 336.06 973.36 336.377 973.463 336.676C973.575 336.965 973.724 337.222 973.911 337.446C974.107 337.67 974.34 337.847 974.611 337.978C974.881 338.099 975.185 338.16 975.521 338.16C976.239 338.16 976.795 337.889 977.187 337.348L977.999 338.118C977.681 338.482 977.308 338.748 976.879 338.916C976.449 339.084 975.997 339.168 975.521 339.168C975.017 339.168 974.555 339.084 974.135 338.916C973.715 338.748 973.355 338.51 973.057 338.202C972.767 337.894 972.539 337.53 972.371 337.11C972.212 336.69 972.133 336.228 972.133 335.724C972.133 335.229 972.212 334.772 972.371 334.352C972.539 333.932 972.772 333.568 973.071 333.26C973.369 332.952 973.724 332.714 974.135 332.546C974.555 332.369 975.017 332.28 975.521 332.28C976.006 332.28 976.463 332.364 976.893 332.532C977.331 332.7 977.714 332.961 978.041 333.316L977.173 334.086ZM985.117 337.81C984.725 338.314 984.295 338.669 983.829 338.874C983.362 339.07 982.821 339.168 982.205 339.168C981.691 339.168 981.229 339.079 980.819 338.902C980.408 338.715 980.058 338.468 979.769 338.16C979.489 337.852 979.269 337.488 979.111 337.068C978.961 336.648 978.887 336.2 978.887 335.724C978.887 335.22 978.971 334.758 979.139 334.338C979.307 333.909 979.54 333.545 979.839 333.246C980.137 332.938 980.492 332.7 980.903 332.532C981.313 332.364 981.761 332.28 982.247 332.28C982.704 332.28 983.124 332.359 983.507 332.518C983.889 332.667 984.216 332.891 984.487 333.19C984.767 333.479 984.981 333.839 985.131 334.268C985.28 334.688 985.355 335.169 985.355 335.71V336.06H980.063C980.081 336.34 980.147 336.611 980.259 336.872C980.38 337.124 980.534 337.348 980.721 337.544C980.907 337.731 981.127 337.88 981.379 337.992C981.631 338.104 981.906 338.16 982.205 338.16C982.681 338.16 983.082 338.076 983.409 337.908C983.735 337.74 984.029 337.493 984.291 337.166L985.117 337.81ZM984.179 335.136C984.16 334.576 983.978 334.128 983.633 333.792C983.287 333.456 982.811 333.288 982.205 333.288C981.598 333.288 981.108 333.456 980.735 333.792C980.361 334.128 980.137 334.576 980.063 335.136H984.179Z" fill="#1C1D26" fill-opacity="0.6"/>
<path opacity="0.7" d="M45.0121 162.211H40.7184L40.6738 165.049C40.8719 164.95 41.0898 164.886 41.3276 164.856C41.5752 164.816 41.8079 164.796 42.0258 164.796C42.531 164.796 42.9866 164.886 43.3927 165.064C43.8087 165.232 44.1653 165.475 44.4624 165.792C44.7596 166.099 44.9874 166.465 45.1458 166.891C45.3043 167.307 45.3836 167.763 45.3836 168.258C45.3836 168.783 45.2895 169.263 45.1013 169.699C44.923 170.125 44.6704 170.492 44.3436 170.799C44.0266 171.096 43.6453 171.329 43.1996 171.497C42.7638 171.665 42.2883 171.75 41.7733 171.75C40.971 171.75 40.3222 171.576 39.827 171.23C39.3417 170.883 38.9554 170.417 38.6681 169.833L39.9161 169.358C40.0944 169.754 40.3519 170.076 40.6887 170.323C41.0354 170.561 41.4316 170.68 41.8773 170.68C42.1942 170.68 42.4864 170.625 42.7538 170.516C43.0312 170.398 43.2689 170.234 43.467 170.026C43.675 169.808 43.8384 169.551 43.9573 169.254C44.0761 168.956 44.1356 168.625 44.1356 168.258C44.1356 167.872 44.0662 167.53 43.9276 167.233C43.7988 166.936 43.6156 166.688 43.3778 166.49C43.15 166.282 42.8777 166.129 42.5607 166.03C42.2438 165.921 41.902 165.866 41.5356 165.866C41.179 165.866 40.8125 165.931 40.4361 166.059C40.0598 166.178 39.7131 166.332 39.3961 166.52L39.5001 161.052H45.0121V162.211ZM46.79 166.312C46.79 165.718 46.8395 165.099 46.9386 164.455C47.0376 163.811 47.2209 163.227 47.4883 162.702C47.7557 162.167 48.1172 161.731 48.5729 161.394C49.0384 161.047 49.6327 160.874 50.3557 160.874C51.0788 160.874 51.6681 161.047 52.1237 161.394C52.5892 161.731 52.9557 162.167 53.2231 162.702C53.4906 163.227 53.6738 163.811 53.7728 164.455C53.8719 165.099 53.9214 165.718 53.9214 166.312C53.9214 166.906 53.8719 167.525 53.7728 168.169C53.6738 168.813 53.4906 169.402 53.2231 169.937C52.9557 170.462 52.5892 170.898 52.1237 171.244C51.6681 171.581 51.0788 171.75 50.3557 171.75C49.6327 171.75 49.0384 171.581 48.5729 171.244C48.1172 170.898 47.7557 170.462 47.4883 169.937C47.2209 169.402 47.0376 168.813 46.9386 168.169C46.8395 167.525 46.79 166.906 46.79 166.312ZM48.038 166.312C48.038 166.569 48.0479 166.857 48.0677 167.174C48.0875 167.491 48.1222 167.812 48.1717 168.139C48.2311 168.456 48.3104 168.768 48.4094 169.075C48.5184 169.382 48.657 169.655 48.8254 169.892C49.0037 170.13 49.2167 170.323 49.4643 170.472C49.7119 170.611 50.009 170.68 50.3557 170.68C50.7024 170.68 50.9995 170.611 51.2471 170.472C51.4948 170.323 51.7028 170.13 51.8711 169.892C52.0494 169.655 52.1881 169.382 52.2871 169.075C52.3961 168.768 52.4753 168.456 52.5249 168.139C52.5843 167.812 52.6239 167.491 52.6437 167.174C52.6635 166.857 52.6734 166.569 52.6734 166.312C52.6734 166.054 52.6635 165.767 52.6437 165.45C52.6239 165.133 52.5843 164.816 52.5249 164.499C52.4753 164.172 52.3961 163.855 52.2871 163.548C52.1881 163.241 52.0494 162.969 51.8711 162.731C51.7028 162.494 51.4948 162.305 51.2471 162.167C50.9995 162.018 50.7024 161.944 50.3557 161.944C50.009 161.944 49.7119 162.018 49.4643 162.167C49.2167 162.305 49.0037 162.494 48.8254 162.731C48.657 162.969 48.5184 163.241 48.4094 163.548C48.3104 163.855 48.2311 164.172 48.1717 164.499C48.1222 164.816 48.0875 165.133 48.0677 165.45C48.0479 165.767 48.038 166.054 48.038 166.312ZM55.0456 163.474C55.0456 163.108 55.11 162.766 55.2387 162.449C55.3774 162.132 55.5606 161.86 55.7884 161.632C56.0261 161.394 56.3035 161.211 56.6204 161.082C56.9374 160.943 57.2791 160.874 57.6456 160.874C58.012 160.874 58.3538 160.943 58.6707 161.082C58.9877 161.211 59.26 161.394 59.4879 161.632C59.7256 161.86 59.9088 162.132 60.0376 162.449C60.1762 162.766 60.2456 163.108 60.2456 163.474C60.2456 163.841 60.1762 164.182 60.0376 164.499C59.9088 164.816 59.7256 165.094 59.4879 165.331C59.26 165.559 58.9877 165.742 58.6707 165.881C58.3538 166.01 58.012 166.074 57.6456 166.074C57.2791 166.074 56.9374 166.01 56.6204 165.881C56.3035 165.742 56.0261 165.559 55.7884 165.331C55.5606 165.094 55.3774 164.816 55.2387 164.499C55.11 164.182 55.0456 163.841 55.0456 163.474ZM56.1153 163.474C56.1153 163.682 56.1549 163.88 56.2341 164.068C56.3233 164.247 56.4372 164.41 56.5759 164.559C56.7145 164.697 56.873 164.806 57.0513 164.886C57.2395 164.965 57.4376 165.004 57.6456 165.004C57.8536 165.004 58.0467 164.965 58.225 164.886C58.4132 164.806 58.5766 164.697 58.7153 164.559C58.8539 164.41 58.9629 164.247 59.0421 164.068C59.1313 163.88 59.1759 163.682 59.1759 163.474C59.1759 163.266 59.1313 163.073 59.0421 162.895C58.9629 162.707 58.8539 162.543 58.7153 162.404C58.5766 162.256 58.4132 162.142 58.225 162.063C58.0467 161.983 57.8536 161.944 57.6456 161.944C57.4376 161.944 57.2395 161.983 57.0513 162.063C56.873 162.142 56.7145 162.256 56.5759 162.404C56.4372 162.543 56.3233 162.707 56.2341 162.895C56.1549 163.073 56.1153 163.266 56.1153 163.474ZM61.0924 169.15C61.0924 168.783 61.1568 168.441 61.2856 168.124C61.4242 167.807 61.6075 167.535 61.8353 167.307C62.073 167.07 62.3503 166.886 62.6673 166.758C62.9842 166.619 63.3259 166.55 63.6924 166.55C64.0589 166.55 64.4006 166.619 64.7176 166.758C65.0345 166.886 65.3069 167.07 65.5347 167.307C65.7724 167.535 65.9557 167.807 66.0844 168.124C66.2231 168.441 66.2924 168.783 66.2924 169.15C66.2924 169.516 66.2231 169.858 66.0844 170.175C65.9557 170.492 65.7724 170.769 65.5347 171.007C65.3069 171.235 65.0345 171.418 64.7176 171.556C64.4006 171.685 64.0589 171.75 63.6924 171.75C63.3259 171.75 62.9842 171.685 62.6673 171.556C62.3503 171.418 62.073 171.235 61.8353 171.007C61.6075 170.769 61.4242 170.492 61.2856 170.175C61.1568 169.858 61.0924 169.516 61.0924 169.15ZM62.1621 169.15C62.1621 169.358 62.2018 169.556 62.281 169.744C62.3701 169.922 62.484 170.086 62.6227 170.234C62.7614 170.373 62.9199 170.482 63.0981 170.561C63.2863 170.64 63.4844 170.68 63.6924 170.68C63.9004 170.68 64.0936 170.64 64.2719 170.561C64.46 170.482 64.6235 170.373 64.7621 170.234C64.9008 170.086 65.0098 169.922 65.089 169.744C65.1781 169.556 65.2227 169.358 65.2227 169.15C65.2227 168.942 65.1781 168.748 65.089 168.57C65.0098 168.382 64.9008 168.219 64.7621 168.08C64.6235 167.931 64.46 167.817 64.2719 167.738C64.0936 167.659 63.9004 167.619 63.6924 167.619C63.4844 167.619 63.2863 167.659 63.0981 167.738C62.9199 167.817 62.7614 167.931 62.6227 168.08C62.484 168.219 62.3701 168.382 62.281 168.57C62.2018 168.748 62.1621 168.942 62.1621 169.15ZM63.6033 160.577L64.4204 161.052L57.8239 172.047L57.0067 171.571L63.6033 160.577Z" fill="black"/>
<path d="M911 114.714C911 112.663 912.663 111 914.714 111H944.286C946.337 111 948 112.663 948 114.714V316H911V114.714Z" fill="#CAD3F4" stroke="white" stroke-width="1.85714"/>
<path d="M948 109.714C948 107.663 949.663 106 951.714 106H981.286C983.337 106 985 107.663 985 109.714V316H948V109.714Z" fill="#526CDB" stroke="white" stroke-width="1.85714"/>
</svg>
