<svg width="515" height="338" viewBox="0 0 515 338" fill="none" xmlns="http://www.w3.org/2000/svg">
<rect y="52" width="515" height="263" rx="12" fill="#FAFAFA"/>
<g filter="url(#filter0_d)">
<rect x="362" width="120" height="120" rx="60" fill="#00B37A"/>
<path d="M435.333 50L417 68.3333L408.667 60" stroke="white" stroke-width="4" stroke-linecap="round" stroke-linejoin="round"/>
<rect x="362.5" y="0.5" width="119" height="119" rx="59.5" stroke="#1E1F24"/>
</g>
<rect x="52.5" y="79.5" width="290" height="258" rx="8.5" fill="white"/>
<path d="M69.088 108V96.8H73.2C74.096 96.8 74.832 96.9547 75.408 97.264C75.9947 97.5627 76.432 97.9733 76.72 98.496C77.008 99.008 77.152 99.5787 77.152 100.208C77.152 100.891 76.9707 101.515 76.608 102.08C76.256 102.645 75.7013 103.056 74.944 103.312L77.264 108H74.912L72.832 103.584H71.136V108H69.088ZM71.136 102.08H73.072C73.7547 102.08 74.256 101.915 74.576 101.584C74.896 101.253 75.056 100.816 75.056 100.272C75.056 99.7387 74.896 99.312 74.576 98.992C74.2667 98.672 73.76 98.512 73.056 98.512H71.136V102.08ZM82.3804 108.192C81.5804 108.192 80.871 108.021 80.2524 107.68C79.6337 107.339 79.1484 106.859 78.7964 106.24C78.4444 105.621 78.2684 104.907 78.2684 104.096C78.2684 103.275 78.439 102.544 78.7804 101.904C79.1324 101.264 79.6124 100.768 80.2204 100.416C80.839 100.053 81.5644 99.872 82.3964 99.872C83.175 99.872 83.863 100.043 84.4604 100.384C85.0577 100.725 85.5217 101.195 85.8524 101.792C86.1937 102.379 86.3644 103.035 86.3644 103.76C86.3644 103.877 86.359 104 86.3484 104.128C86.3484 104.256 86.343 104.389 86.3324 104.528H80.3004C80.343 105.147 80.5564 105.632 80.9404 105.984C81.335 106.336 81.8097 106.512 82.3644 106.512C82.7804 106.512 83.127 106.421 83.4044 106.24C83.6924 106.048 83.9057 105.803 84.0444 105.504H86.1244C85.975 106.005 85.7244 106.464 85.3724 106.88C85.031 107.285 84.6044 107.605 84.0924 107.84C83.591 108.075 83.0204 108.192 82.3804 108.192ZM82.3964 101.536C81.895 101.536 81.4524 101.68 81.0684 101.968C80.6844 102.245 80.439 102.672 80.3324 103.248H84.2844C84.2524 102.725 84.0604 102.309 83.7084 102C83.3564 101.691 82.919 101.536 82.3964 101.536ZM94.3909 111.52V106.864C94.1349 107.216 93.7935 107.525 93.3669 107.792C92.9509 108.059 92.4069 108.192 91.7349 108.192C90.9882 108.192 90.3215 108.011 89.7349 107.648C89.1482 107.285 88.6842 106.789 88.3429 106.16C88.0015 105.531 87.8309 104.816 87.8309 104.016C87.8309 103.216 88.0015 102.507 88.3429 101.888C88.6842 101.259 89.1482 100.768 89.7349 100.416C90.3215 100.053 90.9882 99.872 91.7349 99.872C92.3322 99.872 92.8549 99.984 93.3029 100.208C93.7509 100.432 94.1135 100.747 94.3909 101.152L94.6149 100.064H96.4389V111.52H94.3909ZM92.1669 106.4C92.8282 106.4 93.3669 106.181 93.7829 105.744C94.2095 105.296 94.4229 104.725 94.4229 104.032C94.4229 103.339 94.2095 102.773 93.7829 102.336C93.3669 101.888 92.8282 101.664 92.1669 101.664C91.5162 101.664 90.9775 101.883 90.5509 102.32C90.1242 102.757 89.9109 103.323 89.9109 104.016C89.9109 104.709 90.1242 105.28 90.5509 105.728C90.9775 106.176 91.5162 106.4 92.1669 106.4ZM101.5 108.192C100.508 108.192 99.7404 107.883 99.1964 107.264C98.663 106.645 98.3964 105.739 98.3964 104.544V100.064H100.428V104.352C100.428 105.035 100.567 105.557 100.844 105.92C101.122 106.283 101.559 106.464 102.156 106.464C102.722 106.464 103.186 106.261 103.548 105.856C103.922 105.451 104.108 104.885 104.108 104.16V100.064H106.156V108H104.348L104.188 106.656C103.943 107.125 103.586 107.499 103.116 107.776C102.658 108.053 102.119 108.192 101.5 108.192ZM109.363 98.832C108.989 98.832 108.68 98.72 108.435 98.496C108.2 98.272 108.083 97.9893 108.083 97.648C108.083 97.3067 108.2 97.0293 108.435 96.816C108.68 96.592 108.989 96.48 109.363 96.48C109.736 96.48 110.04 96.592 110.275 96.816C110.52 97.0293 110.643 97.3067 110.643 97.648C110.643 97.9893 110.52 98.272 110.275 98.496C110.04 98.72 109.736 98.832 109.363 98.832ZM108.339 108V100.064H110.387V108H108.339ZM112.524 108V100.064H114.348L114.54 101.552C114.828 101.04 115.218 100.635 115.708 100.336C116.21 100.027 116.796 99.872 117.468 99.872V102.032H116.892C116.444 102.032 116.044 102.101 115.692 102.24C115.34 102.379 115.063 102.619 114.86 102.96C114.668 103.301 114.572 103.776 114.572 104.384V108H112.524ZM122.584 108.192C121.784 108.192 121.074 108.021 120.456 107.68C119.837 107.339 119.352 106.859 119 106.24C118.648 105.621 118.472 104.907 118.472 104.096C118.472 103.275 118.642 102.544 118.984 101.904C119.336 101.264 119.816 100.768 120.424 100.416C121.042 100.053 121.768 99.872 122.6 99.872C123.378 99.872 124.066 100.043 124.664 100.384C125.261 100.725 125.725 101.195 126.056 101.792C126.397 102.379 126.568 103.035 126.568 103.76C126.568 103.877 126.562 104 126.552 104.128C126.552 104.256 126.546 104.389 126.536 104.528H120.504C120.546 105.147 120.76 105.632 121.144 105.984C121.538 106.336 122.013 106.512 122.568 106.512C122.984 106.512 123.33 106.421 123.608 106.24C123.896 106.048 124.109 105.803 124.248 105.504H126.328C126.178 106.005 125.928 106.464 125.576 106.88C125.234 107.285 124.808 107.605 124.296 107.84C123.794 108.075 123.224 108.192 122.584 108.192ZM122.6 101.536C122.098 101.536 121.656 101.68 121.272 101.968C120.888 102.245 120.642 102.672 120.536 103.248H124.488C124.456 102.725 124.264 102.309 123.912 102C123.56 101.691 123.122 101.536 122.6 101.536ZM128.29 108V100.064H130.098L130.274 101.136C130.53 100.752 130.866 100.448 131.282 100.224C131.709 99.9893 132.199 99.872 132.754 99.872C133.981 99.872 134.85 100.347 135.362 101.296C135.65 100.859 136.034 100.512 136.514 100.256C137.005 100 137.538 99.872 138.114 99.872C139.149 99.872 139.943 100.181 140.498 100.8C141.053 101.419 141.33 102.325 141.33 103.52V108H139.282V103.712C139.282 103.029 139.149 102.507 138.882 102.144C138.626 101.781 138.226 101.6 137.682 101.6C137.127 101.6 136.679 101.803 136.338 102.208C136.007 102.613 135.842 103.179 135.842 103.904V108H133.794V103.712C133.794 103.029 133.661 102.507 133.394 102.144C133.127 101.781 132.717 101.6 132.162 101.6C131.618 101.6 131.175 101.803 130.834 102.208C130.503 102.613 130.338 103.179 130.338 103.904V108H128.29ZM147.13 108.192C146.33 108.192 145.621 108.021 145.002 107.68C144.384 107.339 143.898 106.859 143.546 106.24C143.194 105.621 143.018 104.907 143.018 104.096C143.018 103.275 143.189 102.544 143.53 101.904C143.882 101.264 144.362 100.768 144.97 100.416C145.589 100.053 146.314 99.872 147.146 99.872C147.925 99.872 148.613 100.043 149.21 100.384C149.808 100.725 150.272 101.195 150.602 101.792C150.944 102.379 151.114 103.035 151.114 103.76C151.114 103.877 151.109 104 151.098 104.128C151.098 104.256 151.093 104.389 151.082 104.528H145.05C145.093 105.147 145.306 105.632 145.69 105.984C146.085 106.336 146.56 106.512 147.114 106.512C147.53 106.512 147.877 106.421 148.154 106.24C148.442 106.048 148.656 105.803 148.794 105.504H150.874C150.725 106.005 150.474 106.464 150.122 106.88C149.781 107.285 149.354 107.605 148.842 107.84C148.341 108.075 147.77 108.192 147.13 108.192ZM147.146 101.536C146.645 101.536 146.202 101.68 145.818 101.968C145.434 102.245 145.189 102.672 145.082 103.248H149.034C149.002 102.725 148.81 102.309 148.458 102C148.106 101.691 147.669 101.536 147.146 101.536ZM152.837 108V100.064H154.645L154.805 101.408C155.05 100.939 155.402 100.565 155.861 100.288C156.33 100.011 156.88 99.872 157.509 99.872C158.49 99.872 159.253 100.181 159.797 100.8C160.341 101.419 160.613 102.325 160.613 103.52V108H158.565V103.712C158.565 103.029 158.426 102.507 158.149 102.144C157.872 101.781 157.44 101.6 156.853 101.6C156.277 101.6 155.802 101.803 155.429 102.208C155.066 102.613 154.885 103.179 154.885 103.904V108H152.837ZM166.107 108C165.275 108 164.609 107.797 164.107 107.392C163.606 106.987 163.355 106.267 163.355 105.232V101.776H161.995V100.064H163.355L163.595 97.936H165.403V100.064H167.547V101.776H165.403V105.248C165.403 105.632 165.483 105.899 165.643 106.048C165.814 106.187 166.102 106.256 166.507 106.256H167.499V108H166.107ZM172.586 108.192C171.882 108.192 171.263 108.08 170.73 107.856C170.196 107.621 169.77 107.301 169.45 106.896C169.13 106.491 168.938 106.021 168.874 105.488H170.938C171.002 105.797 171.172 106.064 171.45 106.288C171.738 106.501 172.106 106.608 172.554 106.608C173.002 106.608 173.327 106.517 173.53 106.336C173.743 106.155 173.85 105.947 173.85 105.712C173.85 105.371 173.7 105.141 173.402 105.024C173.103 104.896 172.687 104.773 172.154 104.656C171.812 104.581 171.466 104.491 171.114 104.384C170.762 104.277 170.436 104.144 170.138 103.984C169.85 103.813 169.615 103.6 169.434 103.344C169.252 103.077 169.162 102.752 169.162 102.368C169.162 101.664 169.439 101.072 169.994 100.592C170.559 100.112 171.348 99.872 172.362 99.872C173.3 99.872 174.047 100.091 174.602 100.528C175.167 100.965 175.503 101.568 175.61 102.336H173.674C173.556 101.749 173.114 101.456 172.346 101.456C171.962 101.456 171.663 101.531 171.45 101.68C171.247 101.829 171.146 102.016 171.146 102.24C171.146 102.475 171.3 102.661 171.61 102.8C171.919 102.939 172.33 103.067 172.842 103.184C173.396 103.312 173.903 103.456 174.362 103.616C174.831 103.765 175.204 103.995 175.482 104.304C175.759 104.603 175.898 105.035 175.898 105.6C175.908 106.091 175.78 106.533 175.514 106.928C175.247 107.323 174.863 107.632 174.362 107.856C173.86 108.08 173.268 108.192 172.586 108.192Z" fill="#1E1F24"/>
<rect width="318" height="29" transform="translate(69 274)" fill="white"/>
<rect x="84.0698" y="287" width="41.8605" height="4" rx="2" fill="#1E1F24"/>
<rect x="70" y="275" width="70" height="27" rx="7" stroke="#1E1F24" stroke-width="2"/>
<rect x="166.07" y="287" width="41.8605" height="4" rx="2" fill="#1E1F24"/>
<rect x="152" y="275" width="70" height="27" rx="7" stroke="#1E1F24" stroke-width="2"/>
<rect x="248.07" y="287" width="41.8605" height="4" rx="2" fill="#1E1F24"/>
<rect x="234" y="275" width="70" height="27" rx="7" stroke="#1E1F24" stroke-width="2"/>
<rect x="330.07" y="287" width="41.8605" height="4" rx="2" fill="#00B37A"/>
<rect x="316" y="275" width="70" height="27" rx="7" stroke="#00B37A" stroke-width="2"/>
<rect x="68" y="138" width="16" height="9" rx="2" fill="#77777D" fill-opacity="0.2"/>
<rect x="93" y="138" width="222" height="9" rx="2" fill="#77777D" fill-opacity="0.2"/>
<rect x="68" y="168" width="16" height="9" rx="2" fill="#77777D" fill-opacity="0.2"/>
<rect x="93" y="168" width="222" height="9" rx="2" fill="#77777D" fill-opacity="0.2"/>
<rect x="68" y="198" width="16" height="9" rx="2" fill="#77777D" fill-opacity="0.2"/>
<rect x="93" y="198" width="222" height="9" rx="2" fill="#77777D" fill-opacity="0.2"/>
<rect x="68" y="228" width="16" height="9" rx="2" fill="#77777D" fill-opacity="0.2"/>
<rect x="93" y="228" width="222" height="9" rx="2" fill="#77777D" fill-opacity="0.2"/>
<rect x="52.5" y="79.5" width="290" height="258" rx="8.5" stroke="#1E1F24"/>
<path d="M387 286C386.167 286 385.5 286.667 385.5 287.5C385.5 288.333 386.167 289 387 289C387.833 289 388.5 288.333 388.5 287.5C388.5 286.667 387.833 286 387 286Z" fill="white"/>
<path d="M422.354 119.646C422.158 119.451 421.842 119.451 421.646 119.646L418.464 122.828C418.269 123.024 418.269 123.34 418.464 123.536C418.66 123.731 418.976 123.731 419.172 123.536L422 120.707L424.828 123.536C425.024 123.731 425.34 123.731 425.536 123.536C425.731 123.34 425.731 123.024 425.536 122.828L422.354 119.646ZM389 287.5C389 287.23 388.947 286.971 388.85 286.735L387.925 287.115C387.973 287.232 388 287.362 388 287.5H389ZM387.765 285.65C387.529 285.553 387.27 285.5 387 285.5V286.5C387.138 286.5 387.268 286.527 387.385 286.575L387.765 285.65ZM387 285.5C386.73 285.5 386.471 285.553 386.235 285.65L386.615 286.575C386.732 286.527 386.862 286.5 387 286.5V285.5ZM385.15 286.735C385.053 286.971 385 287.23 385 287.5H386C386 287.362 386.027 287.232 386.075 287.115L385.15 286.735ZM385 287.5C385 287.77 385.053 288.029 385.15 288.265L386.075 287.885C386.027 287.768 386 287.638 386 287.5H385ZM386.235 289.35C386.471 289.447 386.73 289.5 387 289.5V288.5C386.862 288.5 386.732 288.473 386.615 288.425L386.235 289.35ZM387 289.5C387.27 289.5 387.529 289.447 387.765 289.35L387.385 288.425C387.268 288.473 387.138 288.5 387 288.5V289.5ZM388.85 288.265C388.947 288.029 389 287.77 389 287.5H388C388 287.638 387.973 287.768 387.925 287.885L388.85 288.265ZM388.5 288H390.188V287H388.5V288ZM393.562 288H396.938V287H393.562V288ZM400.312 288H402V287H400.312V288ZM402 288C402.678 288 403.348 287.967 404.01 287.903L403.913 286.907C403.284 286.969 402.646 287 402 287V288ZM407.953 287.122C409.249 286.729 410.492 286.212 411.666 285.583L411.194 284.701C410.077 285.299 408.896 285.792 407.663 286.165L407.953 287.122ZM415.005 283.347C416.043 282.495 416.995 281.543 417.847 280.505L417.074 279.871C416.264 280.858 415.358 281.764 414.371 282.574L415.005 283.347ZM420.083 277.166C420.712 275.992 421.229 274.749 421.622 273.453L420.665 273.163C420.292 274.396 419.799 275.577 419.201 276.694L420.083 277.166ZM422.403 269.51C422.467 268.848 422.5 268.178 422.5 267.5H421.5C421.5 268.145 421.469 268.784 421.407 269.413L422.403 269.51ZM422.5 267.5V265.451H421.5V267.5H422.5ZM422.5 261.354V257.257H421.5V261.354H422.5ZM422.5 253.16V249.062H421.5V253.16H422.5ZM422.5 244.965V240.868H421.5V244.965H422.5ZM422.5 236.771V232.674H421.5V236.771H422.5ZM422.5 228.576V224.479H421.5V228.576H422.5ZM422.5 220.382V216.285H421.5V220.382H422.5ZM422.5 212.188V208.09H421.5V212.188H422.5ZM422.5 203.993V199.896H421.5V203.993H422.5ZM422.5 195.799V191.701H421.5V195.799H422.5ZM422.5 187.604V183.507H421.5V187.604H422.5ZM422.5 179.41V175.313H421.5V179.41H422.5ZM422.5 171.215V167.118H421.5V171.215H422.5ZM422.5 163.021V158.924H421.5V163.021H422.5ZM422.5 154.826V150.729H421.5V154.826H422.5ZM422.5 146.632V142.535H421.5V146.632H422.5ZM422.5 138.438V134.34H421.5V138.438H422.5ZM422.5 130.243V126.146H421.5V130.243H422.5ZM422.5 122.049V120H421.5V122.049H422.5Z" fill="#1E1F24"/>
<rect x="362.5" y="160.5" width="133" height="34" rx="7.5" fill="white"/>
<g clip-path="url(#clip0)">
<rect x="371.333" y="174.391" width="70.1111" height="6.22222" rx="3.11111" fill="#E4E4E5"/>
<rect width="89" height="7" rx="3.11111" transform="matrix(-1 0 0 1 402 174)" fill="#00B37A"/>
</g>
<path d="M460.857 182.332V181.175C461.388 180.735 461.902 180.299 462.4 179.868C462.906 179.437 463.354 179.009 463.744 178.586C464.142 178.163 464.457 177.752 464.69 177.354C464.93 176.948 465.051 176.554 465.051 176.172C465.051 175.815 464.951 175.5 464.752 175.226C464.561 174.952 464.242 174.816 463.794 174.816C463.337 174.816 462.993 174.965 462.761 175.264C462.529 175.562 462.412 175.923 462.412 176.346H460.869C460.886 175.707 461.027 175.176 461.292 174.753C461.558 174.322 461.91 174.003 462.35 173.795C462.79 173.579 463.284 173.472 463.831 173.472C464.719 173.472 465.407 173.716 465.897 174.206C466.395 174.687 466.644 175.313 466.644 176.085C466.644 176.566 466.532 177.035 466.308 177.491C466.092 177.947 465.806 178.387 465.449 178.81C465.092 179.233 464.706 179.632 464.292 180.005C463.877 180.37 463.474 180.71 463.084 181.025H466.855V182.332H460.857ZM471.301 182.481C470.663 182.481 470.111 182.369 469.646 182.145C469.19 181.921 468.829 181.614 468.564 181.224C468.306 180.826 468.157 180.378 468.116 179.88H469.671C469.746 180.237 469.928 180.536 470.219 180.776C470.509 181.009 470.87 181.125 471.301 181.125C471.766 181.125 472.143 180.955 472.434 180.615C472.732 180.275 472.882 179.851 472.882 179.345C472.882 178.823 472.732 178.408 472.434 178.101C472.143 177.794 471.774 177.64 471.326 177.64C470.953 177.64 470.629 177.732 470.356 177.914C470.082 178.097 469.887 178.325 469.771 178.599H468.24L468.987 173.621H473.815V175.015H470.181L469.783 177.031C469.966 176.832 470.215 176.67 470.53 176.545C470.845 176.413 471.198 176.346 471.588 176.346C472.21 176.346 472.728 176.487 473.143 176.769C473.558 177.043 473.873 177.408 474.089 177.864C474.305 178.312 474.412 178.802 474.412 179.333C474.412 179.939 474.28 180.478 474.014 180.951C473.757 181.424 473.392 181.797 472.919 182.071C472.455 182.344 471.915 182.481 471.301 182.481ZM477.687 177.902C477.289 177.902 476.928 177.815 476.604 177.64C476.281 177.458 476.023 177.201 475.833 176.869C475.642 176.537 475.546 176.143 475.546 175.687C475.546 175.23 475.642 174.836 475.833 174.504C476.023 174.173 476.281 173.92 476.604 173.745C476.928 173.563 477.293 173.472 477.699 173.472C478.097 173.472 478.454 173.563 478.769 173.745C479.093 173.92 479.35 174.173 479.541 174.504C479.732 174.836 479.827 175.23 479.827 175.687C479.827 176.143 479.732 176.537 479.541 176.869C479.35 177.201 479.093 177.458 478.769 177.64C478.446 177.815 478.085 177.902 477.687 177.902ZM477.214 182.332L482.129 173.621H483.685L478.769 182.332H477.214ZM477.687 176.794C477.927 176.794 478.135 176.703 478.309 176.52C478.483 176.33 478.57 176.052 478.57 175.687C478.57 175.322 478.483 175.044 478.309 174.853C478.143 174.662 477.936 174.567 477.687 174.567C477.438 174.567 477.226 174.662 477.052 174.853C476.886 175.044 476.803 175.322 476.803 175.687C476.803 176.052 476.886 176.33 477.052 176.52C477.226 176.703 477.438 176.794 477.687 176.794ZM483.262 182.481C482.864 182.481 482.503 182.394 482.179 182.22C481.856 182.038 481.598 181.78 481.408 181.448C481.217 181.117 481.121 180.723 481.121 180.266C481.121 179.81 481.217 179.42 481.408 179.096C481.598 178.765 481.856 178.512 482.179 178.337C482.503 178.155 482.868 178.064 483.274 178.064C483.673 178.064 484.029 178.155 484.345 178.337C484.668 178.512 484.925 178.765 485.116 179.096C485.307 179.42 485.402 179.81 485.402 180.266C485.402 180.723 485.307 181.117 485.116 181.448C484.925 181.78 484.668 182.038 484.345 182.22C484.029 182.394 483.668 182.481 483.262 182.481ZM483.262 181.374C483.511 181.374 483.718 181.283 483.884 181.1C484.058 180.909 484.145 180.631 484.145 180.266C484.145 179.901 484.058 179.623 483.884 179.432C483.718 179.242 483.511 179.146 483.262 179.146C483.013 179.146 482.801 179.242 482.627 179.432C482.461 179.623 482.378 179.901 482.378 180.266C482.378 180.631 482.461 180.909 482.627 181.1C482.801 181.283 483.013 181.374 483.262 181.374Z" fill="black"/>
<rect x="362.5" y="160.5" width="133" height="34" rx="7.5" stroke="black"/>
<defs>
<filter id="filter0_d" x="362" y="0" width="124" height="124" filterUnits="userSpaceOnUse" color-interpolation-filters="sRGB">
<feFlood flood-opacity="0" result="BackgroundImageFix"/>
<feColorMatrix in="SourceAlpha" type="matrix" values="0 0 0 0 0 0 0 0 0 0 0 0 0 0 0 0 0 0 127 0" result="hardAlpha"/>
<feOffset dx="4" dy="4"/>
<feComposite in2="hardAlpha" operator="out"/>
<feColorMatrix type="matrix" values="0 0 0 0 0.117647 0 0 0 0 0.121569 0 0 0 0 0.141176 0 0 0 1 0"/>
<feBlend mode="normal" in2="BackgroundImageFix" result="effect1_dropShadow"/>
<feBlend mode="normal" in="SourceGraphic" in2="effect1_dropShadow" result="shape"/>
</filter>
<clipPath id="clip0">
<rect x="371.333" y="174.391" width="70.2222" height="6.22222" rx="3.11111" fill="white"/>
</clipPath>
</defs>
</svg>
