<svg width="32" height="32" viewBox="0 0 32 32" fill="none" xmlns="http://www.w3.org/2000/svg">
<rect width="32" height="32" rx="8" fill="#00B37A" fill-opacity="0.1"/>
<g opacity="0.8">
<path opacity="0.3" d="M15 8H8C7.46957 8 6.96086 8.21071 6.58579 8.58579C6.21071 8.96086 6 9.46957 6 10V24C6 24.5304 6.21071 25.0391 6.58579 25.4142C6.96086 25.7893 7.46957 26 8 26H22C22.5304 26 23.0391 25.7893 23.4142 25.4142C23.7893 25.0391 24 24.5304 24 24V17" fill="#008060"/>
<path d="M22.5 6.50023C22.8978 6.1024 23.4374 5.87891 24 5.87891C24.5626 5.87891 25.1022 6.1024 25.5 6.50023C25.8978 6.89805 26.1213 7.43762 26.1213 8.00023C26.1213 8.56284 25.8978 9.1024 25.5 9.50023L16 19.0002L12 20.0002L13 16.0002L22.5 6.50023Z" stroke="#008060" stroke-width="2" stroke-linecap="round" stroke-linejoin="round"/>
</g>
</svg>
