<svg width="41" height="40" viewBox="0 0 41 40" fill="none" xmlns="http://www.w3.org/2000/svg">
<path d="M10.6657 34.5583C10.1582 34.2654 9.73698 33.8438 9.44438 33.3361C9.15177 32.8285 8.99816 32.2526 8.99903 31.6667V8.33333C8.99903 7.44928 9.35022 6.60143 9.97534 5.97631C10.6005 5.35119 11.4483 5 12.3324 5H23.999L32.3324 13.3333V31.6667C32.3324 32.5507 31.9812 33.3986 31.356 34.0237C30.7309 34.6488 29.8831 35 28.999 35H27.3324" stroke="#44C3C3" stroke-width="2" stroke-linecap="round" stroke-linejoin="round"/>
<path d="M18.9993 28.333C19.8834 28.333 20.7313 28.6842 21.3564 29.3093C21.9815 29.9344 22.3327 30.7823 22.3327 31.6663V34.9997C22.3327 35.4417 22.1571 35.8656 21.8445 36.1782C21.532 36.4908 21.108 36.6663 20.666 36.6663H17.3327C16.8907 36.6663 16.4667 36.4908 16.1542 36.1782C15.8416 35.8656 15.666 35.4417 15.666 34.9997V31.6663C15.666 30.7823 16.0172 29.9344 16.6423 29.3093C17.2674 28.6842 18.1153 28.333 18.9993 28.333Z" stroke="#44C3C3" stroke-width="2" stroke-linecap="round" stroke-linejoin="round"/>
<path d="M18.9987 8.33301H17.332" stroke="#44C3C3" stroke-width="2" stroke-linecap="round" stroke-linejoin="round"/>
<path d="M22.3327 11.667H20.666" stroke="#44C3C3" stroke-width="2" stroke-linecap="round" stroke-linejoin="round"/>
<path d="M18.9987 15H17.332" stroke="#44C3C3" stroke-width="2" stroke-linecap="round" stroke-linejoin="round"/>
<path d="M22.3327 18.333H20.666" stroke="#44C3C3" stroke-width="2" stroke-linecap="round" stroke-linejoin="round"/>
<path d="M18.9987 21.667H17.332" stroke="#44C3C3" stroke-width="2" stroke-linecap="round" stroke-linejoin="round"/>
<path d="M22.3327 25H20.666" stroke="#44C3C3" stroke-width="2" stroke-linecap="round" stroke-linejoin="round"/>
</svg>
