<svg width="1017" height="415" viewBox="0 0 1017 415" fill="none" xmlns="http://www.w3.org/2000/svg">
<rect x="88" y="34" width="851" height="381" rx="8" fill="#2C2A64" fill-opacity="0.03"/>
<g clip-path="url(#clip0)">
<circle cx="95.5" cy="70.5" r="2" fill="#14172E" fill-opacity="0.08"/>
<circle cx="139.5" cy="70.5" r="2" fill="#14172E" fill-opacity="0.08"/>
<circle cx="183.5" cy="70.5" r="2" fill="#14172E" fill-opacity="0.08"/>
<circle cx="227.5" cy="70.5" r="2" fill="#14172E" fill-opacity="0.08"/>
<circle cx="271.5" cy="70.5" r="2" fill="#14172E" fill-opacity="0.08"/>
<circle cx="315.5" cy="70.5" r="2" fill="#14172E" fill-opacity="0.08"/>
<circle cx="359.5" cy="70.5" r="2" fill="#14172E" fill-opacity="0.08"/>
<circle cx="403.5" cy="70.5" r="2" fill="#14172E" fill-opacity="0.08"/>
<circle cx="447.5" cy="70.5" r="2" fill="#14172E" fill-opacity="0.08"/>
<circle cx="491.5" cy="70.5" r="2" fill="#14172E" fill-opacity="0.08"/>
<circle cx="535.5" cy="70.5" r="2" fill="#14172E" fill-opacity="0.08"/>
<circle cx="579.5" cy="70.5" r="2" fill="#14172E" fill-opacity="0.08"/>
<circle cx="667.5" cy="70.5" r="2" fill="#14172E" fill-opacity="0.08"/>
<circle cx="711.5" cy="70.5" r="2" fill="#14172E" fill-opacity="0.08"/>
<circle cx="755.5" cy="70.5" r="2" fill="#14172E" fill-opacity="0.08"/>
<circle cx="799.5" cy="70.5" r="2" fill="#14172E" fill-opacity="0.08"/>
<circle cx="843.5" cy="70.5" r="2" fill="#14172E" fill-opacity="0.08"/>
<circle cx="887.5" cy="70.5" r="2" fill="#14172E" fill-opacity="0.08"/>
<circle cx="931.5" cy="70.5" r="2" fill="#14172E" fill-opacity="0.08"/>
<circle cx="95.5" cy="114.5" r="2" fill="#14172E" fill-opacity="0.08"/>
<circle cx="139.5" cy="114.5" r="2" fill="#14172E" fill-opacity="0.08"/>
<circle cx="183.5" cy="114.5" r="2" fill="#14172E" fill-opacity="0.08"/>
<circle cx="227.5" cy="114.5" r="2" fill="#14172E" fill-opacity="0.08"/>
<circle cx="271.5" cy="114.5" r="2" fill="#14172E" fill-opacity="0.08"/>
<circle cx="315.5" cy="114.5" r="2" fill="#14172E" fill-opacity="0.08"/>
<circle cx="359.5" cy="114.5" r="2" fill="#14172E" fill-opacity="0.08"/>
<circle cx="403.5" cy="114.5" r="2" fill="#14172E" fill-opacity="0.08"/>
<circle cx="447.5" cy="114.5" r="2" fill="#14172E" fill-opacity="0.08"/>
<circle cx="491.5" cy="114.5" r="2" fill="#14172E" fill-opacity="0.08"/>
<circle cx="535.5" cy="114.5" r="2" fill="#14172E" fill-opacity="0.08"/>
<circle cx="579.5" cy="114.5" r="2" fill="#14172E" fill-opacity="0.08"/>
<circle cx="667.5" cy="114.5" r="2" fill="#14172E" fill-opacity="0.08"/>
<circle cx="711.5" cy="114.5" r="2" fill="#14172E" fill-opacity="0.08"/>
<circle cx="755.5" cy="114.5" r="2" fill="#14172E" fill-opacity="0.08"/>
<circle cx="799.5" cy="114.5" r="2" fill="#14172E" fill-opacity="0.08"/>
<circle cx="843.5" cy="114.5" r="2" fill="#14172E" fill-opacity="0.08"/>
<circle cx="887.5" cy="114.5" r="2" fill="#14172E" fill-opacity="0.08"/>
<circle cx="931.5" cy="114.5" r="2" fill="#14172E" fill-opacity="0.08"/>
<circle cx="95.5" cy="158.5" r="2" fill="#14172E" fill-opacity="0.08"/>
<circle cx="139.5" cy="158.5" r="2" fill="#14172E" fill-opacity="0.08"/>
<circle cx="183.5" cy="158.5" r="2" fill="#14172E" fill-opacity="0.08"/>
<circle cx="227.5" cy="158.5" r="2" fill="#14172E" fill-opacity="0.08"/>
<circle cx="271.5" cy="158.5" r="2" fill="#14172E" fill-opacity="0.08"/>
<circle cx="315.5" cy="158.5" r="2" fill="#14172E" fill-opacity="0.08"/>
<circle cx="359.5" cy="158.5" r="2" fill="#14172E" fill-opacity="0.08"/>
<circle cx="403.5" cy="158.5" r="2" fill="#14172E" fill-opacity="0.08"/>
<circle cx="447.5" cy="158.5" r="2" fill="#14172E" fill-opacity="0.08"/>
<circle cx="491.5" cy="158.5" r="2" fill="#14172E" fill-opacity="0.08"/>
<circle cx="535.5" cy="158.5" r="2" fill="#14172E" fill-opacity="0.08"/>
<circle cx="579.5" cy="158.5" r="2" fill="#14172E" fill-opacity="0.08"/>
<circle cx="667.5" cy="158.5" r="2" fill="#14172E" fill-opacity="0.08"/>
<circle cx="711.5" cy="158.5" r="2" fill="#14172E" fill-opacity="0.08"/>
<circle cx="755.5" cy="158.5" r="2" fill="#14172E" fill-opacity="0.08"/>
<circle cx="799.5" cy="158.5" r="2" fill="#14172E" fill-opacity="0.08"/>
<circle cx="843.5" cy="158.5" r="2" fill="#14172E" fill-opacity="0.08"/>
<circle cx="887.5" cy="158.5" r="2" fill="#14172E" fill-opacity="0.08"/>
<circle cx="931.5" cy="158.5" r="2" fill="#14172E" fill-opacity="0.08"/>
<circle cx="95.5" cy="202.5" r="2" fill="#14172E" fill-opacity="0.08"/>
<circle cx="139.5" cy="202.5" r="2" fill="#14172E" fill-opacity="0.08"/>
<circle cx="183.5" cy="202.5" r="2" fill="#14172E" fill-opacity="0.08"/>
<circle cx="227.5" cy="202.5" r="2" fill="#14172E" fill-opacity="0.08"/>
<circle cx="271.5" cy="202.5" r="2" fill="#14172E" fill-opacity="0.08"/>
<circle cx="315.5" cy="202.5" r="2" fill="#14172E" fill-opacity="0.08"/>
<circle cx="359.5" cy="202.5" r="2" fill="#14172E" fill-opacity="0.08"/>
<circle cx="403.5" cy="202.5" r="2" fill="#14172E" fill-opacity="0.08"/>
<circle cx="447.5" cy="202.5" r="2" fill="#14172E" fill-opacity="0.08"/>
<circle cx="491.5" cy="202.5" r="2" fill="#14172E" fill-opacity="0.08"/>
<circle cx="535.5" cy="202.5" r="2" fill="#14172E" fill-opacity="0.08"/>
<circle cx="579.5" cy="202.5" r="2" fill="#14172E" fill-opacity="0.08"/>
<circle cx="667.5" cy="202.5" r="2" fill="#14172E" fill-opacity="0.08"/>
<circle cx="711.5" cy="202.5" r="2" fill="#14172E" fill-opacity="0.08"/>
<circle cx="755.5" cy="202.5" r="2" fill="#14172E" fill-opacity="0.08"/>
<circle cx="799.5" cy="202.5" r="2" fill="#14172E" fill-opacity="0.08"/>
<circle cx="843.5" cy="202.5" r="2" fill="#14172E" fill-opacity="0.08"/>
<circle cx="887.5" cy="202.5" r="2" fill="#14172E" fill-opacity="0.08"/>
<circle cx="931.5" cy="202.5" r="2" fill="#14172E" fill-opacity="0.08"/>
<circle cx="95.5" cy="246.5" r="2" fill="#14172E" fill-opacity="0.08"/>
<circle cx="139.5" cy="246.5" r="2" fill="#14172E" fill-opacity="0.08"/>
<circle cx="183.5" cy="246.5" r="2" fill="#14172E" fill-opacity="0.08"/>
<circle cx="227.5" cy="246.5" r="2" fill="#14172E" fill-opacity="0.08"/>
<circle cx="271.5" cy="246.5" r="2" fill="#14172E" fill-opacity="0.08"/>
<circle cx="315.5" cy="246.5" r="2" fill="#14172E" fill-opacity="0.08"/>
<circle cx="359.5" cy="246.5" r="2" fill="#14172E" fill-opacity="0.08"/>
<circle cx="403.5" cy="246.5" r="2" fill="#14172E" fill-opacity="0.08"/>
<circle cx="447.5" cy="246.5" r="2" fill="#14172E" fill-opacity="0.08"/>
<circle cx="491.5" cy="246.5" r="2" fill="#14172E" fill-opacity="0.08"/>
<circle cx="535.5" cy="246.5" r="2" fill="#14172E" fill-opacity="0.08"/>
<circle cx="579.5" cy="246.5" r="2" fill="#14172E" fill-opacity="0.08"/>
<circle cx="667.5" cy="246.5" r="2" fill="#14172E" fill-opacity="0.08"/>
<circle cx="711.5" cy="246.5" r="2" fill="#14172E" fill-opacity="0.08"/>
<circle cx="755.5" cy="246.5" r="2" fill="#14172E" fill-opacity="0.08"/>
<circle cx="799.5" cy="246.5" r="2" fill="#14172E" fill-opacity="0.08"/>
<circle cx="843.5" cy="246.5" r="2" fill="#14172E" fill-opacity="0.08"/>
<circle cx="887.5" cy="246.5" r="2" fill="#14172E" fill-opacity="0.08"/>
<circle cx="931.5" cy="246.5" r="2" fill="#14172E" fill-opacity="0.08"/>
<circle cx="95.5" cy="290.5" r="2" fill="#14172E" fill-opacity="0.08"/>
<circle cx="139.5" cy="290.5" r="2" fill="#14172E" fill-opacity="0.08"/>
<circle cx="183.5" cy="290.5" r="2" fill="#14172E" fill-opacity="0.08"/>
<circle cx="227.5" cy="290.5" r="2" fill="#14172E" fill-opacity="0.08"/>
<circle cx="271.5" cy="290.5" r="2" fill="#14172E" fill-opacity="0.08"/>
<circle cx="315.5" cy="290.5" r="2" fill="#14172E" fill-opacity="0.08"/>
<circle cx="359.5" cy="290.5" r="2" fill="#14172E" fill-opacity="0.08"/>
<circle cx="403.5" cy="290.5" r="2" fill="#14172E" fill-opacity="0.08"/>
<circle cx="447.5" cy="290.5" r="2" fill="#14172E" fill-opacity="0.08"/>
<circle cx="491.5" cy="290.5" r="2" fill="#14172E" fill-opacity="0.08"/>
<circle cx="535.5" cy="290.5" r="2" fill="#14172E" fill-opacity="0.08"/>
<circle cx="579.5" cy="290.5" r="2" fill="#14172E" fill-opacity="0.08"/>
<circle cx="667.5" cy="290.5" r="2" fill="#14172E" fill-opacity="0.08"/>
<circle cx="711.5" cy="290.5" r="2" fill="#14172E" fill-opacity="0.08"/>
<circle cx="755.5" cy="290.5" r="2" fill="#14172E" fill-opacity="0.08"/>
<circle cx="799.5" cy="290.5" r="2" fill="#14172E" fill-opacity="0.08"/>
<circle cx="843.5" cy="290.5" r="2" fill="#14172E" fill-opacity="0.08"/>
<circle cx="887.5" cy="290.5" r="2" fill="#14172E" fill-opacity="0.08"/>
<circle cx="931.5" cy="290.5" r="2" fill="#14172E" fill-opacity="0.08"/>
<circle cx="95.5" cy="334.5" r="2" fill="#14172E" fill-opacity="0.08"/>
<circle cx="139.5" cy="334.5" r="2" fill="#14172E" fill-opacity="0.08"/>
<circle cx="183.5" cy="334.5" r="2" fill="#14172E" fill-opacity="0.08"/>
<circle cx="227.5" cy="334.5" r="2" fill="#14172E" fill-opacity="0.08"/>
<circle cx="271.5" cy="334.5" r="2" fill="#14172E" fill-opacity="0.08"/>
<circle cx="315.5" cy="334.5" r="2" fill="#14172E" fill-opacity="0.08"/>
<circle cx="359.5" cy="334.5" r="2" fill="#14172E" fill-opacity="0.08"/>
<circle cx="403.5" cy="334.5" r="2" fill="#14172E" fill-opacity="0.08"/>
<circle cx="447.5" cy="334.5" r="2" fill="#14172E" fill-opacity="0.08"/>
<circle cx="491.5" cy="334.5" r="2" fill="#14172E" fill-opacity="0.08"/>
<circle cx="535.5" cy="334.5" r="2" fill="#14172E" fill-opacity="0.08"/>
<circle cx="579.5" cy="334.5" r="2" fill="#14172E" fill-opacity="0.08"/>
<circle cx="667.5" cy="334.5" r="2" fill="#14172E" fill-opacity="0.08"/>
<circle cx="711.5" cy="334.5" r="2" fill="#14172E" fill-opacity="0.08"/>
<circle cx="755.5" cy="334.5" r="2" fill="#14172E" fill-opacity="0.08"/>
<circle cx="799.5" cy="334.5" r="2" fill="#14172E" fill-opacity="0.08"/>
<circle cx="843.5" cy="334.5" r="2" fill="#14172E" fill-opacity="0.08"/>
<circle cx="887.5" cy="334.5" r="2" fill="#14172E" fill-opacity="0.08"/>
<circle cx="931.5" cy="334.5" r="2" fill="#14172E" fill-opacity="0.08"/>
<circle cx="95.5" cy="378.5" r="2" fill="#14172E" fill-opacity="0.08"/>
<circle cx="139.5" cy="378.5" r="2" fill="#14172E" fill-opacity="0.08"/>
<circle cx="183.5" cy="378.5" r="2" fill="#14172E" fill-opacity="0.08"/>
<circle cx="227.5" cy="378.5" r="2" fill="#14172E" fill-opacity="0.08"/>
<circle cx="271.5" cy="378.5" r="2" fill="#14172E" fill-opacity="0.08"/>
<circle cx="315.5" cy="378.5" r="2" fill="#14172E" fill-opacity="0.08"/>
<circle cx="359.5" cy="378.5" r="2" fill="#14172E" fill-opacity="0.08"/>
<circle cx="403.5" cy="378.5" r="2" fill="#14172E" fill-opacity="0.08"/>
<circle cx="447.5" cy="378.5" r="2" fill="#14172E" fill-opacity="0.08"/>
<circle cx="491.5" cy="378.5" r="2" fill="#14172E" fill-opacity="0.08"/>
<circle cx="535.5" cy="378.5" r="2" fill="#14172E" fill-opacity="0.08"/>
<circle cx="579.5" cy="378.5" r="2" fill="#14172E" fill-opacity="0.08"/>
<circle cx="667.5" cy="378.5" r="2" fill="#14172E" fill-opacity="0.08"/>
<circle cx="711.5" cy="378.5" r="2" fill="#14172E" fill-opacity="0.08"/>
<circle cx="755.5" cy="378.5" r="2" fill="#14172E" fill-opacity="0.08"/>
<circle cx="799.5" cy="378.5" r="2" fill="#14172E" fill-opacity="0.08"/>
<circle cx="843.5" cy="378.5" r="2" fill="#14172E" fill-opacity="0.08"/>
<circle cx="887.5" cy="378.5" r="2" fill="#14172E" fill-opacity="0.08"/>
<circle cx="931.5" cy="378.5" r="2" fill="#14172E" fill-opacity="0.08"/>
</g>
<g clip-path="url(#clip1)">
<path fill-rule="evenodd" clip-rule="evenodd" d="M265.477 150.176H0.735088V253.126H0.635742L7.9873 260.48H272.727V157.53L265.477 150.319V150.176Z" fill="#1E1F24"/>
</g>
<rect x="2.03083" y="151.398" width="262.291" height="100.504" rx="8.57961" fill="white" stroke="#1E1F24" stroke-width="2.45132"/>
<path d="M269.05 200.492H281.952" stroke="white" stroke-opacity="0.7" stroke-width="4.90263" stroke-linecap="round" stroke-linejoin="round"/>
<path d="M273.952 200.491H289.274C300.104 200.491 308.884 191.711 308.884 180.88V141.63C308.884 130.799 317.664 122.02 328.495 122.02H362.262" stroke="#1E1F24" stroke-width="4.90263" stroke-linecap="round" stroke-linejoin="round"/>
<path d="M624.125 72.4704L637.997 86.3142C639.84 88.1536 640.876 90.6506 640.876 93.2545V182.332C640.876 187.748 636.486 192.138 631.07 192.138H376.136L373.264 189.265C373.167 189.169 373.073 189.071 372.982 188.973L356.661 172.594V162.414L588.912 69.6055H617.199C618.649 69.6055 620.065 69.9266 621.354 70.5296C622.374 71.0066 623.313 71.66 624.125 72.4704Z" fill="#1E1F24"/>
<rect x="357.923" y="70.8038" width="262.291" height="100.504" rx="8.57961" fill="#00B37A" stroke="#1E1F24" stroke-width="2.45132"/>
<path d="M629.303 134.273H642.205" stroke="white" stroke-opacity="0.7" stroke-width="4.90263" stroke-linecap="round" stroke-linejoin="round"/>
<path d="M635.431 134.272H671.589C682.419 134.272 691.199 125.492 691.199 114.661V75.4113C691.199 64.5807 699.979 55.8008 710.81 55.8008H744.577" stroke="#1E1F24" stroke-width="4.90263" stroke-linecap="round" stroke-linejoin="round"/>
<path d="M495.025 183.566L495.025 196.469" stroke="white" stroke-opacity="0.7" stroke-width="4.90263" stroke-linecap="round" stroke-linejoin="round"/>
<path d="M495.024 189.695L495.024 311.649C495.024 322.479 503.804 331.259 514.635 331.259L573.496 331.259" stroke="#1E1F24" stroke-width="4.90263" stroke-linecap="round" stroke-linejoin="round"/>
<g clip-path="url(#clip2)">
<path fill-rule="evenodd" clip-rule="evenodd" d="M817.486 275.047H552.744V377.997H552.645L559.996 385.351H824.736V282.401L817.486 275.19V275.047Z" fill="#1E1F24"/>
</g>
<rect x="554.04" y="276.273" width="262.291" height="100.504" rx="8.57961" fill="white" stroke="#1E1F24" stroke-width="2.45132"/>
<g clip-path="url(#clip3)">
<path fill-rule="evenodd" clip-rule="evenodd" d="M1009.42 0.648438H744.676V103.599H744.577L751.928 110.953H1016.67V8.00205L1009.42 0.791262V0.648438Z" fill="#1E1F24"/>
</g>
<rect x="745.972" y="1.8741" width="262.291" height="100.504" rx="8.57961" fill="white" stroke="#1E1F24" stroke-width="2.45132"/>
<path d="M25.7419 206.715C24.9372 206.715 24.2265 206.58 23.6099 206.308C22.9933 206.026 22.5073 205.629 22.152 205.116C21.7967 204.594 21.6138 203.962 21.6033 203.22H23.7197C23.7406 203.732 23.9234 204.165 24.2683 204.521C24.6237 204.866 25.1096 205.038 25.7263 205.038C26.2593 205.038 26.6825 204.913 26.9961 204.662C27.3096 204.401 27.4664 204.056 27.4664 203.627C27.4664 203.178 27.3253 202.828 27.0431 202.577C26.7714 202.326 26.4056 202.122 25.9457 201.965C25.4859 201.809 24.9947 201.641 24.4721 201.464C23.6256 201.171 22.9776 200.795 22.5282 200.335C22.0893 199.875 21.8698 199.264 21.8698 198.501C21.8594 197.853 22.0109 197.299 22.3244 196.839C22.6484 196.369 23.0874 196.008 23.6413 195.758C24.1952 195.496 24.8327 195.366 25.5538 195.366C26.2854 195.366 26.9281 195.496 27.482 195.758C28.0464 196.019 28.4853 196.385 28.7989 196.855C29.1229 197.325 29.2953 197.884 29.3162 198.532H27.1685C27.1581 198.146 27.0065 197.806 26.7139 197.513C26.4317 197.21 26.0346 197.059 25.5225 197.059C25.0835 197.048 24.7125 197.158 24.4094 197.388C24.1168 197.607 23.9705 197.931 23.9705 198.36C23.9705 198.726 24.0854 199.018 24.3154 199.238C24.5453 199.447 24.8588 199.624 25.256 199.771C25.6531 199.917 26.1077 200.074 26.6198 200.241C27.1633 200.429 27.6597 200.649 28.1091 200.899C28.5585 201.15 28.9191 201.485 29.1908 201.903C29.4625 202.31 29.5984 202.838 29.5984 203.486C29.5984 204.061 29.4521 204.594 29.1594 205.085C28.8668 205.576 28.4331 205.973 27.8583 206.277C27.2835 206.569 26.578 206.715 25.7419 206.715ZM33.3087 206.527V195.554H40.4729V197.168H35.3153V200.178H40.0026V201.746H35.3153V204.913H40.4729V206.527H33.3087ZM44.3313 206.527V195.554H46.338V204.96H51.1977V206.527H44.3313ZM54.9253 206.527V195.554H62.0111V197.168H56.9319V200.241H61.0392V201.824H56.9319V206.527H54.9253ZM65.2998 202.828V201.15H71.8683V202.828H65.2998ZM80.7354 206.527L84.7486 195.554H87.006L91.0192 206.527H88.8872L88.0093 203.988H83.7296L82.8361 206.527H80.7354ZM84.2783 202.42H87.4607L85.8616 197.858L84.2783 202.42ZM98.1391 206.715C97.3344 206.715 96.6237 206.58 96.0071 206.308C95.3905 206.026 94.9045 205.629 94.5492 205.116C94.1938 204.594 94.011 203.962 94.0005 203.22H96.1168C96.1377 203.732 96.3206 204.165 96.6655 204.521C97.0209 204.866 97.5068 205.038 98.1235 205.038C98.6565 205.038 99.0797 204.913 99.3933 204.662C99.7068 204.401 99.8636 204.056 99.8636 203.627C99.8636 203.178 99.7225 202.828 99.4403 202.577C99.1686 202.326 98.8028 202.122 98.3429 201.965C97.8831 201.809 97.3919 201.641 96.8693 201.464C96.0228 201.171 95.3748 200.795 94.9254 200.335C94.4865 199.875 94.267 199.264 94.267 198.501C94.2566 197.853 94.4081 197.299 94.7216 196.839C95.0456 196.369 95.4846 196.008 96.0385 195.758C96.5924 195.496 97.2299 195.366 97.951 195.366C98.6826 195.366 99.3253 195.496 99.8792 195.758C100.444 196.019 100.883 196.385 101.196 196.855C101.52 197.325 101.692 197.884 101.713 198.532H99.5657C99.5553 198.146 99.4037 197.806 99.1111 197.513C98.8289 197.21 98.4318 197.059 97.9197 197.059C97.4807 197.048 97.1097 197.158 96.8066 197.388C96.514 197.607 96.3677 197.931 96.3677 198.36C96.3677 198.726 96.4826 199.018 96.7126 199.238C96.9425 199.447 97.256 199.624 97.6532 199.771C98.0503 199.917 98.5049 200.074 99.017 200.241C99.5605 200.429 100.057 200.649 100.506 200.899C100.956 201.15 101.316 201.485 101.588 201.903C101.86 202.31 101.996 202.838 101.996 203.486C101.996 204.061 101.849 204.594 101.557 205.085C101.264 205.576 100.83 205.973 100.255 206.277C99.6807 206.569 98.9752 206.715 98.1391 206.715ZM109.453 206.715C108.648 206.715 107.937 206.58 107.321 206.308C106.704 206.026 106.218 205.629 105.863 205.116C105.507 204.594 105.324 203.962 105.314 203.22H107.43C107.451 203.732 107.634 204.165 107.979 204.521C108.334 204.866 108.82 205.038 109.437 205.038C109.97 205.038 110.393 204.913 110.707 204.662C111.02 204.401 111.177 204.056 111.177 203.627C111.177 203.178 111.036 202.828 110.754 202.577C110.482 202.326 110.116 202.122 109.656 201.965C109.197 201.809 108.705 201.641 108.183 201.464C107.336 201.171 106.688 200.795 106.239 200.335C105.8 199.875 105.58 199.264 105.58 198.501C105.57 197.853 105.722 197.299 106.035 196.839C106.359 196.369 106.798 196.008 107.352 195.758C107.906 195.496 108.543 195.366 109.265 195.366C109.996 195.366 110.639 195.496 111.193 195.758C111.757 196.019 112.196 196.385 112.51 196.855C112.834 197.325 113.006 197.884 113.027 198.532H110.879C110.869 198.146 110.717 197.806 110.425 197.513C110.142 197.21 109.745 197.059 109.233 197.059C108.794 197.048 108.423 197.158 108.12 197.388C107.827 197.607 107.681 197.931 107.681 198.36C107.681 198.726 107.796 199.018 108.026 199.238C108.256 199.447 108.57 199.624 108.967 199.771C109.364 199.917 109.818 200.074 110.331 200.241C110.874 200.429 111.37 200.649 111.82 200.899C112.269 201.15 112.63 201.485 112.901 201.903C113.173 202.31 113.309 202.838 113.309 203.486C113.309 204.061 113.163 204.594 112.87 205.085C112.577 205.576 112.144 205.973 111.569 206.277C110.994 206.569 110.289 206.715 109.453 206.715ZM117.019 206.527V195.554H124.184V197.168H119.026V200.178H123.713V201.746H119.026V204.913H124.184V206.527H117.019ZM131.789 206.715C130.984 206.715 130.273 206.58 129.657 206.308C129.04 206.026 128.554 205.629 128.199 205.116C127.843 204.594 127.661 203.962 127.65 203.22H129.766C129.787 203.732 129.97 204.165 130.315 204.521C130.67 204.866 131.156 205.038 131.773 205.038C132.306 205.038 132.729 204.913 133.043 204.662C133.356 204.401 133.513 204.056 133.513 203.627C133.513 203.178 133.372 202.828 133.09 202.577C132.818 202.326 132.452 202.122 131.993 201.965C131.533 201.809 131.041 201.641 130.519 201.464C129.672 201.171 129.024 200.795 128.575 200.335C128.136 199.875 127.917 199.264 127.917 198.501C127.906 197.853 128.058 197.299 128.371 196.839C128.695 196.369 129.134 196.008 129.688 195.758C130.242 195.496 130.879 195.366 131.601 195.366C132.332 195.366 132.975 195.496 133.529 195.758C134.093 196.019 134.532 196.385 134.846 196.855C135.17 197.325 135.342 197.884 135.363 198.532H133.215C133.205 198.146 133.053 197.806 132.761 197.513C132.479 197.21 132.081 197.059 131.569 197.059C131.13 197.048 130.759 197.158 130.456 197.388C130.164 197.607 130.017 197.931 130.017 198.36C130.017 198.726 130.132 199.018 130.362 199.238C130.592 199.447 130.906 199.624 131.303 199.771C131.7 199.917 132.155 200.074 132.667 200.241C133.21 200.429 133.707 200.649 134.156 200.899C134.605 201.15 134.966 201.485 135.238 201.903C135.509 202.31 135.645 202.838 135.645 203.486C135.645 204.061 135.499 204.594 135.206 205.085C134.914 205.576 134.48 205.973 133.905 206.277C133.33 206.569 132.625 206.715 131.789 206.715ZM139.356 206.527V195.554H141.738L145.234 202.514L148.683 195.554H151.066V206.527H149.059V198.956L146.002 204.96H144.419L141.362 198.956V206.527H139.356ZM155.155 206.527V195.554H162.319V197.168H157.161V200.178H161.849V201.746H157.161V204.913H162.319V206.527H155.155ZM166.177 206.527V195.554H168.184L173.341 203.282V195.554H175.348V206.527H173.341L168.184 198.814V206.527H166.177ZM181.99 206.527V197.168H178.792V195.554H187.211V197.168H183.997V206.527H181.99ZM198.907 206.527V197.168H195.709V195.554H204.127V197.168H200.914V206.527H198.907ZM212.317 206.715C211.22 206.715 210.258 206.475 209.433 205.994C208.618 205.514 207.975 204.85 207.504 204.003C207.045 203.146 206.815 202.159 206.815 201.041C206.815 199.922 207.045 198.94 207.504 198.093C207.975 197.236 208.618 196.567 209.433 196.087C210.258 195.606 211.22 195.366 212.317 195.366C213.404 195.366 214.36 195.606 215.186 196.087C216.012 196.567 216.654 197.236 217.114 198.093C217.574 198.94 217.804 199.922 217.804 201.041C217.804 202.159 217.574 203.146 217.114 204.003C216.654 204.85 216.012 205.514 215.186 205.994C214.36 206.475 213.404 206.715 212.317 206.715ZM212.317 204.913C213.362 204.913 214.193 204.568 214.81 203.878C215.437 203.188 215.75 202.242 215.75 201.041C215.75 199.839 215.437 198.893 214.81 198.203C214.193 197.513 213.362 197.168 212.317 197.168C211.272 197.168 210.436 197.513 209.809 198.203C209.182 198.893 208.868 199.839 208.868 201.041C208.868 202.242 209.182 203.188 209.809 203.878C210.436 204.568 211.272 204.913 212.317 204.913ZM226.677 206.715C225.58 206.715 224.618 206.475 223.793 205.994C222.978 205.514 222.335 204.85 221.865 204.003C221.405 203.146 221.175 202.159 221.175 201.041C221.175 199.922 221.405 198.94 221.865 198.093C222.335 197.236 222.978 196.567 223.793 196.087C224.618 195.606 225.58 195.366 226.677 195.366C227.764 195.366 228.72 195.606 229.546 196.087C230.372 196.567 231.014 197.236 231.474 198.093C231.934 198.94 232.164 199.922 232.164 201.041C232.164 202.159 231.934 203.146 231.474 204.003C231.014 204.85 230.372 205.514 229.546 205.994C228.72 206.475 227.764 206.715 226.677 206.715ZM226.677 204.913C227.722 204.913 228.553 204.568 229.17 203.878C229.797 203.188 230.11 202.242 230.11 201.041C230.11 199.839 229.797 198.893 229.17 198.203C228.553 197.513 227.722 197.168 226.677 197.168C225.632 197.168 224.796 197.513 224.169 198.203C223.542 198.893 223.228 199.839 223.228 201.041C223.228 202.242 223.542 203.188 224.169 203.878C224.796 204.568 225.632 204.913 226.677 204.913ZM235.895 206.527V195.554H237.902V204.96H242.762V206.527H235.895Z" fill="black"/>
<path d="M566.881 323.523V312.55H570.941C571.819 312.55 572.545 312.696 573.12 312.989C573.695 313.281 574.123 313.684 574.405 314.196C574.688 314.708 574.829 315.283 574.829 315.92C574.829 316.526 574.693 317.086 574.421 317.598C574.149 318.099 573.726 318.507 573.151 318.82C572.576 319.124 571.84 319.275 570.941 319.275H568.887V323.523H566.881ZM568.887 317.645H570.815C571.516 317.645 572.017 317.493 572.32 317.19C572.634 316.877 572.791 316.453 572.791 315.92C572.791 315.377 572.634 314.954 572.32 314.65C572.017 314.337 571.516 314.18 570.815 314.18H568.887V317.645ZM579.403 323.523V312.55H586.567V314.164H581.41V317.174H586.097V318.742H581.41V321.909H586.567V323.523H579.403ZM591.466 323.523V312.55H595.495C596.373 312.55 597.094 312.701 597.658 313.004C598.233 313.297 598.662 313.699 598.944 314.212C599.226 314.713 599.367 315.272 599.367 315.889C599.367 316.558 599.189 317.169 598.834 317.723C598.489 318.277 597.946 318.679 597.204 318.93L599.477 323.523H597.172L595.134 319.197H593.473V323.523H591.466ZM593.473 317.723H595.369C596.038 317.723 596.53 317.561 596.843 317.237C597.157 316.913 597.313 316.485 597.313 315.952C597.313 315.429 597.157 315.011 596.843 314.698C596.54 314.384 596.044 314.227 595.354 314.227H593.473V317.723ZM604.233 323.523V312.55H606.24V323.523H604.233ZM616.509 323.712C615.411 323.712 614.45 323.471 613.624 322.99C612.809 322.51 612.166 321.846 611.696 321C611.236 320.143 611.006 319.155 611.006 318.037C611.006 316.918 611.236 315.936 611.696 315.089C612.166 314.232 612.809 313.564 613.624 313.083C614.45 312.602 615.411 312.362 616.509 312.362C617.596 312.362 618.552 312.602 619.377 313.083C620.203 313.564 620.846 314.232 621.306 315.089C621.766 315.936 621.995 316.918 621.995 318.037C621.995 319.155 621.766 320.143 621.306 321C620.846 321.846 620.203 322.51 619.377 322.99C618.552 323.471 617.596 323.712 616.509 323.712ZM616.509 321.909C617.554 321.909 618.385 321.564 619.001 320.874C619.628 320.184 619.942 319.238 619.942 318.037C619.942 316.835 619.628 315.889 619.001 315.199C618.385 314.509 617.554 314.164 616.509 314.164C615.464 314.164 614.627 314.509 614 315.199C613.373 315.889 613.06 316.835 613.06 318.037C613.06 319.238 613.373 320.184 614 320.874C614.627 321.564 615.464 321.909 616.509 321.909ZM626.767 323.523V312.55H630.514C631.799 312.55 632.855 312.78 633.681 313.24C634.517 313.689 635.133 314.326 635.53 315.152C635.938 315.967 636.142 316.929 636.142 318.037C636.142 319.144 635.938 320.111 635.53 320.937C635.133 321.752 634.517 322.389 633.681 322.849C632.855 323.299 631.799 323.523 630.514 323.523H626.767ZM628.774 321.799H630.42C631.34 321.799 632.066 321.653 632.599 321.36C633.132 321.057 633.513 320.628 633.743 320.075C633.973 319.51 634.088 318.831 634.088 318.037C634.088 317.253 633.973 316.579 633.743 316.014C633.513 315.45 633.132 315.016 632.599 314.713C632.066 314.41 631.34 314.259 630.42 314.259H628.774V321.799ZM640.912 323.523V312.55H642.919V323.523H640.912ZM653.015 323.712C651.907 323.712 650.956 323.476 650.162 323.006C649.368 322.525 648.756 321.862 648.328 321.015C647.899 320.158 647.685 319.171 647.685 318.052C647.685 316.934 647.899 315.946 648.328 315.089C648.756 314.232 649.368 313.564 650.162 313.083C650.956 312.602 651.907 312.362 653.015 312.362C654.332 312.362 655.409 312.691 656.245 313.349C657.091 313.997 657.619 314.912 657.828 316.093H655.618C655.482 315.497 655.189 315.032 654.74 314.698C654.301 314.353 653.715 314.18 652.984 314.18C651.97 314.18 651.176 314.525 650.601 315.215C650.026 315.905 649.739 316.85 649.739 318.052C649.739 319.254 650.026 320.2 650.601 320.89C651.176 321.569 651.97 321.909 652.984 321.909C653.715 321.909 654.301 321.752 654.74 321.438C655.189 321.114 655.482 320.67 655.618 320.106H657.828C657.619 321.235 657.091 322.118 656.245 322.755C655.409 323.393 654.332 323.712 653.015 323.712ZM669.34 323.523V312.55H671.346V323.523H669.34ZM676.473 323.523V312.55H678.48L683.637 320.278V312.55H685.644V323.523H683.637L678.48 315.811V323.523H676.473ZM690.771 323.523V312.55H694.518C695.803 312.55 696.859 312.78 697.685 313.24C698.521 313.689 699.137 314.326 699.535 315.152C699.942 315.967 700.146 316.929 700.146 318.037C700.146 319.144 699.942 320.111 699.535 320.937C699.137 321.752 698.521 322.389 697.685 322.849C696.859 323.299 695.803 323.523 694.518 323.523H690.771ZM692.778 321.799H694.424C695.344 321.799 696.07 321.653 696.603 321.36C697.136 321.057 697.517 320.628 697.747 320.075C697.977 319.51 698.092 318.831 698.092 318.037C698.092 317.253 697.977 316.579 697.747 316.014C697.517 315.45 697.136 315.016 696.603 314.713C696.07 314.41 695.344 314.259 694.424 314.259H692.778V321.799ZM704.916 323.523V312.55H712.081V314.164H706.923V317.174H711.61V318.742H706.923V321.909H712.081V323.523H704.916ZM716.979 323.523V312.55H721.04C721.918 312.55 722.644 312.696 723.219 312.989C723.794 313.281 724.222 313.684 724.504 314.196C724.786 314.708 724.927 315.283 724.927 315.92C724.927 316.526 724.792 317.086 724.52 317.598C724.248 318.099 723.825 318.507 723.25 318.82C722.675 319.124 721.938 319.275 721.04 319.275H718.986V323.523H716.979ZM718.986 317.645H720.914C721.615 317.645 722.116 317.493 722.419 317.19C722.733 316.877 722.89 316.453 722.89 315.92C722.89 315.377 722.733 314.954 722.419 314.65C722.116 314.337 721.615 314.18 720.914 314.18H718.986V317.645ZM729.502 323.523V312.55H736.666V314.164H731.508V317.174H736.196V318.742H731.508V321.909H736.666V323.523H729.502ZM741.565 323.523V312.55H743.571L748.729 320.278V312.55H750.736V323.523H748.729L743.571 315.811V323.523H741.565ZM755.863 323.523V312.55H759.61C760.895 312.55 761.951 312.78 762.776 313.24C763.612 313.689 764.229 314.326 764.626 315.152C765.034 315.967 765.238 316.929 765.238 318.037C765.238 319.144 765.034 320.111 764.626 320.937C764.229 321.752 763.612 322.389 762.776 322.849C761.951 323.299 760.895 323.523 759.61 323.523H755.863ZM757.87 321.799H759.516C760.435 321.799 761.162 321.653 761.695 321.36C762.228 321.057 762.609 320.628 762.839 320.075C763.069 319.51 763.184 318.831 763.184 318.037C763.184 317.253 763.069 316.579 762.839 316.014C762.609 315.45 762.228 315.016 761.695 314.713C761.162 314.41 760.435 314.259 759.516 314.259H757.87V321.799ZM770.008 323.523V312.55H777.172V314.164H772.015V317.174H776.702V318.742H772.015V321.909H777.172V323.523H770.008ZM782.071 323.523V312.55H784.078L789.235 320.278V312.55H791.242V323.523H789.235L784.078 315.811V323.523H782.071ZM798.925 323.523V314.164H795.727V312.55H804.145V314.164H800.931V323.523H798.925ZM649.131 347.523V338.164H645.933V336.55H654.352V338.164H651.138V347.523H649.131ZM658.838 347.523V336.55H666.002V338.164H660.845V341.174H665.532V342.742H660.845V345.909H666.002V347.523H658.838ZM674.648 347.712C673.843 347.712 673.132 347.576 672.516 347.304C671.899 347.022 671.413 346.625 671.058 346.113C670.703 345.59 670.52 344.958 670.509 344.216H672.626C672.646 344.728 672.829 345.161 673.174 345.517C673.53 345.862 674.016 346.034 674.632 346.034C675.165 346.034 675.588 345.909 675.902 345.658C676.216 345.397 676.372 345.052 676.372 344.623C676.372 344.174 676.231 343.824 675.949 343.573C675.677 343.322 675.312 343.118 674.852 342.962C674.392 342.805 673.901 342.638 673.378 342.46C672.532 342.167 671.884 341.791 671.434 341.331C670.995 340.871 670.776 340.26 670.776 339.497C670.765 338.849 670.917 338.295 671.23 337.835C671.554 337.365 671.993 337.004 672.547 336.754C673.101 336.492 673.739 336.362 674.46 336.362C675.191 336.362 675.834 336.492 676.388 336.754C676.952 337.015 677.391 337.381 677.705 337.851C678.029 338.321 678.201 338.88 678.222 339.528H676.074C676.064 339.142 675.912 338.802 675.62 338.509C675.338 338.206 674.941 338.055 674.428 338.055C673.989 338.044 673.618 338.154 673.315 338.384C673.023 338.603 672.876 338.927 672.876 339.356C672.876 339.722 672.991 340.014 673.221 340.234C673.451 340.443 673.765 340.62 674.162 340.767C674.559 340.913 675.014 341.07 675.526 341.237C676.069 341.425 676.566 341.645 677.015 341.896C677.464 342.146 677.825 342.481 678.097 342.899C678.368 343.306 678.504 343.834 678.504 344.482C678.504 345.057 678.358 345.59 678.065 346.081C677.773 346.572 677.339 346.97 676.764 347.273C676.189 347.565 675.484 347.712 674.648 347.712ZM685.673 347.523V338.164H682.475V336.55H690.893V338.164H687.679V347.523H685.673ZM695.379 347.523V336.55H697.386V347.523H695.379ZM702.513 347.523V336.55H704.519L709.677 344.278V336.55H711.684V347.523H709.677L704.519 339.811V347.523H702.513ZM721.608 347.712C720.573 347.712 719.669 347.476 718.896 347.006C718.123 346.536 717.522 345.883 717.093 345.047C716.665 344.2 716.45 343.218 716.45 342.099C716.45 340.971 716.67 339.978 717.109 339.121C717.558 338.253 718.191 337.579 719.006 337.098C719.831 336.607 720.809 336.362 721.937 336.362C723.223 336.362 724.289 336.67 725.135 337.287C725.982 337.903 726.531 338.755 726.781 339.842H724.54C724.372 339.33 724.069 338.933 723.63 338.65C723.191 338.358 722.627 338.212 721.937 338.212C720.84 338.212 719.993 338.562 719.398 339.262C718.802 339.952 718.504 340.903 718.504 342.115C718.504 343.327 718.797 344.268 719.382 344.937C719.978 345.595 720.782 345.924 721.796 345.924C722.789 345.924 723.536 345.658 724.038 345.125C724.55 344.581 724.858 343.871 724.963 342.993H722.188V341.488H726.985V347.523H725.135L724.979 346.081C724.623 346.604 724.179 347.006 723.646 347.288C723.113 347.57 722.434 347.712 721.608 347.712Z" fill="black"/>
<path d="M404.844 130.871V112.956H408.734L414.441 124.319L420.072 112.956H423.962V130.871H420.686V118.51L415.695 128.312H413.111L408.12 118.51V130.871H404.844ZM432.335 130.871V112.956H443.903V115.592H435.611V120.609H442.316V123.193H435.611V130.871H432.335ZM451.329 130.871V112.956H454.604V130.871H451.329ZM480.087 131.178C478.773 131.178 477.613 130.956 476.606 130.513C475.599 130.052 474.806 129.404 474.226 128.568C473.646 127.715 473.347 126.682 473.33 125.471H476.785C476.819 126.307 477.118 127.015 477.681 127.595C478.261 128.158 479.054 128.44 480.061 128.44C480.931 128.44 481.622 128.235 482.134 127.826C482.646 127.399 482.902 126.836 482.902 126.136C482.902 125.403 482.671 124.831 482.211 124.422C481.767 124.012 481.17 123.68 480.419 123.424C479.669 123.168 478.867 122.895 478.014 122.605C476.632 122.127 475.574 121.513 474.84 120.762C474.123 120.011 473.765 119.013 473.765 117.768C473.748 116.71 473.996 115.806 474.507 115.055C475.036 114.287 475.753 113.699 476.657 113.289C477.561 112.863 478.602 112.649 479.779 112.649C480.974 112.649 482.023 112.863 482.927 113.289C483.849 113.716 484.565 114.313 485.077 115.081C485.606 115.848 485.887 116.761 485.922 117.819H482.415C482.398 117.188 482.151 116.633 481.673 116.155C481.213 115.661 480.564 115.413 479.728 115.413C479.012 115.396 478.406 115.575 477.911 115.951C477.433 116.309 477.195 116.838 477.195 117.537C477.195 118.135 477.382 118.612 477.758 118.971C478.133 119.312 478.645 119.602 479.293 119.841C479.942 120.08 480.684 120.336 481.52 120.609C482.407 120.916 483.217 121.274 483.951 121.683C484.685 122.093 485.273 122.639 485.717 123.321C486.16 123.987 486.382 124.848 486.382 125.906C486.382 126.845 486.143 127.715 485.666 128.517C485.188 129.318 484.48 129.967 483.542 130.462C482.603 130.939 481.451 131.178 480.087 131.178ZM502.251 131.178C500.442 131.178 498.89 130.794 497.593 130.027C496.296 129.242 495.298 128.158 494.599 126.776C493.899 125.377 493.549 123.765 493.549 121.939C493.549 120.114 493.899 118.501 494.599 117.102C495.298 115.703 496.296 114.611 497.593 113.827C498.89 113.042 500.442 112.649 502.251 112.649C504.401 112.649 506.158 113.187 507.523 114.262C508.905 115.319 509.766 116.812 510.108 118.74H506.499C506.277 117.768 505.8 117.009 505.066 116.463C504.349 115.899 503.394 115.618 502.2 115.618C500.545 115.618 499.248 116.181 498.31 117.307C497.371 118.433 496.902 119.977 496.902 121.939C496.902 123.901 497.371 125.445 498.31 126.572C499.248 127.681 500.545 128.235 502.2 128.235C503.394 128.235 504.349 127.979 505.066 127.467C505.8 126.938 506.277 126.213 506.499 125.292H510.108C509.766 127.135 508.905 128.576 507.523 129.617C506.158 130.658 504.401 131.178 502.251 131.178ZM526.299 131.178C524.508 131.178 522.938 130.786 521.59 130.001C520.26 129.216 519.21 128.133 518.442 126.751C517.692 125.352 517.316 123.739 517.316 121.914C517.316 120.088 517.692 118.484 518.442 117.102C519.21 115.703 520.26 114.611 521.59 113.827C522.938 113.042 524.508 112.649 526.299 112.649C528.074 112.649 529.635 113.042 530.983 113.827C532.331 114.611 533.38 115.703 534.131 117.102C534.881 118.484 535.257 120.088 535.257 121.914C535.257 123.739 534.881 125.352 534.131 126.751C533.38 128.133 532.331 129.216 530.983 130.001C529.635 130.786 528.074 131.178 526.299 131.178ZM526.299 128.235C528.006 128.235 529.362 127.672 530.369 126.546C531.392 125.42 531.904 123.876 531.904 121.914C531.904 119.952 531.392 118.408 530.369 117.281C529.362 116.155 528.006 115.592 526.299 115.592C524.593 115.592 523.228 116.155 522.205 117.281C521.181 118.408 520.669 119.952 520.669 121.914C520.669 123.876 521.181 125.42 522.205 126.546C523.228 127.672 524.593 128.235 526.299 128.235ZM543.047 130.871V112.956H549.624C551.057 112.956 552.234 113.204 553.156 113.699C554.094 114.176 554.794 114.833 555.254 115.669C555.715 116.488 555.945 117.401 555.945 118.408C555.945 119.5 555.655 120.498 555.075 121.402C554.512 122.306 553.625 122.963 552.414 123.372L556.124 130.871H552.362L549.035 123.808H546.323V130.871H543.047ZM546.323 121.402H549.419C550.511 121.402 551.313 121.137 551.825 120.609C552.337 120.08 552.593 119.38 552.593 118.51C552.593 117.657 552.337 116.974 551.825 116.463C551.33 115.951 550.52 115.695 549.394 115.695H546.323V121.402ZM563.89 130.871V112.956H575.585V115.592H567.165V120.506H574.818V123.065H567.165V128.235H575.585V130.871H563.89Z" fill="white"/>
<path d="M789.493 48.8008V37.8271H791.5V48.8008H789.493ZM796.626 48.8008V37.8271H798.633L803.791 45.5557V37.8271H805.797V48.8008H803.791L798.633 41.0879V48.8008H796.626ZM810.925 48.8008V37.8271H814.671C815.957 37.8271 817.012 38.0571 817.838 38.5169C818.674 38.9663 819.291 39.6038 819.688 40.4295C820.095 41.2447 820.299 42.2062 820.299 43.314C820.299 44.4218 820.095 45.3885 819.688 46.2141C819.291 47.0293 818.674 47.6668 817.838 48.1267C817.012 48.5761 815.957 48.8008 814.671 48.8008H810.925ZM812.931 47.0764H814.577C815.497 47.0764 816.223 46.93 816.756 46.6374C817.289 46.3343 817.671 45.9058 817.901 45.3519C818.131 44.7876 818.246 44.1082 818.246 43.314C818.246 42.5301 818.131 41.856 817.901 41.2917C817.671 40.7273 817.289 40.2936 816.756 39.9905C816.223 39.6874 815.497 39.5359 814.577 39.5359H812.931V47.0764ZM829.302 48.9889C828.498 48.9889 827.771 48.8321 827.123 48.5186C826.475 48.1946 825.958 47.7086 825.571 47.0607C825.195 46.4127 825.007 45.5923 825.007 44.5994V37.8271H827.014V44.6151C827.014 45.4721 827.217 46.1096 827.625 46.5277C828.043 46.9457 828.618 47.1547 829.349 47.1547C830.071 47.1547 830.64 46.9457 831.058 46.5277C831.476 46.1096 831.685 45.4721 831.685 44.6151V37.8271H833.692V44.5994C833.692 45.5923 833.493 46.4127 833.096 47.0607C832.699 47.7086 832.166 48.1946 831.497 48.5186C830.839 48.8321 830.107 48.9889 829.302 48.9889ZM842.487 48.9889C841.682 48.9889 840.972 48.853 840.355 48.5813C839.738 48.2991 839.252 47.902 838.897 47.3899C838.542 46.8673 838.359 46.235 838.348 45.493H840.465C840.486 46.0051 840.668 46.4388 841.013 46.7942C841.369 47.1391 841.855 47.3115 842.471 47.3115C843.004 47.3115 843.428 47.1861 843.741 46.9353C844.055 46.674 844.211 46.3291 844.211 45.9006C844.211 45.4512 844.07 45.1011 843.788 44.8503C843.516 44.5994 843.151 44.3957 842.691 44.2389C842.231 44.0821 841.74 43.9149 841.217 43.7372C840.371 43.4446 839.723 43.0684 839.273 42.6085C838.834 42.1487 838.615 41.5373 838.615 40.7744C838.604 40.1264 838.756 39.5725 839.069 39.1126C839.393 38.6423 839.832 38.2818 840.386 38.0309C840.94 37.7697 841.578 37.639 842.299 37.639C843.03 37.639 843.673 37.7697 844.227 38.0309C844.791 38.2922 845.23 38.658 845.544 39.1283C845.868 39.5986 846.04 40.1577 846.061 40.8057H843.914C843.903 40.419 843.752 40.0794 843.459 39.7867C843.177 39.4836 842.78 39.3321 842.267 39.3321C841.829 39.3217 841.458 39.4314 841.154 39.6613C840.862 39.8808 840.715 40.2048 840.715 40.6333C840.715 40.9991 840.83 41.2917 841.06 41.5112C841.29 41.7202 841.604 41.8978 842.001 42.0442C842.398 42.1905 842.853 42.3472 843.365 42.5145C843.908 42.7026 844.405 42.922 844.854 43.1729C845.304 43.4237 845.664 43.7581 845.936 44.1762C846.208 44.5838 846.343 45.1116 846.343 45.7595C846.343 46.3343 846.197 46.8673 845.904 47.3585C845.612 47.8497 845.178 48.2469 844.603 48.55C844.028 48.8426 843.323 48.9889 842.487 48.9889ZM853.512 48.8008V39.4418H850.314V37.8271H858.732V39.4418H855.518V48.8008H853.512ZM863.218 48.8008V37.8271H867.247C868.125 37.8271 868.846 37.9787 869.411 38.2818C869.986 38.5744 870.414 38.9768 870.696 39.4889C870.978 39.9905 871.119 40.5497 871.119 41.1663C871.119 41.8351 870.942 42.4465 870.586 43.0004C870.242 43.5543 869.698 43.9567 868.956 44.2075L871.229 48.8008H868.925L866.887 44.474H865.225V48.8008H863.218ZM865.225 43.0004H867.122C867.791 43.0004 868.282 42.8384 868.596 42.5145C868.909 42.1905 869.066 41.762 869.066 41.229C869.066 40.7064 868.909 40.2884 868.596 39.9748C868.292 39.6613 867.796 39.5045 867.106 39.5045H865.225V43.0004ZM878.44 48.8008V44.8973L874.756 37.8271H877.03L879.459 42.8907L881.874 37.8271H884.115L880.447 44.8973V48.8008H878.44ZM895.136 48.8008V37.8271H902.301V39.4418H897.143V42.4518H901.83V44.0194H897.143V47.1861H902.301V48.8008H895.136ZM906.666 48.8008L910.1 43.2513L906.619 37.8271H908.924L911.385 41.6522L913.642 37.8271H915.9L912.467 43.3453L915.978 48.8008H913.674L911.181 44.9287L908.924 48.8008H906.666ZM920.533 48.8008V37.8271H924.593C925.471 37.8271 926.198 37.9735 926.772 38.2661C927.347 38.5587 927.776 38.9611 928.058 39.4732C928.34 39.9853 928.481 40.5601 928.481 41.1976C928.481 41.8038 928.345 42.3629 928.074 42.875C927.802 43.3767 927.379 43.7843 926.804 44.0978C926.229 44.4009 925.492 44.5524 924.593 44.5524H922.54V48.8008H920.533ZM922.54 42.922H924.468C925.168 42.922 925.67 42.7705 925.973 42.4674C926.286 42.1539 926.443 41.7306 926.443 41.1976C926.443 40.6542 926.286 40.2309 925.973 39.9278C925.67 39.6143 925.168 39.4575 924.468 39.4575H922.54V42.922ZM933.055 48.8008V37.8271H940.22V39.4418H935.062V42.4518H939.749V44.0194H935.062V47.1861H940.22V48.8008H933.055ZM945.118 48.8008V37.8271H949.147C950.025 37.8271 950.746 37.9787 951.311 38.2818C951.885 38.5744 952.314 38.9768 952.596 39.4889C952.878 39.9905 953.019 40.5497 953.019 41.1663C953.019 41.8351 952.842 42.4465 952.486 43.0004C952.142 43.5543 951.598 43.9567 950.856 44.2075L953.129 48.8008H950.825L948.787 44.474H947.125V48.8008H945.118ZM947.125 43.0004H949.022C949.691 43.0004 950.182 42.8384 950.495 42.5145C950.809 42.1905 950.966 41.762 950.966 41.229C950.966 40.7064 950.809 40.2884 950.495 39.9748C950.192 39.6613 949.696 39.5045 949.006 39.5045H947.125V43.0004ZM960.441 48.8008V39.4418H957.243V37.8271H965.661V39.4418H962.448V48.8008H960.441ZM851.742 72.9889C850.708 72.9889 849.804 72.7538 849.03 72.2835C848.257 71.8132 847.656 71.16 847.228 70.3239C846.799 69.4773 846.585 68.4949 846.585 67.3767C846.585 66.248 846.804 65.2551 847.243 64.3981C847.693 63.5307 848.325 62.8566 849.14 62.3758C849.966 61.8846 850.943 61.639 852.072 61.639C853.357 61.639 854.423 61.9473 855.27 62.5639C856.116 63.1806 856.665 64.0323 856.916 65.1192H854.674C854.507 64.6071 854.204 64.21 853.765 63.9278C853.326 63.6352 852.761 63.4889 852.072 63.4889C850.974 63.4889 850.128 63.839 849.532 64.5392C848.936 65.229 848.638 66.18 848.638 67.3923C848.638 68.6047 848.931 69.5453 849.516 70.2141C850.112 70.8726 850.917 71.2018 851.931 71.2018C852.923 71.2018 853.671 70.9353 854.172 70.4023C854.684 69.8588 854.993 69.1481 855.097 68.2702H852.322V66.7653H857.119V72.8008H855.27L855.113 71.3585C854.758 71.8811 854.313 72.2835 853.78 72.5656C853.247 72.8478 852.568 72.9889 851.742 72.9889ZM862.07 72.8008V61.8271H866.099C866.977 61.8271 867.698 61.9787 868.263 62.2818C868.837 62.5744 869.266 62.9768 869.548 63.4889C869.83 63.9905 869.971 64.5497 869.971 65.1663C869.971 65.8351 869.794 66.4465 869.438 67.0004C869.093 67.5543 868.55 67.9567 867.808 68.2075L870.081 72.8008H867.777L865.739 68.474H864.077V72.8008H862.07ZM864.077 67.0004H865.974C866.643 67.0004 867.134 66.8384 867.447 66.5145C867.761 66.1905 867.918 65.762 867.918 65.229C867.918 64.7064 867.761 64.2884 867.447 63.9748C867.144 63.6613 866.648 63.5045 865.958 63.5045H864.077V67.0004ZM879.979 72.9889C878.882 72.9889 877.921 72.7485 877.095 72.2678C876.28 71.787 875.637 71.1234 875.167 70.2768C874.707 69.4199 874.477 68.4322 874.477 67.314C874.477 66.1957 874.707 65.2133 875.167 64.3668C875.637 63.5098 876.28 62.8409 877.095 62.3602C877.921 61.8794 878.882 61.639 879.979 61.639C881.066 61.639 882.023 61.8794 882.848 62.3602C883.674 62.8409 884.317 63.5098 884.777 64.3668C885.236 65.2133 885.466 66.1957 885.466 67.314C885.466 68.4322 885.236 69.4199 884.777 70.2768C884.317 71.1234 883.674 71.787 882.848 72.2678C882.023 72.7485 881.066 72.9889 879.979 72.9889ZM879.979 71.1861C881.025 71.1861 881.855 70.8412 882.472 70.1514C883.099 69.4617 883.413 68.5158 883.413 67.314C883.413 66.1121 883.099 65.1663 882.472 64.4765C881.855 63.7867 881.025 63.4418 879.979 63.4418C878.934 63.4418 878.098 63.7867 877.471 64.4765C876.844 65.1663 876.531 66.1121 876.531 67.314C876.531 68.5158 876.844 69.4617 877.471 70.1514C878.098 70.8412 878.934 71.1861 879.979 71.1861ZM894.471 72.9889C893.666 72.9889 892.94 72.8321 892.292 72.5186C891.644 72.1946 891.126 71.7086 890.74 71.0607C890.363 70.4127 890.175 69.5923 890.175 68.5994V61.8271H892.182V68.6151C892.182 69.4721 892.386 70.1096 892.793 70.5277C893.211 70.9457 893.786 71.1547 894.518 71.1547C895.239 71.1547 895.808 70.9457 896.226 70.5277C896.644 70.1096 896.854 69.4721 896.854 68.6151V61.8271H898.86V68.5994C898.86 69.5923 898.662 70.4127 898.264 71.0607C897.867 71.7086 897.334 72.1946 896.665 72.5186C896.007 72.8321 895.275 72.9889 894.471 72.9889ZM903.908 72.8008V61.8271H907.969C908.847 61.8271 909.573 61.9735 910.148 62.2661C910.723 62.5587 911.151 62.9611 911.433 63.4732C911.715 63.9853 911.857 64.5601 911.857 65.1976C911.857 65.8038 911.721 66.3629 911.449 66.875C911.177 67.3767 910.754 67.7843 910.179 68.0978C909.604 68.4009 908.868 68.5524 907.969 68.5524H905.915V72.8008H903.908ZM905.915 66.922H907.843C908.544 66.922 909.045 66.7705 909.348 66.4674C909.662 66.1539 909.819 65.7306 909.819 65.1976C909.819 64.6542 909.662 64.2309 909.348 63.9278C909.045 63.6143 908.544 63.4575 907.843 63.4575H905.915V66.922Z" fill="black"/>
<defs>
<clipPath id="clip0">
<rect width="851" height="381" fill="white" transform="translate(88 34)"/>
</clipPath>
<clipPath id="clip1">
<rect x="0.635742" y="150.172" width="272.091" height="110.304" rx="14.7079" fill="white"/>
</clipPath>
<clipPath id="clip2">
<rect x="552.645" y="275.047" width="272.091" height="110.304" rx="14.7079" fill="white"/>
</clipPath>
<clipPath id="clip3">
<rect x="744.577" y="0.648438" width="272.091" height="110.304" rx="14.7079" fill="white"/>
</clipPath>
</defs>
</svg>
