<?xml version="1.0" encoding="UTF-8"?> <svg xmlns="http://www.w3.org/2000/svg" viewBox="0 0 3000 563.26313"><defs><style> .a { fill: #00b0af; } .b { fill: #1f2171; } .c { fill: #2c2a6e; } </style></defs><g><g><g><path class="a" d="M678.986,266.47692h35.20321V62.22064H654.01685v42.979H618.81364V30.29029h227.999v74.90933H811.60946v-42.979H751.43889V266.47692H786.6421v33.15677H678.986Z"></path><path class="a" d="M889.39615,222.67792c4.91111,33.56678,29.47026,49.93834,63.85526,49.93834,22.51271,0,41.75256-6.95574,62.62885-18.828l-2.86648,32.33674c-18.41982,11.46227-40.93253,16.7852-65.08349,16.7852-56.89771,0-95.3756-36.84327-95.3756-90.8745,0-49.52833,33.975-92.10093,87.598-92.10093,54.44125,0,83.09511,38.88972,83.09511,83.91514a128.81594,128.81594,0,0,1-1.63824,18.828Zm0-26.19741h98.64846c-1.63825-28.24384-18.82984-47.48188-48.71011-47.48188C915.59355,148.99863,893.89906,164.55379,889.39615,196.48051Z"></path><path class="a" d="M1053.95539,210.80926c0-47.48551,38.06787-90.87451,88.41623-90.87451,43.799,0,75.72754,28.65387,75.72754,55.6713,0,15.55516-10.644,26.1974-24.96917,26.1974a22.00217,22.00217,0,0,1-22.10451-22.10451,18.60868,18.60868,0,0,1,7.36756-14.73513c-4.09289-8.18941-18.82983-15.96518-36.02142-15.96518-23.74094,0-52.80482,20.05807-52.80482,62.627,0,36.43326,26.60742,60.9906,63.03886,60.9906,20.46626,0,38.88609-6.13934,60.58058-18.828l-3.27467,32.33674c-18.00981,11.46227-38.88609,16.7852-60.58059,16.7852C1094.47972,302.91018,1053.95539,265.25051,1053.95539,210.80926Z"></path><path class="a" d="M1247.9867,30.29029V0h62.62884V152.68151c16.78158-18.008,37.65786-32.74676,62.627-32.74676,20.05807,0,35.20321,6.95937,44.209,18.83165,7.77577,10.23223,11.87048,24.151,11.87048,40.52252V270.1598h27.42563v29.47389h-88.82625V270.1598h26.1974V187.06832c0-11.46227-2.45646-19.24167-6.95755-24.971-5.32293-6.54935-13.50871-9.82584-24.15095-9.82584-19.23986,0-37.65968,11.46227-52.39481,26.60742V270.1598h26.1974v29.47389H1247.9867V270.1598h27.42563V30.29029Z"></path><path class="a" d="M1541.48831,153.91155c16.78339-18.01162,38.8879-33.9768,64.26528-33.9768,22.10451,0,37.24965,8.5958,46.25546,22.51453,5.73114,9.82221,9.00581,22.10451,9.00581,36.83964V270.1598h27.42382v29.47389h-88.82443V270.1598h26.1974V187.06832c0-8.59943-1.22823-15.55516-4.09289-20.8781-4.91292-9.41582-13.50871-13.91873-26.1974-13.91873-19.238,0-37.65967,11.46227-52.80482,26.60742V270.1598h26.1974v29.47389h-88.41623V270.1598h27.42563V153.50154h-27.42563v-30.2903h60.9906Z"></path><path class="a" d="M1710.14406,211.62566c0-49.52833,36.02143-91.69091,92.10093-91.69091,56.07767,0,92.0991,41.75257,92.0991,91.69091,0,49.12194-36.43144,91.28452-92.0991,91.28452C1745.75729,302.91018,1710.14406,261.15762,1710.14406,211.62566Zm147.76859,0c0-36.01961-22.92091-61.807-55.66766-61.807-33.15677,0-56.0795,25.78739-56.0795,61.807,0,36.02324,22.92273,61.40062,56.0795,61.40062C1834.99174,273.02628,1857.91265,247.6489,1857.91265,211.62566Z"></path><path class="b" d="M1930.37278,245.60246c0-17.19159,10.23222-28.24385,24.55915-28.24385,14.73695,0,24.55916,11.05226,24.55916,22.5109a29.94373,29.94373,0,0,1-5.3193,17.6016c9.414,8.18941,27.42381,14.32875,49.11831,14.32875,32.74675,0,53.62485-15.96518,53.62485-42.57259,0-25.37738-24.561-37.24966-53.21484-47.8919-48.30191-18.01162-83.09511-34.38318-83.09511-82.27508,0-42.16258,33.56679-73.67929,85.55157-73.67929,47.07369,0,83.91333,25.37737,83.91333,55.25765,0,16.78521-10.64224,26.60742-23.74094,26.60742-15.55516,0-24.96917-11.46227-24.96917-23.74094a23.8448,23.8448,0,0,1,4.5029-14.32512c-7.36938-6.54935-23.33274-11.46227-40.11613-11.46227-29.88028,0-47.8919,15.96155-47.8919,38.47607,0,25.78739,24.151,36.83965,54.85126,48.71193,46.25547,17.19159,81.04867,33.97317,81.04867,81.45868,0,49.11832-38.47789,78.18219-91.28271,78.18219C1969.66888,304.54661,1930.37278,274.66271,1930.37278,245.60246Z"></path><path class="b" d="M2185.39469,222.67792c4.91292,33.56678,29.47208,49.93834,63.85707,49.93834,22.51271,0,41.75075-6.95574,62.627-18.828l-2.86466,32.33674c-18.41982,11.46227-40.93435,16.7852-65.0853,16.7852-56.89771,0-95.37378-36.84327-95.37378-90.8745,0-49.52833,33.97316-92.10093,87.598-92.10093,54.44125,0,83.09511,38.88972,83.09511,83.91514a129.06857,129.06857,0,0,1-1.63824,18.828Zm0-26.19741H2284.045c-1.63824-28.24384-18.82984-47.48188-48.71193-47.48188C2211.59209,148.99863,2189.89759,164.55379,2185.39469,196.48051Z"></path><path class="b" d="M2494.04145,145.72577c0,12.68869-10.234,23.74094-22.51453,23.74094a24.99734,24.99734,0,0,1-23.33093-15.14514c-13.0987,4.09289-28.24566,18.828-36.84145,35.60959V270.1598h32.33855v29.47389h-94.55738V270.1598h27.42563V153.50154h-27.42563v-30.2903h60.9906v40.11251c13.91873-24.151,34.385-43.389,54.85126-43.389C2484.21561,119.93475,2494.04145,131.807,2494.04145,145.72577Z"></path><path class="b" d="M2523.519,153.50154h-22.1027v-30.2903H2586.966v29.06025h-27.01562l47.8919,106.01965L2655.736,152.27149h-28.24566V123.21124h85.55157v30.2903h-22.10451l-72.45106,151.04507h-22.51452Z"></path><path class="b" d="M2761.35292,222.67792c4.91292,33.56678,29.47207,49.93834,63.85707,49.93834,22.51271,0,41.75075-6.95574,62.627-18.828l-2.86466,32.33674c-18.41982,11.46227-40.93435,16.7852-65.0853,16.7852-56.89771,0-95.37379-36.84327-95.37379-90.8745,0-49.52833,33.97317-92.10093,87.598-92.10093,54.44125,0,83.09511,38.88972,83.09511,83.91514a129.06857,129.06857,0,0,1-1.63824,18.828Zm0-26.19741h98.65027c-1.63825-28.24384-18.82984-47.48188-48.71193-47.48188C2787.55032,148.99863,2765.85582,164.55379,2761.35292,196.48051Z"></path></g><g><path class="b" d="M131.32262,426.36169a192.59439,192.59439,0,0,1-77.616-154.83751c0-106.22126,85.03121-192.32455,189.95361-192.32455,80.83228,0,166.22577,26.98926,216.85161,80.13722C420.1413,79.56191,338.28118,24.84315,243.6602,24.84315,109.07523,24.84315,0,135.27808,0,271.52418c0,4.57595.4222,9.01639.649,13.54717,6.32834,70.06442,61.60572,117.24631,130.67365,141.29034"></path><path class="a" d="M433.0949,161.505c-50.62683-46.54767-119.2707-63.478-189.44023-63.478-59.18963,0-111.3411,30.342-142.12093,76.49785-5.7245,8.53247-11.20661,17.429-14.80177,27.23079,42.42527-17.97287,159.113,45.95864,223.6031-8.72968,47.59025-40.41661,142.45373,7.92954,119.91952,115.08646-18.62176,88.3839-94.01711,155.72891-186.59992,155.72891-80.848,0-166.211-26.97357-216.82211-80.10678C67.204,463.46429,149.04842,518.19784,243.65467,518.19784c120.14635,0,219.31377-88.12673,240.05026-203.818C493.96032,256.94269,471.89462,197.20921,433.0949,161.505ZM311.45323,137.69973a5.05689,5.05689,0,0,1-6.04164,3.8062c-57.181-13.45683-152.40665,19.89118-169.89558,31.12736,12.79217-19.12054,112.12558-55.15665,172.17619-41.01949A5.06382,5.06382,0,0,1,311.45323,137.69973Z"></path></g><g><path class="b" d="M630.87218,511.318h12.98557v-78.957H630.87218V414.87258h45.53833c27.87778,0,41.55718,12.81351,41.55718,29.95509,0,13.16042-8.13854,21.64308-19.39372,25.45356,14.19837,4.1546,22.68383,12.4666,22.68383,26.665,0,18.87335-15.23773,31.86032-42.942,31.86032H630.87218Zm45.71178-48.1374c13.67941,0,21.29757-6.23329,21.29757-16.10082,0-9.69686-7.96508-15.06567-21.81654-15.06567H663.25148v31.16649Zm2.0787,48.48432c13.50455,0,22.509-5.54226,22.509-16.45053,0-10.56136-8.3106-16.44774-23.02935-16.44774H663.25148V511.665Z"></path><path class="b" d="M744.45361,520.14762a29.20776,29.20776,0,0,1-3.80908-15.23633V468.89637H729.38934V452.9662h30.12854v47.27011a16.85944,16.85944,0,0,0,1.55833,7.79163c1.73178,3.2901,4.84843,5.02189,9.35135,5.02189,6.57881,0,13.50594-3.81048,19.56578-8.82958V468.89637H778.21918V452.9662h30.64751v60.25709h11.25519v15.58324H790.68577V516.68685c-7.27264,7.09779-15.40978,13.50455-26.49151,13.50455C755.01637,530.1914,748.2641,526.38371,744.45361,520.14762Z"></path><path class="b" d="M885.56732,479.9781c-6.05984,0-10.21584-3.637-10.21584-9.34995a10.1429,10.1429,0,0,1,.34552-3.29011,30.37433,30.37433,0,0,0-10.73482-1.90524c-8.48405,0-12.64,3.81048-12.64,7.79162,0,4.32806,4.32945,6.58022,15.93016,9.69687,18.18092,4.84843,28.74367,9.34994,28.74367,23.02795,0,15.93016-14.89221,24.41562-32.03378,24.41562-11.6007,0-24.0687-4.1546-29.08919-9.17649a13.38682,13.38682,0,0,1-4.32946-10.21724,9.97856,9.97856,0,0,1,10.04378-10.21444c5.19395,0,10.21584,3.46356,10.21584,10.041a19.01323,19.01323,0,0,1-.34691,3.11665,37.90226,37.90226,0,0,0,13.6794,2.42561c7.61816,0,13.85146-2.59627,13.85146-8.13853,0-3.81049-3.2901-6.05984-14.89081-9.17649-20.95065-5.54227-29.78162-10.56416-29.78162-23.54833,0-11.77556,9.69686-24.0687,30.99443-24.0687,9.17649,0,20.25822,3.46356,25.45217,8.65611a13.389,13.389,0,0,1,4.156,9.69687C894.91726,475.8207,891.10818,479.9781,885.56732,479.9781Z"></path><path class="b" d="M909.457,513.22329h11.60071V468.89637H909.457V452.9662H939.931v60.25709h11.25519v15.58324H909.457Zm6.58022-84.32579c0-6.92713,6.05984-12.46659,12.81211-12.46659a12.52528,12.52528,0,0,1,12.468,12.46659c0,6.92713-6.06124,12.4666-12.81351,12.4666A12.52409,12.52409,0,0,1,916.03718,428.8975Z"></path><path class="b" d="M991.52779,465.08588c7.27265-7.09779,15.41119-13.50454,26.49292-13.50454,9.003,0,15.58324,3.63422,19.56578,9.69686,2.59768,4.1546,3.98254,9.34995,3.98254,15.58325v36.36184h11.25519v15.58324h-40.51783V513.22329h10.38929V481.53642a16.85941,16.85941,0,0,0-1.55832-7.79162c-1.73178-3.29011-4.84843-5.02189-9.35135-5.02189-6.57881,0-13.50594,3.81048-19.56578,8.82957v35.67081h10.38929v15.58324H962.09168V513.22329h11.25519V468.89637H962.09168V452.9662h29.43611Z"></path><path class="b" d="M1080.00538,497.29312c2.59627,11.77277,12.29313,16.96812,24.93319,16.96812,9.17789,0,18.70129-2.9432,27.53087-7.96508l-1.55833,16.96811c-7.96508,4.67777-17.66054,6.92713-28.74227,6.92713-24.76114,0-41.90271-15.58325-41.90271-39.13157,0-21.47243,15.06427-39.47849,38.43914-39.47849,24.24076,0,36.88082,16.27708,36.88082,36.36184a53.63337,53.63337,0,0,1-.8645,9.34994Zm-.17346-13.16042h36.88081c-.34551-10.3879-7.09919-17.315-18.18092-17.315C1090.22121,466.81767,1081.90922,471.6661,1079.83192,484.1327Z"></path><path class="b" d="M1201.90021,479.9781c-6.05984,0-10.21584-3.637-10.21584-9.34995a10.1429,10.1429,0,0,1,.34552-3.29011,30.37429,30.37429,0,0,0-10.73482-1.90524c-8.484,0-12.64,3.81048-12.64,7.79162,0,4.32806,4.32946,6.58022,15.93016,9.69687,18.18092,4.84843,28.74368,9.34994,28.74368,23.02795,0,15.93016-14.89222,24.41562-32.03379,24.41562-11.6007,0-24.0687-4.1546-29.08919-9.17649a13.38681,13.38681,0,0,1-4.32945-10.21724,9.97855,9.97855,0,0,1,10.04378-10.21444c5.19394,0,10.21583,3.46356,10.21583,10.041a19.01214,19.01214,0,0,1-.34691,3.11665,37.90226,37.90226,0,0,0,13.6794,2.42561c7.61817,0,13.85146-2.59627,13.85146-8.13853,0-3.81049-3.2901-6.05984-14.89081-9.17649-20.95065-5.54227-29.78162-10.56416-29.78162-23.54833,0-11.77556,9.69546-24.0687,30.99443-24.0687,9.17649,0,20.25822,3.46356,25.45217,8.65611a13.389,13.389,0,0,1,4.156,9.69687C1211.25016,475.8207,1207.44107,479.9781,1201.90021,479.9781Z"></path><path class="b" d="M1281.19851,479.9781c-6.05984,0-10.21584-3.637-10.21584-9.34995a10.14318,10.14318,0,0,1,.34551-3.29011,30.37423,30.37423,0,0,0-10.73481-1.90524c-8.48406,0-12.64,3.81048-12.64,7.79162,0,4.32806,4.32945,6.58022,15.93016,9.69687,18.18092,4.84843,28.74367,9.34994,28.74367,23.02795,0,15.93016-14.89221,24.41562-32.03378,24.41562-11.6007,0-24.0687-4.1546-29.08919-9.17649a13.38682,13.38682,0,0,1-4.32946-10.21724,9.97856,9.97856,0,0,1,10.04378-10.21444c5.194,0,10.21584,3.46356,10.21584,10.041a19.01216,19.01216,0,0,1-.34692,3.11665,37.90236,37.90236,0,0,0,13.67941,2.42561c7.61816,0,13.85146-2.59627,13.85146-8.13853,0-3.81049-3.29011-6.05984-14.89081-9.17649-20.95065-5.54227-29.78163-10.56416-29.78163-23.54833,0-11.77556,9.69547-24.0687,30.99444-24.0687,9.17649,0,20.25822,3.46356,25.45216,8.65611a13.38894,13.38894,0,0,1,4.156,9.69687C1290.54845,475.8207,1286.73937,479.9781,1281.19851,479.9781Z"></path><path class="b" d="M1344.56244,504.39091c0-8.13574,4.84844-13.50454,11.94763-13.50454,7.61956,0,12.46659,5.71292,12.46659,11.25519a14.58427,14.58427,0,0,1-1.55832,6.92433c4.156,2.946,10.56275,4.84843,18.00886,4.84843,12.46659,0,20.43168-5.53947,20.43168-15.40979,0-9.34995-9.52341-13.85146-20.95206-17.8354-21.12411-7.61816-36.01492-14.37184-36.01492-35.49455,0-18.18232,14.71736-32.3807,37.74671-32.3807,21.29757,0,37.7467,10.90828,37.7467,24.58908,0,8.13854-5.02049,12.81351-11.6007,12.81351-7.96508,0-12.4666-5.88918-12.4666-11.6021a10.21942,10.21942,0,0,1,1.21141-5.36881c-3.11665-1.90244-7.96508-3.46077-15.06427-3.46077-11.25379,0-17.834,5.71293-17.834,14.02492,0,9.34995,9.5234,13.50455,20.95065,17.66195,20.43307,7.27125,35.84286,14.369,35.84286,35.49455,0,21.64308-16.796,33.939-40.17092,33.939C1362.74336,530.88523,1344.56244,518.24518,1344.56244,504.39091Z"></path><path class="b" d="M1438.57949,490.88637c0-20.7786,15.58325-39.305,40.34438-39.305,25.10666,0,40.34438,18.17952,40.34438,39.305,0,20.77859-15.58464,39.305-40.34438,39.305C1453.81582,530.1914,1438.57949,512.01188,1438.57949,490.88637Zm61.295,0c0-13.85147-8.65752-23.54833-20.95066-23.54833-12.29453,0-20.95205,9.69686-20.95205,23.54833s8.65752,23.54832,20.95205,23.54832C1491.217,514.43469,1499.87453,504.73783,1499.87453,490.88637Z"></path><path class="b" d="M1529.65056,513.22329h11.77416V417.98923h-11.77416V402.05907h30.64891V513.22329h11.25379v15.58324h-41.9027Z"></path><path class="b" d="M1592.33045,520.14762a29.20776,29.20776,0,0,1-3.80908-15.23633V468.89637h-11.25519V452.9662h30.12854v47.27011a16.85944,16.85944,0,0,0,1.55833,7.79163c1.73178,3.2901,4.84843,5.02189,9.35135,5.02189,6.57881,0,13.50594-3.81048,19.56578-8.82958V468.89637H1626.096V452.9662h30.64751v60.25709h11.25519v15.58324h-29.43611V516.68685c-7.27264,7.09779-15.40978,13.50455-26.49151,13.50455C1602.89321,530.1914,1596.14094,526.38371,1592.33045,520.14762Z"></path><path class="b" d="M1691.368,519.8035q-2.59769-4.675-2.59768-11.949V468.89637H1674.053V452.9662h14.71735V437.036l18.7013-8.13854v24.0687H1730.501v15.93017h-23.02935v35.32388a10.51663,10.51663,0,0,0,1.2114,5.53947c1.38627,2.42562,4.156,3.637,7.96508,3.637,4.84844,0,10.3893-1.90524,14.89082-3.98394l-1.55833,16.27708a40.29967,40.29967,0,0,1-18.18092,4.50152C1702.62318,530.1914,1695.17708,527.07475,1691.368,519.8035Z"></path><path class="b" d="M1741.92262,513.22329h11.6007V468.89637h-11.6007V452.9662h30.47545v60.25709h11.25379v15.58324h-41.72924Zm6.58021-84.32579c0-6.92713,6.05984-12.46659,12.81351-12.46659a12.525,12.525,0,0,1,12.4666,12.46659c0,6.92713-6.06124,12.4666-12.81351,12.4666A12.52409,12.52409,0,0,1,1748.50283,428.8975Z"></path><path class="b" d="M1795.07771,490.88637c0-20.7786,15.58325-39.305,40.34438-39.305,25.10665,0,40.34438,18.17952,40.34438,39.305,0,20.77859-15.58464,39.305-40.34438,39.305C1810.314,530.1914,1795.07771,512.01188,1795.07771,490.88637Zm61.295,0c0-13.85147-8.65751-23.54833-20.95065-23.54833-12.29454,0-20.95205,9.69686-20.95205,23.54833s8.65751,23.54832,20.95205,23.54832C1847.71523,514.43469,1856.37274,504.73783,1856.37274,490.88637Z"></path><path class="b" d="M1916.45077,465.08588c7.27265-7.09779,15.41119-13.50454,26.49292-13.50454,9.003,0,15.58324,3.63422,19.56578,9.69686,2.59768,4.1546,3.98255,9.34995,3.98255,15.58325v36.36184h11.25518v15.58324h-40.51783V513.22329h10.38929V481.53642a16.85941,16.85941,0,0,0-1.55832-7.79162c-1.73178-3.29011-4.84843-5.02189-9.35135-5.02189-6.57881,0-13.50594,3.81048-19.56578,8.82957v35.67081h10.38929v15.58324h-40.51784V513.22329h11.25519V468.89637h-11.25519V452.9662h29.43611Z"></path><path class="b" d="M2040.25224,479.9781c-6.05984,0-10.21583-3.637-10.21583-9.34995a10.14318,10.14318,0,0,1,.34551-3.29011,30.37428,30.37428,0,0,0-10.73481-1.90524c-8.48406,0-12.64006,3.81048-12.64006,7.79162,0,4.32806,4.32946,6.58022,15.93017,9.69687,18.18092,4.84843,28.74367,9.34994,28.74367,23.02795,0,15.93016-14.89221,24.41562-32.03378,24.41562-11.60071,0-24.0687-4.1546-29.08919-9.17649a13.38682,13.38682,0,0,1-4.32946-10.21724,9.97856,9.97856,0,0,1,10.04378-10.21444c5.194,0,10.21584,3.46356,10.21584,10.041a19.01216,19.01216,0,0,1-.34692,3.11665,37.90236,37.90236,0,0,0,13.67941,2.42561c7.61816,0,13.85146-2.59627,13.85146-8.13853,0-3.81049-3.29011-6.05984-14.89081-9.17649-20.95065-5.54227-29.78163-10.56416-29.78163-23.54833,0-11.77556,9.69687-24.0687,30.99444-24.0687,9.17648,0,20.25821,3.46356,25.45216,8.65611a13.38894,13.38894,0,0,1,4.156,9.69687C2049.60219,475.8207,2045.79311,479.9781,2040.25224,479.9781Z"></path><path class="b" d="M2115.56241,519.8035q-2.59768-4.675-2.59768-11.949V468.89637h-14.71735V452.9662h14.71735V437.036l18.7013-8.13854v24.0687h23.02935v15.93017H2131.666v35.32388a10.51663,10.51663,0,0,0,1.2114,5.53947c1.38627,2.42562,4.156,3.637,7.96508,3.637,4.84844,0,10.3893-1.90524,14.89082-3.98394l-1.55833,16.27708a40.29967,40.29967,0,0,1-18.18092,4.50152C2126.81759,530.1914,2119.37149,527.07475,2115.56241,519.8035Z"></path><path class="b" d="M2164.735,490.88637c0-20.7786,15.58325-39.305,40.34438-39.305,25.10665,0,40.34438,18.17952,40.34438,39.305,0,20.77859-15.58465,39.305-40.34438,39.305C2179.97129,530.1914,2164.735,512.01188,2164.735,490.88637Zm61.295,0c0-13.85147-8.65751-23.54833-20.95065-23.54833-12.29454,0-20.952,9.69686-20.952,23.54833s8.65751,23.54832,20.952,23.54832C2217.37248,514.43469,2226.03,504.73783,2226.03,490.88637Z"></path><path class="b" d="M2295.80069,511.318h12.98557v-78.957h-12.98557V414.87258h45.88524c24.41422,0,43.11411,14.02492,43.11411,37.22633,0,26.1474-18.52643,38.96092-45.36487,38.96092-5.3674,0-8.65751,0-11.08173-.17346V511.318h14.19838v17.48849h-46.75113Zm68.74113-59.21913c0-11.94622-9.86892-19.73784-23.89524-19.73784h-12.29314v41.21027c2.0773.17346,4.84844.34692,12.81352.34692C2355.88431,473.91826,2364.54182,465.60626,2364.54182,452.09891Z"></path><path class="b" d="M2393.80028,490.88637c0-20.7786,15.58324-39.305,40.34578-39.305,25.10665,0,40.343,18.17952,40.343,39.305,0,20.77859-15.58325,39.305-40.343,39.305C2409.0394,530.1914,2393.80028,512.01188,2393.80028,490.88637Zm61.29783,0c0-13.85147-8.65892-23.54833-20.952-23.54833s-20.95206,9.69686-20.95206,23.54833,8.65892,23.54832,20.95206,23.54832S2455.09811,504.73783,2455.09811,490.88637Z"></path><path class="b" d="M2487.64387,468.89637h-8.83237V452.9662H2517.599v15.06288h-10.90827l18.17952,39.47848,18.18232-39.47848h-11.42865V452.9662h38.614v15.93017h-8.83237l-30.12854,61.295h-13.50455Z"></path><path class="b" d="M2594.30377,497.29312c2.59628,11.77277,12.29314,16.96812,24.93319,16.96812,9.17649,0,18.6999-2.9432,27.53227-7.96508l-1.55832,16.96811c-7.96509,4.67777-17.66195,6.92713-28.74368,6.92713-24.76253,0-41.9041-15.58325-41.9041-39.13157,0-21.47243,15.06567-39.47849,38.44054-39.47849,24.24215,0,36.88221,16.27708,36.88221,36.36184a53.49341,53.49341,0,0,1-.86729,9.34994Zm-.17346-13.16042h36.88222c-.34692-10.3879-7.10059-17.315-18.18232-17.315C2604.51821,466.81767,2596.209,471.6661,2594.13031,484.1327Z"></path><path class="b" d="M2728.14343,464.04793c0,6.40676-5.02189,11.77277-11.25519,11.77277a11.82986,11.82986,0,0,1-11.08173-6.75088c-5.36881,1.90524-11.6021,7.79163-15.06287,14.37184v29.78163h13.15763v15.58324H2660.6151V513.22329h11.25239V468.89637H2660.6151V452.9662h29.43471v17.14157c6.40675-10.21444,14.37183-18.52643,24.0687-18.52643C2723.46845,451.58134,2728.14343,457.29426,2728.14343,464.04793Z"></path><path class="b" d="M2749.4368,519.8035q-2.59767-4.675-2.59627-11.949V468.89637h-14.71876V452.9662h14.71876V437.036l18.69989-8.13854v24.0687h23.028v15.93017h-23.028v35.32388a10.53,10.53,0,0,0,1.21141,5.53947c1.38486,2.42562,4.1574,3.637,7.96508,3.637,4.84843,0,10.39069-1.90524,14.89221-3.98394l-1.55832,16.27708a40.31037,40.31037,0,0,1-18.18232,4.50152C2760.692,530.1914,2753.24728,527.07475,2749.4368,519.8035Z"></path><path class="b" d="M2813.32811,563.26313c-10.04378,0-16.27708-5.88638-16.27708-11.94622,0-6.40676,4.33085-9.69687,9.34995-9.69687a8.6684,8.6684,0,0,1,8.312,5.71293,11.22623,11.22623,0,0,0,6.05984-4.50152,35.12007,35.12007,0,0,0,3.46357-5.88638l5.71292-11.949-27.00909-56.09968h-9.35275V452.9662h39.13437v15.06288H2821.6401l17.48849,39.99886,17.66194-39.99886H2845.015V452.9662h38.95812v15.93017h-9.17649l-35.49455,75.32a43.85237,43.85237,0,0,1-5.88918,9.17649C2827.8734,559.79956,2820.94627,563.26313,2813.32811,563.26313Z"></path></g></g><path class="c" d="M2965.9489,425.381a34.93337,34.93337,0,0,1,16.75459,4.40316,31.3,31.3,0,0,1,12.73529,12.59981,34.23484,34.23484,0,0,1,.06774,34.02852,31.679,31.679,0,0,1-12.59981,12.6224,34.245,34.245,0,0,1-33.91562,0,31.81772,31.81772,0,0,1-12.62239-12.6224,34.0874,34.0874,0,0,1,.06774-34.02852,31.43424,31.43424,0,0,1,12.75787-12.59981A34.92966,34.92966,0,0,1,2965.9489,425.381Zm0,5.64508a29.00932,29.00932,0,0,0-13.97721,3.68059,26.39725,26.39725,0,0,0-10.63533,10.52242,28.32826,28.32826,0,0,0-.06774,28.36087,26.74518,26.74518,0,0,0,10.545,10.52242,28.37851,28.37851,0,0,0,28.27054,0A26.6005,26.6005,0,0,0,2990.60659,473.59a28.47474,28.47474,0,0,0-.06774-28.36087,26.22819,26.22819,0,0,0-10.63532-10.52242A29.05514,29.05514,0,0,0,2965.9489,431.02608Zm-14.94817,47.28316V441.63882h12.59982q6.458,0,9.34824,1.01612a9.06581,9.06581,0,0,1,4.60639,3.5451,9.40785,9.40785,0,0,1,1.7161,5.37412,9.768,9.768,0,0,1-2.8677,6.99989,11.33677,11.33677,0,0,1-7.60956,3.34189,10.06365,10.06365,0,0,1,3.11608,1.9419,41.99317,41.99317,0,0,1,5.41927,7.27086l4.4709,7.18054h-7.2257l-3.25156-5.78056q-3.83865-6.81831-6.187-8.53535a7.61235,7.61235,0,0,0-4.74187-1.2645h-3.47737v15.58041Zm5.916-20.6384h7.18054q5.14831,0,7.02248-1.53546a5.26577,5.26577,0,0,0,.97095-6.97732,5.39566,5.39566,0,0,0-2.50641-1.91932,18.5979,18.5979,0,0,0-5.93862-.63225h-6.72894Z"></path></g></svg> 